<?xml version="1.0" encoding="UTF-8" standalone="no"?>
<!-- Created with Inkscape (http://www.inkscape.org/) -->

<svg
   width="100.41846mm"
   height="77.21785mm"
   viewBox="0 0 100.41846 77.21785"
   version="1.1"
   id="svg5"
   inkscape:version="1.1 (c4e8f9ed74, 2021-05-24)"
   sodipodi:docname="Crenulation_cleavage.svg"
   xmlns:inkscape="http://www.inkscape.org/namespaces/inkscape"
   xmlns:sodipodi="http://sodipodi.sourceforge.net/DTD/sodipodi-0.dtd"
   xmlns="http://www.w3.org/2000/svg"
   xmlns:svg="http://www.w3.org/2000/svg">
  <sodipodi:namedview
     id="namedview7"
     pagecolor="#ffffff"
     bordercolor="#cccccc"
     borderopacity="1"
     inkscape:pageshadow="0"
     inkscape:pageopacity="1"
     inkscape:pagecheckerboard="0"
     inkscape:document-units="mm"
     showgrid="false"
     inkscape:snap-nodes="false"
     inkscape:snap-others="false"
     inkscape:zoom="0.27496365"
     inkscape:cx="-691.00043"
     inkscape:cy="-236.39488"
     inkscape:window-width="1920"
     inkscape:window-height="1043"
     inkscape:window-x="0"
     inkscape:window-y="0"
     inkscape:window-maximized="1"
     inkscape:current-layer="layer1"
     fit-margin-top="10"
     fit-margin-left="10"
     fit-margin-right="10"
     fit-margin-bottom="10" />
  <defs
     id="defs2">
    <marker
       style="overflow:visible"
       id="Arrow1Lend"
       refX="0"
       refY="0"
       orient="auto"
       inkscape:stockid="Arrow1Lend"
       inkscape:isstock="true">
      <path
         transform="matrix(-0.8,0,0,-0.8,-10,0)"
         style="fill:context-stroke;fill-rule:evenodd;stroke:context-stroke;stroke-width:1pt"
         d="M 0,0 5,-5 -12.5,0 5,5 Z"
         id="path17104" />
    </marker>
    <marker
       style="overflow:visible"
       id="marker17371"
       refX="0"
       refY="0"
       orient="auto"
       inkscape:stockid="Arrow2Lend"
       inkscape:isstock="true">
      <path
         transform="matrix(-1.1,0,0,-1.1,-1.1,0)"
         d="M 8.7185878,4.0337352 -2.2072895,0.01601326 8.7185884,-4.0017078 c -1.7454984,2.3720609 -1.7354408,5.6174519 -6e-7,8.035443 z"
         style="fill:context-stroke;fill-rule:evenodd;stroke-width:0.625;stroke-linejoin:round"
         id="path17369" />
    </marker>
    <marker
       style="overflow:visible"
       id="Arrow2Lend"
       refX="0"
       refY="0"
       orient="auto"
       inkscape:stockid="Arrow2Lend"
       inkscape:isstock="true">
      <path
         transform="matrix(-1.1,0,0,-1.1,-1.1,0)"
         d="M 8.7185878,4.0337352 -2.2072895,0.01601326 8.7185884,-4.0017078 c -1.7454984,2.3720609 -1.7354408,5.6174519 -6e-7,8.035443 z"
         style="fill:context-stroke;fill-rule:evenodd;stroke-width:0.625;stroke-linejoin:round"
         id="path17122" />
    </marker>
    <inkscape:path-effect
       effect="rough_hatches"
       id="path-effect11231"
       is_visible="true"
       lpeversion="1"
       direction="108.41176,220.55374 , 38.013042,0"
       dist_rdm="0;1"
       growth="0"
       do_bend="false"
       bender="108.41176,225.55374 , 5,0"
       bottom_edge_variation="0;1"
       top_edge_variation="0;1"
       bottom_tgt_variation="0;1"
       top_tgt_variation="0;1"
       scale_bf="1"
       scale_bb="1"
       scale_tf="1"
       scale_tb="1"
       top_smth_variation="0;1"
       bottom_smth_variation="0;1"
       fat_output="false"
       stroke_width_top="1"
       stroke_width_bottom="1"
       front_thickness="1"
       back_thickness="0.25" />
    <inkscape:path-effect
       effect="rough_hatches"
       id="path-effect7911"
       is_visible="true"
       lpeversion="1"
       direction="94.932806,41.922538 , 37.648266,0"
       dist_rdm="50;2147483646"
       growth="0"
       do_bend="true"
       bender="94.932806,46.922538 , 5,0"
       bottom_edge_variation="2.1038298;1"
       top_edge_variation="2.1038298;1"
       bottom_tgt_variation="0;1"
       top_tgt_variation="0;1"
       scale_bf="1"
       scale_bb="1"
       scale_tf="1"
       scale_tb="1"
       top_smth_variation="2.7;1"
       bottom_smth_variation="0;1"
       fat_output="true"
       stroke_width_top="1"
       stroke_width_bottom="1"
       front_thickness="1"
       back_thickness="0.25" />
    <inkscape:path-effect
       effect="rough_hatches"
       id="path-effect7907"
       is_visible="true"
       lpeversion="1"
       direction="94.932806,41.922538 , 37.648266,0"
       dist_rdm="50;2147483646"
       growth="0"
       do_bend="true"
       bender="94.932806,46.922538 , 5,0"
       bottom_edge_variation="2.1038298;1"
       top_edge_variation="2.1038298;1"
       bottom_tgt_variation="0;1"
       top_tgt_variation="0;1"
       scale_bf="1"
       scale_bb="1"
       scale_tf="1"
       scale_tb="1"
       top_smth_variation="2.7;1"
       bottom_smth_variation="0;1"
       fat_output="true"
       stroke_width_top="1"
       stroke_width_bottom="1"
       front_thickness="1"
       back_thickness="0.25" />
    <inkscape:path-effect
       effect="rough_hatches"
       id="path-effect7903"
       is_visible="true"
       lpeversion="1"
       direction="94.932806,41.922538 , 37.648266,0"
       dist_rdm="50;2147483646"
       growth="0"
       do_bend="true"
       bender="94.932806,46.922538 , 5,0"
       bottom_edge_variation="2.1038298;1"
       top_edge_variation="2.1038298;1"
       bottom_tgt_variation="0;1"
       top_tgt_variation="0;1"
       scale_bf="1"
       scale_bb="1"
       scale_tf="1"
       scale_tb="1"
       top_smth_variation="2.7;1"
       bottom_smth_variation="0;1"
       fat_output="true"
       stroke_width_top="1"
       stroke_width_bottom="1"
       front_thickness="1"
       back_thickness="0.25" />
    <inkscape:path-effect
       effect="rough_hatches"
       id="path-effect7899"
       is_visible="true"
       lpeversion="1"
       direction="94.932806,41.922538 , 37.648266,0"
       dist_rdm="50;2147483646"
       growth="0"
       do_bend="true"
       bender="94.932806,46.922538 , 5,0"
       bottom_edge_variation="2.1038298;1"
       top_edge_variation="2.1038298;1"
       bottom_tgt_variation="0;1"
       top_tgt_variation="0;1"
       scale_bf="1"
       scale_bb="1"
       scale_tf="1"
       scale_tb="1"
       top_smth_variation="2.7;1"
       bottom_smth_variation="0;1"
       fat_output="true"
       stroke_width_top="1"
       stroke_width_bottom="1"
       front_thickness="1"
       back_thickness="0.25" />
    <inkscape:path-effect
       effect="rough_hatches"
       id="path-effect7895"
       is_visible="true"
       lpeversion="1"
       direction="94.932806,41.922538 , 37.648266,0"
       dist_rdm="50;2147483646"
       growth="0"
       do_bend="true"
       bender="94.932806,46.922538 , 5,0"
       bottom_edge_variation="2.1038298;1"
       top_edge_variation="2.1038298;1"
       bottom_tgt_variation="0;1"
       top_tgt_variation="0;1"
       scale_bf="1"
       scale_bb="1"
       scale_tf="1"
       scale_tb="1"
       top_smth_variation="2.7;1"
       bottom_smth_variation="0;1"
       fat_output="true"
       stroke_width_top="1"
       stroke_width_bottom="1"
       front_thickness="1"
       back_thickness="0.25" />
    <inkscape:path-effect
       effect="rough_hatches"
       id="path-effect4876"
       is_visible="true"
       lpeversion="1"
       direction="94.932806,41.922538 , 37.648266,0"
       dist_rdm="50;2147483646"
       growth="0"
       do_bend="true"
       bender="94.932806,46.922538 , 5,0"
       bottom_edge_variation="2.1038298;1"
       top_edge_variation="2.1038298;1"
       bottom_tgt_variation="0;1"
       top_tgt_variation="0;1"
       scale_bf="1"
       scale_bb="1"
       scale_tf="1"
       scale_tb="1"
       top_smth_variation="2.7;1"
       bottom_smth_variation="0;1"
       fat_output="true"
       stroke_width_top="1"
       stroke_width_bottom="1"
       front_thickness="1"
       back_thickness="0.25" />
    <inkscape:path-effect
       effect="rough_hatches"
       id="path-effect4870"
       is_visible="true"
       lpeversion="1"
       direction="94.932806,41.922538 , 37.648266,0"
       dist_rdm="50;2147483646"
       growth="0"
       do_bend="true"
       bender="94.932806,46.922538 , 5,0"
       bottom_edge_variation="2.1038298;1"
       top_edge_variation="2.1038298;1"
       bottom_tgt_variation="0;1"
       top_tgt_variation="0;1"
       scale_bf="1"
       scale_bb="1"
       scale_tf="1"
       scale_tb="1"
       top_smth_variation="2.7;1"
       bottom_smth_variation="0;1"
       fat_output="true"
       stroke_width_top="1"
       stroke_width_bottom="1"
       front_thickness="1"
       back_thickness="0.25" />
    <inkscape:path-effect
       effect="rough_hatches"
       id="path-effect4864"
       is_visible="true"
       lpeversion="1"
       direction="94.932806,41.922538 , 37.648266,0"
       dist_rdm="50;2147483646"
       growth="0"
       do_bend="true"
       bender="94.932806,46.922538 , 5,0"
       bottom_edge_variation="2.1038298;1"
       top_edge_variation="2.1038298;1"
       bottom_tgt_variation="0;1"
       top_tgt_variation="0;1"
       scale_bf="1"
       scale_bb="1"
       scale_tf="1"
       scale_tb="1"
       top_smth_variation="2.7;1"
       bottom_smth_variation="0;1"
       fat_output="true"
       stroke_width_top="1"
       stroke_width_bottom="1"
       front_thickness="1"
       back_thickness="0.25" />
    <inkscape:path-effect
       effect="rough_hatches"
       id="path-effect4858"
       is_visible="true"
       lpeversion="1"
       direction="94.932806,41.922538 , 37.648266,0"
       dist_rdm="50;2147483646"
       growth="0"
       do_bend="true"
       bender="94.932806,46.922538 , 5,0"
       bottom_edge_variation="2.1038298;1"
       top_edge_variation="2.1038298;1"
       bottom_tgt_variation="0;1"
       top_tgt_variation="0;1"
       scale_bf="1"
       scale_bb="1"
       scale_tf="1"
       scale_tb="1"
       top_smth_variation="2.7;1"
       bottom_smth_variation="0;1"
       fat_output="true"
       stroke_width_top="1"
       stroke_width_bottom="1"
       front_thickness="1"
       back_thickness="0.25" />
    <inkscape:path-effect
       effect="rough_hatches"
       id="path-effect4852"
       is_visible="true"
       lpeversion="1"
       direction="94.932806,41.922538 , 37.648266,0"
       dist_rdm="50;2147483646"
       growth="0"
       do_bend="true"
       bender="94.932806,46.922538 , 5,0"
       bottom_edge_variation="2.1038298;1"
       top_edge_variation="2.1038298;1"
       bottom_tgt_variation="0;1"
       top_tgt_variation="0;1"
       scale_bf="1"
       scale_bb="1"
       scale_tf="1"
       scale_tb="1"
       top_smth_variation="2.7;1"
       bottom_smth_variation="0;1"
       fat_output="true"
       stroke_width_top="1"
       stroke_width_bottom="1"
       front_thickness="1"
       back_thickness="0.25" />
    <inkscape:path-effect
       effect="rough_hatches"
       id="path-effect1290"
       is_visible="true"
       lpeversion="1"
       direction="94.932806,41.922538 , 37.648266,0"
       dist_rdm="50;2147483646"
       growth="0"
       do_bend="true"
       bender="94.932806,46.922538 , 5,0"
       bottom_edge_variation="2.1038298;1"
       top_edge_variation="2.1038298;1"
       bottom_tgt_variation="0;1"
       top_tgt_variation="0;1"
       scale_bf="1"
       scale_bb="1"
       scale_tf="1"
       scale_tb="1"
       top_smth_variation="2.7;1"
       bottom_smth_variation="0;1"
       fat_output="true"
       stroke_width_top="1"
       stroke_width_bottom="1"
       front_thickness="1"
       back_thickness="0.25" />
    <inkscape:path-effect
       effect="rough_hatches"
       id="path-effect1284"
       is_visible="true"
       lpeversion="1"
       direction="94.932806,41.922538 , 37.648266,0"
       dist_rdm="50;2147483646"
       growth="0"
       do_bend="true"
       bender="94.932806,46.922538 , 5,0"
       bottom_edge_variation="2.1038298;1"
       top_edge_variation="2.1038298;1"
       bottom_tgt_variation="0;1"
       top_tgt_variation="0;1"
       scale_bf="1"
       scale_bb="1"
       scale_tf="1"
       scale_tb="1"
       top_smth_variation="2.7;1"
       bottom_smth_variation="0;1"
       fat_output="true"
       stroke_width_top="1"
       stroke_width_bottom="1"
       front_thickness="1"
       back_thickness="0.25" />
    <inkscape:path-effect
       effect="rough_hatches"
       id="path-effect1278"
       is_visible="true"
       lpeversion="1"
       direction="94.932806,41.922538 , 37.648266,0"
       dist_rdm="50;2147483646"
       growth="0"
       do_bend="true"
       bender="94.932806,46.922538 , 5,0"
       bottom_edge_variation="2.1038298;1"
       top_edge_variation="2.1038298;1"
       bottom_tgt_variation="0;1"
       top_tgt_variation="0;1"
       scale_bf="1"
       scale_bb="1"
       scale_tf="1"
       scale_tb="1"
       top_smth_variation="2.7;1"
       bottom_smth_variation="0;1"
       fat_output="true"
       stroke_width_top="1"
       stroke_width_bottom="1"
       front_thickness="1"
       back_thickness="0.25" />
    <inkscape:path-effect
       effect="rough_hatches"
       id="path-effect1272"
       is_visible="true"
       lpeversion="1"
       direction="94.932806,41.922538 , 37.648266,0"
       dist_rdm="50;2147483646"
       growth="0"
       do_bend="true"
       bender="94.932806,46.922538 , 5,0"
       bottom_edge_variation="2.1038298;1"
       top_edge_variation="2.1038298;1"
       bottom_tgt_variation="0;1"
       top_tgt_variation="0;1"
       scale_bf="1"
       scale_bb="1"
       scale_tf="1"
       scale_tb="1"
       top_smth_variation="2.7;1"
       bottom_smth_variation="0;1"
       fat_output="true"
       stroke_width_top="1"
       stroke_width_bottom="1"
       front_thickness="1"
       back_thickness="0.25" />
    <inkscape:path-effect
       effect="rough_hatches"
       id="path-effect1144"
       is_visible="true"
       lpeversion="1"
       direction="94.932806,41.922538 , 37.648266,0"
       dist_rdm="50;2147483646"
       growth="0"
       do_bend="true"
       bender="94.932806,46.922538 , 5,0"
       bottom_edge_variation="2.1038298;1"
       top_edge_variation="2.1038298;1"
       bottom_tgt_variation="0;1"
       top_tgt_variation="0;1"
       scale_bf="1"
       scale_bb="1"
       scale_tf="1"
       scale_tb="1"
       top_smth_variation="2.7;1"
       bottom_smth_variation="0;1"
       fat_output="true"
       stroke_width_top="1"
       stroke_width_bottom="1"
       front_thickness="1"
       back_thickness="0.25" />
    <inkscape:path-effect
       effect="rough_hatches"
       id="path-effect939"
       is_visible="true"
       lpeversion="1"
       direction="100.2359,108.62355 , 36.807384,0"
       dist_rdm="75;1"
       growth="0"
       do_bend="true"
       bender="100.2359,113.62355 , 5,0"
       bottom_edge_variation="0;1"
       top_edge_variation="0;1"
       bottom_tgt_variation="0;1"
       top_tgt_variation="0;1"
       scale_bf="1"
       scale_bb="1"
       scale_tf="1"
       scale_tb="1"
       top_smth_variation="0;1"
       bottom_smth_variation="0;1"
       fat_output="true"
       stroke_width_top="1"
       stroke_width_bottom="1"
       front_thickness="1"
       back_thickness="0.25" />
    <filter
       inkscape:label="Chalk and Sponge"
       inkscape:menu="Distort"
       inkscape:menu-tooltip="Low turbulence gives sponge look and high turbulence chalk"
       width="1.0072433"
       height="1.4254673"
       y="-0.21273358"
       x="-0.0036187081"
       style="color-interpolation-filters:sRGB"
       id="filter1248">
      <feTurbulence
         baseFrequency="0.4"
         type="fractalNoise"
         seed="0"
         numOctaves="5"
         result="result1"
         id="feTurbulence1244" />
      <feDisplacementMap
         xChannelSelector="R"
         yChannelSelector="G"
         scale="30"
         in="SourceGraphic"
         in2="result1"
         id="feDisplacementMap1246" />
    </filter>
    <clipPath
       clipPathUnits="userSpaceOnUse"
       id="clipPath11750">
      <rect
         style="fill:none;stroke:#000000;stroke-width:0.835645;stroke-linejoin:round;stroke-miterlimit:4;stroke-dasharray:none"
         id="rect11752"
         width="110.03429"
         height="64.519363"
         x="-298.60486"
         y="8.1136074"
         transform="rotate(-90)" />
    </clipPath>
    <clipPath
       clipPathUnits="userSpaceOnUse"
       id="clipPath13689">
      <rect
         style="fill:none;stroke:#000000;stroke-width:0.895505;stroke-linejoin:round;stroke-miterlimit:4;stroke-dasharray:none"
         id="rect13691"
         width="110.00704"
         height="74.111839"
         x="-298.59122"
         y="14.221037"
         transform="rotate(-90)" />
    </clipPath>
  </defs>
  <g
     inkscape:label="Layer 1"
     inkscape:groupmode="layer"
     id="layer1"
     transform="translate(-58.55899,-182.29874)">
    <g
       id="g19148"
       transform="matrix(-0.44149117,0,0,1.0006785,105.2186,54.134779)"
       style="stroke-width:0.79613;stroke-miterlimit:4;stroke-dasharray:none">
      <g
         id="g18618"
         transform="matrix(0.77935335,0,0,0.23313989,-536.31772,156.36402)">
        <path
           style="color:#000000;fill:#000000;-inkscape-stroke:none"
           d="M 767.68164,-78.466797 767.04687,-38.5 l 1.8379,0.0293 0.63476,-39.966797 z"
           id="path18608" />
        <g
           id="g18616">
          <g
             id="g18614">
            <path
               style="color:#000000;fill:#000000;fill-rule:evenodd;stroke-width:1.46959pt;-inkscape-stroke:none"
               d="m 768.2574,-56.853284 -7.23037,-7.463715 6.93869,25.831323 7.75539,-25.59798 z"
               id="path18610" />
            <path
               style="color:#000000;fill:#000000;fill-rule:evenodd;-inkscape-stroke:none"
               d="m 759.09961,-67.714844 8.80859,32.794922 9.84766,-32.498047 -9.47656,9.179688 z m 3.85351,6.792969 5.28321,5.453125 0.70312,-0.681641 4.74805,-4.599609 -5.66602,18.697266 z"
               id="path18612" />
          </g>
        </g>
      </g>
      <g
         id="g18630"
         transform="matrix(0.77935335,0,0,0.23313989,-675.68493,156.36402)">
        <path
           style="color:#000000;fill:#000000;-inkscape-stroke:none"
           d="M 767.68164,-78.466797 767.04687,-38.5 l 1.8379,0.0293 0.63476,-39.966797 z"
           id="path18620" />
        <g
           id="g18628">
          <g
             id="g18626">
            <path
               style="color:#000000;fill:#000000;fill-rule:evenodd;stroke-width:1.46959pt;-inkscape-stroke:none"
               d="m 768.2574,-56.853284 -7.23037,-7.463715 6.93869,25.831323 7.75539,-25.59798 z"
               id="path18622" />
            <path
               style="color:#000000;fill:#000000;fill-rule:evenodd;-inkscape-stroke:none"
               d="m 759.09961,-67.714844 8.80859,32.794922 9.84766,-32.498047 -9.47656,9.179688 z m 3.85351,6.792969 5.28321,5.453125 0.70312,-0.681641 4.74805,-4.599609 -5.66602,18.697266 z"
               id="path18624" />
          </g>
        </g>
      </g>
      <g
         id="g18642"
         transform="matrix(0.77935335,0,0,0.23313989,-606.00133,156.36402)">
        <path
           style="color:#000000;fill:#000000;-inkscape-stroke:none"
           d="M 767.68164,-78.466797 767.04687,-38.5 l 1.8379,0.0293 0.63476,-39.966797 z"
           id="path18632" />
        <g
           id="g18640">
          <g
             id="g18638">
            <path
               style="color:#000000;fill:#000000;fill-rule:evenodd;stroke-width:1.46959pt;-inkscape-stroke:none"
               d="m 768.2574,-56.853284 -7.23037,-7.463715 6.93869,25.831323 7.75539,-25.59798 z"
               id="path18634" />
            <path
               style="color:#000000;fill:#000000;fill-rule:evenodd;-inkscape-stroke:none"
               d="m 759.09961,-67.714844 8.80859,32.794922 9.84766,-32.498047 -9.47656,9.179688 z m 3.85351,6.792969 5.28321,5.453125 0.70312,-0.681641 4.74805,-4.599609 -5.66602,18.697266 z"
               id="path18636" />
          </g>
        </g>
      </g>
      <g
         id="g18770"
         transform="matrix(0.77935335,0,0,0.23313989,-536.31772,156.36402)">
        <path
           style="color:#000000;fill:#000000;-inkscape-stroke:none"
           d="M 767.68164,-78.466797 767.04687,-38.5 l 1.8379,0.0293 0.63476,-39.966797 z"
           id="path18760" />
        <g
           id="g18768">
          <g
             id="g18766">
            <path
               style="color:#000000;fill:#000000;fill-rule:evenodd;stroke-width:1.46959pt;-inkscape-stroke:none"
               d="m 768.2574,-56.853284 -7.23037,-7.463715 6.93869,25.831323 7.75539,-25.59798 z"
               id="path18762" />
            <path
               style="color:#000000;fill:#000000;fill-rule:evenodd;-inkscape-stroke:none"
               d="m 759.09961,-67.714844 8.80859,32.794922 9.84766,-32.498047 -9.47656,9.179688 z m 3.85351,6.792969 5.28321,5.453125 0.70312,-0.681641 4.74805,-4.599609 -5.66602,18.697266 z"
               id="path18764" />
          </g>
        </g>
      </g>
      <g
         id="g18782"
         transform="matrix(0.77935335,0,0,0.23313989,-675.68493,156.36402)">
        <path
           style="color:#000000;fill:#000000;-inkscape-stroke:none"
           d="M 767.68164,-78.466797 767.04687,-38.5 l 1.8379,0.0293 0.63476,-39.966797 z"
           id="path18772" />
        <g
           id="g18780">
          <g
             id="g18778">
            <path
               style="color:#000000;fill:#000000;fill-rule:evenodd;stroke-width:1.46959pt;-inkscape-stroke:none"
               d="m 768.2574,-56.853284 -7.23037,-7.463715 6.93869,25.831323 7.75539,-25.59798 z"
               id="path18774" />
            <path
               style="color:#000000;fill:#000000;fill-rule:evenodd;-inkscape-stroke:none"
               d="m 759.09961,-67.714844 8.80859,32.794922 9.84766,-32.498047 -9.47656,9.179688 z m 3.85351,6.792969 5.28321,5.453125 0.70312,-0.681641 4.74805,-4.599609 -5.66602,18.697266 z"
               id="path18776" />
          </g>
        </g>
      </g>
      <g
         id="g18794"
         transform="matrix(0.77935335,0,0,0.23313989,-606.00133,156.36402)">
        <path
           style="color:#000000;fill:#000000;-inkscape-stroke:none"
           d="M 767.68164,-78.466797 767.04687,-38.5 l 1.8379,0.0293 0.63476,-39.966797 z"
           id="path18784" />
        <g
           id="g18792">
          <g
             id="g18790">
            <path
               style="color:#000000;fill:#000000;fill-rule:evenodd;stroke-width:1.46959pt;-inkscape-stroke:none"
               d="m 768.2574,-56.853284 -7.23037,-7.463715 6.93869,25.831323 7.75539,-25.59798 z"
               id="path18786" />
            <path
               style="color:#000000;fill:#000000;fill-rule:evenodd;-inkscape-stroke:none"
               d="m 759.09961,-67.714844 8.80859,32.794922 9.84766,-32.498047 -9.47656,9.179688 z m 3.85351,6.792969 5.28321,5.453125 0.70312,-0.681641 4.74805,-4.599609 -5.66602,18.697266 z"
               id="path18788" />
          </g>
        </g>
      </g>
    </g>
    <g
       id="g11644"
       transform="matrix(0,0.51977512,-0.77148143,0,296.83593,198.98109)"
       clip-path="url(#clipPath11750)">
      <path
         id="rect11229"
         d="m 212.15026,246.92234 c 0,0 0,-8.03684 -5.55382,-8.03684 -5.55383,0 -5.55383,8.03684 -11.10766,8.03684 -5.55383,0 -5.55383,-8.03684 -11.10767,-8.03684 -5.55382,0 -5.55382,8.03684 -11.10765,8.03684 -5.55383,0 -5.55383,-8.03684 -11.10765,-8.03684 -5.55384,0 -5.55384,8.03684 -11.10766,8.03684 -5.55384,0 -5.55384,-8.03684 -11.10767,-8.03684 -5.55382,0 -5.55382,8.03684 -11.10765,8.03684 -5.55383,0 -5.55383,-8.03684 -11.10767,-8.03684 -5.55383,0 -5.55383,8.03684 -11.10766,8.03684 -5.55382,0 -5.55382,-8.03684 -11.107651,-8.03684 -5.55383,0 -5.55383,8.03684 -11.10766,8.03684 -5.55383,0 -5.55383,-8.03684 -11.10766,-8.03684 -5.55382,0 -5.55382,8.03684 -11.10766,8.03684 -5.553827,0 -5.553827,-8.03684 -11.107657,-8.03684 -5.553829,0 -5.553829,8.03684 -11.107659,8.03684 -5.553828,0 -5.553828,-8.03684 -11.107658,-8.03684 -5.55383,0 -5.55383,8.03684 -11.107659,8.03684 -5.55383,0 -5.55383,-8.03684 -11.1076579,-8.03684 -5.553832,0 -5.553832,8.03684 -11.10766,8.03684 -5.5538291,0 -5.5538291,-8.03684 -5.5538291,-8.03684"
         style="fill:none;stroke:#000000;stroke-width:0.422334;stroke-linejoin:round;stroke-miterlimit:4;stroke-dasharray:none" />
      <path
         id="path11332"
         d="m 212.15026,245.1809 c 0,0 0,-8.03684 -5.55382,-8.03684 -5.55383,0 -5.55383,8.03684 -11.10766,8.03684 -5.55383,0 -5.55383,-8.03684 -11.10767,-8.03684 -5.55382,0 -5.55382,8.03684 -11.10765,8.03684 -5.55383,0 -5.55383,-8.03684 -11.10765,-8.03684 -5.55384,0 -5.55384,8.03684 -11.10766,8.03684 -5.55384,0 -5.55384,-8.03684 -11.10767,-8.03684 -5.55382,0 -5.55382,8.03684 -11.10765,8.03684 -5.55383,0 -5.55383,-8.03684 -11.10767,-8.03684 -5.55383,0 -5.55383,8.03684 -11.10766,8.03684 -5.55382,0 -5.55382,-8.03684 -11.107651,-8.03684 -5.55383,0 -5.55383,8.03684 -11.10766,8.03684 -5.55383,0 -5.55383,-8.03684 -11.10766,-8.03684 -5.55382,0 -5.55382,8.03684 -11.10766,8.03684 -5.553827,0 -5.553827,-8.03684 -11.107657,-8.03684 -5.553829,0 -5.553829,8.03684 -11.107659,8.03684 -5.553828,0 -5.553828,-8.03684 -11.107658,-8.03684 -5.55383,0 -5.55383,8.03684 -11.107659,8.03684 -5.55383,0 -5.55383,-8.03684 -11.1076579,-8.03684 -5.553832,0 -5.553832,8.03684 -11.10766,8.03684 -5.5538291,0 -5.5538291,-8.03684 -5.5538291,-8.03684"
         style="fill:none;stroke:#000000;stroke-width:0.422334;stroke-linejoin:round;stroke-miterlimit:4;stroke-dasharray:none" />
      <path
         id="path11334"
         d="m 212.15026,243.43945 c 0,0 0,-8.03684 -5.55382,-8.03684 -5.55383,0 -5.55383,8.03684 -11.10766,8.03684 -5.55383,0 -5.55383,-8.03684 -11.10767,-8.03684 -5.55382,0 -5.55382,8.03684 -11.10765,8.03684 -5.55383,0 -5.55383,-8.03684 -11.10765,-8.03684 -5.55384,0 -5.55384,8.03684 -11.10766,8.03684 -5.55384,0 -5.55384,-8.03684 -11.10767,-8.03684 -5.55382,0 -5.55382,8.03684 -11.10765,8.03684 -5.55383,0 -5.55383,-8.03684 -11.10767,-8.03684 -5.55383,0 -5.55383,8.03684 -11.10766,8.03684 -5.55382,0 -5.55382,-8.03684 -11.107651,-8.03684 -5.55383,0 -5.55383,8.03684 -11.10766,8.03684 -5.55383,0 -5.55383,-8.03684 -11.10766,-8.03684 -5.55382,0 -5.55382,8.03684 -11.10766,8.03684 -5.553827,0 -5.553827,-8.03684 -11.107657,-8.03684 -5.553829,0 -5.553829,8.03684 -11.107659,8.03684 -5.553828,0 -5.553828,-8.03684 -11.107658,-8.03684 -5.55383,0 -5.55383,8.03684 -11.107659,8.03684 -5.55383,0 -5.55383,-8.03684 -11.1076579,-8.03684 -5.553832,0 -5.553832,8.03684 -11.10766,8.03684 -5.5538291,0 -5.5538291,-8.03684 -5.5538291,-8.03684"
         style="fill:none;stroke:#000000;stroke-width:0.422334;stroke-linejoin:round;stroke-miterlimit:4;stroke-dasharray:none" />
      <path
         id="path11336"
         d="m 212.15026,241.698 c 0,0 0,-8.03684 -5.55382,-8.03684 -5.55383,0 -5.55383,8.03684 -11.10766,8.03684 -5.55383,0 -5.55383,-8.03684 -11.10767,-8.03684 -5.55382,0 -5.55382,8.03684 -11.10765,8.03684 -5.55383,0 -5.55383,-8.03684 -11.10765,-8.03684 -5.55384,0 -5.55384,8.03684 -11.10766,8.03684 -5.55384,0 -5.55384,-8.03684 -11.10767,-8.03684 -5.55382,0 -5.55382,8.03684 -11.10765,8.03684 -5.55383,0 -5.55383,-8.03684 -11.10767,-8.03684 -5.55383,0 -5.55383,8.03684 -11.10766,8.03684 -5.55382,0 -5.55382,-8.03684 -11.107651,-8.03684 -5.55383,0 -5.55383,8.03684 -11.10766,8.03684 -5.55383,0 -5.55383,-8.03684 -11.10766,-8.03684 -5.55382,0 -5.55382,8.03684 -11.10766,8.03684 -5.553827,0 -5.553827,-8.03684 -11.107657,-8.03684 -5.553829,0 -5.553829,8.03684 -11.107659,8.03684 -5.553828,0 -5.553828,-8.03684 -11.107658,-8.03684 -5.55383,0 -5.55383,8.03684 -11.107659,8.03684 -5.55383,0 -5.55383,-8.03684 -11.1076579,-8.03684 -5.553832,0 -5.553832,8.03684 -11.10766,8.03684 -5.5538291,0 -5.5538291,-8.03684 -5.5538291,-8.03684"
         style="fill:none;stroke:#000000;stroke-width:0.422334;stroke-linejoin:round;stroke-miterlimit:4;stroke-dasharray:none" />
      <path
         id="path11338"
         d="m 212.15026,239.95655 c 0,0 0,-8.03684 -5.55382,-8.03684 -5.55383,0 -5.55383,8.03684 -11.10766,8.03684 -5.55383,0 -5.55383,-8.03684 -11.10767,-8.03684 -5.55382,0 -5.55382,8.03684 -11.10765,8.03684 -5.55383,0 -5.55383,-8.03684 -11.10765,-8.03684 -5.55384,0 -5.55384,8.03684 -11.10766,8.03684 -5.55384,0 -5.55384,-8.03684 -11.10767,-8.03684 -5.55382,0 -5.55382,8.03684 -11.10765,8.03684 -5.55383,0 -5.55383,-8.03684 -11.10767,-8.03684 -5.55383,0 -5.55383,8.03684 -11.10766,8.03684 -5.55382,0 -5.55382,-8.03684 -11.107651,-8.03684 -5.55383,0 -5.55383,8.03684 -11.10766,8.03684 -5.55383,0 -5.55383,-8.03684 -11.10766,-8.03684 -5.55382,0 -5.55382,8.03684 -11.10766,8.03684 -5.553827,0 -5.553827,-8.03684 -11.107657,-8.03684 -5.553829,0 -5.553829,8.03684 -11.107659,8.03684 -5.553828,0 -5.553828,-8.03684 -11.107658,-8.03684 -5.55383,0 -5.55383,8.03684 -11.107659,8.03684 -5.55383,0 -5.55383,-8.03684 -11.1076579,-8.03684 -5.553832,0 -5.553832,8.03684 -11.10766,8.03684 -5.5538291,0 -5.5538291,-8.03684 -5.5538291,-8.03684"
         style="fill:none;stroke:#000000;stroke-width:0.422334;stroke-linejoin:round;stroke-miterlimit:4;stroke-dasharray:none" />
      <path
         id="path11340"
         d="m 212.15026,236.47366 c 0,0 0,-8.03684 -5.55382,-8.03684 -5.55383,0 -5.55383,8.03684 -11.10766,8.03684 -5.55383,0 -5.55383,-8.03684 -11.10767,-8.03684 -5.55382,0 -5.55382,8.03684 -11.10765,8.03684 -5.55383,0 -5.55383,-8.03684 -11.10765,-8.03684 -5.55384,0 -5.55384,8.03684 -11.10766,8.03684 -5.55384,0 -5.55384,-8.03684 -11.10767,-8.03684 -5.55382,0 -5.55382,8.03684 -11.10765,8.03684 -5.55383,0 -5.55383,-8.03684 -11.10767,-8.03684 -5.55383,0 -5.55383,8.03684 -11.10766,8.03684 -5.55382,0 -5.55382,-8.03684 -11.107651,-8.03684 -5.55383,0 -5.55383,8.03684 -11.10766,8.03684 -5.55383,0 -5.55383,-8.03684 -11.10766,-8.03684 -5.55382,0 -5.55382,8.03684 -11.10766,8.03684 -5.553827,0 -5.553827,-8.03684 -11.107657,-8.03684 -5.553829,0 -5.553829,8.03684 -11.107659,8.03684 -5.553828,0 -5.553828,-8.03684 -11.107658,-8.03684 -5.55383,0 -5.55383,8.03684 -11.107659,8.03684 -5.55383,0 -5.55383,-8.03684 -11.1076579,-8.03684 -5.553832,0 -5.553832,8.03684 -11.10766,8.03684 -5.5538291,0 -5.5538291,-8.03684 -5.5538291,-8.03684"
         style="fill:none;stroke:#000000;stroke-width:0.422334;stroke-linejoin:round;stroke-miterlimit:4;stroke-dasharray:none" />
      <path
         id="path11342"
         d="m 212.15026,238.21511 c 0,0 0,-8.03684 -5.55382,-8.03684 -5.55383,0 -5.55383,8.03684 -11.10766,8.03684 -5.55383,0 -5.55383,-8.03684 -11.10767,-8.03684 -5.55382,0 -5.55382,8.03684 -11.10765,8.03684 -5.55383,0 -5.55383,-8.03684 -11.10765,-8.03684 -5.55384,0 -5.55384,8.03684 -11.10766,8.03684 -5.55384,0 -5.55384,-8.03684 -11.10767,-8.03684 -5.55382,0 -5.55382,8.03684 -11.10765,8.03684 -5.55383,0 -5.55383,-8.03684 -11.10767,-8.03684 -5.55383,0 -5.55383,8.03684 -11.10766,8.03684 -5.55382,0 -5.55382,-8.03684 -11.107651,-8.03684 -5.55383,0 -5.55383,8.03684 -11.10766,8.03684 -5.55383,0 -5.55383,-8.03684 -11.10766,-8.03684 -5.55382,0 -5.55382,8.03684 -11.10766,8.03684 -5.553827,0 -5.553827,-8.03684 -11.107657,-8.03684 -5.553829,0 -5.553829,8.03684 -11.107659,8.03684 -5.553828,0 -5.553828,-8.03684 -11.107658,-8.03684 -5.55383,0 -5.55383,8.03684 -11.107659,8.03684 -5.55383,0 -5.55383,-8.03684 -11.1076579,-8.03684 -5.553832,0 -5.553832,8.03684 -11.10766,8.03684 -5.5538291,0 -5.5538291,-8.03684 -5.5538291,-8.03684"
         style="fill:none;stroke:#000000;stroke-width:0.422334;stroke-linejoin:round;stroke-miterlimit:4;stroke-dasharray:none" />
      <path
         id="path11490"
         d="m 212.15026,234.73221 c 0,0 0,-8.03684 -5.55382,-8.03684 -5.55383,0 -5.55383,8.03684 -11.10766,8.03684 -5.55383,0 -5.55383,-8.03684 -11.10767,-8.03684 -5.55382,0 -5.55382,8.03684 -11.10765,8.03684 -5.55383,0 -5.55383,-8.03684 -11.10765,-8.03684 -5.55384,0 -5.55384,8.03684 -11.10766,8.03684 -5.55384,0 -5.55384,-8.03684 -11.10767,-8.03684 -5.55382,0 -5.55382,8.03684 -11.10765,8.03684 -5.55383,0 -5.55383,-8.03684 -11.10767,-8.03684 -5.55383,0 -5.55383,8.03684 -11.10766,8.03684 -5.55382,0 -5.55382,-8.03684 -11.107651,-8.03684 -5.55383,0 -5.55383,8.03684 -11.10766,8.03684 -5.55383,0 -5.55383,-8.03684 -11.10766,-8.03684 -5.55382,0 -5.55382,8.03684 -11.10766,8.03684 -5.553827,0 -5.553827,-8.03684 -11.107657,-8.03684 -5.553829,0 -5.553829,8.03684 -11.107659,8.03684 -5.553828,0 -5.553828,-8.03684 -11.107658,-8.03684 -5.55383,0 -5.55383,8.03684 -11.107659,8.03684 -5.55383,0 -5.55383,-8.03684 -11.1076579,-8.03684 -5.553832,0 -5.553832,8.03684 -11.10766,8.03684 -5.5538291,0 -5.5538291,-8.03684 -5.5538291,-8.03684"
         style="fill:none;stroke:#000000;stroke-width:0.422334;stroke-linejoin:round;stroke-miterlimit:4;stroke-dasharray:none" />
      <path
         id="path11492"
         d="m 212.15026,232.99077 c 0,0 0,-8.03684 -5.55382,-8.03684 -5.55383,0 -5.55383,8.03684 -11.10766,8.03684 -5.55383,0 -5.55383,-8.03684 -11.10767,-8.03684 -5.55382,0 -5.55382,8.03684 -11.10765,8.03684 -5.55383,0 -5.55383,-8.03684 -11.10765,-8.03684 -5.55384,0 -5.55384,8.03684 -11.10766,8.03684 -5.55384,0 -5.55384,-8.03684 -11.10767,-8.03684 -5.55382,0 -5.55382,8.03684 -11.10765,8.03684 -5.55383,0 -5.55383,-8.03684 -11.10767,-8.03684 -5.55383,0 -5.55383,8.03684 -11.10766,8.03684 -5.55382,0 -5.55382,-8.03684 -11.107651,-8.03684 -5.55383,0 -5.55383,8.03684 -11.10766,8.03684 -5.55383,0 -5.55383,-8.03684 -11.10766,-8.03684 -5.55382,0 -5.55382,8.03684 -11.10766,8.03684 -5.553827,0 -5.553827,-8.03684 -11.107657,-8.03684 -5.553829,0 -5.553829,8.03684 -11.107659,8.03684 -5.553828,0 -5.553828,-8.03684 -11.107658,-8.03684 -5.55383,0 -5.55383,8.03684 -11.107659,8.03684 -5.55383,0 -5.55383,-8.03684 -11.1076579,-8.03684 -5.553832,0 -5.553832,8.03684 -11.10766,8.03684 -5.5538291,0 -5.5538291,-8.03684 -5.5538291,-8.03684"
         style="fill:none;stroke:#000000;stroke-width:0.422334;stroke-linejoin:round;stroke-miterlimit:4;stroke-dasharray:none" />
      <path
         id="path11494"
         d="m 212.15026,231.24932 c 0,0 0,-8.03684 -5.55382,-8.03684 -5.55383,0 -5.55383,8.03684 -11.10766,8.03684 -5.55383,0 -5.55383,-8.03684 -11.10767,-8.03684 -5.55382,0 -5.55382,8.03684 -11.10765,8.03684 -5.55383,0 -5.55383,-8.03684 -11.10765,-8.03684 -5.55384,0 -5.55384,8.03684 -11.10766,8.03684 -5.55384,0 -5.55384,-8.03684 -11.10767,-8.03684 -5.55382,0 -5.55382,8.03684 -11.10765,8.03684 -5.55383,0 -5.55383,-8.03684 -11.10767,-8.03684 -5.55383,0 -5.55383,8.03684 -11.10766,8.03684 -5.55382,0 -5.55382,-8.03684 -11.107651,-8.03684 -5.55383,0 -5.55383,8.03684 -11.10766,8.03684 -5.55383,0 -5.55383,-8.03684 -11.10766,-8.03684 -5.55382,0 -5.55382,8.03684 -11.10766,8.03684 -5.553827,0 -5.553827,-8.03684 -11.107657,-8.03684 -5.553829,0 -5.553829,8.03684 -11.107659,8.03684 -5.553828,0 -5.553828,-8.03684 -11.107658,-8.03684 -5.55383,0 -5.55383,8.03684 -11.107659,8.03684 -5.55383,0 -5.55383,-8.03684 -11.1076579,-8.03684 -5.553832,0 -5.553832,8.03684 -11.10766,8.03684 -5.5538291,0 -5.5538291,-8.03684 -5.5538291,-8.03684"
         style="fill:none;stroke:#000000;stroke-width:0.422334;stroke-linejoin:round;stroke-miterlimit:4;stroke-dasharray:none" />
      <path
         id="path11496"
         d="m 212.15026,229.50787 c 0,0 0,-8.03684 -5.55382,-8.03684 -5.55383,0 -5.55383,8.03684 -11.10766,8.03684 -5.55383,0 -5.55383,-8.03684 -11.10767,-8.03684 -5.55382,0 -5.55382,8.03684 -11.10765,8.03684 -5.55383,0 -5.55383,-8.03684 -11.10765,-8.03684 -5.55384,0 -5.55384,8.03684 -11.10766,8.03684 -5.55384,0 -5.55384,-8.03684 -11.10767,-8.03684 -5.55382,0 -5.55382,8.03684 -11.10765,8.03684 -5.55383,0 -5.55383,-8.03684 -11.10767,-8.03684 -5.55383,0 -5.55383,8.03684 -11.10766,8.03684 -5.55382,0 -5.55382,-8.03684 -11.107651,-8.03684 -5.55383,0 -5.55383,8.03684 -11.10766,8.03684 -5.55383,0 -5.55383,-8.03684 -11.10766,-8.03684 -5.55382,0 -5.55382,8.03684 -11.10766,8.03684 -5.553827,0 -5.553827,-8.03684 -11.107657,-8.03684 -5.553829,0 -5.553829,8.03684 -11.107659,8.03684 -5.553828,0 -5.553828,-8.03684 -11.107658,-8.03684 -5.55383,0 -5.55383,8.03684 -11.107659,8.03684 -5.55383,0 -5.55383,-8.03684 -11.1076579,-8.03684 -5.553832,0 -5.553832,8.03684 -11.10766,8.03684 -5.5538291,0 -5.5538291,-8.03684 -5.5538291,-8.03684"
         style="fill:none;stroke:#000000;stroke-width:0.422334;stroke-linejoin:round;stroke-miterlimit:4;stroke-dasharray:none" />
      <path
         id="path11498"
         d="m 212.15026,227.76642 c 0,0 0,-8.03684 -5.55382,-8.03684 -5.55383,0 -5.55383,8.03684 -11.10766,8.03684 -5.55383,0 -5.55383,-8.03684 -11.10767,-8.03684 -5.55382,0 -5.55382,8.03684 -11.10765,8.03684 -5.55383,0 -5.55383,-8.03684 -11.10765,-8.03684 -5.55384,0 -5.55384,8.03684 -11.10766,8.03684 -5.55384,0 -5.55384,-8.03684 -11.10767,-8.03684 -5.55382,0 -5.55382,8.03684 -11.10765,8.03684 -5.55383,0 -5.55383,-8.03684 -11.10767,-8.03684 -5.55383,0 -5.55383,8.03684 -11.10766,8.03684 -5.55382,0 -5.55382,-8.03684 -11.107651,-8.03684 -5.55383,0 -5.55383,8.03684 -11.10766,8.03684 -5.55383,0 -5.55383,-8.03684 -11.10766,-8.03684 -5.55382,0 -5.55382,8.03684 -11.10766,8.03684 -5.553827,0 -5.553827,-8.03684 -11.107657,-8.03684 -5.553829,0 -5.553829,8.03684 -11.107659,8.03684 -5.553828,0 -5.553828,-8.03684 -11.107658,-8.03684 -5.55383,0 -5.55383,8.03684 -11.107659,8.03684 -5.55383,0 -5.55383,-8.03684 -11.1076579,-8.03684 -5.553832,0 -5.553832,8.03684 -11.10766,8.03684 -5.5538291,0 -5.5538291,-8.03684 -5.5538291,-8.03684"
         style="fill:none;stroke:#000000;stroke-width:0.422334;stroke-linejoin:round;stroke-miterlimit:4;stroke-dasharray:none" />
      <path
         id="path11500"
         d="m 212.15026,224.28353 c 0,0 0,-8.03684 -5.55382,-8.03684 -5.55383,0 -5.55383,8.03684 -11.10766,8.03684 -5.55383,0 -5.55383,-8.03684 -11.10767,-8.03684 -5.55382,0 -5.55382,8.03684 -11.10765,8.03684 -5.55383,0 -5.55383,-8.03684 -11.10765,-8.03684 -5.55384,0 -5.55384,8.03684 -11.10766,8.03684 -5.55384,0 -5.55384,-8.03684 -11.10767,-8.03684 -5.55382,0 -5.55382,8.03684 -11.10765,8.03684 -5.55383,0 -5.55383,-8.03684 -11.10767,-8.03684 -5.55383,0 -5.55383,8.03684 -11.10766,8.03684 -5.55382,0 -5.55382,-8.03684 -11.107651,-8.03684 -5.55383,0 -5.55383,8.03684 -11.10766,8.03684 -5.55383,0 -5.55383,-8.03684 -11.10766,-8.03684 -5.55382,0 -5.55382,8.03684 -11.10766,8.03684 -5.553827,0 -5.553827,-8.03684 -11.107657,-8.03684 -5.553829,0 -5.553829,8.03684 -11.107659,8.03684 -5.553828,0 -5.553828,-8.03684 -11.107658,-8.03684 -5.55383,0 -5.55383,8.03684 -11.107659,8.03684 -5.55383,0 -5.55383,-8.03684 -11.1076579,-8.03684 -5.553832,0 -5.553832,8.03684 -11.10766,8.03684 -5.5538291,0 -5.5538291,-8.03684 -5.5538291,-8.03684"
         style="fill:none;stroke:#000000;stroke-width:0.422334;stroke-linejoin:round;stroke-miterlimit:4;stroke-dasharray:none" />
      <path
         id="path11502"
         d="m 212.15026,226.02498 c 0,0 0,-8.03684 -5.55382,-8.03684 -5.55383,0 -5.55383,8.03684 -11.10766,8.03684 -5.55383,0 -5.55383,-8.03684 -11.10767,-8.03684 -5.55382,0 -5.55382,8.03684 -11.10765,8.03684 -5.55383,0 -5.55383,-8.03684 -11.10765,-8.03684 -5.55384,0 -5.55384,8.03684 -11.10766,8.03684 -5.55384,0 -5.55384,-8.03684 -11.10767,-8.03684 -5.55382,0 -5.55382,8.03684 -11.10765,8.03684 -5.55383,0 -5.55383,-8.03684 -11.10767,-8.03684 -5.55383,0 -5.55383,8.03684 -11.10766,8.03684 -5.55382,0 -5.55382,-8.03684 -11.107651,-8.03684 -5.55383,0 -5.55383,8.03684 -11.10766,8.03684 -5.55383,0 -5.55383,-8.03684 -11.10766,-8.03684 -5.55382,0 -5.55382,8.03684 -11.10766,8.03684 -5.553827,0 -5.553827,-8.03684 -11.107657,-8.03684 -5.553829,0 -5.553829,8.03684 -11.107659,8.03684 -5.553828,0 -5.553828,-8.03684 -11.107658,-8.03684 -5.55383,0 -5.55383,8.03684 -11.107659,8.03684 -5.55383,0 -5.55383,-8.03684 -11.1076579,-8.03684 -5.553832,0 -5.553832,8.03684 -11.10766,8.03684 -5.5538291,0 -5.5538291,-8.03684 -5.5538291,-8.03684"
         style="fill:none;stroke:#000000;stroke-width:0.422334;stroke-linejoin:round;stroke-miterlimit:4;stroke-dasharray:none" />
      <path
         id="path11504"
         d="m 212.15026,222.54208 c 0,0 0,-8.03684 -5.55382,-8.03684 -5.55383,0 -5.55383,8.03684 -11.10766,8.03684 -5.55383,0 -5.55383,-8.03684 -11.10767,-8.03684 -5.55382,0 -5.55382,8.03684 -11.10765,8.03684 -5.55383,0 -5.55383,-8.03684 -11.10765,-8.03684 -5.55384,0 -5.55384,8.03684 -11.10766,8.03684 -5.55384,0 -5.55384,-8.03684 -11.10767,-8.03684 -5.55382,0 -5.55382,8.03684 -11.10765,8.03684 -5.55383,0 -5.55383,-8.03684 -11.10767,-8.03684 -5.55383,0 -5.55383,8.03684 -11.10766,8.03684 -5.55382,0 -5.55382,-8.03684 -11.107651,-8.03684 -5.55383,0 -5.55383,8.03684 -11.10766,8.03684 -5.55383,0 -5.55383,-8.03684 -11.10766,-8.03684 -5.55382,0 -5.55382,8.03684 -11.10766,8.03684 -5.553827,0 -5.553827,-8.03684 -11.107657,-8.03684 -5.553829,0 -5.553829,8.03684 -11.107659,8.03684 -5.553828,0 -5.553828,-8.03684 -11.107658,-8.03684 -5.55383,0 -5.55383,8.03684 -11.107659,8.03684 -5.55383,0 -5.55383,-8.03684 -11.1076579,-8.03684 -5.553832,0 -5.553832,8.03684 -11.10766,8.03684 -5.5538291,0 -5.5538291,-8.03684 -5.5538291,-8.03684"
         style="fill:none;stroke:#000000;stroke-width:0.422334;stroke-linejoin:round;stroke-miterlimit:4;stroke-dasharray:none" />
      <path
         id="path11506"
         d="m 212.15026,220.80063 c 0,0 0,-8.03684 -5.55382,-8.03684 -5.55383,0 -5.55383,8.03684 -11.10766,8.03684 -5.55383,0 -5.55383,-8.03684 -11.10767,-8.03684 -5.55382,0 -5.55382,8.03684 -11.10765,8.03684 -5.55383,0 -5.55383,-8.03684 -11.10765,-8.03684 -5.55384,0 -5.55384,8.03684 -11.10766,8.03684 -5.55384,0 -5.55384,-8.03684 -11.10767,-8.03684 -5.55382,0 -5.55382,8.03684 -11.10765,8.03684 -5.55383,0 -5.55383,-8.03684 -11.10767,-8.03684 -5.55383,0 -5.55383,8.03684 -11.10766,8.03684 -5.55382,0 -5.55382,-8.03684 -11.107651,-8.03684 -5.55383,0 -5.55383,8.03684 -11.10766,8.03684 -5.55383,0 -5.55383,-8.03684 -11.10766,-8.03684 -5.55382,0 -5.55382,8.03684 -11.10766,8.03684 -5.553827,0 -5.553827,-8.03684 -11.107657,-8.03684 -5.553829,0 -5.553829,8.03684 -11.107659,8.03684 -5.553828,0 -5.553828,-8.03684 -11.107658,-8.03684 -5.55383,0 -5.55383,8.03684 -11.107659,8.03684 -5.55383,0 -5.55383,-8.03684 -11.1076579,-8.03684 -5.553832,0 -5.553832,8.03684 -11.10766,8.03684 -5.5538291,0 -5.5538291,-8.03684 -5.5538291,-8.03684"
         style="fill:none;stroke:#000000;stroke-width:0.422334;stroke-linejoin:round;stroke-miterlimit:4;stroke-dasharray:none" />
      <path
         id="path11508"
         d="m 212.15026,219.05919 c 0,0 0,-8.03684 -5.55382,-8.03684 -5.55383,0 -5.55383,8.03684 -11.10766,8.03684 -5.55383,0 -5.55383,-8.03684 -11.10767,-8.03684 -5.55382,0 -5.55382,8.03684 -11.10765,8.03684 -5.55383,0 -5.55383,-8.03684 -11.10765,-8.03684 -5.55384,0 -5.55384,8.03684 -11.10766,8.03684 -5.55384,0 -5.55384,-8.03684 -11.10767,-8.03684 -5.55382,0 -5.55382,8.03684 -11.10765,8.03684 -5.55383,0 -5.55383,-8.03684 -11.10767,-8.03684 -5.55383,0 -5.55383,8.03684 -11.10766,8.03684 -5.55382,0 -5.55382,-8.03684 -11.107651,-8.03684 -5.55383,0 -5.55383,8.03684 -11.10766,8.03684 -5.55383,0 -5.55383,-8.03684 -11.10766,-8.03684 -5.55382,0 -5.55382,8.03684 -11.10766,8.03684 -5.553827,0 -5.553827,-8.03684 -11.107657,-8.03684 -5.553829,0 -5.553829,8.03684 -11.107659,8.03684 -5.553828,0 -5.553828,-8.03684 -11.107658,-8.03684 -5.55383,0 -5.55383,8.03684 -11.107659,8.03684 -5.55383,0 -5.55383,-8.03684 -11.1076579,-8.03684 -5.553832,0 -5.553832,8.03684 -11.10766,8.03684 -5.5538291,0 -5.5538291,-8.03684 -5.5538291,-8.03684"
         style="fill:none;stroke:#000000;stroke-width:0.422334;stroke-linejoin:round;stroke-miterlimit:4;stroke-dasharray:none" />
      <path
         id="path11510"
         d="m 212.15026,217.31774 c 0,0 0,-8.03684 -5.55382,-8.03684 -5.55383,0 -5.55383,8.03684 -11.10766,8.03684 -5.55383,0 -5.55383,-8.03684 -11.10767,-8.03684 -5.55382,0 -5.55382,8.03684 -11.10765,8.03684 -5.55383,0 -5.55383,-8.03684 -11.10765,-8.03684 -5.55384,0 -5.55384,8.03684 -11.10766,8.03684 -5.55384,0 -5.55384,-8.03684 -11.10767,-8.03684 -5.55382,0 -5.55382,8.03684 -11.10765,8.03684 -5.55383,0 -5.55383,-8.03684 -11.10767,-8.03684 -5.55383,0 -5.55383,8.03684 -11.10766,8.03684 -5.55382,0 -5.55382,-8.03684 -11.107651,-8.03684 -5.55383,0 -5.55383,8.03684 -11.10766,8.03684 -5.55383,0 -5.55383,-8.03684 -11.10766,-8.03684 -5.55382,0 -5.55382,8.03684 -11.10766,8.03684 -5.553827,0 -5.553827,-8.03684 -11.107657,-8.03684 -5.553829,0 -5.553829,8.03684 -11.107659,8.03684 -5.553828,0 -5.553828,-8.03684 -11.107658,-8.03684 -5.55383,0 -5.55383,8.03684 -11.107659,8.03684 -5.55383,0 -5.55383,-8.03684 -11.1076579,-8.03684 -5.553832,0 -5.553832,8.03684 -11.10766,8.03684 -5.5538291,0 -5.5538291,-8.03684 -5.5538291,-8.03684"
         style="fill:none;stroke:#000000;stroke-width:0.422334;stroke-linejoin:round;stroke-miterlimit:4;stroke-dasharray:none" />
      <path
         id="path11512"
         d="m 212.15026,215.57629 c 0,0 0,-8.03684 -5.55382,-8.03684 -5.55383,0 -5.55383,8.03684 -11.10766,8.03684 -5.55383,0 -5.55383,-8.03684 -11.10767,-8.03684 -5.55382,0 -5.55382,8.03684 -11.10765,8.03684 -5.55383,0 -5.55383,-8.03684 -11.10765,-8.03684 -5.55384,0 -5.55384,8.03684 -11.10766,8.03684 -5.55384,0 -5.55384,-8.03684 -11.10767,-8.03684 -5.55382,0 -5.55382,8.03684 -11.10765,8.03684 -5.55383,0 -5.55383,-8.03684 -11.10767,-8.03684 -5.55383,0 -5.55383,8.03684 -11.10766,8.03684 -5.55382,0 -5.55382,-8.03684 -11.107651,-8.03684 -5.55383,0 -5.55383,8.03684 -11.10766,8.03684 -5.55383,0 -5.55383,-8.03684 -11.10766,-8.03684 -5.55382,0 -5.55382,8.03684 -11.10766,8.03684 -5.553827,0 -5.553827,-8.03684 -11.107657,-8.03684 -5.553829,0 -5.553829,8.03684 -11.107659,8.03684 -5.553828,0 -5.553828,-8.03684 -11.107658,-8.03684 -5.55383,0 -5.55383,8.03684 -11.107659,8.03684 -5.55383,0 -5.55383,-8.03684 -11.1076579,-8.03684 -5.553832,0 -5.553832,8.03684 -11.10766,8.03684 -5.5538291,0 -5.5538291,-8.03684 -5.5538291,-8.03684"
         style="fill:none;stroke:#000000;stroke-width:0.422334;stroke-linejoin:round;stroke-miterlimit:4;stroke-dasharray:none" />
      <path
         id="path11514"
         d="m 212.15026,212.0934 c 0,0 0,-8.03684 -5.55382,-8.03684 -5.55383,0 -5.55383,8.03684 -11.10766,8.03684 -5.55383,0 -5.55383,-8.03684 -11.10767,-8.03684 -5.55382,0 -5.55382,8.03684 -11.10765,8.03684 -5.55383,0 -5.55383,-8.03684 -11.10765,-8.03684 -5.55384,0 -5.55384,8.03684 -11.10766,8.03684 -5.55384,0 -5.55384,-8.03684 -11.10767,-8.03684 -5.55382,0 -5.55382,8.03684 -11.10765,8.03684 -5.55383,0 -5.55383,-8.03684 -11.10767,-8.03684 -5.55383,0 -5.55383,8.03684 -11.10766,8.03684 -5.55382,0 -5.55382,-8.03684 -11.107651,-8.03684 -5.55383,0 -5.55383,8.03684 -11.10766,8.03684 -5.55383,0 -5.55383,-8.03684 -11.10766,-8.03684 -5.55382,0 -5.55382,8.03684 -11.10766,8.03684 -5.553827,0 -5.553827,-8.03684 -11.107657,-8.03684 -5.553829,0 -5.553829,8.03684 -11.107659,8.03684 -5.553828,0 -5.553828,-8.03684 -11.107658,-8.03684 -5.55383,0 -5.55383,8.03684 -11.107659,8.03684 -5.55383,0 -5.55383,-8.03684 -11.1076579,-8.03684 -5.553832,0 -5.553832,8.03684 -11.10766,8.03684 -5.5538291,0 -5.5538291,-8.03684 -5.5538291,-8.03684"
         style="fill:none;stroke:#000000;stroke-width:0.422334;stroke-linejoin:round;stroke-miterlimit:4;stroke-dasharray:none" />
      <path
         id="path11516"
         d="m 212.15026,213.83484 c 0,0 0,-8.03684 -5.55382,-8.03684 -5.55383,0 -5.55383,8.03684 -11.10766,8.03684 -5.55383,0 -5.55383,-8.03684 -11.10767,-8.03684 -5.55382,0 -5.55382,8.03684 -11.10765,8.03684 -5.55383,0 -5.55383,-8.03684 -11.10765,-8.03684 -5.55384,0 -5.55384,8.03684 -11.10766,8.03684 -5.55384,0 -5.55384,-8.03684 -11.10767,-8.03684 -5.55382,0 -5.55382,8.03684 -11.10765,8.03684 -5.55383,0 -5.55383,-8.03684 -11.10767,-8.03684 -5.55383,0 -5.55383,8.03684 -11.10766,8.03684 -5.55382,0 -5.55382,-8.03684 -11.107651,-8.03684 -5.55383,0 -5.55383,8.03684 -11.10766,8.03684 -5.55383,0 -5.55383,-8.03684 -11.10766,-8.03684 -5.55382,0 -5.55382,8.03684 -11.10766,8.03684 -5.553827,0 -5.553827,-8.03684 -11.107657,-8.03684 -5.553829,0 -5.553829,8.03684 -11.107659,8.03684 -5.553828,0 -5.553828,-8.03684 -11.107658,-8.03684 -5.55383,0 -5.55383,8.03684 -11.107659,8.03684 -5.55383,0 -5.55383,-8.03684 -11.1076579,-8.03684 -5.553832,0 -5.553832,8.03684 -11.10766,8.03684 -5.5538291,0 -5.5538291,-8.03684 -5.5538291,-8.03684"
         style="fill:none;stroke:#000000;stroke-width:0.422334;stroke-linejoin:round;stroke-miterlimit:4;stroke-dasharray:none" />
      <path
         id="path11518"
         d="m 212.15026,210.35195 c 0,0 0,-8.03684 -5.55382,-8.03684 -5.55383,0 -5.55383,8.03684 -11.10766,8.03684 -5.55383,0 -5.55383,-8.03684 -11.10767,-8.03684 -5.55382,0 -5.55382,8.03684 -11.10765,8.03684 -5.55383,0 -5.55383,-8.03684 -11.10765,-8.03684 -5.55384,0 -5.55384,8.03684 -11.10766,8.03684 -5.55384,0 -5.55384,-8.03684 -11.10767,-8.03684 -5.55382,0 -5.55382,8.03684 -11.10765,8.03684 -5.55383,0 -5.55383,-8.03684 -11.10767,-8.03684 -5.55383,0 -5.55383,8.03684 -11.10766,8.03684 -5.55382,0 -5.55382,-8.03684 -11.107651,-8.03684 -5.55383,0 -5.55383,8.03684 -11.10766,8.03684 -5.55383,0 -5.55383,-8.03684 -11.10766,-8.03684 -5.55382,0 -5.55382,8.03684 -11.10766,8.03684 -5.553827,0 -5.553827,-8.03684 -11.107657,-8.03684 -5.553829,0 -5.553829,8.03684 -11.107659,8.03684 -5.553828,0 -5.553828,-8.03684 -11.107658,-8.03684 -5.55383,0 -5.55383,8.03684 -11.107659,8.03684 -5.55383,0 -5.55383,-8.03684 -11.1076579,-8.03684 -5.553832,0 -5.553832,8.03684 -11.10766,8.03684 -5.5538291,0 -5.5538291,-8.03684 -5.5538291,-8.03684"
         style="fill:none;stroke:#000000;stroke-width:0.422334;stroke-linejoin:round;stroke-miterlimit:4;stroke-dasharray:none" />
      <path
         id="path11520"
         d="m 212.15026,208.6105 c 0,0 0,-8.03684 -5.55382,-8.03684 -5.55383,0 -5.55383,8.03684 -11.10766,8.03684 -5.55383,0 -5.55383,-8.03684 -11.10767,-8.03684 -5.55382,0 -5.55382,8.03684 -11.10765,8.03684 -5.55383,0 -5.55383,-8.03684 -11.10765,-8.03684 -5.55384,0 -5.55384,8.03684 -11.10766,8.03684 -5.55384,0 -5.55384,-8.03684 -11.10767,-8.03684 -5.55382,0 -5.55382,8.03684 -11.10765,8.03684 -5.55383,0 -5.55383,-8.03684 -11.10767,-8.03684 -5.55383,0 -5.55383,8.03684 -11.10766,8.03684 -5.55382,0 -5.55382,-8.03684 -11.107651,-8.03684 -5.55383,0 -5.55383,8.03684 -11.10766,8.03684 -5.55383,0 -5.55383,-8.03684 -11.10766,-8.03684 -5.55382,0 -5.55382,8.03684 -11.10766,8.03684 -5.553827,0 -5.553827,-8.03684 -11.107657,-8.03684 -5.553829,0 -5.553829,8.03684 -11.107659,8.03684 -5.553828,0 -5.553828,-8.03684 -11.107658,-8.03684 -5.55383,0 -5.55383,8.03684 -11.107659,8.03684 -5.55383,0 -5.55383,-8.03684 -11.1076579,-8.03684 -5.553832,0 -5.553832,8.03684 -11.10766,8.03684 -5.5538291,0 -5.5538291,-8.03684 -5.5538291,-8.03684"
         style="fill:none;stroke:#000000;stroke-width:0.422334;stroke-linejoin:round;stroke-miterlimit:4;stroke-dasharray:none" />
      <path
         id="path11522"
         d="m 212.15026,206.86906 c 0,0 0,-8.03684 -5.55382,-8.03684 -5.55383,0 -5.55383,8.03684 -11.10766,8.03684 -5.55383,0 -5.55383,-8.03684 -11.10767,-8.03684 -5.55382,0 -5.55382,8.03684 -11.10765,8.03684 -5.55383,0 -5.55383,-8.03684 -11.10765,-8.03684 -5.55384,0 -5.55384,8.03684 -11.10766,8.03684 -5.55384,0 -5.55384,-8.03684 -11.10767,-8.03684 -5.55382,0 -5.55382,8.03684 -11.10765,8.03684 -5.55383,0 -5.55383,-8.03684 -11.10767,-8.03684 -5.55383,0 -5.55383,8.03684 -11.10766,8.03684 -5.55382,0 -5.55382,-8.03684 -11.107651,-8.03684 -5.55383,0 -5.55383,8.03684 -11.10766,8.03684 -5.55383,0 -5.55383,-8.03684 -11.10766,-8.03684 -5.55382,0 -5.55382,8.03684 -11.10766,8.03684 -5.553827,0 -5.553827,-8.03684 -11.107657,-8.03684 -5.553829,0 -5.553829,8.03684 -11.107659,8.03684 -5.553828,0 -5.553828,-8.03684 -11.107658,-8.03684 -5.55383,0 -5.55383,8.03684 -11.107659,8.03684 -5.55383,0 -5.55383,-8.03684 -11.1076579,-8.03684 -5.553832,0 -5.553832,8.03684 -11.10766,8.03684 -5.5538291,0 -5.5538291,-8.03684 -5.5538291,-8.03684"
         style="fill:none;stroke:#000000;stroke-width:0.422334;stroke-linejoin:round;stroke-miterlimit:4;stroke-dasharray:none" />
      <path
         id="path11524"
         d="m 212.15026,205.12761 c 0,0 0,-8.03684 -5.55382,-8.03684 -5.55383,0 -5.55383,8.03684 -11.10766,8.03684 -5.55383,0 -5.55383,-8.03684 -11.10767,-8.03684 -5.55382,0 -5.55382,8.03684 -11.10765,8.03684 -5.55383,0 -5.55383,-8.03684 -11.10765,-8.03684 -5.55384,0 -5.55384,8.03684 -11.10766,8.03684 -5.55384,0 -5.55384,-8.03684 -11.10767,-8.03684 -5.55382,0 -5.55382,8.03684 -11.10765,8.03684 -5.55383,0 -5.55383,-8.03684 -11.10767,-8.03684 -5.55383,0 -5.55383,8.03684 -11.10766,8.03684 -5.55382,0 -5.55382,-8.03684 -11.107651,-8.03684 -5.55383,0 -5.55383,8.03684 -11.10766,8.03684 -5.55383,0 -5.55383,-8.03684 -11.10766,-8.03684 -5.55382,0 -5.55382,8.03684 -11.10766,8.03684 -5.553827,0 -5.553827,-8.03684 -11.107657,-8.03684 -5.553829,0 -5.553829,8.03684 -11.107659,8.03684 -5.553828,0 -5.553828,-8.03684 -11.107658,-8.03684 -5.55383,0 -5.55383,8.03684 -11.107659,8.03684 -5.55383,0 -5.55383,-8.03684 -11.1076579,-8.03684 -5.553832,0 -5.553832,8.03684 -11.10766,8.03684 -5.5538291,0 -5.5538291,-8.03684 -5.5538291,-8.03684"
         style="fill:none;stroke:#000000;stroke-width:0.422334;stroke-linejoin:round;stroke-miterlimit:4;stroke-dasharray:none" />
      <path
         id="path11526"
         d="m 212.15026,203.38616 c 0,0 0,-8.03684 -5.55382,-8.03684 -5.55383,0 -5.55383,8.03684 -11.10766,8.03684 -5.55383,0 -5.55383,-8.03684 -11.10767,-8.03684 -5.55382,0 -5.55382,8.03684 -11.10765,8.03684 -5.55383,0 -5.55383,-8.03684 -11.10765,-8.03684 -5.55384,0 -5.55384,8.03684 -11.10766,8.03684 -5.55384,0 -5.55384,-8.03684 -11.10767,-8.03684 -5.55382,0 -5.55382,8.03684 -11.10765,8.03684 -5.55383,0 -5.55383,-8.03684 -11.10767,-8.03684 -5.55383,0 -5.55383,8.03684 -11.10766,8.03684 -5.55382,0 -5.55382,-8.03684 -11.107651,-8.03684 -5.55383,0 -5.55383,8.03684 -11.10766,8.03684 -5.55383,0 -5.55383,-8.03684 -11.10766,-8.03684 -5.55382,0 -5.55382,8.03684 -11.10766,8.03684 -5.553827,0 -5.553827,-8.03684 -11.107657,-8.03684 -5.553829,0 -5.553829,8.03684 -11.107659,8.03684 -5.553828,0 -5.553828,-8.03684 -11.107658,-8.03684 -5.55383,0 -5.55383,8.03684 -11.107659,8.03684 -5.55383,0 -5.55383,-8.03684 -11.1076579,-8.03684 -5.553832,0 -5.553832,8.03684 -11.10766,8.03684 -5.5538291,0 -5.5538291,-8.03684 -5.5538291,-8.03684"
         style="fill:none;stroke:#000000;stroke-width:0.422334;stroke-linejoin:round;stroke-miterlimit:4;stroke-dasharray:none" />
      <path
         id="path11528"
         d="m 212.15026,199.90327 c 0,0 0,-8.03684 -5.55382,-8.03684 -5.55383,0 -5.55383,8.03684 -11.10766,8.03684 -5.55383,0 -5.55383,-8.03684 -11.10767,-8.03684 -5.55382,0 -5.55382,8.03684 -11.10765,8.03684 -5.55383,0 -5.55383,-8.03684 -11.10765,-8.03684 -5.55384,0 -5.55384,8.03684 -11.10766,8.03684 -5.55384,0 -5.55384,-8.03684 -11.10767,-8.03684 -5.55382,0 -5.55382,8.03684 -11.10765,8.03684 -5.55383,0 -5.55383,-8.03684 -11.10767,-8.03684 -5.55383,0 -5.55383,8.03684 -11.10766,8.03684 -5.55382,0 -5.55382,-8.03684 -11.107651,-8.03684 -5.55383,0 -5.55383,8.03684 -11.10766,8.03684 -5.55383,0 -5.55383,-8.03684 -11.10766,-8.03684 -5.55382,0 -5.55382,8.03684 -11.10766,8.03684 -5.553827,0 -5.553827,-8.03684 -11.107657,-8.03684 -5.553829,0 -5.553829,8.03684 -11.107659,8.03684 -5.553828,0 -5.553828,-8.03684 -11.107658,-8.03684 -5.55383,0 -5.55383,8.03684 -11.107659,8.03684 -5.55383,0 -5.55383,-8.03684 -11.1076579,-8.03684 -5.553832,0 -5.553832,8.03684 -11.10766,8.03684 -5.5538291,0 -5.5538291,-8.03684 -5.5538291,-8.03684"
         style="fill:none;stroke:#000000;stroke-width:0.422334;stroke-linejoin:round;stroke-miterlimit:4;stroke-dasharray:none" />
      <path
         id="path11530"
         d="m 212.15026,201.64471 c 0,0 0,-8.03684 -5.55382,-8.03684 -5.55383,0 -5.55383,8.03684 -11.10766,8.03684 -5.55383,0 -5.55383,-8.03684 -11.10767,-8.03684 -5.55382,0 -5.55382,8.03684 -11.10765,8.03684 -5.55383,0 -5.55383,-8.03684 -11.10765,-8.03684 -5.55384,0 -5.55384,8.03684 -11.10766,8.03684 -5.55384,0 -5.55384,-8.03684 -11.10767,-8.03684 -5.55382,0 -5.55382,8.03684 -11.10765,8.03684 -5.55383,0 -5.55383,-8.03684 -11.10767,-8.03684 -5.55383,0 -5.55383,8.03684 -11.10766,8.03684 -5.55382,0 -5.55382,-8.03684 -11.107651,-8.03684 -5.55383,0 -5.55383,8.03684 -11.10766,8.03684 -5.55383,0 -5.55383,-8.03684 -11.10766,-8.03684 -5.55382,0 -5.55382,8.03684 -11.10766,8.03684 -5.553827,0 -5.553827,-8.03684 -11.107657,-8.03684 -5.553829,0 -5.553829,8.03684 -11.107659,8.03684 -5.553828,0 -5.553828,-8.03684 -11.107658,-8.03684 -5.55383,0 -5.55383,8.03684 -11.107659,8.03684 -5.55383,0 -5.55383,-8.03684 -11.1076579,-8.03684 -5.553832,0 -5.553832,8.03684 -11.10766,8.03684 -5.5538291,0 -5.5538291,-8.03684 -5.5538291,-8.03684"
         style="fill:none;stroke:#000000;stroke-width:0.422334;stroke-linejoin:round;stroke-miterlimit:4;stroke-dasharray:none" />
      <path
         id="path11532"
         d="m 212.15026,295.68311 c 0,0 0,-8.03684 -5.55382,-8.03684 -5.55383,0 -5.55383,8.03684 -11.10766,8.03684 -5.55383,0 -5.55383,-8.03684 -11.10767,-8.03684 -5.55382,0 -5.55382,8.03684 -11.10765,8.03684 -5.55383,0 -5.55383,-8.03684 -11.10765,-8.03684 -5.55384,0 -5.55384,8.03684 -11.10766,8.03684 -5.55384,0 -5.55384,-8.03684 -11.10767,-8.03684 -5.55382,0 -5.55382,8.03684 -11.10765,8.03684 -5.55383,0 -5.55383,-8.03684 -11.10767,-8.03684 -5.55383,0 -5.55383,8.03684 -11.10766,8.03684 -5.55382,0 -5.55382,-8.03684 -11.107651,-8.03684 -5.55383,0 -5.55383,8.03684 -11.10766,8.03684 -5.55383,0 -5.55383,-8.03684 -11.10766,-8.03684 -5.55382,0 -5.55382,8.03684 -11.10766,8.03684 -5.553827,0 -5.553827,-8.03684 -11.107657,-8.03684 -5.553829,0 -5.553829,8.03684 -11.107659,8.03684 -5.553828,0 -5.553828,-8.03684 -11.107658,-8.03684 -5.55383,0 -5.55383,8.03684 -11.107659,8.03684 -5.55383,0 -5.55383,-8.03684 -11.1076579,-8.03684 -5.553832,0 -5.553832,8.03684 -11.10766,8.03684 -5.5538291,0 -5.5538291,-8.03684 -5.5538291,-8.03684"
         style="fill:none;stroke:#000000;stroke-width:0.422334;stroke-linejoin:round;stroke-miterlimit:4;stroke-dasharray:none" />
      <path
         id="path11534"
         d="m 212.15026,293.94165 c 0,0 0,-8.03684 -5.55382,-8.03684 -5.55383,0 -5.55383,8.03684 -11.10766,8.03684 -5.55383,0 -5.55383,-8.03684 -11.10767,-8.03684 -5.55382,0 -5.55382,8.03684 -11.10765,8.03684 -5.55383,0 -5.55383,-8.03684 -11.10765,-8.03684 -5.55384,0 -5.55384,8.03684 -11.10766,8.03684 -5.55384,0 -5.55384,-8.03684 -11.10767,-8.03684 -5.55382,0 -5.55382,8.03684 -11.10765,8.03684 -5.55383,0 -5.55383,-8.03684 -11.10767,-8.03684 -5.55383,0 -5.55383,8.03684 -11.10766,8.03684 -5.55382,0 -5.55382,-8.03684 -11.107651,-8.03684 -5.55383,0 -5.55383,8.03684 -11.10766,8.03684 -5.55383,0 -5.55383,-8.03684 -11.10766,-8.03684 -5.55382,0 -5.55382,8.03684 -11.10766,8.03684 -5.553827,0 -5.553827,-8.03684 -11.107657,-8.03684 -5.553829,0 -5.553829,8.03684 -11.107659,8.03684 -5.553828,0 -5.553828,-8.03684 -11.107658,-8.03684 -5.55383,0 -5.55383,8.03684 -11.107659,8.03684 -5.55383,0 -5.55383,-8.03684 -11.1076579,-8.03684 -5.553832,0 -5.553832,8.03684 -11.10766,8.03684 -5.5538291,0 -5.5538291,-8.03684 -5.5538291,-8.03684"
         style="fill:none;stroke:#000000;stroke-width:0.422334;stroke-linejoin:round;stroke-miterlimit:4;stroke-dasharray:none" />
      <path
         id="path11536"
         d="m 212.15026,292.20018 c 0,0 0,-8.03684 -5.55382,-8.03684 -5.55383,0 -5.55383,8.03684 -11.10766,8.03684 -5.55383,0 -5.55383,-8.03684 -11.10767,-8.03684 -5.55382,0 -5.55382,8.03684 -11.10765,8.03684 -5.55383,0 -5.55383,-8.03684 -11.10765,-8.03684 -5.55384,0 -5.55384,8.03684 -11.10766,8.03684 -5.55384,0 -5.55384,-8.03684 -11.10767,-8.03684 -5.55382,0 -5.55382,8.03684 -11.10765,8.03684 -5.55383,0 -5.55383,-8.03684 -11.10767,-8.03684 -5.55383,0 -5.55383,8.03684 -11.10766,8.03684 -5.55382,0 -5.55382,-8.03684 -11.107651,-8.03684 -5.55383,0 -5.55383,8.03684 -11.10766,8.03684 -5.55383,0 -5.55383,-8.03684 -11.10766,-8.03684 -5.55382,0 -5.55382,8.03684 -11.10766,8.03684 -5.553827,0 -5.553827,-8.03684 -11.107657,-8.03684 -5.553829,0 -5.553829,8.03684 -11.107659,8.03684 -5.553828,0 -5.553828,-8.03684 -11.107658,-8.03684 -5.55383,0 -5.55383,8.03684 -11.107659,8.03684 -5.55383,0 -5.55383,-8.03684 -11.1076579,-8.03684 -5.553832,0 -5.553832,8.03684 -11.10766,8.03684 -5.5538291,0 -5.5538291,-8.03684 -5.5538291,-8.03684"
         style="fill:none;stroke:#000000;stroke-width:0.422334;stroke-linejoin:round;stroke-miterlimit:4;stroke-dasharray:none" />
      <path
         id="path11538"
         d="m 212.15026,290.45872 c 0,0 0,-8.03684 -5.55382,-8.03684 -5.55383,0 -5.55383,8.03684 -11.10766,8.03684 -5.55383,0 -5.55383,-8.03684 -11.10767,-8.03684 -5.55382,0 -5.55382,8.03684 -11.10765,8.03684 -5.55383,0 -5.55383,-8.03684 -11.10765,-8.03684 -5.55384,0 -5.55384,8.03684 -11.10766,8.03684 -5.55384,0 -5.55384,-8.03684 -11.10767,-8.03684 -5.55382,0 -5.55382,8.03684 -11.10765,8.03684 -5.55383,0 -5.55383,-8.03684 -11.10767,-8.03684 -5.55383,0 -5.55383,8.03684 -11.10766,8.03684 -5.55382,0 -5.55382,-8.03684 -11.107651,-8.03684 -5.55383,0 -5.55383,8.03684 -11.10766,8.03684 -5.55383,0 -5.55383,-8.03684 -11.10766,-8.03684 -5.55382,0 -5.55382,8.03684 -11.10766,8.03684 -5.553827,0 -5.553827,-8.03684 -11.107657,-8.03684 -5.553829,0 -5.553829,8.03684 -11.107659,8.03684 -5.553828,0 -5.553828,-8.03684 -11.107658,-8.03684 -5.55383,0 -5.55383,8.03684 -11.107659,8.03684 -5.55383,0 -5.55383,-8.03684 -11.1076579,-8.03684 -5.553832,0 -5.553832,8.03684 -11.10766,8.03684 -5.5538291,0 -5.5538291,-8.03684 -5.5538291,-8.03684"
         style="fill:none;stroke:#000000;stroke-width:0.422334;stroke-linejoin:round;stroke-miterlimit:4;stroke-dasharray:none" />
      <path
         id="path11540"
         d="m 212.15026,288.71726 c 0,0 0,-8.03684 -5.55382,-8.03684 -5.55383,0 -5.55383,8.03684 -11.10766,8.03684 -5.55383,0 -5.55383,-8.03684 -11.10767,-8.03684 -5.55382,0 -5.55382,8.03684 -11.10765,8.03684 -5.55383,0 -5.55383,-8.03684 -11.10765,-8.03684 -5.55384,0 -5.55384,8.03684 -11.10766,8.03684 -5.55384,0 -5.55384,-8.03684 -11.10767,-8.03684 -5.55382,0 -5.55382,8.03684 -11.10765,8.03684 -5.55383,0 -5.55383,-8.03684 -11.10767,-8.03684 -5.55383,0 -5.55383,8.03684 -11.10766,8.03684 -5.55382,0 -5.55382,-8.03684 -11.107651,-8.03684 -5.55383,0 -5.55383,8.03684 -11.10766,8.03684 -5.55383,0 -5.55383,-8.03684 -11.10766,-8.03684 -5.55382,0 -5.55382,8.03684 -11.10766,8.03684 -5.553827,0 -5.553827,-8.03684 -11.107657,-8.03684 -5.553829,0 -5.553829,8.03684 -11.107659,8.03684 -5.553828,0 -5.553828,-8.03684 -11.107658,-8.03684 -5.55383,0 -5.55383,8.03684 -11.107659,8.03684 -5.55383,0 -5.55383,-8.03684 -11.1076579,-8.03684 -5.553832,0 -5.553832,8.03684 -11.10766,8.03684 -5.5538291,0 -5.5538291,-8.03684 -5.5538291,-8.03684"
         style="fill:none;stroke:#000000;stroke-width:0.422334;stroke-linejoin:round;stroke-miterlimit:4;stroke-dasharray:none" />
      <path
         id="path11542"
         d="m 212.15026,285.23433 c 0,0 0,-8.03684 -5.55382,-8.03684 -5.55383,0 -5.55383,8.03684 -11.10766,8.03684 -5.55383,0 -5.55383,-8.03684 -11.10767,-8.03684 -5.55382,0 -5.55382,8.03684 -11.10765,8.03684 -5.55383,0 -5.55383,-8.03684 -11.10765,-8.03684 -5.55384,0 -5.55384,8.03684 -11.10766,8.03684 -5.55384,0 -5.55384,-8.03684 -11.10767,-8.03684 -5.55382,0 -5.55382,8.03684 -11.10765,8.03684 -5.55383,0 -5.55383,-8.03684 -11.10767,-8.03684 -5.55383,0 -5.55383,8.03684 -11.10766,8.03684 -5.55382,0 -5.55382,-8.03684 -11.107651,-8.03684 -5.55383,0 -5.55383,8.03684 -11.10766,8.03684 -5.55383,0 -5.55383,-8.03684 -11.10766,-8.03684 -5.55382,0 -5.55382,8.03684 -11.10766,8.03684 -5.553827,0 -5.553827,-8.03684 -11.107657,-8.03684 -5.553829,0 -5.553829,8.03684 -11.107659,8.03684 -5.553828,0 -5.553828,-8.03684 -11.107658,-8.03684 -5.55383,0 -5.55383,8.03684 -11.107659,8.03684 -5.55383,0 -5.55383,-8.03684 -11.1076579,-8.03684 -5.553832,0 -5.553832,8.03684 -11.10766,8.03684 -5.5538291,0 -5.5538291,-8.03684 -5.5538291,-8.03684"
         style="fill:none;stroke:#000000;stroke-width:0.422334;stroke-linejoin:round;stroke-miterlimit:4;stroke-dasharray:none" />
      <path
         id="path11544"
         d="m 212.15026,286.97579 c 0,0 0,-8.03684 -5.55382,-8.03684 -5.55383,0 -5.55383,8.03684 -11.10766,8.03684 -5.55383,0 -5.55383,-8.03684 -11.10767,-8.03684 -5.55382,0 -5.55382,8.03684 -11.10765,8.03684 -5.55383,0 -5.55383,-8.03684 -11.10765,-8.03684 -5.55384,0 -5.55384,8.03684 -11.10766,8.03684 -5.55384,0 -5.55384,-8.03684 -11.10767,-8.03684 -5.55382,0 -5.55382,8.03684 -11.10765,8.03684 -5.55383,0 -5.55383,-8.03684 -11.10767,-8.03684 -5.55383,0 -5.55383,8.03684 -11.10766,8.03684 -5.55382,0 -5.55382,-8.03684 -11.107651,-8.03684 -5.55383,0 -5.55383,8.03684 -11.10766,8.03684 -5.55383,0 -5.55383,-8.03684 -11.10766,-8.03684 -5.55382,0 -5.55382,8.03684 -11.10766,8.03684 -5.553827,0 -5.553827,-8.03684 -11.107657,-8.03684 -5.553829,0 -5.553829,8.03684 -11.107659,8.03684 -5.553828,0 -5.553828,-8.03684 -11.107658,-8.03684 -5.55383,0 -5.55383,8.03684 -11.107659,8.03684 -5.55383,0 -5.55383,-8.03684 -11.1076579,-8.03684 -5.553832,0 -5.553832,8.03684 -11.10766,8.03684 -5.5538291,0 -5.5538291,-8.03684 -5.5538291,-8.03684"
         style="fill:none;stroke:#000000;stroke-width:0.422334;stroke-linejoin:round;stroke-miterlimit:4;stroke-dasharray:none" />
      <path
         id="path11546"
         d="m 212.15026,283.49287 c 0,0 0,-8.03684 -5.55382,-8.03684 -5.55383,0 -5.55383,8.03684 -11.10766,8.03684 -5.55383,0 -5.55383,-8.03684 -11.10767,-8.03684 -5.55382,0 -5.55382,8.03684 -11.10765,8.03684 -5.55383,0 -5.55383,-8.03684 -11.10765,-8.03684 -5.55384,0 -5.55384,8.03684 -11.10766,8.03684 -5.55384,0 -5.55384,-8.03684 -11.10767,-8.03684 -5.55382,0 -5.55382,8.03684 -11.10765,8.03684 -5.55383,0 -5.55383,-8.03684 -11.10767,-8.03684 -5.55383,0 -5.55383,8.03684 -11.10766,8.03684 -5.55382,0 -5.55382,-8.03684 -11.107651,-8.03684 -5.55383,0 -5.55383,8.03684 -11.10766,8.03684 -5.55383,0 -5.55383,-8.03684 -11.10766,-8.03684 -5.55382,0 -5.55382,8.03684 -11.10766,8.03684 -5.553827,0 -5.553827,-8.03684 -11.107657,-8.03684 -5.553829,0 -5.553829,8.03684 -11.107659,8.03684 -5.553828,0 -5.553828,-8.03684 -11.107658,-8.03684 -5.55383,0 -5.55383,8.03684 -11.107659,8.03684 -5.55383,0 -5.55383,-8.03684 -11.1076579,-8.03684 -5.553832,0 -5.553832,8.03684 -11.10766,8.03684 -5.5538291,0 -5.5538291,-8.03684 -5.5538291,-8.03684"
         style="fill:none;stroke:#000000;stroke-width:0.422334;stroke-linejoin:round;stroke-miterlimit:4;stroke-dasharray:none" />
      <path
         id="path11548"
         d="m 212.15026,281.7514 c 0,0 0,-8.03684 -5.55382,-8.03684 -5.55383,0 -5.55383,8.03684 -11.10766,8.03684 -5.55383,0 -5.55383,-8.03684 -11.10767,-8.03684 -5.55382,0 -5.55382,8.03684 -11.10765,8.03684 -5.55383,0 -5.55383,-8.03684 -11.10765,-8.03684 -5.55384,0 -5.55384,8.03684 -11.10766,8.03684 -5.55384,0 -5.55384,-8.03684 -11.10767,-8.03684 -5.55382,0 -5.55382,8.03684 -11.10765,8.03684 -5.55383,0 -5.55383,-8.03684 -11.10767,-8.03684 -5.55383,0 -5.55383,8.03684 -11.10766,8.03684 -5.55382,0 -5.55382,-8.03684 -11.107651,-8.03684 -5.55383,0 -5.55383,8.03684 -11.10766,8.03684 -5.55383,0 -5.55383,-8.03684 -11.10766,-8.03684 -5.55382,0 -5.55382,8.03684 -11.10766,8.03684 -5.553827,0 -5.553827,-8.03684 -11.107657,-8.03684 -5.553829,0 -5.553829,8.03684 -11.107659,8.03684 -5.553828,0 -5.553828,-8.03684 -11.107658,-8.03684 -5.55383,0 -5.55383,8.03684 -11.107659,8.03684 -5.55383,0 -5.55383,-8.03684 -11.1076579,-8.03684 -5.553832,0 -5.553832,8.03684 -11.10766,8.03684 -5.5538291,0 -5.5538291,-8.03684 -5.5538291,-8.03684"
         style="fill:none;stroke:#000000;stroke-width:0.422334;stroke-linejoin:round;stroke-miterlimit:4;stroke-dasharray:none" />
      <path
         id="path11550"
         d="m 212.15026,280.00994 c 0,0 0,-8.03684 -5.55382,-8.03684 -5.55383,0 -5.55383,8.03684 -11.10766,8.03684 -5.55383,0 -5.55383,-8.03684 -11.10767,-8.03684 -5.55382,0 -5.55382,8.03684 -11.10765,8.03684 -5.55383,0 -5.55383,-8.03684 -11.10765,-8.03684 -5.55384,0 -5.55384,8.03684 -11.10766,8.03684 -5.55384,0 -5.55384,-8.03684 -11.10767,-8.03684 -5.55382,0 -5.55382,8.03684 -11.10765,8.03684 -5.55383,0 -5.55383,-8.03684 -11.10767,-8.03684 -5.55383,0 -5.55383,8.03684 -11.10766,8.03684 -5.55382,0 -5.55382,-8.03684 -11.107651,-8.03684 -5.55383,0 -5.55383,8.03684 -11.10766,8.03684 -5.55383,0 -5.55383,-8.03684 -11.10766,-8.03684 -5.55382,0 -5.55382,8.03684 -11.10766,8.03684 -5.553827,0 -5.553827,-8.03684 -11.107657,-8.03684 -5.553829,0 -5.553829,8.03684 -11.107659,8.03684 -5.553828,0 -5.553828,-8.03684 -11.107658,-8.03684 -5.55383,0 -5.55383,8.03684 -11.107659,8.03684 -5.55383,0 -5.55383,-8.03684 -11.1076579,-8.03684 -5.553832,0 -5.553832,8.03684 -11.10766,8.03684 -5.5538291,0 -5.5538291,-8.03684 -5.5538291,-8.03684"
         style="fill:none;stroke:#000000;stroke-width:0.422334;stroke-linejoin:round;stroke-miterlimit:4;stroke-dasharray:none" />
      <path
         id="path11552"
         d="m 212.15026,278.26846 c 0,0 0,-8.03684 -5.55382,-8.03684 -5.55383,0 -5.55383,8.03684 -11.10766,8.03684 -5.55383,0 -5.55383,-8.03684 -11.10767,-8.03684 -5.55382,0 -5.55382,8.03684 -11.10765,8.03684 -5.55383,0 -5.55383,-8.03684 -11.10765,-8.03684 -5.55384,0 -5.55384,8.03684 -11.10766,8.03684 -5.55384,0 -5.55384,-8.03684 -11.10767,-8.03684 -5.55382,0 -5.55382,8.03684 -11.10765,8.03684 -5.55383,0 -5.55383,-8.03684 -11.10767,-8.03684 -5.55383,0 -5.55383,8.03684 -11.10766,8.03684 -5.55382,0 -5.55382,-8.03684 -11.107651,-8.03684 -5.55383,0 -5.55383,8.03684 -11.10766,8.03684 -5.55383,0 -5.55383,-8.03684 -11.10766,-8.03684 -5.55382,0 -5.55382,8.03684 -11.10766,8.03684 -5.553827,0 -5.553827,-8.03684 -11.107657,-8.03684 -5.553829,0 -5.553829,8.03684 -11.107659,8.03684 -5.553828,0 -5.553828,-8.03684 -11.107658,-8.03684 -5.55383,0 -5.55383,8.03684 -11.107659,8.03684 -5.55383,0 -5.55383,-8.03684 -11.1076579,-8.03684 -5.553832,0 -5.553832,8.03684 -11.10766,8.03684 -5.5538291,0 -5.5538291,-8.03684 -5.5538291,-8.03684"
         style="fill:none;stroke:#000000;stroke-width:0.422334;stroke-linejoin:round;stroke-miterlimit:4;stroke-dasharray:none" />
      <path
         id="path11554"
         d="m 212.15026,276.527 c 0,0 0,-8.03684 -5.55382,-8.03684 -5.55383,0 -5.55383,8.03684 -11.10766,8.03684 -5.55383,0 -5.55383,-8.03684 -11.10767,-8.03684 -5.55382,0 -5.55382,8.03684 -11.10765,8.03684 -5.55383,0 -5.55383,-8.03684 -11.10765,-8.03684 -5.55384,0 -5.55384,8.03684 -11.10766,8.03684 -5.55384,0 -5.55384,-8.03684 -11.10767,-8.03684 -5.55382,0 -5.55382,8.03684 -11.10765,8.03684 -5.55383,0 -5.55383,-8.03684 -11.10767,-8.03684 -5.55383,0 -5.55383,8.03684 -11.10766,8.03684 -5.55382,0 -5.55382,-8.03684 -11.107651,-8.03684 -5.55383,0 -5.55383,8.03684 -11.10766,8.03684 -5.55383,0 -5.55383,-8.03684 -11.10766,-8.03684 -5.55382,0 -5.55382,8.03684 -11.10766,8.03684 -5.553827,0 -5.553827,-8.03684 -11.107657,-8.03684 -5.553829,0 -5.553829,8.03684 -11.107659,8.03684 -5.553828,0 -5.553828,-8.03684 -11.107658,-8.03684 -5.55383,0 -5.55383,8.03684 -11.107659,8.03684 -5.55383,0 -5.55383,-8.03684 -11.1076579,-8.03684 -5.553832,0 -5.553832,8.03684 -11.10766,8.03684 -5.5538291,0 -5.5538291,-8.03684 -5.5538291,-8.03684"
         style="fill:none;stroke:#000000;stroke-width:0.422334;stroke-linejoin:round;stroke-miterlimit:4;stroke-dasharray:none" />
      <path
         id="path11556"
         d="m 212.15026,273.04407 c 0,0 0,-8.03684 -5.55382,-8.03684 -5.55383,0 -5.55383,8.03684 -11.10766,8.03684 -5.55383,0 -5.55383,-8.03684 -11.10767,-8.03684 -5.55382,0 -5.55382,8.03684 -11.10765,8.03684 -5.55383,0 -5.55383,-8.03684 -11.10765,-8.03684 -5.55384,0 -5.55384,8.03684 -11.10766,8.03684 -5.55384,0 -5.55384,-8.03684 -11.10767,-8.03684 -5.55382,0 -5.55382,8.03684 -11.10765,8.03684 -5.55383,0 -5.55383,-8.03684 -11.10767,-8.03684 -5.55383,0 -5.55383,8.03684 -11.10766,8.03684 -5.55382,0 -5.55382,-8.03684 -11.107651,-8.03684 -5.55383,0 -5.55383,8.03684 -11.10766,8.03684 -5.55383,0 -5.55383,-8.03684 -11.10766,-8.03684 -5.55382,0 -5.55382,8.03684 -11.10766,8.03684 -5.553827,0 -5.553827,-8.03684 -11.107657,-8.03684 -5.553829,0 -5.553829,8.03684 -11.107659,8.03684 -5.553828,0 -5.553828,-8.03684 -11.107658,-8.03684 -5.55383,0 -5.55383,8.03684 -11.107659,8.03684 -5.55383,0 -5.55383,-8.03684 -11.1076579,-8.03684 -5.553832,0 -5.553832,8.03684 -11.10766,8.03684 -5.5538291,0 -5.5538291,-8.03684 -5.5538291,-8.03684"
         style="fill:none;stroke:#000000;stroke-width:0.422334;stroke-linejoin:round;stroke-miterlimit:4;stroke-dasharray:none" />
      <path
         id="path11558"
         d="m 212.15026,274.78553 c 0,0 0,-8.03684 -5.55382,-8.03684 -5.55383,0 -5.55383,8.03684 -11.10766,8.03684 -5.55383,0 -5.55383,-8.03684 -11.10767,-8.03684 -5.55382,0 -5.55382,8.03684 -11.10765,8.03684 -5.55383,0 -5.55383,-8.03684 -11.10765,-8.03684 -5.55384,0 -5.55384,8.03684 -11.10766,8.03684 -5.55384,0 -5.55384,-8.03684 -11.10767,-8.03684 -5.55382,0 -5.55382,8.03684 -11.10765,8.03684 -5.55383,0 -5.55383,-8.03684 -11.10767,-8.03684 -5.55383,0 -5.55383,8.03684 -11.10766,8.03684 -5.55382,0 -5.55382,-8.03684 -11.107651,-8.03684 -5.55383,0 -5.55383,8.03684 -11.10766,8.03684 -5.55383,0 -5.55383,-8.03684 -11.10766,-8.03684 -5.55382,0 -5.55382,8.03684 -11.10766,8.03684 -5.553827,0 -5.553827,-8.03684 -11.107657,-8.03684 -5.553829,0 -5.553829,8.03684 -11.107659,8.03684 -5.553828,0 -5.553828,-8.03684 -11.107658,-8.03684 -5.55383,0 -5.55383,8.03684 -11.107659,8.03684 -5.55383,0 -5.55383,-8.03684 -11.1076579,-8.03684 -5.553832,0 -5.553832,8.03684 -11.10766,8.03684 -5.5538291,0 -5.5538291,-8.03684 -5.5538291,-8.03684"
         style="fill:none;stroke:#000000;stroke-width:0.422334;stroke-linejoin:round;stroke-miterlimit:4;stroke-dasharray:none" />
      <path
         id="path11560"
         d="m 212.15026,271.30261 c 0,0 0,-8.03684 -5.55382,-8.03684 -5.55383,0 -5.55383,8.03684 -11.10766,8.03684 -5.55383,0 -5.55383,-8.03684 -11.10767,-8.03684 -5.55382,0 -5.55382,8.03684 -11.10765,8.03684 -5.55383,0 -5.55383,-8.03684 -11.10765,-8.03684 -5.55384,0 -5.55384,8.03684 -11.10766,8.03684 -5.55384,0 -5.55384,-8.03684 -11.10767,-8.03684 -5.55382,0 -5.55382,8.03684 -11.10765,8.03684 -5.55383,0 -5.55383,-8.03684 -11.10767,-8.03684 -5.55383,0 -5.55383,8.03684 -11.10766,8.03684 -5.55382,0 -5.55382,-8.03684 -11.107651,-8.03684 -5.55383,0 -5.55383,8.03684 -11.10766,8.03684 -5.55383,0 -5.55383,-8.03684 -11.10766,-8.03684 -5.55382,0 -5.55382,8.03684 -11.10766,8.03684 -5.553827,0 -5.553827,-8.03684 -11.107657,-8.03684 -5.553829,0 -5.553829,8.03684 -11.107659,8.03684 -5.553828,0 -5.553828,-8.03684 -11.107658,-8.03684 -5.55383,0 -5.55383,8.03684 -11.107659,8.03684 -5.55383,0 -5.55383,-8.03684 -11.1076579,-8.03684 -5.553832,0 -5.553832,8.03684 -11.10766,8.03684 -5.5538291,0 -5.5538291,-8.03684 -5.5538291,-8.03684"
         style="fill:none;stroke:#000000;stroke-width:0.422334;stroke-linejoin:round;stroke-miterlimit:4;stroke-dasharray:none" />
      <path
         id="path11562"
         d="m 212.15026,269.56116 c 0,0 0,-8.03684 -5.55382,-8.03684 -5.55383,0 -5.55383,8.03684 -11.10766,8.03684 -5.55383,0 -5.55383,-8.03684 -11.10767,-8.03684 -5.55382,0 -5.55382,8.03684 -11.10765,8.03684 -5.55383,0 -5.55383,-8.03684 -11.10765,-8.03684 -5.55384,0 -5.55384,8.03684 -11.10766,8.03684 -5.55384,0 -5.55384,-8.03684 -11.10767,-8.03684 -5.55382,0 -5.55382,8.03684 -11.10765,8.03684 -5.55383,0 -5.55383,-8.03684 -11.10767,-8.03684 -5.55383,0 -5.55383,8.03684 -11.10766,8.03684 -5.55382,0 -5.55382,-8.03684 -11.107651,-8.03684 -5.55383,0 -5.55383,8.03684 -11.10766,8.03684 -5.55383,0 -5.55383,-8.03684 -11.10766,-8.03684 -5.55382,0 -5.55382,8.03684 -11.10766,8.03684 -5.553827,0 -5.553827,-8.03684 -11.107657,-8.03684 -5.553829,0 -5.553829,8.03684 -11.107659,8.03684 -5.553828,0 -5.553828,-8.03684 -11.107658,-8.03684 -5.55383,0 -5.55383,8.03684 -11.107659,8.03684 -5.55383,0 -5.55383,-8.03684 -11.1076579,-8.03684 -5.553832,0 -5.553832,8.03684 -11.10766,8.03684 -5.5538291,0 -5.5538291,-8.03684 -5.5538291,-8.03684"
         style="fill:none;stroke:#000000;stroke-width:0.422334;stroke-linejoin:round;stroke-miterlimit:4;stroke-dasharray:none" />
      <path
         id="path11564"
         d="m 212.15026,267.81971 c 0,0 0,-8.03684 -5.55382,-8.03684 -5.55383,0 -5.55383,8.03684 -11.10766,8.03684 -5.55383,0 -5.55383,-8.03684 -11.10767,-8.03684 -5.55382,0 -5.55382,8.03684 -11.10765,8.03684 -5.55383,0 -5.55383,-8.03684 -11.10765,-8.03684 -5.55384,0 -5.55384,8.03684 -11.10766,8.03684 -5.55384,0 -5.55384,-8.03684 -11.10767,-8.03684 -5.55382,0 -5.55382,8.03684 -11.10765,8.03684 -5.55383,0 -5.55383,-8.03684 -11.10767,-8.03684 -5.55383,0 -5.55383,8.03684 -11.10766,8.03684 -5.55382,0 -5.55382,-8.03684 -11.107651,-8.03684 -5.55383,0 -5.55383,8.03684 -11.10766,8.03684 -5.55383,0 -5.55383,-8.03684 -11.10766,-8.03684 -5.55382,0 -5.55382,8.03684 -11.10766,8.03684 -5.553827,0 -5.553827,-8.03684 -11.107657,-8.03684 -5.553829,0 -5.553829,8.03684 -11.107659,8.03684 -5.553828,0 -5.553828,-8.03684 -11.107658,-8.03684 -5.55383,0 -5.55383,8.03684 -11.107659,8.03684 -5.55383,0 -5.55383,-8.03684 -11.1076579,-8.03684 -5.553832,0 -5.553832,8.03684 -11.10766,8.03684 -5.5538291,0 -5.5538291,-8.03684 -5.5538291,-8.03684"
         style="fill:none;stroke:#000000;stroke-width:0.422334;stroke-linejoin:round;stroke-miterlimit:4;stroke-dasharray:none" />
      <path
         id="path11566"
         d="m 212.15026,266.07826 c 0,0 0,-8.03684 -5.55382,-8.03684 -5.55383,0 -5.55383,8.03684 -11.10766,8.03684 -5.55383,0 -5.55383,-8.03684 -11.10767,-8.03684 -5.55382,0 -5.55382,8.03684 -11.10765,8.03684 -5.55383,0 -5.55383,-8.03684 -11.10765,-8.03684 -5.55384,0 -5.55384,8.03684 -11.10766,8.03684 -5.55384,0 -5.55384,-8.03684 -11.10767,-8.03684 -5.55382,0 -5.55382,8.03684 -11.10765,8.03684 -5.55383,0 -5.55383,-8.03684 -11.10767,-8.03684 -5.55383,0 -5.55383,8.03684 -11.10766,8.03684 -5.55382,0 -5.55382,-8.03684 -11.107651,-8.03684 -5.55383,0 -5.55383,8.03684 -11.10766,8.03684 -5.55383,0 -5.55383,-8.03684 -11.10766,-8.03684 -5.55382,0 -5.55382,8.03684 -11.10766,8.03684 -5.553827,0 -5.553827,-8.03684 -11.107657,-8.03684 -5.553829,0 -5.553829,8.03684 -11.107659,8.03684 -5.553828,0 -5.553828,-8.03684 -11.107658,-8.03684 -5.55383,0 -5.55383,8.03684 -11.107659,8.03684 -5.55383,0 -5.55383,-8.03684 -11.1076579,-8.03684 -5.553832,0 -5.553832,8.03684 -11.10766,8.03684 -5.5538291,0 -5.5538291,-8.03684 -5.5538291,-8.03684"
         style="fill:none;stroke:#000000;stroke-width:0.422334;stroke-linejoin:round;stroke-miterlimit:4;stroke-dasharray:none" />
      <path
         id="path11568"
         d="m 212.15026,264.33682 c 0,0 0,-8.03684 -5.55382,-8.03684 -5.55383,0 -5.55383,8.03684 -11.10766,8.03684 -5.55383,0 -5.55383,-8.03684 -11.10767,-8.03684 -5.55382,0 -5.55382,8.03684 -11.10765,8.03684 -5.55383,0 -5.55383,-8.03684 -11.10765,-8.03684 -5.55384,0 -5.55384,8.03684 -11.10766,8.03684 -5.55384,0 -5.55384,-8.03684 -11.10767,-8.03684 -5.55382,0 -5.55382,8.03684 -11.10765,8.03684 -5.55383,0 -5.55383,-8.03684 -11.10767,-8.03684 -5.55383,0 -5.55383,8.03684 -11.10766,8.03684 -5.55382,0 -5.55382,-8.03684 -11.107651,-8.03684 -5.55383,0 -5.55383,8.03684 -11.10766,8.03684 -5.55383,0 -5.55383,-8.03684 -11.10766,-8.03684 -5.55382,0 -5.55382,8.03684 -11.10766,8.03684 -5.553827,0 -5.553827,-8.03684 -11.107657,-8.03684 -5.553829,0 -5.553829,8.03684 -11.107659,8.03684 -5.553828,0 -5.553828,-8.03684 -11.107658,-8.03684 -5.55383,0 -5.55383,8.03684 -11.107659,8.03684 -5.55383,0 -5.55383,-8.03684 -11.1076579,-8.03684 -5.553832,0 -5.553832,8.03684 -11.10766,8.03684 -5.5538291,0 -5.5538291,-8.03684 -5.5538291,-8.03684"
         style="fill:none;stroke:#000000;stroke-width:0.422334;stroke-linejoin:round;stroke-miterlimit:4;stroke-dasharray:none" />
      <path
         id="path11570"
         d="m 212.15026,260.85392 c 0,0 0,-8.03684 -5.55382,-8.03684 -5.55383,0 -5.55383,8.03684 -11.10766,8.03684 -5.55383,0 -5.55383,-8.03684 -11.10767,-8.03684 -5.55382,0 -5.55382,8.03684 -11.10765,8.03684 -5.55383,0 -5.55383,-8.03684 -11.10765,-8.03684 -5.55384,0 -5.55384,8.03684 -11.10766,8.03684 -5.55384,0 -5.55384,-8.03684 -11.10767,-8.03684 -5.55382,0 -5.55382,8.03684 -11.10765,8.03684 -5.55383,0 -5.55383,-8.03684 -11.10767,-8.03684 -5.55383,0 -5.55383,8.03684 -11.10766,8.03684 -5.55382,0 -5.55382,-8.03684 -11.107651,-8.03684 -5.55383,0 -5.55383,8.03684 -11.10766,8.03684 -5.55383,0 -5.55383,-8.03684 -11.10766,-8.03684 -5.55382,0 -5.55382,8.03684 -11.10766,8.03684 -5.553827,0 -5.553827,-8.03684 -11.107657,-8.03684 -5.553829,0 -5.553829,8.03684 -11.107659,8.03684 -5.553828,0 -5.553828,-8.03684 -11.107658,-8.03684 -5.55383,0 -5.55383,8.03684 -11.107659,8.03684 -5.55383,0 -5.55383,-8.03684 -11.1076579,-8.03684 -5.553832,0 -5.553832,8.03684 -11.10766,8.03684 -5.5538291,0 -5.5538291,-8.03684 -5.5538291,-8.03684"
         style="fill:none;stroke:#000000;stroke-width:0.422334;stroke-linejoin:round;stroke-miterlimit:4;stroke-dasharray:none" />
      <path
         id="path11572"
         d="m 212.15026,262.59537 c 0,0 0,-8.03684 -5.55382,-8.03684 -5.55383,0 -5.55383,8.03684 -11.10766,8.03684 -5.55383,0 -5.55383,-8.03684 -11.10767,-8.03684 -5.55382,0 -5.55382,8.03684 -11.10765,8.03684 -5.55383,0 -5.55383,-8.03684 -11.10765,-8.03684 -5.55384,0 -5.55384,8.03684 -11.10766,8.03684 -5.55384,0 -5.55384,-8.03684 -11.10767,-8.03684 -5.55382,0 -5.55382,8.03684 -11.10765,8.03684 -5.55383,0 -5.55383,-8.03684 -11.10767,-8.03684 -5.55383,0 -5.55383,8.03684 -11.10766,8.03684 -5.55382,0 -5.55382,-8.03684 -11.107651,-8.03684 -5.55383,0 -5.55383,8.03684 -11.10766,8.03684 -5.55383,0 -5.55383,-8.03684 -11.10766,-8.03684 -5.55382,0 -5.55382,8.03684 -11.10766,8.03684 -5.553827,0 -5.553827,-8.03684 -11.107657,-8.03684 -5.553829,0 -5.553829,8.03684 -11.107659,8.03684 -5.553828,0 -5.553828,-8.03684 -11.107658,-8.03684 -5.55383,0 -5.55383,8.03684 -11.107659,8.03684 -5.55383,0 -5.55383,-8.03684 -11.1076579,-8.03684 -5.553832,0 -5.553832,8.03684 -11.10766,8.03684 -5.5538291,0 -5.5538291,-8.03684 -5.5538291,-8.03684"
         style="fill:none;stroke:#000000;stroke-width:0.422334;stroke-linejoin:round;stroke-miterlimit:4;stroke-dasharray:none" />
      <path
         id="path11574"
         d="m 212.15026,259.11247 c 0,0 0,-8.03684 -5.55382,-8.03684 -5.55383,0 -5.55383,8.03684 -11.10766,8.03684 -5.55383,0 -5.55383,-8.03684 -11.10767,-8.03684 -5.55382,0 -5.55382,8.03684 -11.10765,8.03684 -5.55383,0 -5.55383,-8.03684 -11.10765,-8.03684 -5.55384,0 -5.55384,8.03684 -11.10766,8.03684 -5.55384,0 -5.55384,-8.03684 -11.10767,-8.03684 -5.55382,0 -5.55382,8.03684 -11.10765,8.03684 -5.55383,0 -5.55383,-8.03684 -11.10767,-8.03684 -5.55383,0 -5.55383,8.03684 -11.10766,8.03684 -5.55382,0 -5.55382,-8.03684 -11.107651,-8.03684 -5.55383,0 -5.55383,8.03684 -11.10766,8.03684 -5.55383,0 -5.55383,-8.03684 -11.10766,-8.03684 -5.55382,0 -5.55382,8.03684 -11.10766,8.03684 -5.553827,0 -5.553827,-8.03684 -11.107657,-8.03684 -5.553829,0 -5.553829,8.03684 -11.107659,8.03684 -5.553828,0 -5.553828,-8.03684 -11.107658,-8.03684 -5.55383,0 -5.55383,8.03684 -11.107659,8.03684 -5.55383,0 -5.55383,-8.03684 -11.1076579,-8.03684 -5.553832,0 -5.553832,8.03684 -11.10766,8.03684 -5.5538291,0 -5.5538291,-8.03684 -5.5538291,-8.03684"
         style="fill:none;stroke:#000000;stroke-width:0.422334;stroke-linejoin:round;stroke-miterlimit:4;stroke-dasharray:none" />
      <path
         id="path11576"
         d="m 212.15026,257.37103 c 0,0 0,-8.03684 -5.55382,-8.03684 -5.55383,0 -5.55383,8.03684 -11.10766,8.03684 -5.55383,0 -5.55383,-8.03684 -11.10767,-8.03684 -5.55382,0 -5.55382,8.03684 -11.10765,8.03684 -5.55383,0 -5.55383,-8.03684 -11.10765,-8.03684 -5.55384,0 -5.55384,8.03684 -11.10766,8.03684 -5.55384,0 -5.55384,-8.03684 -11.10767,-8.03684 -5.55382,0 -5.55382,8.03684 -11.10765,8.03684 -5.55383,0 -5.55383,-8.03684 -11.10767,-8.03684 -5.55383,0 -5.55383,8.03684 -11.10766,8.03684 -5.55382,0 -5.55382,-8.03684 -11.107651,-8.03684 -5.55383,0 -5.55383,8.03684 -11.10766,8.03684 -5.55383,0 -5.55383,-8.03684 -11.10766,-8.03684 -5.55382,0 -5.55382,8.03684 -11.10766,8.03684 -5.553827,0 -5.553827,-8.03684 -11.107657,-8.03684 -5.553829,0 -5.553829,8.03684 -11.107659,8.03684 -5.553828,0 -5.553828,-8.03684 -11.107658,-8.03684 -5.55383,0 -5.55383,8.03684 -11.107659,8.03684 -5.55383,0 -5.55383,-8.03684 -11.1076579,-8.03684 -5.553832,0 -5.553832,8.03684 -11.10766,8.03684 -5.5538291,0 -5.5538291,-8.03684 -5.5538291,-8.03684"
         style="fill:none;stroke:#000000;stroke-width:0.422334;stroke-linejoin:round;stroke-miterlimit:4;stroke-dasharray:none" />
      <path
         id="path11578"
         d="m 212.15026,255.62958 c 0,0 0,-8.03684 -5.55382,-8.03684 -5.55383,0 -5.55383,8.03684 -11.10766,8.03684 -5.55383,0 -5.55383,-8.03684 -11.10767,-8.03684 -5.55382,0 -5.55382,8.03684 -11.10765,8.03684 -5.55383,0 -5.55383,-8.03684 -11.10765,-8.03684 -5.55384,0 -5.55384,8.03684 -11.10766,8.03684 -5.55384,0 -5.55384,-8.03684 -11.10767,-8.03684 -5.55382,0 -5.55382,8.03684 -11.10765,8.03684 -5.55383,0 -5.55383,-8.03684 -11.10767,-8.03684 -5.55383,0 -5.55383,8.03684 -11.10766,8.03684 -5.55382,0 -5.55382,-8.03684 -11.107651,-8.03684 -5.55383,0 -5.55383,8.03684 -11.10766,8.03684 -5.55383,0 -5.55383,-8.03684 -11.10766,-8.03684 -5.55382,0 -5.55382,8.03684 -11.10766,8.03684 -5.553827,0 -5.553827,-8.03684 -11.107657,-8.03684 -5.553829,0 -5.553829,8.03684 -11.107659,8.03684 -5.553828,0 -5.553828,-8.03684 -11.107658,-8.03684 -5.55383,0 -5.55383,8.03684 -11.107659,8.03684 -5.55383,0 -5.55383,-8.03684 -11.1076579,-8.03684 -5.553832,0 -5.553832,8.03684 -11.10766,8.03684 -5.5538291,0 -5.5538291,-8.03684 -5.5538291,-8.03684"
         style="fill:none;stroke:#000000;stroke-width:0.422334;stroke-linejoin:round;stroke-miterlimit:4;stroke-dasharray:none" />
      <path
         id="path11580"
         d="m 212.15026,253.88813 c 0,0 0,-8.03684 -5.55382,-8.03684 -5.55383,0 -5.55383,8.03684 -11.10766,8.03684 -5.55383,0 -5.55383,-8.03684 -11.10767,-8.03684 -5.55382,0 -5.55382,8.03684 -11.10765,8.03684 -5.55383,0 -5.55383,-8.03684 -11.10765,-8.03684 -5.55384,0 -5.55384,8.03684 -11.10766,8.03684 -5.55384,0 -5.55384,-8.03684 -11.10767,-8.03684 -5.55382,0 -5.55382,8.03684 -11.10765,8.03684 -5.55383,0 -5.55383,-8.03684 -11.10767,-8.03684 -5.55383,0 -5.55383,8.03684 -11.10766,8.03684 -5.55382,0 -5.55382,-8.03684 -11.107651,-8.03684 -5.55383,0 -5.55383,8.03684 -11.10766,8.03684 -5.55383,0 -5.55383,-8.03684 -11.10766,-8.03684 -5.55382,0 -5.55382,8.03684 -11.10766,8.03684 -5.553827,0 -5.553827,-8.03684 -11.107657,-8.03684 -5.553829,0 -5.553829,8.03684 -11.107659,8.03684 -5.553828,0 -5.553828,-8.03684 -11.107658,-8.03684 -5.55383,0 -5.55383,8.03684 -11.107659,8.03684 -5.55383,0 -5.55383,-8.03684 -11.1076579,-8.03684 -5.553832,0 -5.553832,8.03684 -11.10766,8.03684 -5.5538291,0 -5.5538291,-8.03684 -5.5538291,-8.03684"
         style="fill:none;stroke:#000000;stroke-width:0.422334;stroke-linejoin:round;stroke-miterlimit:4;stroke-dasharray:none" />
      <path
         id="path11582"
         d="m 212.15026,252.14669 c 0,0 0,-8.03684 -5.55382,-8.03684 -5.55383,0 -5.55383,8.03684 -11.10766,8.03684 -5.55383,0 -5.55383,-8.03684 -11.10767,-8.03684 -5.55382,0 -5.55382,8.03684 -11.10765,8.03684 -5.55383,0 -5.55383,-8.03684 -11.10765,-8.03684 -5.55384,0 -5.55384,8.03684 -11.10766,8.03684 -5.55384,0 -5.55384,-8.03684 -11.10767,-8.03684 -5.55382,0 -5.55382,8.03684 -11.10765,8.03684 -5.55383,0 -5.55383,-8.03684 -11.10767,-8.03684 -5.55383,0 -5.55383,8.03684 -11.10766,8.03684 -5.55382,0 -5.55382,-8.03684 -11.107651,-8.03684 -5.55383,0 -5.55383,8.03684 -11.10766,8.03684 -5.55383,0 -5.55383,-8.03684 -11.10766,-8.03684 -5.55382,0 -5.55382,8.03684 -11.10766,8.03684 -5.553827,0 -5.553827,-8.03684 -11.107657,-8.03684 -5.553829,0 -5.553829,8.03684 -11.107659,8.03684 -5.553828,0 -5.553828,-8.03684 -11.107658,-8.03684 -5.55383,0 -5.55383,8.03684 -11.107659,8.03684 -5.55383,0 -5.55383,-8.03684 -11.1076579,-8.03684 -5.553832,0 -5.553832,8.03684 -11.10766,8.03684 -5.5538291,0 -5.5538291,-8.03684 -5.5538291,-8.03684"
         style="fill:none;stroke:#000000;stroke-width:0.422334;stroke-linejoin:round;stroke-miterlimit:4;stroke-dasharray:none" />
      <path
         id="path11584"
         d="m 212.15026,248.66379 c 0,0 0,-8.03684 -5.55382,-8.03684 -5.55383,0 -5.55383,8.03684 -11.10766,8.03684 -5.55383,0 -5.55383,-8.03684 -11.10767,-8.03684 -5.55382,0 -5.55382,8.03684 -11.10765,8.03684 -5.55383,0 -5.55383,-8.03684 -11.10765,-8.03684 -5.55384,0 -5.55384,8.03684 -11.10766,8.03684 -5.55384,0 -5.55384,-8.03684 -11.10767,-8.03684 -5.55382,0 -5.55382,8.03684 -11.10765,8.03684 -5.55383,0 -5.55383,-8.03684 -11.10767,-8.03684 -5.55383,0 -5.55383,8.03684 -11.10766,8.03684 -5.55382,0 -5.55382,-8.03684 -11.107651,-8.03684 -5.55383,0 -5.55383,8.03684 -11.10766,8.03684 -5.55383,0 -5.55383,-8.03684 -11.10766,-8.03684 -5.55382,0 -5.55382,8.03684 -11.10766,8.03684 -5.553827,0 -5.553827,-8.03684 -11.107657,-8.03684 -5.553829,0 -5.553829,8.03684 -11.107659,8.03684 -5.553828,0 -5.553828,-8.03684 -11.107658,-8.03684 -5.55383,0 -5.55383,8.03684 -11.107659,8.03684 -5.55383,0 -5.55383,-8.03684 -11.1076579,-8.03684 -5.553832,0 -5.553832,8.03684 -11.10766,8.03684 -5.5538291,0 -5.5538291,-8.03684 -5.5538291,-8.03684"
         style="fill:none;stroke:#000000;stroke-width:0.422334;stroke-linejoin:round;stroke-miterlimit:4;stroke-dasharray:none" />
      <path
         id="path11586"
         d="m 212.15026,250.40524 c 0,0 0,-8.03684 -5.55382,-8.03684 -5.55383,0 -5.55383,8.03684 -11.10766,8.03684 -5.55383,0 -5.55383,-8.03684 -11.10767,-8.03684 -5.55382,0 -5.55382,8.03684 -11.10765,8.03684 -5.55383,0 -5.55383,-8.03684 -11.10765,-8.03684 -5.55384,0 -5.55384,8.03684 -11.10766,8.03684 -5.55384,0 -5.55384,-8.03684 -11.10767,-8.03684 -5.55382,0 -5.55382,8.03684 -11.10765,8.03684 -5.55383,0 -5.55383,-8.03684 -11.10767,-8.03684 -5.55383,0 -5.55383,8.03684 -11.10766,8.03684 -5.55382,0 -5.55382,-8.03684 -11.107651,-8.03684 -5.55383,0 -5.55383,8.03684 -11.10766,8.03684 -5.55383,0 -5.55383,-8.03684 -11.10766,-8.03684 -5.55382,0 -5.55382,8.03684 -11.10766,8.03684 -5.553827,0 -5.553827,-8.03684 -11.107657,-8.03684 -5.553829,0 -5.553829,8.03684 -11.107659,8.03684 -5.553828,0 -5.553828,-8.03684 -11.107658,-8.03684 -5.55383,0 -5.55383,8.03684 -11.107659,8.03684 -5.55383,0 -5.55383,-8.03684 -11.1076579,-8.03684 -5.553832,0 -5.553832,8.03684 -11.10766,8.03684 -5.5538291,0 -5.5538291,-8.03684 -5.5538291,-8.03684"
         style="fill:none;stroke:#000000;stroke-width:0.422334;stroke-linejoin:round;stroke-miterlimit:4;stroke-dasharray:none" />
    </g>
    <text
       xml:space="preserve"
       style="font-style:normal;font-weight:normal;font-size:7.05556px;line-height:1.25;font-family:sans-serif;letter-spacing:0px;word-spacing:0px;fill:#000000;fill-opacity:1;stroke:none;stroke-width:0.264583"
       x="72.436317"
       y="248.04898"
       id="text11756"><tspan
         sodipodi:role="line"
         id="tspan11754"
         style="font-size:7.05556px;stroke-width:0.264583"
         x="72.436317"
         y="248.04898">Crenulation cleavage</tspan></text>
  </g>
</svg>
