<?xml version="1.0" encoding="UTF-8" standalone="no"?>
<svg
   xmlns:dc="http://purl.org/dc/elements/1.1/"
   xmlns:cc="http://creativecommons.org/ns#"
   xmlns:rdf="http://www.w3.org/1999/02/22-rdf-syntax-ns#"
   xmlns:svg="http://www.w3.org/2000/svg"
   xmlns="http://www.w3.org/2000/svg"
   xmlns:sodipodi="http://sodipodi.sourceforge.net/DTD/sodipodi-0.dtd"
   xmlns:inkscape="http://www.inkscape.org/namespaces/inkscape"
   width="210mm"
   height="297mm"
   viewBox="0 0 210 297"
   version="1.1"
   id="svg10913"
   inkscape:version="1.0.2 (e86c870879, 2021-01-15, custom)"
   sodipodi:docname="Pumpellysrule.svg">
  <defs
     id="defs10907" />
  <sodipodi:namedview
     id="base"
     pagecolor="#ffffff"
     bordercolor="#666666"
     borderopacity="1.0"
     inkscape:pageopacity="0.0"
     inkscape:pageshadow="2"
     inkscape:zoom="0.49497475"
     inkscape:cx="719.80544"
     inkscape:cy="760.42036"
     inkscape:document-units="mm"
     inkscape:current-layer="layer1"
     inkscape:document-rotation="0"
     showgrid="false"
     inkscape:window-width="1920"
     inkscape:window-height="1163"
     inkscape:window-x="0"
     inkscape:window-y="0"
     inkscape:window-maximized="1" />
  <metadata
     id="metadata10910">
    <rdf:RDF>
      <cc:Work
         rdf:about="">
        <dc:format>image/svg+xml</dc:format>
        <dc:type
           rdf:resource="http://purl.org/dc/dcmitype/StillImage" />
        <dc:title></dc:title>
      </cc:Work>
    </rdf:RDF>
  </metadata>
  <g
     inkscape:label="Layer 1"
     inkscape:groupmode="layer"
     id="layer1">
    <path
       style="fill:none;stroke:#000000;stroke-width:0.259994;stroke-linecap:butt;stroke-linejoin:round;stroke-miterlimit:10;stroke-opacity:1"
       d="m 16.524873,180.39362 h 57.770115 l -2.22967,-12.66004 -4.06934,-9.27971 -2.59072,-3.3693 h -4.44968 l -3.50986,-0.85025 -3.1502,-4.20991 -2.59071,-5.4901 -1.85897,-2.10013 -3.88056,1.47037 h -3.8902 l -10.739053,2.73954 -5.931073,5.9104 -3.14882,10.32977 -2.220016,1.68948 -3.33072,9.91085 z m 0,0"
       id="path9133" />
    <path
       style="fill:none;stroke:#000000;stroke-width:0.259994;stroke-linecap:butt;stroke-linejoin:round;stroke-miterlimit:10;stroke-opacity:1"
       d="m 185.74039,163.60026 h -57.77012 l 2.22967,-12.66004 4.06934,-5.05925 6.26202,-1.27395 4.28824,-7.16606 3.1502,-4.20991 2.59071,-5.4901 v 0 0 l 5.73953,-0.62976 8.64572,1.19071 5.98354,1.54883 5.81153,9.16566 2.40652,7.59548 4.50747,6.11613 1.90511,4.96323 z"
       id="path11485"
       sodipodi:nodetypes="cccccccccccccccccc" />
  </g>
</svg>
