<?xml version="1.0" encoding="UTF-8" standalone="no"?>
<svg
   xmlns:dc="http://purl.org/dc/elements/1.1/"
   xmlns:cc="http://creativecommons.org/ns#"
   xmlns:rdf="http://www.w3.org/1999/02/22-rdf-syntax-ns#"
   xmlns:svg="http://www.w3.org/2000/svg"
   xmlns="http://www.w3.org/2000/svg"
   xmlns:sodipodi="http://sodipodi.sourceforge.net/DTD/sodipodi-0.dtd"
   xmlns:inkscape="http://www.inkscape.org/namespaces/inkscape"
   width="297mm"
   height="210mm"
   viewBox="0 0 297 210"
   version="1.1"
   id="svg8"
   inkscape:version="1.0.2 (e86c870879, 2021-01-15, custom)"
   sodipodi:docname="drawing-2.svg">
  <defs
     id="defs2">
    <clipPath
       clipPathUnits="userSpaceOnUse"
       id="clipPath858">
      <rect
         style="fill:#ff0000;stroke:#000000;stroke-width:0.255542;stroke-linecap:round;stroke-miterlimit:4;stroke-dasharray:none"
         id="rect860"
         width="119.82435"
         height="112.40566"
         x="54.915295"
         y="46.562984" />
    </clipPath>
    <clipPath
       clipPathUnits="userSpaceOnUse"
       id="clipPath900">
      <rect
         style="fill:none;stroke:#000000;stroke-width:0.255542;stroke-linecap:round;stroke-miterlimit:4;stroke-dasharray:none"
         id="rect902"
         width="119.82433"
         height="112.40567"
         x="54.915279"
         y="46.562981" />
    </clipPath>
  </defs>
  <sodipodi:namedview
     id="base"
     pagecolor="#ffffff"
     bordercolor="#666666"
     borderopacity="1.0"
     inkscape:pageopacity="0.0"
     inkscape:pageshadow="2"
     inkscape:zoom="0.8391835"
     inkscape:cx="561.25984"
     inkscape:cy="395.65876"
     inkscape:document-units="mm"
     inkscape:current-layer="layer1"
     inkscape:document-rotation="0"
     showgrid="false"
     inkscape:window-width="1920"
     inkscape:window-height="1131"
     inkscape:window-x="0"
     inkscape:window-y="0"
     inkscape:window-maximized="1" />
  <metadata
     id="metadata5">
    <rdf:RDF>
      <cc:Work
         rdf:about="">
        <dc:format>image/svg+xml</dc:format>
        <dc:type
           rdf:resource="http://purl.org/dc/dcmitype/StillImage" />
        <dc:title></dc:title>
      </cc:Work>
    </rdf:RDF>
  </metadata>
  <g
     inkscape:label="Layer 1"
     inkscape:groupmode="layer"
     id="layer1">
    <g
       id="g848"
       clip-path="url(#clipPath858)"
       transform="matrix(0.86945722,0,0,0.86945722,123.72984,-42.694184)">
      <path
         style="fill:none;stroke:#000000;stroke-width:6.61458;stroke-linecap:round;stroke-linejoin:miter;stroke-miterlimit:4;stroke-dasharray:none;stroke-opacity:1"
         d="M 175.25678,87.429497 C 146.27056,114.42581 117.4811,134.68827 125.19907,97.764263 130.725,71.327306 146.42873,27.460378 64.822257,109.06685 l -20.425239,20.85433"
         id="path833"
         sodipodi:nodetypes="csc" />
      <path
         style="fill:none;stroke:#000000;stroke-width:6.61458;stroke-linecap:round;stroke-linejoin:miter;stroke-miterlimit:4;stroke-dasharray:none;stroke-opacity:1"
         d="m 184.95678,96.173181 -29.34329,22.715949 c -39.63636,26.47862 -48.44603,22.78267 -43.45508,-8.47994 2.39992,-15.032764 10.34547,-46.631742 -47.381019,13.51952 l -14.629902,15.02952"
         id="path839"
         sodipodi:nodetypes="cscc" />
      <path
         style="fill:none;stroke:#000000;stroke-width:1.32292;stroke-linecap:round;stroke-linejoin:miter;stroke-miterlimit:4;stroke-dasharray:none;stroke-opacity:1"
         d="m 53.896598,145.95547 c 60.203952,-63.130892 48.608762,-33.08205 47.381022,-13.51952 -0.77962,12.42226 1.87371,30.49537 41.51007,4.01675 l 47.75983,-33.38899"
         id="path841"
         sodipodi:nodetypes="cscc" />
    </g>
    <g
       id="g868"
       clip-path="url(#clipPath900)"
       transform="matrix(0.86945722,0,0,0.86945722,122.98492,52.777851)">
      <path
         style="fill:#000000;stroke:#000000;stroke-width:3.77952753;stroke-linecap:round;stroke-miterlimit:4;stroke-dasharray:none"
         d="m 822.7261,688.54584 c -11.16421,-2.98673 -17.92772,-11.45904 -21.14095,-26.48219 -2.07904,-9.72034 -1.43036,-30.79534 1.7476,-56.77778 2.38694,-19.51516 2.78874,-35.95857 1.03317,-42.28061 -0.62489,-2.25027 -2.51882,-5.63889 -4.20876,-7.53026 -2.85486,-3.19513 -3.56452,-3.43886 -10.01308,-3.43886 -6.04068,0 -8.11699,0.59656 -16.01569,4.60157 -19.73521,10.00668 -45.62652,32.03896 -93.6705,79.70918 l -34.15513,33.88942 v -6.46546 -6.46546 l 48.1399,-48.50303 c 26.47695,-26.67666 53.46488,-53.23085 59.97318,-59.00931 30.35308,-26.94926 54.91202,-43.8255 65.92637,-45.30284 4.36741,-0.58579 4.39212,-0.56908 5.15206,3.48176 1.19149,6.35116 -0.25661,23.97051 -3.70995,45.13993 -4.54242,27.84569 -5.90309,43.12263 -5.17058,58.05293 1.26177,25.71791 8.16059,39.28932 23.59604,46.41827 6.15719,2.84373 7.713,3.09902 18.55402,3.04466 10.73302,-0.0538 12.91427,-0.42806 23.4596,-4.02495 33.48661,-11.42192 81.16664,-39.83462 128.2214,-76.40763 l 26.8938,-20.90301 0.3278,5.95653 c 0.2133,3.87601 -0.1625,6.42607 -1.0758,7.30083 -2.519,2.41279 -103.00678,72.4257 -114.75364,79.95239 -32.24648,20.66162 -60.10622,33.43008 -79.97784,36.65481 -8.74003,1.41832 -11.92848,1.31651 -19.13302,-0.61089 z"
         id="path898"
         transform="matrix(0.30430863,0,0,0.30430863,-141.45023,-60.702068)" />
      <path
         style="fill:#000000;stroke:#000000;stroke-width:7.55905506;stroke-linecap:round;stroke-miterlimit:4;stroke-dasharray:none"
         d="m 851.1485,633.9286 c -10.33583,-4.65074 -11.47883,-30.32652 -3.45399,-77.58945 2.92322,-17.21655 3.47582,-23.23799 3.50472,-38.1892 0.0315,-16.28989 -0.16933,-18.19233 -2.44124,-23.12867 -9.17561,-19.93635 -29.04932,-22.63563 -55.53395,-7.54272 -26.41953,15.05583 -56.71149,41.30458 -111.68851,96.78097 l -35.229,35.549 -0.002,-5.76009 -0.002,-5.76009 42.76114,-42.69025 c 93.21243,-93.05789 152.17852,-141.37723 181.42468,-148.66714 4.715,-1.17527 5.4168,-1.11328 6.66107,0.58837 4.64009,6.34569 2.41565,27.67486 -7.66309,73.47821 -8.84463,40.19486 -10.29277,49.24438 -10.26297,64.13365 0.0441,22.04613 6.64333,35.13451 21.05525,41.75951 6.806,3.12866 20.40139,3.33429 30.12106,0.45558 24.95868,-7.39208 62.2376,-32.60743 108.91993,-73.67308 l 18.5567,-16.32405 -0.055,9.43447 -0.055,9.43447 -33.4555,25.81805 c -36.52294,28.18526 -47.99264,36.19362 -74.96779,52.34396 -39.15311,23.44143 -67.7508,34.248 -78.19498,29.5485 z"
         id="path896"
         transform="matrix(0.30430863,0,0,0.30430863,-141.45023,-60.702068)" />
      <path
         style="color:#000000;font-style:normal;font-variant:normal;font-weight:normal;font-stretch:normal;font-size:medium;line-height:normal;font-family:sans-serif;font-variant-ligatures:normal;font-variant-position:normal;font-variant-caps:normal;font-variant-numeric:normal;font-variant-alternates:normal;font-variant-east-asian:normal;font-feature-settings:normal;font-variation-settings:normal;text-indent:0;text-align:start;text-decoration:none;text-decoration-line:none;text-decoration-style:solid;text-decoration-color:#000000;letter-spacing:normal;word-spacing:normal;text-transform:none;writing-mode:lr-tb;direction:ltr;text-orientation:mixed;dominant-baseline:auto;baseline-shift:baseline;text-anchor:start;white-space:normal;shape-padding:0;shape-margin:0;inline-size:0;clip-rule:nonzero;display:inline;overflow:visible;visibility:visible;isolation:auto;mix-blend-mode:normal;color-interpolation:sRGB;color-interpolation-filters:linearRGB;solid-color:#000000;solid-opacity:1;vector-effect:none;fill:none;fill-opacity:1;fill-rule:nonzero;stroke:#000000;stroke-linecap:round;stroke-linejoin:miter;stroke-miterlimit:4;stroke-dasharray:none;stroke-dashoffset:0;stroke-opacity:1;color-rendering:auto;image-rendering:auto;shape-rendering:auto;text-rendering:auto;enable-background:accumulate;stop-color:#000000;stop-opacity:1;opacity:1"
         d="M 125.30664 58.759766 C 123.70985 58.66881 121.98905 58.946894 120.23633 59.507812 C 116.73088 60.62965 112.67525 62.864128 107.5625 66.447266 C 97.336995 73.613541 82.95325 86.259641 62.484375 106.72852 L 62.470703 106.74023 L 42.035156 127.60742 A 3.3072901 3.3072901 0 0 0 42.082031 132.2832 A 3.3072901 3.3072901 0 0 0 46.759766 132.23633 L 67.160156 111.40625 L 67.171875 111.39453 L 67.185547 111.38086 C 87.505152 91.062872 101.75456 78.594564 111.35938 71.863281 C 116.16397 68.496111 119.82453 66.586059 122.25391 65.808594 C 124.68328 65.031129 125.45734 65.368894 125.73633 65.572266 C 126.01532 65.775637 126.55306 66.582664 126.75 68.537109 C 126.94694 70.491555 126.76676 73.280614 126.30078 76.416016 C 125.36883 82.686819 123.36913 90.35087 121.96094 97.087891 C 119.95959 106.66267 119.83806 113.05691 123.00391 117.45508 C 124.58683 119.65416 127.17714 120.93731 129.74805 121.13672 C 132.31896 121.33613 134.91479 120.71575 137.66016 119.65039 C 148.64162 115.38895 162.92098 103.43869 177.51172 89.849609 A 3.3072901 3.3072901 0 0 0 177.67773 85.175781 A 3.3072901 3.3072901 0 0 0 173.00195 85.009766 C 158.60647 98.416995 143.99791 110.09651 135.26758 113.48438 C 133.085 114.33134 131.32796 114.62387 130.25977 114.54102 C 129.19157 114.45816 128.85671 114.26373 128.37305 113.5918 C 127.40573 112.24794 126.57791 107.32863 128.43555 98.441406 C 129.79032 91.959948 131.82729 84.226157 132.84375 77.386719 C 133.35198 73.967 133.62415 70.772014 133.33203 67.873047 C 133.03992 64.97408 132.14589 62.058463 129.63281 60.226562 C 128.37628 59.310612 126.90344 58.850722 125.30664 58.759766 z "
         id="path862" />
      <path
         style="color:#000000;font-style:normal;font-variant:normal;font-weight:normal;font-stretch:normal;font-size:medium;line-height:normal;font-family:sans-serif;font-variant-ligatures:normal;font-variant-position:normal;font-variant-caps:normal;font-variant-numeric:normal;font-variant-alternates:normal;font-variant-east-asian:normal;font-feature-settings:normal;font-variation-settings:normal;text-indent:0;text-align:start;text-decoration:none;text-decoration-line:none;text-decoration-style:solid;text-decoration-color:#000000;letter-spacing:normal;word-spacing:normal;text-transform:none;writing-mode:lr-tb;direction:ltr;text-orientation:mixed;dominant-baseline:auto;baseline-shift:baseline;text-anchor:start;white-space:normal;shape-padding:0;shape-margin:0;inline-size:0;clip-rule:nonzero;display:inline;overflow:visible;visibility:visible;isolation:auto;mix-blend-mode:normal;color-interpolation:sRGB;color-interpolation-filters:linearRGB;solid-color:#000000;solid-opacity:1;vector-effect:none;fill:none;fill-opacity:1;fill-rule:nonzero;stroke:#000000;stroke-linecap:round;stroke-linejoin:miter;stroke-miterlimit:4;stroke-dasharray:none;stroke-dashoffset:0;stroke-opacity:1;color-rendering:auto;image-rendering:auto;shape-rendering:auto;text-rendering:auto;enable-background:accumulate;stop-color:#000000;stop-opacity:1;opacity:1"
         d="M 108.70312 85.285156 C 107.40619 85.336481 106.05006 85.643428 104.66211 86.136719 C 101.8862 87.123299 98.763948 88.898267 94.943359 91.638672 C 87.305767 97.116911 76.903096 106.5187 62.408203 121.62109 L 62.402344 121.62695 C 62.397807 121.63168 62.395162 121.63394 62.390625 121.63867 L 47.777344 136.65039 A 3.3072901 3.3072901 0 0 0 47.839844 141.32812 A 3.3072901 3.3072901 0 0 0 52.517578 141.26562 L 67.15625 126.22656 L 67.164062 126.21875 C 81.521764 111.25796 91.769218 102.05582 98.798828 97.013672 C 102.31363 94.492597 105.031 93.025206 106.87695 92.369141 C 108.7229 91.713075 109.48315 91.910064 109.63672 91.980469 C 109.79029 92.050873 109.98656 92.152639 110.25977 93.119141 C 110.53297 94.085642 110.66369 95.703908 110.58203 97.576172 C 110.41872 101.3207 109.50891 106.02805 108.89258 109.88867 C 107.61936 117.86392 107.14654 124.18001 108.00977 129.20703 C 108.44138 131.72054 109.22688 133.96243 110.62891 135.81055 C 112.03093 137.65867 114.10327 138.98829 116.40039 139.52344 C 120.99464 140.59374 126.1685 139.15752 132.77539 136.13867 C 139.38228 133.11982 147.46547 128.3095 157.45117 121.63867 L 157.54688 121.57422 L 186.98047 98.789062 A 3.3072901 3.3072901 0 0 0 187.57227 94.148438 A 3.3072901 3.3072901 0 0 0 182.93164 93.558594 L 153.71289 116.17773 C 143.91254 122.72191 136.04794 127.37119 130.02539 130.12305 C 123.98871 132.88136 119.83923 133.53372 117.90039 133.08203 C 116.93097 132.85619 116.43486 132.52155 115.89844 131.81445 C 115.36201 131.10735 114.84106 129.90345 114.5293 128.08789 C 113.90577 124.45677 114.20157 118.58575 115.42383 110.92969 C 116.00746 107.27392 116.99195 102.39375 117.18945 97.865234 C 117.28821 95.600975 117.21575 93.410167 116.625 91.320312 C 116.03425 89.230458 114.70568 87.028312 112.39453 85.96875 C 111.23896 85.438969 110.00006 85.233831 108.70312 85.285156 z "
         id="path864" />
      <path
         style="fill:none;stroke:#000000;stroke-width:1.32292;stroke-linecap:round;stroke-linejoin:miter;stroke-miterlimit:4;stroke-dasharray:none;stroke-opacity:1"
         d="m 53.896598,145.95547 c 60.203952,-63.130892 48.608762,-33.08205 47.381022,-13.51952 -0.77962,12.42226 1.87371,30.49537 41.51007,4.01675 l 47.75983,-33.38899"
         id="path866"
         sodipodi:nodetypes="cscc" />
    </g>
  </g>
</svg>
