<?xml version="1.0" encoding="UTF-8" standalone="no"?>
<!-- Created with Inkscape (http://www.inkscape.org/) -->

<svg
   width="149.65018mm"
   height="65.264679mm"
   viewBox="0 0 149.65018 65.264679"
   version="1.1"
   id="svg5"
   inkscape:version="1.1 (c4e8f9ed74, 2021-05-24)"
   sodipodi:docname="Slaty_cleavage.svg"
   xmlns:inkscape="http://www.inkscape.org/namespaces/inkscape"
   xmlns:sodipodi="http://sodipodi.sourceforge.net/DTD/sodipodi-0.dtd"
   xmlns="http://www.w3.org/2000/svg"
   xmlns:svg="http://www.w3.org/2000/svg">
  <sodipodi:namedview
     id="namedview7"
     pagecolor="#ffffff"
     bordercolor="#cccccc"
     borderopacity="1"
     inkscape:pageshadow="0"
     inkscape:pageopacity="1"
     inkscape:pagecheckerboard="0"
     inkscape:document-units="mm"
     showgrid="false"
     inkscape:snap-nodes="false"
     inkscape:snap-others="false"
     inkscape:zoom="0.5499273"
     inkscape:cx="570.98456"
     inkscape:cy="201.84486"
     inkscape:window-width="1920"
     inkscape:window-height="1043"
     inkscape:window-x="0"
     inkscape:window-y="0"
     inkscape:window-maximized="1"
     inkscape:current-layer="layer1"
     fit-margin-top="10"
     fit-margin-left="10"
     fit-margin-right="10"
     fit-margin-bottom="10" />
  <defs
     id="defs2">
    <marker
       style="overflow:visible"
       id="Arrow1Lend"
       refX="0"
       refY="0"
       orient="auto"
       inkscape:stockid="Arrow1Lend"
       inkscape:isstock="true">
      <path
         transform="matrix(-0.8,0,0,-0.8,-10,0)"
         style="fill:context-stroke;fill-rule:evenodd;stroke:context-stroke;stroke-width:1pt"
         d="M 0,0 5,-5 -12.5,0 5,5 Z"
         id="path17104" />
    </marker>
    <marker
       style="overflow:visible"
       id="marker17371"
       refX="0"
       refY="0"
       orient="auto"
       inkscape:stockid="Arrow2Lend"
       inkscape:isstock="true">
      <path
         transform="matrix(-1.1,0,0,-1.1,-1.1,0)"
         d="M 8.7185878,4.0337352 -2.2072895,0.01601326 8.7185884,-4.0017078 c -1.7454984,2.3720609 -1.7354408,5.6174519 -6e-7,8.035443 z"
         style="fill:context-stroke;fill-rule:evenodd;stroke-width:0.625;stroke-linejoin:round"
         id="path17369" />
    </marker>
    <marker
       style="overflow:visible"
       id="Arrow2Lend"
       refX="0"
       refY="0"
       orient="auto"
       inkscape:stockid="Arrow2Lend"
       inkscape:isstock="true">
      <path
         transform="matrix(-1.1,0,0,-1.1,-1.1,0)"
         d="M 8.7185878,4.0337352 -2.2072895,0.01601326 8.7185884,-4.0017078 c -1.7454984,2.3720609 -1.7354408,5.6174519 -6e-7,8.035443 z"
         style="fill:context-stroke;fill-rule:evenodd;stroke-width:0.625;stroke-linejoin:round"
         id="path17122" />
    </marker>
    <inkscape:path-effect
       effect="rough_hatches"
       id="path-effect11231"
       is_visible="true"
       lpeversion="1"
       direction="108.41176,220.55374 , 38.013042,0"
       dist_rdm="0;1"
       growth="0"
       do_bend="false"
       bender="108.41176,225.55374 , 5,0"
       bottom_edge_variation="0;1"
       top_edge_variation="0;1"
       bottom_tgt_variation="0;1"
       top_tgt_variation="0;1"
       scale_bf="1"
       scale_bb="1"
       scale_tf="1"
       scale_tb="1"
       top_smth_variation="0;1"
       bottom_smth_variation="0;1"
       fat_output="false"
       stroke_width_top="1"
       stroke_width_bottom="1"
       front_thickness="1"
       back_thickness="0.25" />
    <inkscape:path-effect
       effect="rough_hatches"
       id="path-effect7911"
       is_visible="true"
       lpeversion="1"
       direction="94.932806,41.922538 , 37.648266,0"
       dist_rdm="50;2147483646"
       growth="0"
       do_bend="true"
       bender="94.932806,46.922538 , 5,0"
       bottom_edge_variation="2.1038298;1"
       top_edge_variation="2.1038298;1"
       bottom_tgt_variation="0;1"
       top_tgt_variation="0;1"
       scale_bf="1"
       scale_bb="1"
       scale_tf="1"
       scale_tb="1"
       top_smth_variation="2.7;1"
       bottom_smth_variation="0;1"
       fat_output="true"
       stroke_width_top="1"
       stroke_width_bottom="1"
       front_thickness="1"
       back_thickness="0.25" />
    <inkscape:path-effect
       effect="rough_hatches"
       id="path-effect7907"
       is_visible="true"
       lpeversion="1"
       direction="94.932806,41.922538 , 37.648266,0"
       dist_rdm="50;2147483646"
       growth="0"
       do_bend="true"
       bender="94.932806,46.922538 , 5,0"
       bottom_edge_variation="2.1038298;1"
       top_edge_variation="2.1038298;1"
       bottom_tgt_variation="0;1"
       top_tgt_variation="0;1"
       scale_bf="1"
       scale_bb="1"
       scale_tf="1"
       scale_tb="1"
       top_smth_variation="2.7;1"
       bottom_smth_variation="0;1"
       fat_output="true"
       stroke_width_top="1"
       stroke_width_bottom="1"
       front_thickness="1"
       back_thickness="0.25" />
    <inkscape:path-effect
       effect="rough_hatches"
       id="path-effect7903"
       is_visible="true"
       lpeversion="1"
       direction="94.932806,41.922538 , 37.648266,0"
       dist_rdm="50;2147483646"
       growth="0"
       do_bend="true"
       bender="94.932806,46.922538 , 5,0"
       bottom_edge_variation="2.1038298;1"
       top_edge_variation="2.1038298;1"
       bottom_tgt_variation="0;1"
       top_tgt_variation="0;1"
       scale_bf="1"
       scale_bb="1"
       scale_tf="1"
       scale_tb="1"
       top_smth_variation="2.7;1"
       bottom_smth_variation="0;1"
       fat_output="true"
       stroke_width_top="1"
       stroke_width_bottom="1"
       front_thickness="1"
       back_thickness="0.25" />
    <inkscape:path-effect
       effect="rough_hatches"
       id="path-effect7899"
       is_visible="true"
       lpeversion="1"
       direction="94.932806,41.922538 , 37.648266,0"
       dist_rdm="50;2147483646"
       growth="0"
       do_bend="true"
       bender="94.932806,46.922538 , 5,0"
       bottom_edge_variation="2.1038298;1"
       top_edge_variation="2.1038298;1"
       bottom_tgt_variation="0;1"
       top_tgt_variation="0;1"
       scale_bf="1"
       scale_bb="1"
       scale_tf="1"
       scale_tb="1"
       top_smth_variation="2.7;1"
       bottom_smth_variation="0;1"
       fat_output="true"
       stroke_width_top="1"
       stroke_width_bottom="1"
       front_thickness="1"
       back_thickness="0.25" />
    <inkscape:path-effect
       effect="rough_hatches"
       id="path-effect7895"
       is_visible="true"
       lpeversion="1"
       direction="94.932806,41.922538 , 37.648266,0"
       dist_rdm="50;2147483646"
       growth="0"
       do_bend="true"
       bender="94.932806,46.922538 , 5,0"
       bottom_edge_variation="2.1038298;1"
       top_edge_variation="2.1038298;1"
       bottom_tgt_variation="0;1"
       top_tgt_variation="0;1"
       scale_bf="1"
       scale_bb="1"
       scale_tf="1"
       scale_tb="1"
       top_smth_variation="2.7;1"
       bottom_smth_variation="0;1"
       fat_output="true"
       stroke_width_top="1"
       stroke_width_bottom="1"
       front_thickness="1"
       back_thickness="0.25" />
    <inkscape:path-effect
       effect="rough_hatches"
       id="path-effect4876"
       is_visible="true"
       lpeversion="1"
       direction="94.932806,41.922538 , 37.648266,0"
       dist_rdm="50;2147483646"
       growth="0"
       do_bend="true"
       bender="94.932806,46.922538 , 5,0"
       bottom_edge_variation="2.1038298;1"
       top_edge_variation="2.1038298;1"
       bottom_tgt_variation="0;1"
       top_tgt_variation="0;1"
       scale_bf="1"
       scale_bb="1"
       scale_tf="1"
       scale_tb="1"
       top_smth_variation="2.7;1"
       bottom_smth_variation="0;1"
       fat_output="true"
       stroke_width_top="1"
       stroke_width_bottom="1"
       front_thickness="1"
       back_thickness="0.25" />
    <inkscape:path-effect
       effect="rough_hatches"
       id="path-effect4870"
       is_visible="true"
       lpeversion="1"
       direction="94.932806,41.922538 , 37.648266,0"
       dist_rdm="50;2147483646"
       growth="0"
       do_bend="true"
       bender="94.932806,46.922538 , 5,0"
       bottom_edge_variation="2.1038298;1"
       top_edge_variation="2.1038298;1"
       bottom_tgt_variation="0;1"
       top_tgt_variation="0;1"
       scale_bf="1"
       scale_bb="1"
       scale_tf="1"
       scale_tb="1"
       top_smth_variation="2.7;1"
       bottom_smth_variation="0;1"
       fat_output="true"
       stroke_width_top="1"
       stroke_width_bottom="1"
       front_thickness="1"
       back_thickness="0.25" />
    <inkscape:path-effect
       effect="rough_hatches"
       id="path-effect4864"
       is_visible="true"
       lpeversion="1"
       direction="94.932806,41.922538 , 37.648266,0"
       dist_rdm="50;2147483646"
       growth="0"
       do_bend="true"
       bender="94.932806,46.922538 , 5,0"
       bottom_edge_variation="2.1038298;1"
       top_edge_variation="2.1038298;1"
       bottom_tgt_variation="0;1"
       top_tgt_variation="0;1"
       scale_bf="1"
       scale_bb="1"
       scale_tf="1"
       scale_tb="1"
       top_smth_variation="2.7;1"
       bottom_smth_variation="0;1"
       fat_output="true"
       stroke_width_top="1"
       stroke_width_bottom="1"
       front_thickness="1"
       back_thickness="0.25" />
    <inkscape:path-effect
       effect="rough_hatches"
       id="path-effect4858"
       is_visible="true"
       lpeversion="1"
       direction="94.932806,41.922538 , 37.648266,0"
       dist_rdm="50;2147483646"
       growth="0"
       do_bend="true"
       bender="94.932806,46.922538 , 5,0"
       bottom_edge_variation="2.1038298;1"
       top_edge_variation="2.1038298;1"
       bottom_tgt_variation="0;1"
       top_tgt_variation="0;1"
       scale_bf="1"
       scale_bb="1"
       scale_tf="1"
       scale_tb="1"
       top_smth_variation="2.7;1"
       bottom_smth_variation="0;1"
       fat_output="true"
       stroke_width_top="1"
       stroke_width_bottom="1"
       front_thickness="1"
       back_thickness="0.25" />
    <inkscape:path-effect
       effect="rough_hatches"
       id="path-effect4852"
       is_visible="true"
       lpeversion="1"
       direction="94.932806,41.922538 , 37.648266,0"
       dist_rdm="50;2147483646"
       growth="0"
       do_bend="true"
       bender="94.932806,46.922538 , 5,0"
       bottom_edge_variation="2.1038298;1"
       top_edge_variation="2.1038298;1"
       bottom_tgt_variation="0;1"
       top_tgt_variation="0;1"
       scale_bf="1"
       scale_bb="1"
       scale_tf="1"
       scale_tb="1"
       top_smth_variation="2.7;1"
       bottom_smth_variation="0;1"
       fat_output="true"
       stroke_width_top="1"
       stroke_width_bottom="1"
       front_thickness="1"
       back_thickness="0.25" />
    <inkscape:path-effect
       effect="rough_hatches"
       id="path-effect1290"
       is_visible="true"
       lpeversion="1"
       direction="94.932806,41.922538 , 37.648266,0"
       dist_rdm="50;2147483646"
       growth="0"
       do_bend="true"
       bender="94.932806,46.922538 , 5,0"
       bottom_edge_variation="2.1038298;1"
       top_edge_variation="2.1038298;1"
       bottom_tgt_variation="0;1"
       top_tgt_variation="0;1"
       scale_bf="1"
       scale_bb="1"
       scale_tf="1"
       scale_tb="1"
       top_smth_variation="2.7;1"
       bottom_smth_variation="0;1"
       fat_output="true"
       stroke_width_top="1"
       stroke_width_bottom="1"
       front_thickness="1"
       back_thickness="0.25" />
    <inkscape:path-effect
       effect="rough_hatches"
       id="path-effect1284"
       is_visible="true"
       lpeversion="1"
       direction="94.932806,41.922538 , 37.648266,0"
       dist_rdm="50;2147483646"
       growth="0"
       do_bend="true"
       bender="94.932806,46.922538 , 5,0"
       bottom_edge_variation="2.1038298;1"
       top_edge_variation="2.1038298;1"
       bottom_tgt_variation="0;1"
       top_tgt_variation="0;1"
       scale_bf="1"
       scale_bb="1"
       scale_tf="1"
       scale_tb="1"
       top_smth_variation="2.7;1"
       bottom_smth_variation="0;1"
       fat_output="true"
       stroke_width_top="1"
       stroke_width_bottom="1"
       front_thickness="1"
       back_thickness="0.25" />
    <inkscape:path-effect
       effect="rough_hatches"
       id="path-effect1278"
       is_visible="true"
       lpeversion="1"
       direction="94.932806,41.922538 , 37.648266,0"
       dist_rdm="50;2147483646"
       growth="0"
       do_bend="true"
       bender="94.932806,46.922538 , 5,0"
       bottom_edge_variation="2.1038298;1"
       top_edge_variation="2.1038298;1"
       bottom_tgt_variation="0;1"
       top_tgt_variation="0;1"
       scale_bf="1"
       scale_bb="1"
       scale_tf="1"
       scale_tb="1"
       top_smth_variation="2.7;1"
       bottom_smth_variation="0;1"
       fat_output="true"
       stroke_width_top="1"
       stroke_width_bottom="1"
       front_thickness="1"
       back_thickness="0.25" />
    <inkscape:path-effect
       effect="rough_hatches"
       id="path-effect1272"
       is_visible="true"
       lpeversion="1"
       direction="94.932806,41.922538 , 37.648266,0"
       dist_rdm="50;2147483646"
       growth="0"
       do_bend="true"
       bender="94.932806,46.922538 , 5,0"
       bottom_edge_variation="2.1038298;1"
       top_edge_variation="2.1038298;1"
       bottom_tgt_variation="0;1"
       top_tgt_variation="0;1"
       scale_bf="1"
       scale_bb="1"
       scale_tf="1"
       scale_tb="1"
       top_smth_variation="2.7;1"
       bottom_smth_variation="0;1"
       fat_output="true"
       stroke_width_top="1"
       stroke_width_bottom="1"
       front_thickness="1"
       back_thickness="0.25" />
    <inkscape:path-effect
       effect="rough_hatches"
       id="path-effect1144"
       is_visible="true"
       lpeversion="1"
       direction="94.932806,41.922538 , 37.648266,0"
       dist_rdm="50;2147483646"
       growth="0"
       do_bend="true"
       bender="94.932806,46.922538 , 5,0"
       bottom_edge_variation="2.1038298;1"
       top_edge_variation="2.1038298;1"
       bottom_tgt_variation="0;1"
       top_tgt_variation="0;1"
       scale_bf="1"
       scale_bb="1"
       scale_tf="1"
       scale_tb="1"
       top_smth_variation="2.7;1"
       bottom_smth_variation="0;1"
       fat_output="true"
       stroke_width_top="1"
       stroke_width_bottom="1"
       front_thickness="1"
       back_thickness="0.25" />
    <inkscape:path-effect
       effect="rough_hatches"
       id="path-effect939"
       is_visible="true"
       lpeversion="1"
       direction="100.2359,108.62355 , 36.807384,0"
       dist_rdm="75;1"
       growth="0"
       do_bend="true"
       bender="100.2359,113.62355 , 5,0"
       bottom_edge_variation="0;1"
       top_edge_variation="0;1"
       bottom_tgt_variation="0;1"
       top_tgt_variation="0;1"
       scale_bf="1"
       scale_bb="1"
       scale_tf="1"
       scale_tb="1"
       top_smth_variation="0;1"
       bottom_smth_variation="0;1"
       fat_output="true"
       stroke_width_top="1"
       stroke_width_bottom="1"
       front_thickness="1"
       back_thickness="0.25" />
    <filter
       inkscape:label="Chalk and Sponge"
       inkscape:menu="Distort"
       inkscape:menu-tooltip="Low turbulence gives sponge look and high turbulence chalk"
       width="1.0072433"
       height="1.4254672"
       y="-0.21273358"
       x="-0.0036187081"
       style="color-interpolation-filters:sRGB"
       id="filter1248">
      <feTurbulence
         baseFrequency="0.4"
         type="fractalNoise"
         seed="0"
         numOctaves="5"
         result="result1"
         id="feTurbulence1244" />
      <feDisplacementMap
         xChannelSelector="R"
         yChannelSelector="G"
         scale="30"
         in="SourceGraphic"
         in2="result1"
         id="feDisplacementMap1246" />
    </filter>
    <clipPath
       clipPathUnits="userSpaceOnUse"
       id="clipPath11750">
      <rect
         style="fill:none;stroke:#000000;stroke-width:0.835645;stroke-linejoin:round;stroke-miterlimit:4;stroke-dasharray:none"
         id="rect11752"
         width="110.03429"
         height="64.519363"
         x="-298.60486"
         y="8.1136074"
         transform="rotate(-90)" />
    </clipPath>
    <clipPath
       clipPathUnits="userSpaceOnUse"
       id="clipPath13689">
      <rect
         style="fill:none;stroke:#000000;stroke-width:0.895505;stroke-linejoin:round;stroke-miterlimit:4;stroke-dasharray:none"
         id="rect13691"
         width="110.00704"
         height="74.111839"
         x="-298.59122"
         y="14.221037"
         transform="rotate(-90)" />
    </clipPath>
  </defs>
  <g
     inkscape:label="Layer 1"
     inkscape:groupmode="layer"
     id="layer1"
     transform="translate(-32.289638,-120.23959)">
    <g
       id="g1639">
      <g
         id="g1547"
         transform="translate(-0.56274827)">
        <path
           style="fill:none;stroke:#000000;stroke-width:1.48082;stroke-linejoin:round;stroke-miterlimit:4;stroke-dasharray:none;filter:url(#filter1248)"
           id="path7843"
           width="317.90515"
           height="3.3580818"
           x="-34.056259"
           y="35.636787"
           ry="0"
           inkscape:path-effect="#path-effect7907"
           sodipodi:type="rect"
           transform="matrix(0.2705621,0,0,0.47197036,73.003721,144.63827)"
           d="m 283.17414,35.636787 c 0,0 0.20245,0.136155 0.3697,0.27001 0.17013,0.136154 0.30505,0.270009 0.30505,0.270009 0,0 -0.13492,-0.133855 -0.30505,-0.270009 -0.16725,-0.133855 -0.3697,-0.27001 -0.3697,-0.27001 z m 0.67475,2.818064 c 0,0 -0.41794,-0.139476 -3.04432,-0.139476 -1.48541,0 -1.72576,-0.589521 -2.4878,-1.179041 -0.76204,-0.589521 -2.04576,-1.179041 -3.15241,-1.179041 -1.29415,0 -1.06183,0.741555 -1.71693,1.48311 -0.65509,0.741555 -2.19762,1.48311 -3.14031,1.48311 -1.15272,0 -0.89132,-0.589521 -1.60061,-1.179041 -0.70928,-0.589521 -2.38924,-1.179041 -4.95917,-1.179041 -2.75743,0 -3.78943,0.540212 -5.04585,1.080424 -1.25642,0.540212 -2.73728,1.080424 -4.32212,1.080424 -1.75862,0 -1.92019,-0.589521 -2.61052,-1.179041 -0.69033,-0.589521 -1.90942,-1.179041 -3.31755,-1.179041 -1.59563,0 -2.21418,0.229979 -2.76511,0.459958 -0.55094,0.22998 -1.03428,0.459959 -1.98429,0.459959 -1.13258,0 -1.72981,-0.589521 -2.91303,-1.179041 -1.18323,-0.58952 -2.95244,-1.179041 -3.9635,-1.179041 -1.19856,0 -0.1763,0.770318 -0.42112,1.540637 -0.24481,0.770318 -1.7567,1.540636 -3.81388,1.540636 -2.24223,0 -3.00921,-0.58952 -4.41014,-1.179041 -1.40093,-0.58952 -3.43582,-1.17904 -5.7484,-1.17904 -2.50007,0 -2.68251,0.733337 -3.54906,1.466673 -0.86656,0.733337 -2.41723,1.466674 -3.83858,1.466674 -1.62086,0 -1.77459,-0.58952 -2.70291,-1.179041 -0.92833,-0.58952 -2.63125,-1.17904 -4.885,-1.17904 -2.44124,0 -3.07493,0.622392 -4.16294,1.244785 -1.08801,0.622393 -2.63035,1.244786 -4.14079,1.244786 -1.68173,0 -1.81084,-0.589521 -2.44012,-1.179041 -0.62929,-0.589521 -1.75876,-1.179041 -2.9757,-1.179041 -1.40445,0 -1.55497,0.667592 -2.45024,1.335184 -0.89527,0.667593 -2.53531,1.335185 -3.75704,1.335185 -1.42631,0 -1.24878,-0.58952 -1.92021,-1.179041 -0.67143,-0.58952 -2.19183,-1.179041 -4.54852,-1.179041 -2.54419,0 -3.70232,0.205325 -4.89685,0.41065 -1.19453,0.205325 -2.42547,0.41065 -4.81619,0.41065 -2.5799,0 -3.7793,-0.58952 -5.63855,-1.179041 -1.85924,-0.58952 -4.37833,-1.179041 -7.1321,-1.179041 -2.94126,0 -3.24595,0.610066 -3.83075,1.220132 -0.58479,0.610065 -1.4497,1.220131 -2.87105,1.220131 -1.62104,0 -2.3032,-0.589521 -3.76176,-1.179041 -1.45855,-0.58952 -3.69349,-1.179041 -5.95459,-1.179041 -2.4486,0 -2.29546,0.74361 -3.06297,1.487219 -0.76751,0.74361 -2.45567,1.487219 -4.66409,1.487219 -2.40374,0 -3.14973,-0.58952 -4.5996,-1.179041 -1.44987,-0.58952 -3.60362,-1.179041 -6.35738,-1.179041 -2.94126,0 -3.82402,0.451868 -4.88949,0.903736 -1.06547,0.451867 -2.31365,0.903735 -4.53723,0.903735 -2.42156,0 -3.46275,-0.589521 -5.22542,-1.179041 -1.76268,-0.589521 -4.24683,-1.179041 -7.08883,-1.179041 -3.029504,0 -3.28816,0.702519 -4.139519,1.405038 -0.851358,0.702519 -2.295419,1.405038 -4.194473,1.405038 -2.050636,0 -2.697438,-0.58952 -3.717266,-1.179041 -1.019828,-0.58952 -2.412682,-1.179041 -3.489921,-1.179041 -1.264738,0 -0.834721,0.76621 -1.568883,1.532419 -0.734162,0.766209 -2.632502,1.532419 -4.389076,1.532419 -1.921171,0 -2.128642,-0.589521 -2.798493,-1.179041 -0.669851,-0.589521 -1.802081,-1.179041 -3.107268,-1.179041 -1.492687,0 -1.870135,0.492958 -2.690447,0.985916 -0.820312,0.492958 -2.083488,0.985916 -3.623671,0.985916 -1.752393,0 -2.055167,-0.589521 -3.24304,-1.179041 -1.187874,-0.589521 -3.260847,-1.179041 -6.088142,-1.179041 -3.014795,0 -4.125091,0.367632 -5.074878,0.735264 -0.949786,0.367632 -1.739062,0.735264 -3.153002,0.735264 -1.602689,0 -2.306952,-0.58952 -3.678219,-1.179041 -1.371267,-0.58952 -3.409538,-1.17904 -5.214741,-1.17904 -1.992703,0 -2.06289,0.490903 -2.567173,0.981806 -0.504284,0.490904 -1.442665,0.981807 -3.462137,0.981807 -2.212038,0 -3.420324,-0.58952 -5.317914,-1.179041 -1.89759,-0.58952 -4.484485,-1.179041 -6.98824,-1.179041 -2.691255,0 -2.746632,0.577194 -3.176062,1.154387 -0.42943,0.577193 -1.232913,1.154387 -3.056908,1.154387 -2.018789,0 -3.15726,-0.589521 -5.007613,-1.179041 C 10.136432,35.3141 7.5741987,34.72458 5.1733885,34.72458 c -2.5883103,0 -1.903673,0.866881 -2.0930273,1.733762 -0.1893543,0.86688 -1.2527002,1.733761 -2.0057615,1.733761 -0.96553327,0 -0.99090942,-0.58952 -2.0870714,-1.179041 -1.0961619,-0.58952 -3.2631097,-1.179041 -6.0462852,-1.179041 -2.9706751,0 -3.8696631,0.449813 -4.9596961,0.899626 -1.090032,0.449813 -2.37111,0.899626 -4.670569,0.899626 -2.434602,0 -3.516852,-0.58952 -4.905549,-1.17904 -1.388697,-0.589521 -3.083841,-1.179041 -4.27873,-1.179041 -1.382389,0 -0.2658,0.929919 -0.337305,1.859838 -0.07085,0.921371 -1.331103,1.859839 -1.331103,1.859839 0,0 1.160385,-0.709011 1.67542,-1.359839 0.538057,-0.679919 0.476809,-1.359838 1.359198,-1.359838 1.06989,0 2.179757,0.58952 3.045677,1.179041 0.86592,0.58952 1.487893,1.17904 4.047495,1.17904 2.79946,0 4.729424,-0.449813 6.218343,-0.899626 1.4889191,-0.449813 2.5367935,-0.899626 5.007469,-0.899626 2.6581754,0 4.2398464,0.589521 4.8132315,1.179041 0.57338512,0.589521 0.1384844,1.179041 1.22901774,1.179041 1.25306126,0 3.33514246,-0.866881 4.29323216,-1.733761 0.9580896,-0.866881 0.7921877,-1.733762 2.880498,-1.733762 2.2758102,0 4.2527666,0.58952 5.5803416,1.179041 1.327576,0.58952 2.005771,1.179041 4.14956,1.179041 2.323995,0 3.889323,-0.577194 4.830598,-1.154387 0.941275,-0.577193 1.258498,-1.154387 3.449753,-1.154387 2.378755,0 4.380373,0.589521 5.755186,1.179041 1.374814,0.589521 2.122823,1.179041 4.45986,1.179041 2.519473,0 4.143178,-0.490903 5.082787,-0.981807 0.939609,-0.490903 1.19512,-0.981806 2.687823,-0.981806 1.680203,0 3.133197,0.58952 3.981687,1.17904 0.848491,0.589521 1.092477,1.179041 2.820166,1.179041 1.913939,0 3.279226,-0.367632 4.555022,-0.735264 1.275797,-0.367632 2.462103,-0.735264 4.976898,-0.735264 2.702295,0 4.189992,0.58952 4.855088,1.179041 0.665097,0.58952 0.507593,1.179041 2.384987,1.179041 2.040183,0 3.990506,-0.492958 5.247965,-0.985916 1.257458,-0.492958 1.822053,-0.985916 2.81474,-0.985916 1.180187,0 1.72714,0.58952 1.874214,1.179041 0.147074,0.58952 -0.105731,1.179041 1.94044,1.179041 2.256574,0 5.084375,-0.76621 6.497998,-1.532419 1.413624,-0.766209 1.413069,-1.532419 2.177807,-1.532419 0.952239,0 1.759816,0.589521 2.256867,1.179041 0.497051,0.589521 0.683576,1.179041 2.859212,1.179041 2.399054,0 4.716097,-0.702519 6.190438,-1.405038 1.47434,-0.702519 2.10598,-1.405038 4.63548,-1.405038 2.717,0 4.61588,0.58952 5.85578,1.179041 1.23989,0.58952 1.8208,1.179041 4.36737,1.179041 2.72357,0 4.62247,-0.451868 6.08864,-0.903735 1.46618,-0.451868 2.49965,-0.903736 4.94091,-0.903736 2.62876,0 4.19724,0.589521 5.12433,1.179041 0.92709,0.589521 1.2128,1.179041 3.74154,1.179041 2.70842,0 5.30601,-0.743609 6.73294,-1.487219 1.42693,-0.743609 1.6832,-1.487219 3.6318,-1.487219 2.1361,0 3.78577,0.589521 4.72155,1.179041 0.93577,0.58952 1.15766,1.179041 2.90369,1.179041 1.92136,0 3.57726,-0.610066 4.70305,-1.220131 1.1258,-0.610066 1.72148,-1.220132 4.16275,-1.220132 2.62876,0 4.56257,0.589521 5.89904,1.179041 1.33647,0.589521 2.0756,1.179041 4.78049,1.179041 2.89073,0 4.55374,-0.205325 5.93035,-0.41065 1.37661,-0.205325 2.46681,-0.41065 4.51101,-0.41065 2.23169,0 3.16681,0.589521 3.31547,1.179041 0.14865,0.589521 -0.48916,1.179041 1.06215,1.179041 1.72173,0 4.20378,-0.667592 5.69106,-1.335185 1.48728,-0.667592 1.97981,-1.335184 2.88426,-1.335184 1.09194,0 1.63613,0.58952 1.74264,1.179041 0.10651,0.58952 -0.22466,1.179041 1.58207,1.179041 2.01044,0 4.35471,-0.622393 5.99465,-1.244786 1.63994,-0.622393 2.57555,-1.244785 4.5168,-1.244785 2.12874,0 3.24639,0.58952 3.65194,1.17904 0.40554,0.589521 0.099,1.179041 1.84485,1.179041 1.92135,0 4.37234,-0.733337 5.8892,-1.466674 1.51687,-0.733336 2.09962,-1.466673 4.09969,-1.466673 2.18757,0 3.63719,0.58952 4.51535,1.17904 0.87815,0.589521 1.18485,1.179041 3.55208,1.179041 2.55719,0 5.00218,-0.770318 5.9301,-1.540636 0.92791,-0.770319 0.33876,-1.540637 1.03732,-1.540637 0.88606,0 2.07,0.589521 2.73044,1.179041 0.66045,0.58952 0.7974,1.179041 2.05499,1.179041 1.45,0 2.38728,-0.229979 3.14216,-0.459959 0.75489,-0.229979 1.32737,-0.459958 2.423,-0.459958 1.28313,0 1.91694,0.58952 2.0845,1.179041 0.16755,0.58952 -0.13115,1.179041 1.75246,1.179041 2.08485,0 4.29475,-0.540212 6.03023,-1.080424 1.73547,-0.540212 2.99651,-1.080424 5.25395,-1.080424 2.44493,0 3.53961,0.58952 3.72612,1.179041 0.1865,0.58952 -0.53517,1.179041 0.74255,1.179041 1.44269,0 3.89282,-0.741555 5.20551,-1.48311 1.3127,-0.741555 1.48797,-1.48311 2.28212,-1.48311 0.98165,0 1.6801,0.58952 1.91936,1.179041 0.23926,0.58952 0.0193,1.179041 1.62975,1.179041 1.81031,0 2.98592,-0.215131 3.62686,-0.430262 0.64633,-0.216937 0.74723,-0.430262 0.74723,-0.430262 z" />
        <g
           id="g8065"
           transform="matrix(0.44149116,0,0,1.0006785,3.4604834,54.116507)"
           style="stroke-width:0.79613;stroke-miterlimit:4;stroke-dasharray:none">
          <path
             style="fill:none;stroke:#000000;stroke-width:2.25743;stroke-linejoin:round;stroke-miterlimit:4;stroke-dasharray:none;filter:url(#filter1248)"
             id="path7837"
             width="317.90515"
             height="3.3580818"
             x="-34.056259"
             y="35.636787"
             ry="0"
             inkscape:path-effect="#path-effect7895"
             sodipodi:type="rect"
             transform="matrix(0.61283693,0,0,0.47165035,157.51898,61.517694)"
             d="m 283.17414,35.636787 c 0,0 0.20245,0.136155 0.3697,0.27001 0.17013,0.136154 0.30505,0.270009 0.30505,0.270009 0,0 -0.13492,-0.133855 -0.30505,-0.270009 -0.16725,-0.133855 -0.3697,-0.27001 -0.3697,-0.27001 z m 0.67475,2.818064 c 0,0 -0.41794,-0.139476 -3.04432,-0.139476 -1.48541,0 -1.72576,-0.589521 -2.4878,-1.179041 -0.76204,-0.589521 -2.04576,-1.179041 -3.15241,-1.179041 -1.29415,0 -1.06183,0.741555 -1.71693,1.48311 -0.65509,0.741555 -2.19762,1.48311 -3.14031,1.48311 -1.15272,0 -0.89132,-0.589521 -1.60061,-1.179041 -0.70928,-0.589521 -2.38924,-1.179041 -4.95917,-1.179041 -2.75743,0 -3.78943,0.540212 -5.04585,1.080424 -1.25642,0.540212 -2.73728,1.080424 -4.32212,1.080424 -1.75862,0 -1.92019,-0.589521 -2.61052,-1.179041 -0.69033,-0.589521 -1.90942,-1.179041 -3.31755,-1.179041 -1.59563,0 -2.21418,0.229979 -2.76511,0.459958 -0.55094,0.22998 -1.03428,0.459959 -1.98429,0.459959 -1.13258,0 -1.72981,-0.589521 -2.91303,-1.179041 -1.18323,-0.58952 -2.95244,-1.179041 -3.9635,-1.179041 -1.19856,0 -0.1763,0.770318 -0.42112,1.540637 -0.24481,0.770318 -1.7567,1.540636 -3.81388,1.540636 -2.24223,0 -3.00921,-0.58952 -4.41014,-1.179041 -1.40093,-0.58952 -3.43582,-1.17904 -5.7484,-1.17904 -2.50007,0 -2.68251,0.733337 -3.54906,1.466673 -0.86656,0.733337 -2.41723,1.466674 -3.83858,1.466674 -1.62086,0 -1.77459,-0.58952 -2.70291,-1.179041 -0.92833,-0.58952 -2.63125,-1.17904 -4.885,-1.17904 -2.44124,0 -3.07493,0.622392 -4.16294,1.244785 -1.08801,0.622393 -2.63035,1.244786 -4.14079,1.244786 -1.68173,0 -1.81084,-0.589521 -2.44012,-1.179041 -0.62929,-0.589521 -1.75876,-1.179041 -2.9757,-1.179041 -1.40445,0 -1.55497,0.667592 -2.45024,1.335184 -0.89527,0.667593 -2.53531,1.335185 -3.75704,1.335185 -1.42631,0 -1.24878,-0.58952 -1.92021,-1.179041 -0.67143,-0.58952 -2.19183,-1.179041 -4.54852,-1.179041 -2.54419,0 -3.70232,0.205325 -4.89685,0.41065 -1.19453,0.205325 -2.42547,0.41065 -4.81619,0.41065 -2.5799,0 -3.7793,-0.58952 -5.63855,-1.179041 -1.85924,-0.58952 -4.37833,-1.179041 -7.1321,-1.179041 -2.94126,0 -3.24595,0.610066 -3.83075,1.220132 -0.58479,0.610065 -1.4497,1.220131 -2.87105,1.220131 -1.62104,0 -2.3032,-0.589521 -3.76176,-1.179041 -1.45855,-0.58952 -3.69349,-1.179041 -5.95459,-1.179041 -2.4486,0 -2.29546,0.74361 -3.06297,1.487219 -0.76751,0.74361 -2.45567,1.487219 -4.66409,1.487219 -2.40374,0 -3.14973,-0.58952 -4.5996,-1.179041 -1.44987,-0.58952 -3.60362,-1.179041 -6.35738,-1.179041 -2.94126,0 -3.82402,0.451868 -4.88949,0.903736 -1.06547,0.451867 -2.31365,0.903735 -4.53723,0.903735 -2.42156,0 -3.46275,-0.589521 -5.22542,-1.179041 -1.76268,-0.589521 -4.24683,-1.179041 -7.08883,-1.179041 -3.029504,0 -3.28816,0.702519 -4.139519,1.405038 -0.851358,0.702519 -2.295419,1.405038 -4.194473,1.405038 -2.050636,0 -2.697438,-0.58952 -3.717266,-1.179041 -1.019828,-0.58952 -2.412682,-1.179041 -3.489921,-1.179041 -1.264738,0 -0.834721,0.76621 -1.568883,1.532419 -0.734162,0.766209 -2.632502,1.532419 -4.389076,1.532419 -1.921171,0 -2.128642,-0.589521 -2.798493,-1.179041 -0.669851,-0.589521 -1.802081,-1.179041 -3.107268,-1.179041 -1.492687,0 -1.870135,0.492958 -2.690447,0.985916 -0.820312,0.492958 -2.083488,0.985916 -3.623671,0.985916 -1.752393,0 -2.055167,-0.589521 -3.24304,-1.179041 -1.187874,-0.589521 -3.260847,-1.179041 -6.088142,-1.179041 -3.014795,0 -4.125091,0.367632 -5.074878,0.735264 -0.949786,0.367632 -1.739062,0.735264 -3.153002,0.735264 -1.602689,0 -2.306952,-0.58952 -3.678219,-1.179041 -1.371267,-0.58952 -3.409538,-1.17904 -5.214741,-1.17904 -1.992703,0 -2.06289,0.490903 -2.567173,0.981806 -0.504284,0.490904 -1.442665,0.981807 -3.462137,0.981807 -2.212038,0 -3.420324,-0.58952 -5.317914,-1.179041 -1.89759,-0.58952 -4.484485,-1.179041 -6.98824,-1.179041 -2.691255,0 -2.746632,0.577194 -3.176062,1.154387 -0.42943,0.577193 -1.232913,1.154387 -3.056908,1.154387 -2.018789,0 -3.15726,-0.589521 -5.007613,-1.179041 C 10.136432,35.3141 7.5741987,34.72458 5.1733885,34.72458 c -2.5883103,0 -1.903673,0.866881 -2.0930273,1.733762 -0.1893543,0.86688 -1.2527002,1.733761 -2.0057615,1.733761 -0.96553327,0 -0.99090942,-0.58952 -2.0870714,-1.179041 -1.0961619,-0.58952 -3.2631097,-1.179041 -6.0462852,-1.179041 -2.9706751,0 -3.8696631,0.449813 -4.9596961,0.899626 -1.090032,0.449813 -2.37111,0.899626 -4.670569,0.899626 -2.434602,0 -3.516852,-0.58952 -4.905549,-1.17904 -1.388697,-0.589521 -3.083841,-1.179041 -4.27873,-1.179041 -1.382389,0 -0.2658,0.929919 -0.337305,1.859838 -0.07085,0.921371 -1.331103,1.859839 -1.331103,1.859839 0,0 1.160385,-0.709011 1.67542,-1.359839 0.538057,-0.679919 0.476809,-1.359838 1.359198,-1.359838 1.06989,0 2.179757,0.58952 3.045677,1.179041 0.86592,0.58952 1.487893,1.17904 4.047495,1.17904 2.79946,0 4.729424,-0.449813 6.218343,-0.899626 1.4889191,-0.449813 2.5367935,-0.899626 5.007469,-0.899626 2.6581754,0 4.2398464,0.589521 4.8132315,1.179041 0.57338512,0.589521 0.1384844,1.179041 1.22901774,1.179041 1.25306126,0 3.33514246,-0.866881 4.29323216,-1.733761 0.9580896,-0.866881 0.7921877,-1.733762 2.880498,-1.733762 2.2758102,0 4.2527666,0.58952 5.5803416,1.179041 1.327576,0.58952 2.005771,1.179041 4.14956,1.179041 2.323995,0 3.889323,-0.577194 4.830598,-1.154387 0.941275,-0.577193 1.258498,-1.154387 3.449753,-1.154387 2.378755,0 4.380373,0.589521 5.755186,1.179041 1.374814,0.589521 2.122823,1.179041 4.45986,1.179041 2.519473,0 4.143178,-0.490903 5.082787,-0.981807 0.939609,-0.490903 1.19512,-0.981806 2.687823,-0.981806 1.680203,0 3.133197,0.58952 3.981687,1.17904 0.848491,0.589521 1.092477,1.179041 2.820166,1.179041 1.913939,0 3.279226,-0.367632 4.555022,-0.735264 1.275797,-0.367632 2.462103,-0.735264 4.976898,-0.735264 2.702295,0 4.189992,0.58952 4.855088,1.179041 0.665097,0.58952 0.507593,1.179041 2.384987,1.179041 2.040183,0 3.990506,-0.492958 5.247965,-0.985916 1.257458,-0.492958 1.822053,-0.985916 2.81474,-0.985916 1.180187,0 1.72714,0.58952 1.874214,1.179041 0.147074,0.58952 -0.105731,1.179041 1.94044,1.179041 2.256574,0 5.084375,-0.76621 6.497998,-1.532419 1.413624,-0.766209 1.413069,-1.532419 2.177807,-1.532419 0.952239,0 1.759816,0.589521 2.256867,1.179041 0.497051,0.589521 0.683576,1.179041 2.859212,1.179041 2.399054,0 4.716097,-0.702519 6.190438,-1.405038 1.47434,-0.702519 2.10598,-1.405038 4.63548,-1.405038 2.717,0 4.61588,0.58952 5.85578,1.179041 1.23989,0.58952 1.8208,1.179041 4.36737,1.179041 2.72357,0 4.62247,-0.451868 6.08864,-0.903735 1.46618,-0.451868 2.49965,-0.903736 4.94091,-0.903736 2.62876,0 4.19724,0.589521 5.12433,1.179041 0.92709,0.589521 1.2128,1.179041 3.74154,1.179041 2.70842,0 5.30601,-0.743609 6.73294,-1.487219 1.42693,-0.743609 1.6832,-1.487219 3.6318,-1.487219 2.1361,0 3.78577,0.589521 4.72155,1.179041 0.93577,0.58952 1.15766,1.179041 2.90369,1.179041 1.92136,0 3.57726,-0.610066 4.70305,-1.220131 1.1258,-0.610066 1.72148,-1.220132 4.16275,-1.220132 2.62876,0 4.56257,0.589521 5.89904,1.179041 1.33647,0.589521 2.0756,1.179041 4.78049,1.179041 2.89073,0 4.55374,-0.205325 5.93035,-0.41065 1.37661,-0.205325 2.46681,-0.41065 4.51101,-0.41065 2.23169,0 3.16681,0.589521 3.31547,1.179041 0.14865,0.589521 -0.48916,1.179041 1.06215,1.179041 1.72173,0 4.20378,-0.667592 5.69106,-1.335185 1.48728,-0.667592 1.97981,-1.335184 2.88426,-1.335184 1.09194,0 1.63613,0.58952 1.74264,1.179041 0.10651,0.58952 -0.22466,1.179041 1.58207,1.179041 2.01044,0 4.35471,-0.622393 5.99465,-1.244786 1.63994,-0.622393 2.57555,-1.244785 4.5168,-1.244785 2.12874,0 3.24639,0.58952 3.65194,1.17904 0.40554,0.589521 0.099,1.179041 1.84485,1.179041 1.92135,0 4.37234,-0.733337 5.8892,-1.466674 1.51687,-0.733336 2.09962,-1.466673 4.09969,-1.466673 2.18757,0 3.63719,0.58952 4.51535,1.17904 0.87815,0.589521 1.18485,1.179041 3.55208,1.179041 2.55719,0 5.00218,-0.770318 5.9301,-1.540636 0.92791,-0.770319 0.33876,-1.540637 1.03732,-1.540637 0.88606,0 2.07,0.589521 2.73044,1.179041 0.66045,0.58952 0.7974,1.179041 2.05499,1.179041 1.45,0 2.38728,-0.229979 3.14216,-0.459959 0.75489,-0.229979 1.32737,-0.459958 2.423,-0.459958 1.28313,0 1.91694,0.58952 2.0845,1.179041 0.16755,0.58952 -0.13115,1.179041 1.75246,1.179041 2.08485,0 4.29475,-0.540212 6.03023,-1.080424 1.73547,-0.540212 2.99651,-1.080424 5.25395,-1.080424 2.44493,0 3.53961,0.58952 3.72612,1.179041 0.1865,0.58952 -0.53517,1.179041 0.74255,1.179041 1.44269,0 3.89282,-0.741555 5.20551,-1.48311 1.3127,-0.741555 1.48797,-1.48311 2.28212,-1.48311 0.98165,0 1.6801,0.58952 1.91936,1.179041 0.23926,0.58952 0.0193,1.179041 1.62975,1.179041 1.81031,0 2.98592,-0.215131 3.62686,-0.430262 0.64633,-0.216937 0.74723,-0.430262 0.74723,-0.430262 z" />
          <path
             style="fill:none;stroke:#000000;stroke-width:2.25743;stroke-linejoin:round;stroke-miterlimit:4;stroke-dasharray:none;filter:url(#filter1248)"
             id="path7839"
             width="317.90515"
             height="3.3580818"
             x="-34.056259"
             y="35.636787"
             ry="0"
             inkscape:path-effect="#path-effect7899"
             sodipodi:type="rect"
             transform="matrix(0.61283693,0,0,0.47165035,157.51898,71.165254)"
             d="m 283.17414,35.636787 c 0,0 0.20245,0.136155 0.3697,0.27001 0.17013,0.136154 0.30505,0.270009 0.30505,0.270009 0,0 -0.13492,-0.133855 -0.30505,-0.270009 -0.16725,-0.133855 -0.3697,-0.27001 -0.3697,-0.27001 z m 0.67475,2.818064 c 0,0 -0.41794,-0.139476 -3.04432,-0.139476 -1.48541,0 -1.72576,-0.589521 -2.4878,-1.179041 -0.76204,-0.589521 -2.04576,-1.179041 -3.15241,-1.179041 -1.29415,0 -1.06183,0.741555 -1.71693,1.48311 -0.65509,0.741555 -2.19762,1.48311 -3.14031,1.48311 -1.15272,0 -0.89132,-0.589521 -1.60061,-1.179041 -0.70928,-0.589521 -2.38924,-1.179041 -4.95917,-1.179041 -2.75743,0 -3.78943,0.540212 -5.04585,1.080424 -1.25642,0.540212 -2.73728,1.080424 -4.32212,1.080424 -1.75862,0 -1.92019,-0.589521 -2.61052,-1.179041 -0.69033,-0.589521 -1.90942,-1.179041 -3.31755,-1.179041 -1.59563,0 -2.21418,0.229979 -2.76511,0.459958 -0.55094,0.22998 -1.03428,0.459959 -1.98429,0.459959 -1.13258,0 -1.72981,-0.589521 -2.91303,-1.179041 -1.18323,-0.58952 -2.95244,-1.179041 -3.9635,-1.179041 -1.19856,0 -0.1763,0.770318 -0.42112,1.540637 -0.24481,0.770318 -1.7567,1.540636 -3.81388,1.540636 -2.24223,0 -3.00921,-0.58952 -4.41014,-1.179041 -1.40093,-0.58952 -3.43582,-1.17904 -5.7484,-1.17904 -2.50007,0 -2.68251,0.733337 -3.54906,1.466673 -0.86656,0.733337 -2.41723,1.466674 -3.83858,1.466674 -1.62086,0 -1.77459,-0.58952 -2.70291,-1.179041 -0.92833,-0.58952 -2.63125,-1.17904 -4.885,-1.17904 -2.44124,0 -3.07493,0.622392 -4.16294,1.244785 -1.08801,0.622393 -2.63035,1.244786 -4.14079,1.244786 -1.68173,0 -1.81084,-0.589521 -2.44012,-1.179041 -0.62929,-0.589521 -1.75876,-1.179041 -2.9757,-1.179041 -1.40445,0 -1.55497,0.667592 -2.45024,1.335184 -0.89527,0.667593 -2.53531,1.335185 -3.75704,1.335185 -1.42631,0 -1.24878,-0.58952 -1.92021,-1.179041 -0.67143,-0.58952 -2.19183,-1.179041 -4.54852,-1.179041 -2.54419,0 -3.70232,0.205325 -4.89685,0.41065 -1.19453,0.205325 -2.42547,0.41065 -4.81619,0.41065 -2.5799,0 -3.7793,-0.58952 -5.63855,-1.179041 -1.85924,-0.58952 -4.37833,-1.179041 -7.1321,-1.179041 -2.94126,0 -3.24595,0.610066 -3.83075,1.220132 -0.58479,0.610065 -1.4497,1.220131 -2.87105,1.220131 -1.62104,0 -2.3032,-0.589521 -3.76176,-1.179041 -1.45855,-0.58952 -3.69349,-1.179041 -5.95459,-1.179041 -2.4486,0 -2.29546,0.74361 -3.06297,1.487219 -0.76751,0.74361 -2.45567,1.487219 -4.66409,1.487219 -2.40374,0 -3.14973,-0.58952 -4.5996,-1.179041 -1.44987,-0.58952 -3.60362,-1.179041 -6.35738,-1.179041 -2.94126,0 -3.82402,0.451868 -4.88949,0.903736 -1.06547,0.451867 -2.31365,0.903735 -4.53723,0.903735 -2.42156,0 -3.46275,-0.589521 -5.22542,-1.179041 -1.76268,-0.589521 -4.24683,-1.179041 -7.08883,-1.179041 -3.029504,0 -3.28816,0.702519 -4.139519,1.405038 -0.851358,0.702519 -2.295419,1.405038 -4.194473,1.405038 -2.050636,0 -2.697438,-0.58952 -3.717266,-1.179041 -1.019828,-0.58952 -2.412682,-1.179041 -3.489921,-1.179041 -1.264738,0 -0.834721,0.76621 -1.568883,1.532419 -0.734162,0.766209 -2.632502,1.532419 -4.389076,1.532419 -1.921171,0 -2.128642,-0.589521 -2.798493,-1.179041 -0.669851,-0.589521 -1.802081,-1.179041 -3.107268,-1.179041 -1.492687,0 -1.870135,0.492958 -2.690447,0.985916 -0.820312,0.492958 -2.083488,0.985916 -3.623671,0.985916 -1.752393,0 -2.055167,-0.589521 -3.24304,-1.179041 -1.187874,-0.589521 -3.260847,-1.179041 -6.088142,-1.179041 -3.014795,0 -4.125091,0.367632 -5.074878,0.735264 -0.949786,0.367632 -1.739062,0.735264 -3.153002,0.735264 -1.602689,0 -2.306952,-0.58952 -3.678219,-1.179041 -1.371267,-0.58952 -3.409538,-1.17904 -5.214741,-1.17904 -1.992703,0 -2.06289,0.490903 -2.567173,0.981806 -0.504284,0.490904 -1.442665,0.981807 -3.462137,0.981807 -2.212038,0 -3.420324,-0.58952 -5.317914,-1.179041 -1.89759,-0.58952 -4.484485,-1.179041 -6.98824,-1.179041 -2.691255,0 -2.746632,0.577194 -3.176062,1.154387 -0.42943,0.577193 -1.232913,1.154387 -3.056908,1.154387 -2.018789,0 -3.15726,-0.589521 -5.007613,-1.179041 C 10.136432,35.3141 7.5741987,34.72458 5.1733885,34.72458 c -2.5883103,0 -1.903673,0.866881 -2.0930273,1.733762 -0.1893543,0.86688 -1.2527002,1.733761 -2.0057615,1.733761 -0.96553327,0 -0.99090942,-0.58952 -2.0870714,-1.179041 -1.0961619,-0.58952 -3.2631097,-1.179041 -6.0462852,-1.179041 -2.9706751,0 -3.8696631,0.449813 -4.9596961,0.899626 -1.090032,0.449813 -2.37111,0.899626 -4.670569,0.899626 -2.434602,0 -3.516852,-0.58952 -4.905549,-1.17904 -1.388697,-0.589521 -3.083841,-1.179041 -4.27873,-1.179041 -1.382389,0 -0.2658,0.929919 -0.337305,1.859838 -0.07085,0.921371 -1.331103,1.859839 -1.331103,1.859839 0,0 1.160385,-0.709011 1.67542,-1.359839 0.538057,-0.679919 0.476809,-1.359838 1.359198,-1.359838 1.06989,0 2.179757,0.58952 3.045677,1.179041 0.86592,0.58952 1.487893,1.17904 4.047495,1.17904 2.79946,0 4.729424,-0.449813 6.218343,-0.899626 1.4889191,-0.449813 2.5367935,-0.899626 5.007469,-0.899626 2.6581754,0 4.2398464,0.589521 4.8132315,1.179041 0.57338512,0.589521 0.1384844,1.179041 1.22901774,1.179041 1.25306126,0 3.33514246,-0.866881 4.29323216,-1.733761 0.9580896,-0.866881 0.7921877,-1.733762 2.880498,-1.733762 2.2758102,0 4.2527666,0.58952 5.5803416,1.179041 1.327576,0.58952 2.005771,1.179041 4.14956,1.179041 2.323995,0 3.889323,-0.577194 4.830598,-1.154387 0.941275,-0.577193 1.258498,-1.154387 3.449753,-1.154387 2.378755,0 4.380373,0.589521 5.755186,1.179041 1.374814,0.589521 2.122823,1.179041 4.45986,1.179041 2.519473,0 4.143178,-0.490903 5.082787,-0.981807 0.939609,-0.490903 1.19512,-0.981806 2.687823,-0.981806 1.680203,0 3.133197,0.58952 3.981687,1.17904 0.848491,0.589521 1.092477,1.179041 2.820166,1.179041 1.913939,0 3.279226,-0.367632 4.555022,-0.735264 1.275797,-0.367632 2.462103,-0.735264 4.976898,-0.735264 2.702295,0 4.189992,0.58952 4.855088,1.179041 0.665097,0.58952 0.507593,1.179041 2.384987,1.179041 2.040183,0 3.990506,-0.492958 5.247965,-0.985916 1.257458,-0.492958 1.822053,-0.985916 2.81474,-0.985916 1.180187,0 1.72714,0.58952 1.874214,1.179041 0.147074,0.58952 -0.105731,1.179041 1.94044,1.179041 2.256574,0 5.084375,-0.76621 6.497998,-1.532419 1.413624,-0.766209 1.413069,-1.532419 2.177807,-1.532419 0.952239,0 1.759816,0.589521 2.256867,1.179041 0.497051,0.589521 0.683576,1.179041 2.859212,1.179041 2.399054,0 4.716097,-0.702519 6.190438,-1.405038 1.47434,-0.702519 2.10598,-1.405038 4.63548,-1.405038 2.717,0 4.61588,0.58952 5.85578,1.179041 1.23989,0.58952 1.8208,1.179041 4.36737,1.179041 2.72357,0 4.62247,-0.451868 6.08864,-0.903735 1.46618,-0.451868 2.49965,-0.903736 4.94091,-0.903736 2.62876,0 4.19724,0.589521 5.12433,1.179041 0.92709,0.589521 1.2128,1.179041 3.74154,1.179041 2.70842,0 5.30601,-0.743609 6.73294,-1.487219 1.42693,-0.743609 1.6832,-1.487219 3.6318,-1.487219 2.1361,0 3.78577,0.589521 4.72155,1.179041 0.93577,0.58952 1.15766,1.179041 2.90369,1.179041 1.92136,0 3.57726,-0.610066 4.70305,-1.220131 1.1258,-0.610066 1.72148,-1.220132 4.16275,-1.220132 2.62876,0 4.56257,0.589521 5.89904,1.179041 1.33647,0.589521 2.0756,1.179041 4.78049,1.179041 2.89073,0 4.55374,-0.205325 5.93035,-0.41065 1.37661,-0.205325 2.46681,-0.41065 4.51101,-0.41065 2.23169,0 3.16681,0.589521 3.31547,1.179041 0.14865,0.589521 -0.48916,1.179041 1.06215,1.179041 1.72173,0 4.20378,-0.667592 5.69106,-1.335185 1.48728,-0.667592 1.97981,-1.335184 2.88426,-1.335184 1.09194,0 1.63613,0.58952 1.74264,1.179041 0.10651,0.58952 -0.22466,1.179041 1.58207,1.179041 2.01044,0 4.35471,-0.622393 5.99465,-1.244786 1.63994,-0.622393 2.57555,-1.244785 4.5168,-1.244785 2.12874,0 3.24639,0.58952 3.65194,1.17904 0.40554,0.589521 0.099,1.179041 1.84485,1.179041 1.92135,0 4.37234,-0.733337 5.8892,-1.466674 1.51687,-0.733336 2.09962,-1.466673 4.09969,-1.466673 2.18757,0 3.63719,0.58952 4.51535,1.17904 0.87815,0.589521 1.18485,1.179041 3.55208,1.179041 2.55719,0 5.00218,-0.770318 5.9301,-1.540636 0.92791,-0.770319 0.33876,-1.540637 1.03732,-1.540637 0.88606,0 2.07,0.589521 2.73044,1.179041 0.66045,0.58952 0.7974,1.179041 2.05499,1.179041 1.45,0 2.38728,-0.229979 3.14216,-0.459959 0.75489,-0.229979 1.32737,-0.459958 2.423,-0.459958 1.28313,0 1.91694,0.58952 2.0845,1.179041 0.16755,0.58952 -0.13115,1.179041 1.75246,1.179041 2.08485,0 4.29475,-0.540212 6.03023,-1.080424 1.73547,-0.540212 2.99651,-1.080424 5.25395,-1.080424 2.44493,0 3.53961,0.58952 3.72612,1.179041 0.1865,0.58952 -0.53517,1.179041 0.74255,1.179041 1.44269,0 3.89282,-0.741555 5.20551,-1.48311 1.3127,-0.741555 1.48797,-1.48311 2.28212,-1.48311 0.98165,0 1.6801,0.58952 1.91936,1.179041 0.23926,0.58952 0.0193,1.179041 1.62975,1.179041 1.81031,0 2.98592,-0.215131 3.62686,-0.430262 0.64633,-0.216937 0.74723,-0.430262 0.74723,-0.430262 z" />
          <path
             style="fill:none;stroke:#000000;stroke-width:2.25743;stroke-linejoin:round;stroke-miterlimit:4;stroke-dasharray:none;filter:url(#filter1248)"
             id="path7841"
             width="317.90515"
             height="3.3580818"
             x="-34.056259"
             y="35.636787"
             ry="0"
             inkscape:path-effect="#path-effect7903"
             sodipodi:type="rect"
             transform="matrix(0.61283693,0,0,0.47165035,157.51898,80.812819)"
             d="m 283.17414,35.636787 c 0,0 0.20245,0.136155 0.3697,0.27001 0.17013,0.136154 0.30505,0.270009 0.30505,0.270009 0,0 -0.13492,-0.133855 -0.30505,-0.270009 -0.16725,-0.133855 -0.3697,-0.27001 -0.3697,-0.27001 z m 0.67475,2.818064 c 0,0 -0.41794,-0.139476 -3.04432,-0.139476 -1.48541,0 -1.72576,-0.589521 -2.4878,-1.179041 -0.76204,-0.589521 -2.04576,-1.179041 -3.15241,-1.179041 -1.29415,0 -1.06183,0.741555 -1.71693,1.48311 -0.65509,0.741555 -2.19762,1.48311 -3.14031,1.48311 -1.15272,0 -0.89132,-0.589521 -1.60061,-1.179041 -0.70928,-0.589521 -2.38924,-1.179041 -4.95917,-1.179041 -2.75743,0 -3.78943,0.540212 -5.04585,1.080424 -1.25642,0.540212 -2.73728,1.080424 -4.32212,1.080424 -1.75862,0 -1.92019,-0.589521 -2.61052,-1.179041 -0.69033,-0.589521 -1.90942,-1.179041 -3.31755,-1.179041 -1.59563,0 -2.21418,0.229979 -2.76511,0.459958 -0.55094,0.22998 -1.03428,0.459959 -1.98429,0.459959 -1.13258,0 -1.72981,-0.589521 -2.91303,-1.179041 -1.18323,-0.58952 -2.95244,-1.179041 -3.9635,-1.179041 -1.19856,0 -0.1763,0.770318 -0.42112,1.540637 -0.24481,0.770318 -1.7567,1.540636 -3.81388,1.540636 -2.24223,0 -3.00921,-0.58952 -4.41014,-1.179041 -1.40093,-0.58952 -3.43582,-1.17904 -5.7484,-1.17904 -2.50007,0 -2.68251,0.733337 -3.54906,1.466673 -0.86656,0.733337 -2.41723,1.466674 -3.83858,1.466674 -1.62086,0 -1.77459,-0.58952 -2.70291,-1.179041 -0.92833,-0.58952 -2.63125,-1.17904 -4.885,-1.17904 -2.44124,0 -3.07493,0.622392 -4.16294,1.244785 -1.08801,0.622393 -2.63035,1.244786 -4.14079,1.244786 -1.68173,0 -1.81084,-0.589521 -2.44012,-1.179041 -0.62929,-0.589521 -1.75876,-1.179041 -2.9757,-1.179041 -1.40445,0 -1.55497,0.667592 -2.45024,1.335184 -0.89527,0.667593 -2.53531,1.335185 -3.75704,1.335185 -1.42631,0 -1.24878,-0.58952 -1.92021,-1.179041 -0.67143,-0.58952 -2.19183,-1.179041 -4.54852,-1.179041 -2.54419,0 -3.70232,0.205325 -4.89685,0.41065 -1.19453,0.205325 -2.42547,0.41065 -4.81619,0.41065 -2.5799,0 -3.7793,-0.58952 -5.63855,-1.179041 -1.85924,-0.58952 -4.37833,-1.179041 -7.1321,-1.179041 -2.94126,0 -3.24595,0.610066 -3.83075,1.220132 -0.58479,0.610065 -1.4497,1.220131 -2.87105,1.220131 -1.62104,0 -2.3032,-0.589521 -3.76176,-1.179041 -1.45855,-0.58952 -3.69349,-1.179041 -5.95459,-1.179041 -2.4486,0 -2.29546,0.74361 -3.06297,1.487219 -0.76751,0.74361 -2.45567,1.487219 -4.66409,1.487219 -2.40374,0 -3.14973,-0.58952 -4.5996,-1.179041 -1.44987,-0.58952 -3.60362,-1.179041 -6.35738,-1.179041 -2.94126,0 -3.82402,0.451868 -4.88949,0.903736 -1.06547,0.451867 -2.31365,0.903735 -4.53723,0.903735 -2.42156,0 -3.46275,-0.589521 -5.22542,-1.179041 -1.76268,-0.589521 -4.24683,-1.179041 -7.08883,-1.179041 -3.029504,0 -3.28816,0.702519 -4.139519,1.405038 -0.851358,0.702519 -2.295419,1.405038 -4.194473,1.405038 -2.050636,0 -2.697438,-0.58952 -3.717266,-1.179041 -1.019828,-0.58952 -2.412682,-1.179041 -3.489921,-1.179041 -1.264738,0 -0.834721,0.76621 -1.568883,1.532419 -0.734162,0.766209 -2.632502,1.532419 -4.389076,1.532419 -1.921171,0 -2.128642,-0.589521 -2.798493,-1.179041 -0.669851,-0.589521 -1.802081,-1.179041 -3.107268,-1.179041 -1.492687,0 -1.870135,0.492958 -2.690447,0.985916 -0.820312,0.492958 -2.083488,0.985916 -3.623671,0.985916 -1.752393,0 -2.055167,-0.589521 -3.24304,-1.179041 -1.187874,-0.589521 -3.260847,-1.179041 -6.088142,-1.179041 -3.014795,0 -4.125091,0.367632 -5.074878,0.735264 -0.949786,0.367632 -1.739062,0.735264 -3.153002,0.735264 -1.602689,0 -2.306952,-0.58952 -3.678219,-1.179041 -1.371267,-0.58952 -3.409538,-1.17904 -5.214741,-1.17904 -1.992703,0 -2.06289,0.490903 -2.567173,0.981806 -0.504284,0.490904 -1.442665,0.981807 -3.462137,0.981807 -2.212038,0 -3.420324,-0.58952 -5.317914,-1.179041 -1.89759,-0.58952 -4.484485,-1.179041 -6.98824,-1.179041 -2.691255,0 -2.746632,0.577194 -3.176062,1.154387 -0.42943,0.577193 -1.232913,1.154387 -3.056908,1.154387 -2.018789,0 -3.15726,-0.589521 -5.007613,-1.179041 C 10.136432,35.3141 7.5741987,34.72458 5.1733885,34.72458 c -2.5883103,0 -1.903673,0.866881 -2.0930273,1.733762 -0.1893543,0.86688 -1.2527002,1.733761 -2.0057615,1.733761 -0.96553327,0 -0.99090942,-0.58952 -2.0870714,-1.179041 -1.0961619,-0.58952 -3.2631097,-1.179041 -6.0462852,-1.179041 -2.9706751,0 -3.8696631,0.449813 -4.9596961,0.899626 -1.090032,0.449813 -2.37111,0.899626 -4.670569,0.899626 -2.434602,0 -3.516852,-0.58952 -4.905549,-1.17904 -1.388697,-0.589521 -3.083841,-1.179041 -4.27873,-1.179041 -1.382389,0 -0.2658,0.929919 -0.337305,1.859838 -0.07085,0.921371 -1.331103,1.859839 -1.331103,1.859839 0,0 1.160385,-0.709011 1.67542,-1.359839 0.538057,-0.679919 0.476809,-1.359838 1.359198,-1.359838 1.06989,0 2.179757,0.58952 3.045677,1.179041 0.86592,0.58952 1.487893,1.17904 4.047495,1.17904 2.79946,0 4.729424,-0.449813 6.218343,-0.899626 1.4889191,-0.449813 2.5367935,-0.899626 5.007469,-0.899626 2.6581754,0 4.2398464,0.589521 4.8132315,1.179041 0.57338512,0.589521 0.1384844,1.179041 1.22901774,1.179041 1.25306126,0 3.33514246,-0.866881 4.29323216,-1.733761 0.9580896,-0.866881 0.7921877,-1.733762 2.880498,-1.733762 2.2758102,0 4.2527666,0.58952 5.5803416,1.179041 1.327576,0.58952 2.005771,1.179041 4.14956,1.179041 2.323995,0 3.889323,-0.577194 4.830598,-1.154387 0.941275,-0.577193 1.258498,-1.154387 3.449753,-1.154387 2.378755,0 4.380373,0.589521 5.755186,1.179041 1.374814,0.589521 2.122823,1.179041 4.45986,1.179041 2.519473,0 4.143178,-0.490903 5.082787,-0.981807 0.939609,-0.490903 1.19512,-0.981806 2.687823,-0.981806 1.680203,0 3.133197,0.58952 3.981687,1.17904 0.848491,0.589521 1.092477,1.179041 2.820166,1.179041 1.913939,0 3.279226,-0.367632 4.555022,-0.735264 1.275797,-0.367632 2.462103,-0.735264 4.976898,-0.735264 2.702295,0 4.189992,0.58952 4.855088,1.179041 0.665097,0.58952 0.507593,1.179041 2.384987,1.179041 2.040183,0 3.990506,-0.492958 5.247965,-0.985916 1.257458,-0.492958 1.822053,-0.985916 2.81474,-0.985916 1.180187,0 1.72714,0.58952 1.874214,1.179041 0.147074,0.58952 -0.105731,1.179041 1.94044,1.179041 2.256574,0 5.084375,-0.76621 6.497998,-1.532419 1.413624,-0.766209 1.413069,-1.532419 2.177807,-1.532419 0.952239,0 1.759816,0.589521 2.256867,1.179041 0.497051,0.589521 0.683576,1.179041 2.859212,1.179041 2.399054,0 4.716097,-0.702519 6.190438,-1.405038 1.47434,-0.702519 2.10598,-1.405038 4.63548,-1.405038 2.717,0 4.61588,0.58952 5.85578,1.179041 1.23989,0.58952 1.8208,1.179041 4.36737,1.179041 2.72357,0 4.62247,-0.451868 6.08864,-0.903735 1.46618,-0.451868 2.49965,-0.903736 4.94091,-0.903736 2.62876,0 4.19724,0.589521 5.12433,1.179041 0.92709,0.589521 1.2128,1.179041 3.74154,1.179041 2.70842,0 5.30601,-0.743609 6.73294,-1.487219 1.42693,-0.743609 1.6832,-1.487219 3.6318,-1.487219 2.1361,0 3.78577,0.589521 4.72155,1.179041 0.93577,0.58952 1.15766,1.179041 2.90369,1.179041 1.92136,0 3.57726,-0.610066 4.70305,-1.220131 1.1258,-0.610066 1.72148,-1.220132 4.16275,-1.220132 2.62876,0 4.56257,0.589521 5.89904,1.179041 1.33647,0.589521 2.0756,1.179041 4.78049,1.179041 2.89073,0 4.55374,-0.205325 5.93035,-0.41065 1.37661,-0.205325 2.46681,-0.41065 4.51101,-0.41065 2.23169,0 3.16681,0.589521 3.31547,1.179041 0.14865,0.589521 -0.48916,1.179041 1.06215,1.179041 1.72173,0 4.20378,-0.667592 5.69106,-1.335185 1.48728,-0.667592 1.97981,-1.335184 2.88426,-1.335184 1.09194,0 1.63613,0.58952 1.74264,1.179041 0.10651,0.58952 -0.22466,1.179041 1.58207,1.179041 2.01044,0 4.35471,-0.622393 5.99465,-1.244786 1.63994,-0.622393 2.57555,-1.244785 4.5168,-1.244785 2.12874,0 3.24639,0.58952 3.65194,1.17904 0.40554,0.589521 0.099,1.179041 1.84485,1.179041 1.92135,0 4.37234,-0.733337 5.8892,-1.466674 1.51687,-0.733336 2.09962,-1.466673 4.09969,-1.466673 2.18757,0 3.63719,0.58952 4.51535,1.17904 0.87815,0.589521 1.18485,1.179041 3.55208,1.179041 2.55719,0 5.00218,-0.770318 5.9301,-1.540636 0.92791,-0.770319 0.33876,-1.540637 1.03732,-1.540637 0.88606,0 2.07,0.589521 2.73044,1.179041 0.66045,0.58952 0.7974,1.179041 2.05499,1.179041 1.45,0 2.38728,-0.229979 3.14216,-0.459959 0.75489,-0.229979 1.32737,-0.459958 2.423,-0.459958 1.28313,0 1.91694,0.58952 2.0845,1.179041 0.16755,0.58952 -0.13115,1.179041 1.75246,1.179041 2.08485,0 4.29475,-0.540212 6.03023,-1.080424 1.73547,-0.540212 2.99651,-1.080424 5.25395,-1.080424 2.44493,0 3.53961,0.58952 3.72612,1.179041 0.1865,0.58952 -0.53517,1.179041 0.74255,1.179041 1.44269,0 3.89282,-0.741555 5.20551,-1.48311 1.3127,-0.741555 1.48797,-1.48311 2.28212,-1.48311 0.98165,0 1.6801,0.58952 1.91936,1.179041 0.23926,0.58952 0.0193,1.179041 1.62975,1.179041 1.81031,0 2.98592,-0.215131 3.62686,-0.430262 0.64633,-0.216937 0.74723,-0.430262 0.74723,-0.430262 z" />
          <path
             style="fill:none;stroke:#000000;stroke-width:2.25743;stroke-linejoin:round;stroke-miterlimit:4;stroke-dasharray:none;filter:url(#filter1248)"
             id="path7845"
             width="317.90515"
             height="3.3580818"
             x="-34.056259"
             y="35.636787"
             ry="0"
             inkscape:path-effect="#path-effect7911"
             sodipodi:type="rect"
             transform="matrix(0.61283693,0,0,0.47165035,157.51898,90.460382)"
             d="m 283.17414,35.636787 c 0,0 0.20245,0.136155 0.3697,0.27001 0.17013,0.136154 0.30505,0.270009 0.30505,0.270009 0,0 -0.13492,-0.133855 -0.30505,-0.270009 -0.16725,-0.133855 -0.3697,-0.27001 -0.3697,-0.27001 z m 0.67475,2.818064 c 0,0 -0.41794,-0.139476 -3.04432,-0.139476 -1.48541,0 -1.72576,-0.589521 -2.4878,-1.179041 -0.76204,-0.589521 -2.04576,-1.179041 -3.15241,-1.179041 -1.29415,0 -1.06183,0.741555 -1.71693,1.48311 -0.65509,0.741555 -2.19762,1.48311 -3.14031,1.48311 -1.15272,0 -0.89132,-0.589521 -1.60061,-1.179041 -0.70928,-0.589521 -2.38924,-1.179041 -4.95917,-1.179041 -2.75743,0 -3.78943,0.540212 -5.04585,1.080424 -1.25642,0.540212 -2.73728,1.080424 -4.32212,1.080424 -1.75862,0 -1.92019,-0.589521 -2.61052,-1.179041 -0.69033,-0.589521 -1.90942,-1.179041 -3.31755,-1.179041 -1.59563,0 -2.21418,0.229979 -2.76511,0.459958 -0.55094,0.22998 -1.03428,0.459959 -1.98429,0.459959 -1.13258,0 -1.72981,-0.589521 -2.91303,-1.179041 -1.18323,-0.58952 -2.95244,-1.179041 -3.9635,-1.179041 -1.19856,0 -0.1763,0.770318 -0.42112,1.540637 -0.24481,0.770318 -1.7567,1.540636 -3.81388,1.540636 -2.24223,0 -3.00921,-0.58952 -4.41014,-1.179041 -1.40093,-0.58952 -3.43582,-1.17904 -5.7484,-1.17904 -2.50007,0 -2.68251,0.733337 -3.54906,1.466673 -0.86656,0.733337 -2.41723,1.466674 -3.83858,1.466674 -1.62086,0 -1.77459,-0.58952 -2.70291,-1.179041 -0.92833,-0.58952 -2.63125,-1.17904 -4.885,-1.17904 -2.44124,0 -3.07493,0.622392 -4.16294,1.244785 -1.08801,0.622393 -2.63035,1.244786 -4.14079,1.244786 -1.68173,0 -1.81084,-0.589521 -2.44012,-1.179041 -0.62929,-0.589521 -1.75876,-1.179041 -2.9757,-1.179041 -1.40445,0 -1.55497,0.667592 -2.45024,1.335184 -0.89527,0.667593 -2.53531,1.335185 -3.75704,1.335185 -1.42631,0 -1.24878,-0.58952 -1.92021,-1.179041 -0.67143,-0.58952 -2.19183,-1.179041 -4.54852,-1.179041 -2.54419,0 -3.70232,0.205325 -4.89685,0.41065 -1.19453,0.205325 -2.42547,0.41065 -4.81619,0.41065 -2.5799,0 -3.7793,-0.58952 -5.63855,-1.179041 -1.85924,-0.58952 -4.37833,-1.179041 -7.1321,-1.179041 -2.94126,0 -3.24595,0.610066 -3.83075,1.220132 -0.58479,0.610065 -1.4497,1.220131 -2.87105,1.220131 -1.62104,0 -2.3032,-0.589521 -3.76176,-1.179041 -1.45855,-0.58952 -3.69349,-1.179041 -5.95459,-1.179041 -2.4486,0 -2.29546,0.74361 -3.06297,1.487219 -0.76751,0.74361 -2.45567,1.487219 -4.66409,1.487219 -2.40374,0 -3.14973,-0.58952 -4.5996,-1.179041 -1.44987,-0.58952 -3.60362,-1.179041 -6.35738,-1.179041 -2.94126,0 -3.82402,0.451868 -4.88949,0.903736 -1.06547,0.451867 -2.31365,0.903735 -4.53723,0.903735 -2.42156,0 -3.46275,-0.589521 -5.22542,-1.179041 -1.76268,-0.589521 -4.24683,-1.179041 -7.08883,-1.179041 -3.029504,0 -3.28816,0.702519 -4.139519,1.405038 -0.851358,0.702519 -2.295419,1.405038 -4.194473,1.405038 -2.050636,0 -2.697438,-0.58952 -3.717266,-1.179041 -1.019828,-0.58952 -2.412682,-1.179041 -3.489921,-1.179041 -1.264738,0 -0.834721,0.76621 -1.568883,1.532419 -0.734162,0.766209 -2.632502,1.532419 -4.389076,1.532419 -1.921171,0 -2.128642,-0.589521 -2.798493,-1.179041 -0.669851,-0.589521 -1.802081,-1.179041 -3.107268,-1.179041 -1.492687,0 -1.870135,0.492958 -2.690447,0.985916 -0.820312,0.492958 -2.083488,0.985916 -3.623671,0.985916 -1.752393,0 -2.055167,-0.589521 -3.24304,-1.179041 -1.187874,-0.589521 -3.260847,-1.179041 -6.088142,-1.179041 -3.014795,0 -4.125091,0.367632 -5.074878,0.735264 -0.949786,0.367632 -1.739062,0.735264 -3.153002,0.735264 -1.602689,0 -2.306952,-0.58952 -3.678219,-1.179041 -1.371267,-0.58952 -3.409538,-1.17904 -5.214741,-1.17904 -1.992703,0 -2.06289,0.490903 -2.567173,0.981806 -0.504284,0.490904 -1.442665,0.981807 -3.462137,0.981807 -2.212038,0 -3.420324,-0.58952 -5.317914,-1.179041 -1.89759,-0.58952 -4.484485,-1.179041 -6.98824,-1.179041 -2.691255,0 -2.746632,0.577194 -3.176062,1.154387 -0.42943,0.577193 -1.232913,1.154387 -3.056908,1.154387 -2.018789,0 -3.15726,-0.589521 -5.007613,-1.179041 C 10.136432,35.3141 7.5741987,34.72458 5.1733885,34.72458 c -2.5883103,0 -1.903673,0.866881 -2.0930273,1.733762 -0.1893543,0.86688 -1.2527002,1.733761 -2.0057615,1.733761 -0.96553327,0 -0.99090942,-0.58952 -2.0870714,-1.179041 -1.0961619,-0.58952 -3.2631097,-1.179041 -6.0462852,-1.179041 -2.9706751,0 -3.8696631,0.449813 -4.9596961,0.899626 -1.090032,0.449813 -2.37111,0.899626 -4.670569,0.899626 -2.434602,0 -3.516852,-0.58952 -4.905549,-1.17904 -1.388697,-0.589521 -3.083841,-1.179041 -4.27873,-1.179041 -1.382389,0 -0.2658,0.929919 -0.337305,1.859838 -0.07085,0.921371 -1.331103,1.859839 -1.331103,1.859839 0,0 1.160385,-0.709011 1.67542,-1.359839 0.538057,-0.679919 0.476809,-1.359838 1.359198,-1.359838 1.06989,0 2.179757,0.58952 3.045677,1.179041 0.86592,0.58952 1.487893,1.17904 4.047495,1.17904 2.79946,0 4.729424,-0.449813 6.218343,-0.899626 1.4889191,-0.449813 2.5367935,-0.899626 5.007469,-0.899626 2.6581754,0 4.2398464,0.589521 4.8132315,1.179041 0.57338512,0.589521 0.1384844,1.179041 1.22901774,1.179041 1.25306126,0 3.33514246,-0.866881 4.29323216,-1.733761 0.9580896,-0.866881 0.7921877,-1.733762 2.880498,-1.733762 2.2758102,0 4.2527666,0.58952 5.5803416,1.179041 1.327576,0.58952 2.005771,1.179041 4.14956,1.179041 2.323995,0 3.889323,-0.577194 4.830598,-1.154387 0.941275,-0.577193 1.258498,-1.154387 3.449753,-1.154387 2.378755,0 4.380373,0.589521 5.755186,1.179041 1.374814,0.589521 2.122823,1.179041 4.45986,1.179041 2.519473,0 4.143178,-0.490903 5.082787,-0.981807 0.939609,-0.490903 1.19512,-0.981806 2.687823,-0.981806 1.680203,0 3.133197,0.58952 3.981687,1.17904 0.848491,0.589521 1.092477,1.179041 2.820166,1.179041 1.913939,0 3.279226,-0.367632 4.555022,-0.735264 1.275797,-0.367632 2.462103,-0.735264 4.976898,-0.735264 2.702295,0 4.189992,0.58952 4.855088,1.179041 0.665097,0.58952 0.507593,1.179041 2.384987,1.179041 2.040183,0 3.990506,-0.492958 5.247965,-0.985916 1.257458,-0.492958 1.822053,-0.985916 2.81474,-0.985916 1.180187,0 1.72714,0.58952 1.874214,1.179041 0.147074,0.58952 -0.105731,1.179041 1.94044,1.179041 2.256574,0 5.084375,-0.76621 6.497998,-1.532419 1.413624,-0.766209 1.413069,-1.532419 2.177807,-1.532419 0.952239,0 1.759816,0.589521 2.256867,1.179041 0.497051,0.589521 0.683576,1.179041 2.859212,1.179041 2.399054,0 4.716097,-0.702519 6.190438,-1.405038 1.47434,-0.702519 2.10598,-1.405038 4.63548,-1.405038 2.717,0 4.61588,0.58952 5.85578,1.179041 1.23989,0.58952 1.8208,1.179041 4.36737,1.179041 2.72357,0 4.62247,-0.451868 6.08864,-0.903735 1.46618,-0.451868 2.49965,-0.903736 4.94091,-0.903736 2.62876,0 4.19724,0.589521 5.12433,1.179041 0.92709,0.589521 1.2128,1.179041 3.74154,1.179041 2.70842,0 5.30601,-0.743609 6.73294,-1.487219 1.42693,-0.743609 1.6832,-1.487219 3.6318,-1.487219 2.1361,0 3.78577,0.589521 4.72155,1.179041 0.93577,0.58952 1.15766,1.179041 2.90369,1.179041 1.92136,0 3.57726,-0.610066 4.70305,-1.220131 1.1258,-0.610066 1.72148,-1.220132 4.16275,-1.220132 2.62876,0 4.56257,0.589521 5.89904,1.179041 1.33647,0.589521 2.0756,1.179041 4.78049,1.179041 2.89073,0 4.55374,-0.205325 5.93035,-0.41065 1.37661,-0.205325 2.46681,-0.41065 4.51101,-0.41065 2.23169,0 3.16681,0.589521 3.31547,1.179041 0.14865,0.589521 -0.48916,1.179041 1.06215,1.179041 1.72173,0 4.20378,-0.667592 5.69106,-1.335185 1.48728,-0.667592 1.97981,-1.335184 2.88426,-1.335184 1.09194,0 1.63613,0.58952 1.74264,1.179041 0.10651,0.58952 -0.22466,1.179041 1.58207,1.179041 2.01044,0 4.35471,-0.622393 5.99465,-1.244786 1.63994,-0.622393 2.57555,-1.244785 4.5168,-1.244785 2.12874,0 3.24639,0.58952 3.65194,1.17904 0.40554,0.589521 0.099,1.179041 1.84485,1.179041 1.92135,0 4.37234,-0.733337 5.8892,-1.466674 1.51687,-0.733336 2.09962,-1.466673 4.09969,-1.466673 2.18757,0 3.63719,0.58952 4.51535,1.17904 0.87815,0.589521 1.18485,1.179041 3.55208,1.179041 2.55719,0 5.00218,-0.770318 5.9301,-1.540636 0.92791,-0.770319 0.33876,-1.540637 1.03732,-1.540637 0.88606,0 2.07,0.589521 2.73044,1.179041 0.66045,0.58952 0.7974,1.179041 2.05499,1.179041 1.45,0 2.38728,-0.229979 3.14216,-0.459959 0.75489,-0.229979 1.32737,-0.459958 2.423,-0.459958 1.28313,0 1.91694,0.58952 2.0845,1.179041 0.16755,0.58952 -0.13115,1.179041 1.75246,1.179041 2.08485,0 4.29475,-0.540212 6.03023,-1.080424 1.73547,-0.540212 2.99651,-1.080424 5.25395,-1.080424 2.44493,0 3.53961,0.58952 3.72612,1.179041 0.1865,0.58952 -0.53517,1.179041 0.74255,1.179041 1.44269,0 3.89282,-0.741555 5.20551,-1.48311 1.3127,-0.741555 1.48797,-1.48311 2.28212,-1.48311 0.98165,0 1.6801,0.58952 1.91936,1.179041 0.23926,0.58952 0.0193,1.179041 1.62975,1.179041 1.81031,0 2.98592,-0.215131 3.62686,-0.430262 0.64633,-0.216937 0.74723,-0.430262 0.74723,-0.430262 z" />
        </g>
        <path
           style="fill:none;stroke:#000000;stroke-width:0.529166;stroke-linecap:butt;stroke-linejoin:miter;stroke-miterlimit:4;stroke-dasharray:none;stroke-opacity:1"
           d="m 67.506705,131.31876 1.809602,13.70062 -0.176389,18.36678"
           id="path7847" />
        <path
           style="fill:none;stroke:#000000;stroke-width:0.529166;stroke-linecap:butt;stroke-linejoin:miter;stroke-miterlimit:4;stroke-dasharray:none;stroke-opacity:1"
           d="m 73.259524,131.34535 -0.751276,32.4783"
           id="path7849" />
        <path
           style="fill:none;stroke:#000000;stroke-width:0.529166;stroke-linecap:butt;stroke-linejoin:miter;stroke-miterlimit:4;stroke-dasharray:none;stroke-opacity:1"
           d="m 76.214319,131.62195 0.625195,31.71103"
           id="path7851" />
        <path
           style="fill:none;stroke:#000000;stroke-width:0.529166;stroke-linecap:butt;stroke-linejoin:miter;stroke-miterlimit:4;stroke-dasharray:none;stroke-opacity:1"
           d="m 80.63444,131.26557 -0.04309,31.71634"
           id="path7853" />
        <path
           style="fill:none;stroke:#000000;stroke-width:0.529166;stroke-linecap:butt;stroke-linejoin:miter;stroke-miterlimit:4;stroke-dasharray:none;stroke-opacity:1"
           d="m 82.849719,131.37062 -2.122517,14.95459"
           id="path7855" />
        <path
           style="fill:none;stroke:#000000;stroke-width:0.529166;stroke-linecap:butt;stroke-linejoin:miter;stroke-miterlimit:4;stroke-dasharray:none;stroke-opacity:1"
           d="m 86.216089,132.29215 0.532425,31.10465"
           id="path7857" />
        <path
           style="fill:none;stroke:#000000;stroke-width:0.529166;stroke-linecap:butt;stroke-linejoin:miter;stroke-miterlimit:4;stroke-dasharray:none;stroke-opacity:1"
           d="m 92.320371,131.91848 -1.178525,31.42779"
           id="path7859" />
        <path
           style="fill:none;stroke:#000000;stroke-width:0.529166;stroke-linecap:butt;stroke-linejoin:miter;stroke-miterlimit:4;stroke-dasharray:none;stroke-opacity:1"
           d="m 95.002094,131.93045 0.917211,32.15916"
           id="path7861" />
        <path
           style="fill:none;stroke:#000000;stroke-width:0.529166;stroke-linecap:butt;stroke-linejoin:miter;stroke-miterlimit:4;stroke-dasharray:none;stroke-opacity:1"
           d="m 99.290249,131.40386 -0.369108,32.58335"
           id="path7863" />
        <path
           style="fill:none;stroke:#000000;stroke-width:0.529166;stroke-linecap:butt;stroke-linejoin:miter;stroke-miterlimit:4;stroke-dasharray:none;stroke-opacity:1"
           d="m 102.93557,130.95174 0.35342,33.54345"
           id="path7865" />
        <path
           style="fill:none;stroke:#000000;stroke-width:0.529166;stroke-linecap:butt;stroke-linejoin:miter;stroke-miterlimit:4;stroke-dasharray:none;stroke-opacity:1"
           d="m 106.80431,163.5311 0.70293,-32.35995"
           id="path7867" />
        <path
           style="fill:none;stroke:#000000;stroke-width:0.529166;stroke-linecap:butt;stroke-linejoin:miter;stroke-miterlimit:4;stroke-dasharray:none;stroke-opacity:1"
           d="m 110.97749,131.17248 0.93485,31.84667"
           id="path7869" />
        <path
           style="fill:none;stroke:#000000;stroke-width:0.529166;stroke-linecap:butt;stroke-linejoin:miter;stroke-miterlimit:4;stroke-dasharray:none;stroke-opacity:1"
           d="m 115.72097,130.24298 -0.12738,33.95035"
           id="path7871" />
        <path
           style="fill:none;stroke:#000000;stroke-width:0.529166;stroke-linecap:butt;stroke-linejoin:miter;stroke-miterlimit:4;stroke-dasharray:none;stroke-opacity:1"
           d="m 118.51703,131.08871 2.39101,32.57404"
           id="path7873" />
        <path
           style="fill:none;stroke:#000000;stroke-width:0.529166;stroke-linecap:butt;stroke-linejoin:miter;stroke-miterlimit:4;stroke-dasharray:none;stroke-opacity:1"
           d="m 124.07189,131.40652 -0.15548,32.16316"
           id="path7875" />
        <path
           style="fill:none;stroke:#000000;stroke-width:0.529166;stroke-linecap:butt;stroke-linejoin:miter;stroke-miterlimit:4;stroke-dasharray:none;stroke-opacity:1"
           d="m 126.96725,132.23231 1.97095,31.2762"
           id="path7877" />
        <path
           style="fill:none;stroke:#000000;stroke-width:0.529166;stroke-linecap:butt;stroke-linejoin:miter;stroke-miterlimit:4;stroke-dasharray:none;stroke-opacity:1"
           d="m 131.59837,131.44243 0.14373,32.23229"
           id="path7879" />
        <path
           style="fill:none;stroke:#000000;stroke-width:0.529166;stroke-linecap:butt;stroke-linejoin:miter;stroke-miterlimit:4;stroke-dasharray:none;stroke-opacity:1"
           d="m 135.1163,162.59893 1.85076,-31.73096"
           id="path7881" />
        <path
           style="fill:none;stroke:#000000;stroke-width:0.529166;stroke-linecap:butt;stroke-linejoin:miter;stroke-miterlimit:4;stroke-dasharray:none;stroke-opacity:1"
           d="m 139.89246,131.2403 -0.29333,33.20969"
           id="path7883" />
        <path
           style="fill:none;stroke:#000000;stroke-width:0.529166;stroke-linecap:butt;stroke-linejoin:miter;stroke-miterlimit:4;stroke-dasharray:none;stroke-opacity:1"
           d="m 142.85575,131.20174 1.52737,32.8892"
           id="path7885" />
        <path
           style="fill:none;stroke:#000000;stroke-width:0.529166;stroke-linecap:butt;stroke-linejoin:miter;stroke-miterlimit:4;stroke-dasharray:none;stroke-opacity:1"
           d="m 144.69409,130.7443 -0.44423,25.52759"
           id="path7887" />
        <path
           style="fill:none;stroke:#000000;stroke-width:0.529166;stroke-linecap:butt;stroke-linejoin:miter;stroke-miterlimit:4;stroke-dasharray:none;stroke-opacity:1"
           d="m 147.35752,131.02754 0.51088,33.13387"
           id="path7889" />
        <path
           style="fill:none;stroke:#000000;stroke-width:0.529166;stroke-linecap:butt;stroke-linejoin:miter;stroke-miterlimit:4;stroke-dasharray:none;stroke-opacity:1"
           d="m 145.83201,131.36362 0.75128,32.4783"
           id="path7915" />
        <path
           style="fill:none;stroke:#000000;stroke-width:0.529166;stroke-linecap:butt;stroke-linejoin:miter;stroke-miterlimit:4;stroke-dasharray:none;stroke-opacity:1"
           d="m 142.34805,131.64022 -0.6252,31.71103"
           id="path7917" />
        <path
           style="fill:none;stroke:#000000;stroke-width:0.529166;stroke-linecap:butt;stroke-linejoin:miter;stroke-miterlimit:4;stroke-dasharray:none;stroke-opacity:1"
           d="m 137.92793,131.28384 0.0431,31.71634"
           id="path7919" />
        <path
           style="fill:none;stroke:#000000;stroke-width:0.529166;stroke-linecap:butt;stroke-linejoin:miter;stroke-miterlimit:4;stroke-dasharray:none;stroke-opacity:1"
           d="m 137.82931,131.38889 2.12252,14.95459"
           id="path7921" />
        <path
           style="fill:none;stroke:#000000;stroke-width:0.529166;stroke-linecap:butt;stroke-linejoin:miter;stroke-miterlimit:4;stroke-dasharray:none;stroke-opacity:1"
           d="m 134.46294,132.31042 -0.53242,31.10466"
           id="path7923" />
        <path
           style="fill:none;stroke:#000000;stroke-width:0.529166;stroke-linecap:butt;stroke-linejoin:miter;stroke-miterlimit:4;stroke-dasharray:none;stroke-opacity:1"
           d="m 128.35867,131.93676 1.17852,31.42778"
           id="path7925" />
        <path
           style="fill:none;stroke:#000000;stroke-width:0.529166;stroke-linecap:butt;stroke-linejoin:miter;stroke-miterlimit:4;stroke-dasharray:none;stroke-opacity:1"
           d="m 125.67694,131.94872 -0.91721,32.15917"
           id="path7927" />
        <path
           style="fill:none;stroke:#000000;stroke-width:0.529166;stroke-linecap:butt;stroke-linejoin:miter;stroke-miterlimit:4;stroke-dasharray:none;stroke-opacity:1"
           d="m 121.38878,131.42213 0.36911,32.58336"
           id="path7929" />
        <path
           style="fill:none;stroke:#000000;stroke-width:0.529166;stroke-linecap:butt;stroke-linejoin:miter;stroke-miterlimit:4;stroke-dasharray:none;stroke-opacity:1"
           d="m 117.74347,130.97001 -0.35343,33.54345"
           id="path7931" />
        <path
           style="fill:none;stroke:#000000;stroke-width:0.529166;stroke-linecap:butt;stroke-linejoin:miter;stroke-miterlimit:4;stroke-dasharray:none;stroke-opacity:1"
           d="m 113.87472,163.54938 -0.70293,-32.35996"
           id="path7933" />
        <path
           style="fill:none;stroke:#000000;stroke-width:0.529166;stroke-linecap:butt;stroke-linejoin:miter;stroke-miterlimit:4;stroke-dasharray:none;stroke-opacity:1"
           d="m 109.70154,131.19076 -0.93484,31.84666"
           id="path7935" />
        <path
           style="fill:none;stroke:#000000;stroke-width:0.529166;stroke-linecap:butt;stroke-linejoin:miter;stroke-miterlimit:4;stroke-dasharray:none;stroke-opacity:1"
           d="m 104.95806,130.26125 0.12739,33.95036"
           id="path7937" />
        <path
           style="fill:none;stroke:#000000;stroke-width:0.529166;stroke-linecap:butt;stroke-linejoin:miter;stroke-miterlimit:4;stroke-dasharray:none;stroke-opacity:1"
           d="m 102.162,131.10698 -2.391016,32.57405"
           id="path7939" />
        <path
           style="fill:none;stroke:#000000;stroke-width:0.529166;stroke-linecap:butt;stroke-linejoin:miter;stroke-miterlimit:4;stroke-dasharray:none;stroke-opacity:1"
           d="m 96.607136,131.42479 0.155482,32.16316"
           id="path7941" />
        <path
           style="fill:none;stroke:#000000;stroke-width:0.529166;stroke-linecap:butt;stroke-linejoin:miter;stroke-miterlimit:4;stroke-dasharray:none;stroke-opacity:1"
           d="m 93.711785,132.25058 -1.970957,31.2762"
           id="path7943" />
        <path
           style="fill:none;stroke:#000000;stroke-width:0.529166;stroke-linecap:butt;stroke-linejoin:miter;stroke-miterlimit:4;stroke-dasharray:none;stroke-opacity:1"
           d="m 89.08066,131.4607 -0.143721,32.23229"
           id="path7945" />
        <path
           style="fill:none;stroke:#000000;stroke-width:0.529166;stroke-linecap:butt;stroke-linejoin:miter;stroke-miterlimit:4;stroke-dasharray:none;stroke-opacity:1"
           d="M 85.033558,162.6172 83.182809,130.88624"
           id="path7947" />
        <path
           style="fill:none;stroke:#000000;stroke-width:0.529166;stroke-linecap:butt;stroke-linejoin:miter;stroke-miterlimit:4;stroke-dasharray:none;stroke-opacity:1"
           d="m 79.199076,131.25857 0.29332,33.20969"
           id="path7949" />
        <path
           style="fill:none;stroke:#000000;stroke-width:0.529166;stroke-linecap:butt;stroke-linejoin:miter;stroke-miterlimit:4;stroke-dasharray:none;stroke-opacity:1"
           d="m 77.823276,131.22001 -1.527369,32.88921"
           id="path7951" />
        <path
           style="fill:none;stroke:#000000;stroke-width:0.592278;stroke-linecap:butt;stroke-linejoin:miter;stroke-miterlimit:4;stroke-dasharray:none;stroke-opacity:1"
           d="m 74.930635,131.28784 0.436181,32.57075"
           id="path7953" />
        <path
           style="fill:none;stroke:#000000;stroke-width:0.529166;stroke-linecap:butt;stroke-linejoin:miter;stroke-miterlimit:4;stroke-dasharray:none;stroke-opacity:1"
           d="M 71.734006,131.04581 71.22314,164.17968"
           id="path7955" />
        <path
           style="fill:none;stroke:#000000;stroke-width:0.264583px;stroke-linecap:butt;stroke-linejoin:miter;stroke-miterlimit:4;stroke-dasharray:none;stroke-opacity:1"
           d="m 69.529493,131.36007 0.847135,32.49891"
           id="path16670" />
        <path
           style="fill:none;stroke:#000000;stroke-width:0.264583px;stroke-linecap:butt;stroke-linejoin:miter;stroke-miterlimit:4;stroke-dasharray:none;stroke-opacity:1"
           d="m 74.173938,131.36805 -0.0263,32.35513"
           id="path16672" />
        <path
           style="fill:none;stroke:#000000;stroke-width:0.264583px;stroke-linecap:butt;stroke-linejoin:miter;stroke-miterlimit:4;stroke-dasharray:none;stroke-opacity:1"
           d="m 77.857076,163.93838 0.661077,-32.43219"
           id="path16674" />
        <path
           style="fill:none;stroke:#000000;stroke-width:0.264583px;stroke-linecap:butt;stroke-linejoin:miter;stroke-miterlimit:4;stroke-dasharray:none;stroke-opacity:1"
           d="M 82.296668,164.13854 81.798629,131.3596"
           id="path16676" />
        <path
           style="fill:none;stroke:#000000;stroke-width:0.264583px;stroke-linecap:butt;stroke-linejoin:miter;stroke-miterlimit:4;stroke-dasharray:none;stroke-opacity:1"
           d="m 84.737528,131.31261 0.973995,32.5614"
           id="path16678" />
        <path
           style="fill:none;stroke:#000000;stroke-width:0.264583px;stroke-linecap:butt;stroke-linejoin:miter;stroke-miterlimit:4;stroke-dasharray:none;stroke-opacity:1"
           d="M 87.996393,131.52968 87.88598,164.11926"
           id="path16680" />
        <path
           style="fill:none;stroke:#000000;stroke-width:0.264583px;stroke-linecap:butt;stroke-linejoin:miter;stroke-miterlimit:4;stroke-dasharray:none;stroke-opacity:1"
           d="m 90.565992,131.48598 -0.507907,32.52194"
           id="path16682" />
        <path
           style="fill:none;stroke:#000000;stroke-width:0.264583px;stroke-linecap:butt;stroke-linejoin:miter;stroke-miterlimit:4;stroke-dasharray:none;stroke-opacity:1"
           d="m 93.50442,164.09953 c -0.264054,-2.53623 0.802029,-32.72584 0.802029,-32.72584"
           id="path16684" />
        <path
           style="fill:none;stroke:#000000;stroke-width:0.264583px;stroke-linecap:butt;stroke-linejoin:miter;stroke-miterlimit:4;stroke-dasharray:none;stroke-opacity:1"
           d="M 97.912532,163.76265 97.673849,131.40282"
           id="path16686" />
        <path
           style="fill:none;stroke:#000000;stroke-width:0.264583px;stroke-linecap:butt;stroke-linejoin:miter;stroke-miterlimit:4;stroke-dasharray:none;stroke-opacity:1"
           d="m 101.7324,164.04409 0.27439,-32.82028"
           id="path16688" />
        <path
           style="fill:none;stroke:#000000;stroke-width:0.264583px;stroke-linecap:butt;stroke-linejoin:miter;stroke-miterlimit:4;stroke-dasharray:none;stroke-opacity:1"
           d="m 103.74428,131.51981 0.40924,32.59382"
           id="path16690" />
        <path
           style="fill:none;stroke:#000000;stroke-width:0.264583px;stroke-linecap:butt;stroke-linejoin:miter;stroke-miterlimit:4;stroke-dasharray:none;stroke-opacity:1"
           d="m 106.02446,163.96892 0.24244,-32.62436"
           id="path16692" />
        <path
           style="fill:none;stroke:#000000;stroke-width:0.264583px;stroke-linecap:butt;stroke-linejoin:miter;stroke-miterlimit:4;stroke-dasharray:none;stroke-opacity:1"
           d="m 108.65466,131.65419 -0.72027,32.34902"
           id="path16694" />
        <path
           style="fill:none;stroke:#000000;stroke-width:0.264583px;stroke-linecap:butt;stroke-linejoin:miter;stroke-miterlimit:4;stroke-dasharray:none;stroke-opacity:1"
           d="m 110.41941,163.96422 -0.0296,-32.71551"
           id="path16696" />
        <path
           style="fill:none;stroke:#000000;stroke-width:0.264583px;stroke-linecap:butt;stroke-linejoin:miter;stroke-miterlimit:4;stroke-dasharray:none;stroke-opacity:1"
           d="M 113.05808,163.72742 112.01126,131.665"
           id="path16698" />
        <path
           style="fill:none;stroke:#000000;stroke-width:0.264583px;stroke-linecap:butt;stroke-linejoin:miter;stroke-miterlimit:4;stroke-dasharray:none;stroke-opacity:1"
           d="m 114.64569,131.48129 0.19405,32.60603"
           id="path16700" />
        <path
           style="fill:none;stroke:#000000;stroke-width:0.264583px;stroke-linecap:butt;stroke-linejoin:miter;stroke-miterlimit:4;stroke-dasharray:none;stroke-opacity:1"
           d="m 116.51898,164.2527 0.31527,-32.57267"
           id="path16702" />
        <path
           style="fill:none;stroke:#000000;stroke-width:0.264583px;stroke-linecap:butt;stroke-linejoin:miter;stroke-miterlimit:4;stroke-dasharray:none;stroke-opacity:1"
           d="m 119.13603,163.88059 -0.93782,-32.62953"
           id="path16704" />
        <path
           style="fill:none;stroke:#000000;stroke-width:0.264583px;stroke-linecap:butt;stroke-linejoin:miter;stroke-miterlimit:4;stroke-dasharray:none;stroke-opacity:1"
           d="m 122.91032,163.86085 -0.30916,-32.27761"
           id="path16706" />
        <path
           style="fill:none;stroke:#000000;stroke-width:0.264583px;stroke-linecap:butt;stroke-linejoin:miter;stroke-miterlimit:4;stroke-dasharray:none;stroke-opacity:1"
           d="m 126.31014,163.78662 -0.0376,-32.13807"
           id="path16708" />
        <path
           style="fill:none;stroke:#000000;stroke-width:0.264583px;stroke-linecap:butt;stroke-linejoin:miter;stroke-miterlimit:4;stroke-dasharray:none;stroke-opacity:1"
           d="M 130.4213,164.01825 129.65076,131.4935"
           id="path16710" />
        <path
           style="fill:none;stroke:#000000;stroke-width:0.264583px;stroke-linecap:butt;stroke-linejoin:miter;stroke-miterlimit:4;stroke-dasharray:none;stroke-opacity:1"
           d="m 132.73859,163.85333 0.0536,-32.35607"
           id="path16712" />
        <path
           style="fill:none;stroke:#000000;stroke-width:0.264583px;stroke-linecap:butt;stroke-linejoin:miter;stroke-miterlimit:4;stroke-dasharray:none;stroke-opacity:1"
           d="m 135.6977,131.45685 -1.21409,32.76813"
           id="path16714" />
        <path
           style="fill:none;stroke:#000000;stroke-width:0.264583px;stroke-linecap:butt;stroke-linejoin:miter;stroke-miterlimit:4;stroke-dasharray:none;stroke-opacity:1"
           d="m 137.15375,164.33587 0.0794,-33.03078"
           id="path16716" />
        <path
           style="fill:none;stroke:#000000;stroke-width:0.264583px;stroke-linecap:butt;stroke-linejoin:miter;stroke-miterlimit:4;stroke-dasharray:none;stroke-opacity:1"
           d="m 140.8975,163.96892 0.10243,-32.32977"
           id="path16718" />
        <path
           style="fill:none;stroke:#000000;stroke-width:0.264583px;stroke-linecap:butt;stroke-linejoin:miter;stroke-miterlimit:4;stroke-dasharray:none;stroke-opacity:1"
           d="m 142.92631,163.93838 0.41675,-21.27612"
           id="path16720" />
      </g>
      <g
         id="g18592"
         transform="matrix(0,0.34407762,0.41749597,0,75.04921,-116.79509)"
         style="stroke-width:0.79613;stroke-miterlimit:4;stroke-dasharray:none">
        <path
           style="color:#000000;fill:#000000;-inkscape-stroke:none"
           d="M 767.68164,-78.466797 767.04687,-38.5 l 1.8379,0.0293 0.63476,-39.966797 z"
           id="path18580" />
        <g
           id="g18590">
          <g
             id="g18588">
            <path
               style="color:#000000;fill:#000000;fill-rule:evenodd;stroke-width:1.46959pt;-inkscape-stroke:none"
               d="m 768.2574,-56.853284 -7.23037,-7.463715 6.93869,25.831323 7.75539,-25.59798 z"
               id="path18582" />
            <path
               style="color:#000000;fill:#000000;fill-rule:evenodd;-inkscape-stroke:none"
               d="m 759.09961,-67.714844 8.80859,32.794922 9.84766,-32.498047 -9.47656,9.179688 z m 3.85351,6.792969 5.28321,5.453125 0.70312,-0.681641 4.74805,-4.599609 -5.66602,18.697266 z"
               id="path18584" />
            <path
               style="color:#000000;fill:#000000;fill-rule:evenodd;-inkscape-stroke:none"
               d="m 759.09961,-67.714844 8.80859,32.794922 9.84766,-32.498047 -9.47656,9.179688 z m 3.85351,6.792969 5.28321,5.453125 0.70312,-0.681641 4.74805,-4.599609 -5.66602,18.697266 z"
               id="path18586" />
          </g>
        </g>
      </g>
      <g
         id="g18606"
         transform="matrix(0,0.34407762,-0.41749597,0,139.18024,-118.22155)"
         style="stroke-width:0.79613;stroke-miterlimit:4;stroke-dasharray:none">
        <path
           style="color:#000000;fill:#000000;-inkscape-stroke:none"
           d="M 767.68164,-78.466797 767.04687,-38.5 l 1.8379,0.0293 0.63476,-39.966797 z"
           id="path18594" />
        <g
           id="g18604">
          <g
             id="g18602">
            <path
               style="color:#000000;fill:#000000;fill-rule:evenodd;stroke-width:1.46959pt;-inkscape-stroke:none"
               d="m 768.2574,-56.853284 -7.23037,-7.463715 6.93869,25.831323 7.75539,-25.59798 z"
               id="path18596" />
            <path
               style="color:#000000;fill:#000000;fill-rule:evenodd;-inkscape-stroke:none"
               d="m 759.09961,-67.714844 8.80859,32.794922 9.84766,-32.498047 -9.47656,9.179688 z m 3.85351,6.792969 5.28321,5.453125 0.70312,-0.681641 4.74805,-4.599609 -5.66602,18.697266 z"
               id="path18598" />
            <path
               style="color:#000000;fill:#000000;fill-rule:evenodd;-inkscape-stroke:none"
               d="m 759.09961,-67.714844 8.80859,32.794922 9.84766,-32.498047 -9.47656,9.179688 z m 3.85351,6.792969 5.28321,5.453125 0.70312,-0.681641 4.74805,-4.599609 -5.66602,18.697266 z"
               id="path18600" />
          </g>
        </g>
      </g>
    </g>
    <text
       xml:space="preserve"
       style="font-style:normal;font-weight:normal;font-size:7.05556px;line-height:1.25;font-family:sans-serif;letter-spacing:0px;word-spacing:0px;fill:#000000;fill-opacity:1;stroke:none;stroke-width:0.264583"
       x="81.185196"
       y="174.03665"
       id="text8303"><tspan
         sodipodi:role="line"
         id="tspan8301"
         style="font-size:7.05556px;stroke-width:0.264583"
         x="81.185196"
         y="174.03665">Slaty cleavage</tspan></text>
  </g>
</svg>
