<?xml version="1.0" encoding="UTF-8" standalone="no"?> <!-- Created with Vectornator for iOS (http://vectornator.io/) --><!DOCTYPE svg PUBLIC "-//W3C//DTD SVG 1.1//EN" "http://www.w3.org/Graphics/SVG/1.1/DTD/svg11.dtd">
<svg height="100%" style="fill-rule:nonzero;clip-rule:evenodd;stroke-linecap:round;stroke-linejoin:round;" xmlns:xlink="http://www.w3.org/1999/xlink" xmlns="http://www.w3.org/2000/svg" xml:space="preserve" width="100%" xmlns:vectornator="http://vectornator.io" version="1.1" viewBox="0 0 249.184 113.11">
<metadata>
<vectornator:setting key="DimensionsVisible" value="1"/>
<vectornator:setting key="PencilOnly" value="0"/>
<vectornator:setting key="SnapToPoints" value="0"/>
<vectornator:setting key="OutlineMode" value="0"/>
<vectornator:setting key="CMYKEnabledKey" value="0"/>
<vectornator:setting key="RulersVisible" value="1"/>
<vectornator:setting key="SnapToEdges" value="0"/>
<vectornator:setting key="GuidesVisible" value="1"/>
<vectornator:setting key="DisplayWhiteBackground" value="0"/>
<vectornator:setting key="doHistoryDisabled" value="0"/>
<vectornator:setting key="SnapToGuides" value="1"/>
<vectornator:setting key="TimeLapseWatermarkDisabled" value="0"/>
<vectornator:setting key="Units" value="Points"/>
<vectornator:setting key="DynamicGuides" value="0"/>
<vectornator:setting key="IsolateActiveLayer" value="0"/>
<vectornator:setting key="SnapToGrid" value="0"/>
</metadata>
<defs>
<linearGradient y1="130.375" id="LinearGradient" x1="68.2624" y2="100.344" x2="71.9921" gradientUnits="userSpaceOnUse" gradientTransform="matrix(1.23353 0.111082 -0.132495 0.694821 35.1387 -37.5925)">
<stop stop-color="#ca7700" offset="0"/>
<stop stop-opacity="0" stop-color="#ca7700" offset="1"/>
</linearGradient>
<linearGradient y1="130.375" id="LinearGradient_2" x1="68.2624" y2="100.344" x2="71.9921" gradientUnits="userSpaceOnUse" gradientTransform="matrix(1.23353 0.111082 -0.132495 0.694821 12.4585 -19.6616)">
<stop stop-color="#ca7700" offset="0"/>
<stop stop-opacity="0" stop-color="#ca7700" offset="1"/>
</linearGradient>
<linearGradient y1="356.104" id="LinearGradient_3" x1="1070.02" y2="180.608" x2="350.993" gradientUnits="userSpaceOnUse" gradientTransform="matrix(0.225677 0.0153866 -0.0126119 0.18498 14.8387 -7.30368)">
<stop stop-color="#9e9e9e" offset="0"/>
<stop stop-color="#c0c0f7" offset="1"/>
</linearGradient>
<linearGradient y1="356.104" id="LinearGradient_4" x1="1070.02" y2="180.608" x2="350.993" gradientUnits="userSpaceOnUse" gradientTransform="matrix(0.225677 0.0153866 -0.0126119 0.18498 -11.1547 10.1256)">
<stop stop-color="#9e9e9e" offset="0"/>
<stop stop-color="#c0c0f7" offset="1"/>
</linearGradient>
</defs>
<g id="layer1" vectornator:layerName="layer1">
<g opacity="1">
<path d="M76.4744+35.2793L120.181+39.2152L120.181+39.2152L117.227+54.707L117.227+54.707L73.5203+50.7712L73.5203+50.7712L76.4744+35.2793L76.4744+35.2793Z" opacity="1" fill="url(#LinearGradient)"/>
<path d="M53.7942+53.2103L97.5006+57.1461L97.5006+57.1461L94.5464+72.638L94.5464+72.638L50.84+68.7021L50.84+68.7021L53.7942+53.2103L53.7942+53.2103Z" opacity="1" fill="url(#LinearGradient_2)"/>
<g opacity="1">
<path stroke="#000000" stroke-width="0.951956" d="M99.1091+46.3308L143.22+32.5153M99.1091+46.3308C117.277+57.2942+134.334+64.1964+152.666+69.7376C167.992+74.3699+200.108+77.6541+200.108+77.6541M200.108+77.6541L247.957+57.864M143.22+32.5153C163.53+41.0834+177.922+46.579+195.872+50.8812C212.976+54.9807+247.966+57.8915+247.966+57.8915" fill="none" stroke-linecap="butt" opacity="1" stroke-linejoin="miter"/>
<path d="M187.583+68.1858C179.238+67.2507+166.892+65.5938+161.169+64.6407C148.682+62.5611+128.294+56.9938+114.522+51.9027C107.996+49.4903+101.16+46.7349+101.182+46.526C101.198+46.3807+133.634+36.0571+141.899+33.5672C143.324+33.1377+143.378+33.1494+153.317+36.0688C165.203+39.5597+174.097+41.9157+182.334+43.7551C198.175+47.2926+206.901+48.52+238.854+51.7054L245.69+52.3868L222.757+60.8766L199.823+69.3665L196.578+69.0983C194.794+68.9508+190.746+68.5401+187.583+68.1858Z" opacity="1" fill="url(#LinearGradient_3)"/>
<path stroke="#000000" stroke-width="1.32882" d="M99.1282+46.4341L143.22+32.5153M99.1282+46.4341C117.527+54.2396+134.268+59.4145+152.711+63.5628C168.129+67.0306+199.91+69.9348+199.91+69.9348M199.91+69.9348L248.448+51.9554M143.22+32.5153C163.706+38.7512+178.21+42.7811+196.243+46.0844C213.427+49.232+248.458+51.9742+248.458+51.9742" fill="none" stroke-linecap="round" opacity="1" stroke-linejoin="round"/>
<path d="M189.376+75.8636C176.537+74.1908+165.435+72.3297+158.415+70.6739C150.49+68.8042+136.862+64.1467+127.056+59.9564C120.816+57.2902+110.055+52.1058+110.339+51.9032C110.402+51.8584+113.513+52.8879+117.253+54.1908C128.186+58.0002+136.86+60.5376+147.935+63.1663C159.516+65.9153+171.05+67.6403+193.959+70.0498L200.044+70.6897L218.05+64.0209L236.056+57.3521L240.138+57.6817C242.383+57.863+244.44+58.0947+244.709+58.1967C244.981+58.2998+242.456+59.4494+234.535+62.766C231.443+64.0606+227.529+65.6855+222.638+67.7072L200.079+77.0321L197.87+76.8573C196.655+76.7611+192.832+76.314+189.376+75.8636Z" opacity="1" fill="#cf9889"/>
</g>
<g opacity="1">
<path stroke="#000000" stroke-width="1.00987" d="M117.227+49.9445C117.227+49.9445+105.765+51.2465+87.2473+51.259C68.7298+51.2715+35.4824+50.2811+35.4824+50.2811L4.51192+62.384C4.51192+62.384+30.2567+69.0225+48.6439+68.1868C67.354+67.3365+73.1347+63.8633+73.1347+63.8633L117.227+49.9445Z" fill="#e3d0d1" stroke-linecap="butt" opacity="1" stroke-linejoin="miter"/>
<path stroke="#000000" stroke-width="1.00987" d="M63.5526+32.4543C63.5526+32.4543+83.6236+36.1888+104.34+37.1855C125.056+38.1821+143.202+32.0685+143.202+32.0685L99.1091+46.3308C99.1091+46.3308+89.502+50.4417+71.1108+49.6977C52.7196+48.9537+24.7468+44.2137+24.7468+44.2137L63.5526+32.4543Z" fill="#e6c6c6" stroke-linecap="butt" opacity="1" stroke-linejoin="miter"/>
<path stroke="#000000" stroke-width="0.951956" d="M73.1156+63.76L117.227+49.9445M73.1156+63.76C91.2838+74.7234+108.34+81.6257+126.673+87.1668C141.999+91.7991+174.114+95.0833+174.114+95.0833M174.114+95.0833L221.964+75.2933M117.227+49.9445C137.536+58.5127+151.928+64.0082+169.878+68.3104C186.982+72.4099+221.973+75.3207+221.973+75.3207" fill="none" stroke-linecap="butt" opacity="1" stroke-linejoin="miter"/>
<path d="M161.589+85.615C153.244+84.68+140.899+83.023+135.176+82.07C122.689+79.9904+102.301+74.423+88.5286+69.3319C82.0029+66.9195+75.1664+64.1641+75.1886+63.9553C75.2041+63.81+107.641+53.4863+115.905+50.9964C117.331+50.5669+117.384+50.5786+127.324+53.498C139.209+56.9889+148.103+59.345+156.34+61.1843C172.181+64.7219+180.907+65.9493+212.861+69.1346L219.696+69.816L196.763+78.3059L173.83+86.7957L170.585+86.5275C168.8+86.38+164.752+85.9694+161.589+85.615Z" opacity="1" fill="url(#LinearGradient_4)"/>
<path stroke="#000000" stroke-width="1.32882" d="M73.1347+63.8633L117.227+49.9445M73.1347+63.8633C91.5338+71.6688+108.274+76.8438+126.717+80.992C142.135+84.4599+173.917+87.3641+173.917+87.3641M173.917+87.3641L222.454+69.3847M117.227+49.9445C137.713+56.1804+152.217+60.2104+170.25+63.5136C187.433+66.6613+222.464+69.4034+222.464+69.4034" fill="none" stroke-linecap="round" opacity="1" stroke-linejoin="round"/>
<path d="M163.382+93.2929C150.544+91.62+139.441+89.759+132.422+88.1032C124.496+86.2334+110.868+81.576+101.062+77.3857C94.8228+74.7195+84.0613+69.535+84.3459+69.3324C84.4088+69.2877+87.5199+70.3171+91.2595+71.6201C102.193+75.4295+110.867+77.9668+121.941+80.5956C133.523+83.3446+145.057+85.0696+167.966+87.479L174.05+88.119L192.057+81.4502L210.063+74.7813L214.145+75.1109C216.39+75.2922+218.446+75.524+218.715+75.626C219.093+75.7692+214.065+77.9358+196.645+85.1364L174.085+94.4614L171.876+94.2866C170.661+94.1904+166.839+93.7432+163.382+93.2929Z" opacity="1" fill="#cf9889"/>
<path stroke="#000000" stroke-width="1.00987" d="M99.1282+46.4341C99.1282+46.4341+89.5211+47.6752+71.1299+46.9312C52.7387+46.1872+24.447+38.5774+24.447+38.5774" fill="none" stroke-linecap="butt" opacity="1" stroke-linejoin="miter"/>
<path stroke="#000000" stroke-width="1.00987" d="M143.221+32.1718C143.221+32.1718+125.075+35.0968+104.359+34.1001C83.6427+33.1035+63.5717+27.4558+63.5717+27.4558" fill="none" stroke-linecap="butt" opacity="1" stroke-linejoin="miter"/>
<path stroke="#000000" stroke-width="1.00987" d="M117.227+49.9445C117.227+49.9445+105.765+51.2465+87.2473+51.259C68.7298+51.2715+35.4824+43.9039+35.4824+43.9039" fill="none" stroke-linecap="butt" opacity="1" stroke-linejoin="miter"/>
<path stroke="#000000" stroke-width="1.00987" d="M73.1347+63.8633C73.1347+63.8633+63.8465+64.7856+45.4553+64.0416C27.0641+63.2976+4.19306+56.0067+4.19306+56.0067" fill="none" stroke-linecap="butt" opacity="1" stroke-linejoin="miter"/>
<path stroke="#000000" stroke-width="1.00987" d="M117.227+49.9445C117.227+49.9445+105.765+51.2465+87.2473+51.259C68.7298+51.2715+35.4824+43.9039+35.4824+43.9039L4.19306+56.0067C4.19306+56.0067+27.0641+63.2976+45.4553+64.0416C63.8465+64.7856+73.1347+63.8633+73.1347+63.8633L117.227+49.9445Z" fill="#f2f2f4" stroke-linecap="butt" opacity="1" stroke-linejoin="miter"/>
<path stroke="#000000" stroke-width="1.00987" d="M63.5717+27.4558C63.5717+27.4558+83.6427+33.1035+104.359+34.1001C125.075+35.0968+143.221+32.1718+143.221+32.1718L99.1282+46.4341C99.1282+46.4341+89.5211+47.6752+71.1299+46.9312C52.7387+46.1872+24.447+38.5774+24.447+38.5774L63.5717+27.4558Z" fill="#f4f4f4" stroke-linecap="butt" opacity="1" stroke-linejoin="miter"/>
</g>
<path stroke="#000000" stroke-width="0.213756" d="M106.257+66.9787L125.303+59.1062" fill="none" stroke-linecap="butt" opacity="1" stroke-linejoin="miter"/>
<path stroke="#000000" stroke-width="0.213756" d="M133.048+46.7896L152.095+38.9171" fill="none" stroke-linecap="butt" opacity="1" stroke-linejoin="miter"/>
<path stroke="#000000" stroke-width="0.267195" d="M152.604+56.3547L171.65+48.4822" fill="none" stroke-linecap="butt" opacity="1" stroke-linejoin="miter" stroke-dasharray="1.603171"/>
<path stroke="#000000" stroke-width="0.267615" d="M119.843+77.2637L138.889+69.3912" fill="none" stroke-linecap="butt" opacity="1" stroke-linejoin="miter" stroke-dasharray="1.605695"/>
<path stroke="#000000" stroke-width="0.213756" d="M149.809+73.9623L168.856+66.0898" fill="none" stroke-linecap="butt" opacity="1" stroke-linejoin="miter"/>
<path stroke="#000000" stroke-width="0.267195" d="M196.79+63.0424L215.836+55.17" fill="none" stroke-linecap="butt" opacity="1" stroke-linejoin="miter" stroke-dasharray="1.603171"/>
<path stroke="#000000" stroke-width="0.267195" d="M166.949+78.7041L185.995+70.8316" fill="none" stroke-linecap="butt" opacity="1" stroke-linejoin="miter" stroke-dasharray="1.603171"/>
<path stroke="#000000" stroke-width="0.213756" d="M180.008+56.7149L199.054+48.8425" fill="none" stroke-linecap="butt" opacity="1" stroke-linejoin="miter"/>
<path stroke="#000000" stroke-width="0.241448" d="M88.9305+43.1689L107.993+36.746" fill="none" stroke-linecap="butt" opacity="1" stroke-linejoin="miter" stroke-dasharray=""/>
<path stroke="#000000" stroke-width="0.241448" d="M69.4611+41.2975L88.5235+34.8746" fill="none" stroke-linecap="butt" opacity="1" stroke-linejoin="miter" stroke-dasharray=""/>
<path stroke="#000000" stroke-width="0.241448" d="M46.8482+40.4564L65.9107+34.0334" fill="none" stroke-linecap="butt" opacity="1" stroke-linejoin="miter" stroke-dasharray=""/>
<path stroke="#000000" stroke-width="0.241448" d="M45.5846+59.1653L64.6471+52.7424" fill="none" stroke-linecap="butt" opacity="1" stroke-linejoin="miter" stroke-dasharray=""/>
<path stroke="#000000" stroke-width="0.241448" d="M27.681+56.0721L46.7435+49.6492" fill="none" stroke-linecap="butt" opacity="1" stroke-linejoin="miter" stroke-dasharray=""/>
<path stroke="#000000" stroke-width="0.241448" d="M70.6726+59.9598L89.735+53.5369" fill="none" stroke-linecap="butt" opacity="1" stroke-linejoin="miter" stroke-dasharray=""/>
<path stroke="#000000" stroke-width="0.504935" d="M143.202+27.306L143.008+0.00131706" fill="none" stroke-linecap="butt" opacity="1" stroke-linejoin="miter" stroke-dasharray=""/>
<path stroke="#000000" stroke-width="0.504935" d="M24.8901+35.4268L24.6965+8.12218" fill="none" stroke-linecap="butt" opacity="1" stroke-linejoin="miter" stroke-dasharray=""/>
<g opacity="1">
<g>
<path stroke-linecap="butt" stroke-width="0.504935" stroke="#000000" d="M110.307+16.5723C113.036+16.9008+139.638+20.1029+139.638+20.1029" fill="none" stroke-linejoin="miter"/>
<path d="M110.746+16.6251L112.273+15.0289L108.553+16.3611L111.851+18.5381L110.746+16.6251Z" fill="#000000"/>
</g>
</g>
<g opacity="1">
<g>
<path stroke-linecap="butt" stroke-width="0.504935" stroke="#000000" d="M176.926+24.9752C174.197+24.6467+147.595+21.4446+147.595+21.4446" fill="none" stroke-linejoin="miter"/>
<path d="M176.488+24.9224L174.96+26.5186L178.681+25.1864L175.383+23.0094L176.488+24.9224Z" fill="#000000"/>
</g>
</g>
<g opacity="1">
<g>
<path stroke-linecap="butt" stroke-width="0.504935" stroke="#000000" d="M72.1669+68.5642C70.143+71.6577+47.532+106.22+47.532+106.22" fill="none" stroke-linejoin="miter"/>
<path d="M71.925+68.9339L72.6783+71.0106L73.1344+67.0853L69.7205+69.0756L71.925+68.9339Z" fill="#000000"/>
</g>
</g>
<g opacity="1">
<g>
<path stroke-linecap="butt" stroke-width="0.504935" stroke="#000000" d="M99.0653+49.7202C93.5393+51.3247+13.5651+74.5462+13.5651+74.5462" fill="none" stroke-linejoin="miter"/>
<path d="M98.641+49.8434L97.8609+51.9102L100.762+49.2274L96.8753+48.5158L98.641+49.8434Z" fill="#000000"/>
</g>
</g>
<g opacity="1">
<path d="M47.0247+107.929L44.6935+111.214L47.0585+111.214L47.0585+111.587L44.1799+111.587L44.1799+111.248L46.5167+107.963L44.2137+107.963L44.2137+107.591L47.0247+107.591L47.0247+107.929Z" opacity="1" fill="#000000"/>
<path d="M49.8582+110.266C49.8582+110.119+49.8347+109.982+49.7876+109.854C49.7406+109.726+49.6738+109.615+49.5873+109.521C49.5007+109.427+49.3963+109.353+49.274+109.298C49.1517+109.243+49.0134+109.216+48.8591+109.216C48.7048+109.216+48.5665+109.243+48.4443+109.298C48.322+109.353+48.2185+109.427+48.1338+109.521C48.0491+109.615+47.9833+109.726+47.9363+109.854C47.8892+109.982+47.8657+110.119+47.8657+110.266C47.8657+110.413+47.8892+110.55+47.9363+110.678C47.9833+110.806+48.0491+110.917+48.1338+111.011C48.2185+111.105+48.322+111.179+48.4443+111.234C48.5665+111.289+48.7048+111.316+48.8591+111.316C49.0134+111.316+49.1517+111.289+49.274+111.234C49.3963+111.179+49.5007+111.105+49.5873+111.011C49.6738+110.917+49.7406+110.806+49.7876+110.678C49.8347+110.55+49.8582+110.413+49.8582+110.266ZM50.2646+110.266C50.2646+110.465+50.2298+110.65+50.1602+110.819C50.0905+110.988+49.9937+111.135+49.8695+111.259C49.7453+111.384+49.5976+111.48+49.4264+111.55C49.2552+111.62+49.0661+111.655+48.8591+111.655C48.6559+111.655+48.4687+111.62+48.2975+111.55C48.1263+111.48+47.9786+111.384+47.8544+111.259C47.7302+111.135+47.6333+110.988+47.5637+110.819C47.4941+110.65+47.4593+110.465+47.4593+110.266C47.4593+110.067+47.4941+109.882+47.5637+109.713C47.6333+109.543+47.7302+109.397+47.8544+109.273C47.9786+109.148+48.1263+109.051+48.2975+108.982C48.4687+108.912+48.6559+108.877+48.8591+108.877C49.0661+108.877+49.2552+108.912+49.4264+108.982C49.5976+109.051+49.7453+109.148+49.8695+109.273C49.9937+109.397+50.0905+109.543+50.1602+109.713C50.2298+109.882+50.2646+110.067+50.2646+110.266Z" opacity="1" fill="#000000"/>
<path d="M51.2975+108.945C51.305+109.017+51.3097+109.087+51.3116+109.157C51.3135+109.226+51.3145+109.297+51.3145+109.369L51.3257+109.369C51.3671+109.297+51.4198+109.231+51.4838+109.171C51.5478+109.111+51.6193+109.059+51.6983+109.016C51.7773+108.972+51.861+108.939+51.9495+108.914C52.0379+108.89+52.1254+108.877+52.2119+108.877C52.5506+108.877+52.8008+108.967+52.9626+109.146C53.1244+109.324+53.2053+109.579+53.2053+109.91L53.2053+111.587L52.8328+111.587L52.8328+110.125C52.8328+109.831+52.782+109.607+52.6804+109.45C52.5788+109.294+52.3907+109.216+52.116+109.216C52.0971+109.216+52.0445+109.224+51.9579+109.239C51.8714+109.254+51.7801+109.295+51.6842+109.363C51.5882+109.431+51.5026+109.532+51.4273+109.668C51.3521+109.803+51.3145+109.991+51.3145+110.232L51.3145+111.587L50.9419+111.587L50.9419+109.527C50.9419+109.455+50.9391+109.365+50.9335+109.256C50.9278+109.147+50.9212+109.043+50.9137+108.945L51.2975+108.945Z" opacity="1" fill="#000000"/>
<path d="M56.1348+110.063C56.1348+109.811+56.0596+109.607+55.909+109.45C55.7585+109.294+55.5478+109.216+55.2769+109.216C55.1564+109.216+55.0398+109.24+54.9269+109.287C54.814+109.334+54.7152+109.397+54.6306+109.476C54.5459+109.555+54.4782+109.645+54.4274+109.747C54.3766+109.848+54.3512+109.954+54.3512+110.063L56.1348+110.063ZM54.3399+110.368C54.3512+110.499+54.3831+110.623+54.4358+110.74C54.4885+110.857+54.5581+110.957+54.6447+111.042C54.7312+111.127+54.8309+111.194+54.9438+111.242C55.0567+111.291+55.179+111.316+55.3107+111.316C55.5102+111.316+55.6823+111.27+55.8272+111.178C55.9721+111.085+56.0821+110.979+56.1574+110.859L56.4453+111.096C56.2872+111.295+56.1132+111.438+55.9231+111.525C55.7331+111.611+55.529+111.655+55.3107+111.655C55.115+111.655+54.9335+111.62+54.766+111.55C54.5986+111.48+54.4546+111.384+54.3342+111.259C54.2138+111.135+54.1188+110.988+54.0492+110.819C53.9796+110.65+53.9448+110.465+53.9448+110.266C53.9448+110.067+53.9786+109.882+54.0464+109.713C54.1141+109.543+54.2082+109.397+54.3286+109.273C54.449+109.148+54.5901+109.051+54.7519+108.982C54.9137+108.912+55.0887+108.877+55.2769+108.877C55.4763+108.877+55.655+108.913+55.8131+108.985C55.9711+109.056+56.1038+109.151+56.211+109.27C56.3183+109.388+56.4001+109.528+56.4565+109.687C56.513+109.847+56.5412+110.018+56.5412+110.198L56.5412+110.368L54.3399+110.368Z" opacity="1" fill="#000000"/>
<path d="M61.0511+110.266C61.0511+110.119+61.0276+109.982+60.9806+109.854C60.9335+109.726+60.8667+109.615+60.7802+109.521C60.6936+109.427+60.5892+109.353+60.4669+109.298C60.3446+109.243+60.2063+109.216+60.0521+109.216C59.8978+109.216+59.7595+109.243+59.6372+109.298C59.5149+109.353+59.4114+109.427+59.3267+109.521C59.2421+109.615+59.1762+109.726+59.1292+109.854C59.0822+109.982+59.0586+110.119+59.0586+110.266C59.0586+110.413+59.0822+110.55+59.1292+110.678C59.1762+110.806+59.2421+110.917+59.3267+111.011C59.4114+111.105+59.5149+111.179+59.6372+111.234C59.7595+111.289+59.8978+111.316+60.0521+111.316C60.2063+111.316+60.3446+111.289+60.4669+111.234C60.5892+111.179+60.6936+111.105+60.7802+111.011C60.8667+110.917+60.9335+110.806+60.9806+110.678C61.0276+110.55+61.0511+110.413+61.0511+110.266ZM61.4575+110.266C61.4575+110.465+61.4227+110.65+61.3531+110.819C61.2835+110.988+61.1866+111.135+61.0624+111.259C60.9382+111.384+60.7905+111.48+60.6193+111.55C60.4481+111.62+60.259+111.655+60.0521+111.655C59.8489+111.655+59.6616+111.62+59.4904+111.55C59.3192+111.48+59.1715+111.384+59.0473+111.259C58.9232+111.135+58.8263+110.988+58.7567+110.819C58.687+110.65+58.6522+110.465+58.6522+110.266C58.6522+110.067+58.687+109.882+58.7567+109.713C58.8263+109.543+58.9232+109.397+59.0473+109.273C59.1715+109.148+59.3192+109.051+59.4904+108.982C59.6616+108.912+59.8489+108.877+60.0521+108.877C60.259+108.877+60.4481+108.912+60.6193+108.982C60.7905+109.051+60.9382+109.148+61.0624+109.273C61.1866+109.397+61.2835+109.543+61.3531+109.713C61.4227+109.882+61.4575+110.067+61.4575+110.266Z" opacity="1" fill="#000000"/>
<path d="M63.3653+109.284L62.7388+109.284L62.7388+111.587L62.3663+111.587L62.3663+109.284L61.8075+109.284L61.8075+108.945L62.3663+108.945L62.3663+108.223C62.3663+107.873+62.4472+107.623+62.609+107.475C62.7708+107.326+62.9853+107.252+63.2525+107.252C63.3051+107.252+63.3588+107.256+63.4133+107.263C63.4679+107.271+63.5215+107.28+63.5742+107.291L63.5065+107.63C63.4613+107.619+63.4143+107.609+63.3653+107.602C63.3164+107.594+63.2675+107.591+63.2186+107.591C63.117+107.591+63.0342+107.607+62.9702+107.641C62.9063+107.675+62.8573+107.723+62.8235+107.785C62.7896+107.847+62.767+107.92+62.7557+108.003C62.7445+108.085+62.7388+108.174+62.7388+108.268L62.7388+108.945L63.3653+108.945L63.3653+109.284Z" opacity="1" fill="#000000"/>
<path d="M67.7849+110.266C67.7849+110.119+67.7614+109.982+67.7144+109.854C67.6674+109.726+67.6006+109.615+67.514+109.521C67.4275+109.427+67.323+109.353+67.2007+109.298C67.0785+109.243+66.9402+109.216+66.7859+109.216C66.6316+109.216+66.4905+109.243+66.3625+109.298C66.2346+109.353+66.1236+109.427+66.0295+109.521C65.9355+109.615+65.8621+109.726+65.8094+109.854C65.7567+109.982+65.7304+110.119+65.7304+110.266C65.7304+110.413+65.7567+110.55+65.8094+110.678C65.8621+110.806+65.9355+110.917+66.0295+111.011C66.1236+111.105+66.2346+111.179+66.3625+111.234C66.4905+111.289+66.6316+111.316+66.7859+111.316C66.9402+111.316+67.0785+111.289+67.2007+111.234C67.323+111.179+67.4275+111.105+67.514+111.011C67.6006+110.917+67.6674+110.806+67.7144+110.678C67.7614+110.55+67.7849+110.413+67.7849+110.266ZM65.3748+108.945L65.7473+108.945L65.7473+109.385L65.7586+109.385C65.8188+109.295+65.8903+109.218+65.9731+109.154C66.0559+109.09+66.1424+109.037+66.2327+108.996C66.323+108.955+66.4162+108.924+66.5121+108.906C66.6081+108.887+66.6993+108.877+66.7859+108.877C66.9928+108.877+67.1819+108.912+67.3531+108.982C67.5244+109.051+67.6721+109.148+67.7962+109.273C67.9204+109.397+68.0173+109.543+68.0869+109.713C68.1565+109.882+68.1913+110.067+68.1913+110.266C68.1913+110.465+68.1565+110.65+68.0869+110.819C68.0173+110.988+67.9204+111.135+67.7962+111.259C67.6721+111.384+67.5244+111.48+67.3531+111.55C67.1819+111.62+66.9928+111.655+66.7859+111.655C66.6993+111.655+66.6081+111.645+66.5121+111.626C66.4162+111.607+66.323+111.577+66.2327+111.536C66.1424+111.495+66.0559+111.442+65.9731+111.378C65.8903+111.314+65.8188+111.237+65.7586+111.147L65.7473+111.147L65.7473+113.212L65.3748+113.212L65.3748+108.945Z" opacity="1" fill="#000000"/>
<path d="M70.3249+110.272C70.2309+110.272+70.1133+110.276+69.9722+110.286C69.8311+110.295+69.6956+110.318+69.5658+110.353C69.4359+110.389+69.3249+110.445+69.2327+110.52C69.1406+110.595+69.0945+110.699+69.0945+110.83C69.0945+110.917+69.1123+110.991+69.1481+111.053C69.1838+111.115+69.2318+111.166+69.292+111.206C69.3522+111.245+69.419+111.274+69.4924+111.29C69.5658+111.307+69.6401+111.316+69.7153+111.316C69.8508+111.316+69.9684+111.293+70.0681+111.248C70.1678+111.203+70.2516+111.142+70.3193+111.065C70.387+110.988+70.4369+110.897+70.4689+110.794C70.5009+110.69+70.5169+110.58+70.5169+110.464L70.5169+110.272L70.3249+110.272ZM70.5169+109.967L70.5169+109.899C70.5169+109.444+70.2911+109.216+69.8395+109.216C69.531+109.216+69.2619+109.32+69.0324+109.527L68.8066+109.261C69.0549+109.005+69.4275+108.877+69.9242+108.877C70.0521+108.877+70.1754+108.896+70.2939+108.934C70.4124+108.972+70.515+109.029+70.6015+109.106C70.6881+109.183+70.7577+109.28+70.8104+109.397C70.8631+109.513+70.8894+109.653+70.8894+109.814L70.8894+110.994C70.8894+111.096+70.8941+111.202+70.9035+111.313C70.9129+111.424+70.9233+111.515+70.9345+111.587L70.5733+111.587C70.562+111.523+70.5535+111.453+70.5479+111.378C70.5423+111.303+70.5394+111.229+70.5394+111.158L70.5281+111.158C70.419+111.335+70.2901+111.462+70.1415+111.539C69.9929+111.616+69.8113+111.655+69.5968+111.655C69.4802+111.655+69.3673+111.639+69.2581+111.607C69.149+111.575+69.0521+111.526+68.9675+111.46C68.8828+111.394+68.8151+111.313+68.7643+111.217C68.7135+111.121+68.6881+111.009+68.6881+110.881C68.6881+110.667+68.7436+110.498+68.8546+110.376C68.9656+110.254+69.1048+110.163+69.2723+110.102C69.4397+110.042+69.6185+110.004+69.8085+109.989C69.9985+109.974+70.1725+109.967+70.3306+109.967L70.5169+109.967Z" opacity="1" fill="#000000"/>
<path d="M71.7925+109.769C71.7925+109.653+71.7897+109.534+71.784+109.414C71.7784+109.293+71.7737+109.137+71.7699+108.945L72.1368+108.945L72.1368+109.436L72.1481+109.436C72.1744+109.365+72.2121+109.296+72.261+109.23C72.3099+109.164+72.3692+109.105+72.4388+109.052C72.5084+109+72.5893+108.957+72.6815+108.925C72.7737+108.893+72.8781+108.877+72.9948+108.877C73.1001+108.877+73.1923+108.889+73.2714+108.911L73.198+109.278C73.1491+109.259+73.0776+109.25+72.9835+109.25C72.8405+109.25+72.7182+109.277+72.6166+109.332C72.515+109.386+72.4303+109.456+72.3626+109.541C72.2949+109.625+72.245+109.717+72.213+109.814C72.181+109.912+72.165+110.006+72.165+110.097L72.165+111.587L71.7925+111.587L71.7925+109.769Z" opacity="1" fill="#000000"/>
<path d="M74.9929+109.284L74.2309+109.284L74.2309+110.842C74.2309+110.94+74.2403+111.02+74.2591+111.082C74.2779+111.144+74.3043+111.192+74.3382+111.226C74.372+111.259+74.4125+111.283+74.4595+111.296C74.5065+111.309+74.5583+111.316+74.6147+111.316C74.6787+111.316+74.7446+111.306+74.8123+111.288C74.88+111.269+74.9421+111.244+74.9986+111.214L75.0155+111.559C74.8763+111.623+74.7088+111.655+74.5131+111.655C74.4416+111.655+74.3673+111.645+74.2902+111.626C74.213+111.607+74.1425+111.572+74.0785+111.519C74.0145+111.466+73.9619+111.395+73.9205+111.305C73.8791+111.214+73.8584+111.096+73.8584+110.949L73.8584+109.284L73.2996+109.284L73.2996+108.945L73.8584+108.945L73.8584+108.2L74.2309+108.2L74.2309+108.945L74.9929+108.945L74.9929+109.284Z" opacity="1" fill="#000000"/>
<path d="M76.0428+107.929C76.0428+108.008+76.0146+108.073+75.9581+108.124C75.9017+108.175+75.8396+108.2+75.7718+108.2C75.7041+108.2+75.642+108.175+75.5856+108.124C75.5291+108.073+75.5009+108.008+75.5009+107.929C75.5009+107.85+75.5291+107.785+75.5856+107.734C75.642+107.684+75.7041+107.658+75.7718+107.658C75.8396+107.658+75.9017+107.684+75.9581+107.734C76.0146+107.785+76.0428+107.85+76.0428+107.929ZM75.9581+111.587L75.5856+111.587L75.5856+108.945L75.9581+108.945L75.9581+111.587Z" opacity="1" fill="#000000"/>
<path d="M78.357+110.272C78.2629+110.272+78.1453+110.276+78.0042+110.286C77.8631+110.295+77.7276+110.318+77.5978+110.353C77.468+110.389+77.357+110.445+77.2648+110.52C77.1726+110.595+77.1265+110.699+77.1265+110.83C77.1265+110.917+77.1444+110.991+77.1801+111.053C77.2159+111.115+77.2639+111.166+77.3241+111.206C77.3843+111.245+77.4511+111.274+77.5244+111.29C77.5978+111.307+77.6721+111.316+77.7474+111.316C77.8829+111.316+78.0005+111.293+78.1002+111.248C78.1999+111.203+78.2836+111.142+78.3514+111.065C78.4191+110.988+78.4689+110.897+78.5009+110.794C78.5329+110.69+78.5489+110.58+78.5489+110.464L78.5489+110.272L78.357+110.272ZM78.5489+109.967L78.5489+109.899C78.5489+109.444+78.3231+109.216+77.8716+109.216C77.563+109.216+77.294+109.32+77.0644+109.527L76.8386+109.261C77.087+109.005+77.4595+108.877+77.9562+108.877C78.0842+108.877+78.2074+108.896+78.326+108.934C78.4445+108.972+78.547+109.029+78.6336+109.106C78.7201+109.183+78.7897+109.28+78.8424+109.397C78.8951+109.513+78.9214+109.653+78.9214+109.814L78.9214+110.994C78.9214+111.096+78.9261+111.202+78.9356+111.313C78.945+111.424+78.9553+111.515+78.9666+111.587L78.6054+111.587C78.5941+111.523+78.5856+111.453+78.58+111.378C78.5743+111.303+78.5715+111.229+78.5715+111.158L78.5602+111.158C78.4511+111.335+78.3222+111.462+78.1736+111.539C78.0249+111.616+77.8434+111.655+77.6289+111.655C77.5122+111.655+77.3993+111.639+77.2902+111.607C77.1811+111.575+77.0842+111.526+76.9995+111.46C76.9148+111.394+76.8471+111.313+76.7963+111.217C76.7455+111.121+76.7201+111.009+76.7201+110.881C76.7201+110.667+76.7756+110.498+76.8866+110.376C76.9976+110.254+77.1369+110.163+77.3043+110.102C77.4718+110.042+77.6505+110.004+77.8405+109.989C78.0306+109.974+78.2046+109.967+78.3626+109.967L78.5489+109.967Z" opacity="1" fill="#000000"/>
<path d="M80.2422+111.587L79.8697+111.587L79.8697+107.32L80.2422+107.32L80.2422+111.587Z" opacity="1" fill="#000000"/>
<path d="M82.7089+109.532C82.7089+109.434+82.706+109.337+82.7004+109.239C82.6948+109.141+82.6882+109.043+82.6806+108.945L83.0814+108.945L83.0814+109.346L83.0927+109.346C83.183+109.192+83.3081+109.075+83.468+108.996C83.628+108.917+83.787+108.877+83.945+108.877C84.0165+108.877+84.0927+108.885+84.1736+108.9C84.2545+108.915+84.3326+108.942+84.4078+108.982C84.4831+109.021+84.5537+109.077+84.6195+109.148C84.6854+109.22+84.7409+109.312+84.786+109.425C84.8613+109.256+84.9808+109.122+85.1444+109.024C85.3081+108.926+85.4784+108.877+85.6553+108.877C85.9939+108.877+86.2442+108.967+86.406+109.146C86.5678+109.324+86.6487+109.579+86.6487+109.91L86.6487+111.587L86.2762+111.587L86.2762+110.046C86.2762+109.779+86.2291+109.574+86.135+109.431C86.041+109.288+85.866+109.216+85.6101+109.216C85.4709+109.216+85.3542+109.243+85.2602+109.298C85.1661+109.353+85.0899+109.425+85.0316+109.515C84.9732+109.606+84.9309+109.708+84.9046+109.823C84.8782+109.938+84.865+110.057+84.865+110.181L84.865+111.587L84.4925+111.587L84.4925+110.046C84.4925+109.779+84.4455+109.574+84.3514+109.431C84.2573+109.288+84.0823+109.216+83.8265+109.216C83.8039+109.216+83.7521+109.224+83.6712+109.239C83.5903+109.254+83.5066+109.295+83.4201+109.363C83.3335+109.431+83.2554+109.532+83.1858+109.668C83.1162+109.803+83.0814+109.991+83.0814+110.232L83.0814+111.587L82.7089+111.587L82.7089+109.532Z" opacity="1" fill="#000000"/>
<path d="M89.5725+110.063C89.5725+109.811+89.4973+109.607+89.3467+109.45C89.1962+109.294+88.9855+109.216+88.7146+109.216C88.5941+109.216+88.4775+109.24+88.3646+109.287C88.2517+109.334+88.1529+109.397+88.0683+109.476C87.9836+109.555+87.9159+109.645+87.8651+109.747C87.8143+109.848+87.7889+109.954+87.7889+110.063L89.5725+110.063ZM87.7776+110.368C87.7889+110.499+87.8209+110.623+87.8735+110.74C87.9262+110.857+87.9958+110.957+88.0824+111.042C88.1689+111.127+88.2686+111.194+88.3815+111.242C88.4944+111.291+88.6167+111.316+88.7484+111.316C88.9479+111.316+89.12+111.27+89.2649+111.178C89.4098+111.085+89.5198+110.979+89.5951+110.859L89.883+111.096C89.7249+111.295+89.5509+111.438+89.3608+111.525C89.1708+111.611+88.9667+111.655+88.7484+111.655C88.5528+111.655+88.3712+111.62+88.2037+111.55C88.0363+111.48+87.8923+111.384+87.7719+111.259C87.6515+111.135+87.5565+110.988+87.4869+110.819C87.4173+110.65+87.3825+110.465+87.3825+110.266C87.3825+110.067+87.4163+109.882+87.4841+109.713C87.5518+109.543+87.6459+109.397+87.7663+109.273C87.8867+109.148+88.0278+109.051+88.1896+108.982C88.3514+108.912+88.5264+108.877+88.7146+108.877C88.914+108.877+89.0927+108.913+89.2508+108.985C89.4088+109.056+89.5415+109.151+89.6487+109.27C89.756+109.388+89.8378+109.528+89.8942+109.687C89.9507+109.847+89.9789+110.018+89.9789+110.198L89.9789+110.368L87.7776+110.368Z" opacity="1" fill="#000000"/>
<path d="M91.1134+111.587L90.7409+111.587L90.7409+107.32L91.1134+107.32L91.1134+111.587Z" opacity="1" fill="#000000"/>
<path d="M93.3769+109.284L92.6149+109.284L92.6149+110.842C92.6149+110.94+92.6243+111.02+92.6431+111.082C92.6619+111.144+92.6882+111.192+92.7221+111.226C92.756+111.259+92.7964+111.283+92.8435+111.296C92.8905+111.309+92.9422+111.316+92.9987+111.316C93.0627+111.316+93.1285+111.306+93.1962+111.288C93.264+111.269+93.3261+111.244+93.3825+111.214L93.3994+111.559C93.2602+111.623+93.0928+111.655+92.8971+111.655C92.8256+111.655+92.7513+111.645+92.6741+111.626C92.597+111.607+92.5264+111.572+92.4625+111.519C92.3985+111.466+92.3458+111.395+92.3044+111.305C92.263+111.214+92.2423+111.096+92.2423+110.949L92.2423+109.284L91.6835+109.284L91.6835+108.945L92.2423+108.945L92.2423+108.2L92.6149+108.2L92.6149+108.945L93.3769+108.945L93.3769+109.284Z" opacity="1" fill="#000000"/>
<path d="M94.4267+107.929C94.4267+108.008+94.3985+108.073+94.3421+108.124C94.2856+108.175+94.2235+108.2+94.1558+108.2C94.0881+108.2+94.026+108.175+93.9695+108.124C93.9131+108.073+93.8849+108.008+93.8849+107.929C93.8849+107.85+93.9131+107.785+93.9695+107.734C94.026+107.684+94.0881+107.658+94.1558+107.658C94.2235+107.658+94.2856+107.684+94.3421+107.734C94.3985+107.785+94.4267+107.85+94.4267+107.929ZM94.3421+111.587L93.9695+111.587L93.9695+108.945L94.3421+108.945L94.3421+111.587Z" opacity="1" fill="#000000"/>
<path d="M95.5951+108.945C95.6027+109.017+95.6074+109.087+95.6092+109.157C95.6111+109.226+95.6121+109.297+95.6121+109.369L95.6234+109.369C95.6648+109.297+95.7174+109.231+95.7814+109.171C95.8454+109.111+95.9169+109.059+95.9959+109.016C96.0749+108.972+96.1586+108.939+96.2471+108.914C96.3355+108.89+96.423+108.877+96.5095+108.877C96.8482+108.877+97.0984+108.967+97.2603+109.146C97.4221+109.324+97.503+109.579+97.503+109.91L97.503+111.587L97.1304+111.587L97.1304+110.125C97.1304+109.831+97.0796+109.607+96.978+109.45C96.8764+109.294+96.6883+109.216+96.4136+109.216C96.3948+109.216+96.3421+109.224+96.2555+109.239C96.169+109.254+96.0777+109.295+95.9818+109.363C95.8858+109.431+95.8002+109.532+95.725+109.668C95.6497+109.803+95.6121+109.991+95.6121+110.232L95.6121+111.587L95.2395+111.587L95.2395+109.527C95.2395+109.455+95.2367+109.365+95.2311+109.256C95.2254+109.147+95.2188+109.043+95.2113+108.945L95.5951+108.945Z" opacity="1" fill="#000000"/>
<path d="M98.6488+110.232C98.6488+110.371+98.6742+110.502+98.725+110.624C98.7758+110.747+98.8454+110.854+98.9338+110.946C99.0223+111.038+99.1257+111.112+99.2443+111.166C99.3628+111.221+99.4917+111.248+99.6309+111.248C99.7664+111.248+99.8953+111.224+100.018+111.175C100.14+111.126+100.248+111.057+100.342+110.969C100.436+110.88+100.509+110.774+100.559+110.65C100.61+110.526+100.634+110.386+100.63+110.232C100.63+110.093+100.607+109.962+100.562+109.84C100.517+109.718+100.451+109.61+100.365+109.518C100.278+109.426+100.173+109.353+100.049+109.298C99.9244+109.243+99.7852+109.216+99.6309+109.216C99.4917+109.216+99.3628+109.243+99.2443+109.298C99.1257+109.353+99.0223+109.426+98.9338+109.518C98.8454+109.61+98.7758+109.718+98.725+109.84C98.6742+109.962+98.6488+110.093+98.6488+110.232ZM98.5811+112.117C98.6902+112.264+98.8322+112.382+99.0072+112.47C99.1822+112.559+99.3769+112.603+99.5914+112.603C99.7796+112.603+99.9395+112.576+100.071+112.521C100.203+112.466+100.309+112.392+100.39+112.298C100.471+112.204+100.529+112.094+100.565+111.968C100.601+111.842+100.619+111.707+100.619+111.564L100.619+111.09L100.607+111.09C100.487+111.271+100.34+111.399+100.167+111.474C99.994+111.549+99.8115+111.587+99.6196+111.587C99.4277+111.587+99.248+111.553+99.0806+111.485C98.9131+111.417+98.7673+111.324+98.6431+111.206C98.519+111.087+98.4211+110.945+98.3496+110.78C98.2781+110.614+98.2424+110.435+98.2424+110.243C98.2424+110.051+98.2763+109.873+98.344+109.707C98.4117+109.542+98.5049+109.397+98.6234+109.273C98.7419+109.148+98.883+109.051+99.0467+108.982C99.2104+108.912+99.3901+108.877+99.5858+108.877C99.6648+108.877+99.7485+108.885+99.8369+108.9C99.9254+108.915+100.014+108.941+100.102+108.979C100.191+109.017+100.278+109.068+100.365+109.134C100.451+109.2+100.532+109.284+100.607+109.385L100.619+109.385L100.619+108.945L100.991+108.945L100.991+111.564C100.991+111.707+100.973+111.86+100.938+112.021C100.902+112.183+100.832+112.332+100.729+112.467C100.625+112.603+100.481+112.716+100.297+112.806C100.113+112.896+99.8717+112.941+99.5745+112.941C99.3111+112.941+99.0759+112.898+98.8689+112.812C98.662+112.725+98.4738+112.591+98.3045+112.411L98.5811+112.117Z" opacity="1" fill="#000000"/>
</g>
<g opacity="1">
<path d="M2.77059+81.3167L2.36419+81.3167L2.36419+77.693L1.02645+77.693L1.02645+77.3205L4.10832+77.3205L4.10832+77.693L2.77059+77.693L2.77059+81.3167Z" opacity="1" fill="#000000"/>
<path d="M4.11397+79.4992C4.11397+79.3826+4.11114+79.264+4.1055+79.1436C4.09986+79.0232+4.09515+78.867+4.09139+78.6751L4.45828+78.6751L4.45828+79.1662L4.46957+79.1662C4.49591+79.0947+4.53354+79.026+4.58246+78.9602C4.63137+78.8943+4.69064+78.835+4.76026+78.7824C4.82987+78.7297+4.91077+78.6874+5.00297+78.6554C5.09516+78.6234+5.19958+78.6074+5.31623+78.6074C5.4216+78.6074+5.51379+78.6187+5.59281+78.6413L5.51943+79.0081C5.47051+78.9893+5.39902+78.9799+5.30494+78.9799C5.16195+78.9799+5.03966+79.0072+4.93806+79.0618C4.83646+79.1163+4.75179+79.1859+4.68406+79.2706C4.61632+79.3553+4.56646+79.4465+4.53448+79.5444C4.50249+79.6422+4.4865+79.7363+4.4865+79.8266L4.4865+81.3167L4.11397+81.3167L4.11397+79.4992Z" opacity="1" fill="#000000"/>
<path d="M7.44983+80.0016C7.35576+80.0016+7.23817+80.0063+7.09706+80.0157C6.95595+80.0251+6.82048+80.0477+6.69066+80.0834C6.56083+80.1192+6.44983+80.1747+6.35763+80.2499C6.26544+80.3252+6.21934+80.4287+6.21934+80.5604C6.21934+80.6469+6.23722+80.7212+6.27297+80.7833C6.30872+80.8454+6.35669+80.8962+6.4169+80.9357C6.47711+80.9752+6.5439+81.0035+6.61728+81.0204C6.69066+81.0373+6.76497+81.0458+6.84023+81.0458C6.9757+81.0458+7.09329+81.0232+7.19301+80.9781C7.29273+80.9329+7.37646+80.8718+7.44419+80.7946C7.51192+80.7175+7.56178+80.6272+7.59377+80.5237C7.62575+80.4202+7.64175+80.3101+7.64175+80.1935L7.64175+80.0016L7.44983+80.0016ZM7.64175+79.6968L7.64175+79.629C7.64175+79.1737+7.41597+78.9461+6.96441+78.9461C6.65585+78.9461+6.3868+79.0495+6.15726+79.2565L5.93148+78.9912C6.17983+78.7353+6.55237+78.6074+7.04908+78.6074C7.17702+78.6074+7.30026+78.6262+7.41879+78.6638C7.53732+78.7015+7.63986+78.7588+7.72641+78.836C7.81296+78.9131+7.88258+79.01+7.93526+79.1267C7.98794+79.2433+8.01428+79.3826+8.01428+79.5444L8.01428+80.7241C8.01428+80.8257+8.01898+80.932+8.02839+81.043C8.0378+81.154+8.04815+81.2452+8.05943+81.3167L7.69819+81.3167C7.6869+81.2528+7.67843+81.1831+7.67279+81.1079C7.66715+81.0326+7.66432+80.9592+7.66432+80.8877L7.65303+80.8877C7.54391+81.0646+7.41503+81.1916+7.26639+81.2687C7.11775+81.3459+6.93619+81.3845+6.7217+81.3845C6.60505+81.3845+6.49216+81.3685+6.38303+81.3365C6.27391+81.3045+6.17701+81.2556+6.09234+81.1897C6.00768+81.1239+5.93994+81.043+5.88914+80.947C5.83834+80.8511+5.81294+80.7391+5.81294+80.6112C5.81294+80.3967+5.86845+80.2283+5.97946+80.106C6.09046+79.9837+6.22969+79.8924+6.39714+79.8322C6.5646+79.772+6.74334+79.7344+6.93337+79.7193C7.1234+79.7043+7.29743+79.6968+7.45548+79.6968L7.64175+79.6968Z" opacity="1" fill="#000000"/>
<path d="M9.23348+78.6751C9.24101+78.7466+9.24571+78.8172+9.24759+78.8868C9.24947+78.9564+9.25041+79.027+9.25041+79.0985L9.2617+79.0985C9.30309+79.027+9.35578+78.9611+9.41975+78.9009C9.48372+78.8407+9.55521+78.789+9.63424+78.7457C9.71326+78.7024+9.79698+78.6685+9.88541+78.6441C9.97384+78.6196+10.0613+78.6074+10.1479+78.6074C10.4865+78.6074+10.7368+78.6968+10.8986+78.8755C11.0604+79.0542+11.1413+79.3092+11.1413+79.6403L11.1413+81.3167L10.7688+81.3167L10.7688+79.8548C10.7688+79.5613+10.718+79.3365+10.6164+79.1803C10.5148+79.0241+10.3266+78.9461+10.0519+78.9461C10.0331+78.9461+9.98043+78.9536+9.89388+78.9686C9.80733+78.9837+9.71608+79.0251+9.62012+79.0928C9.52417+79.1605+9.43856+79.2621+9.3633+79.3976C9.28804+79.5331+9.25041+79.7212+9.25041+79.9621L9.25041+81.3167L8.87788+81.3167L8.87788+79.2565C8.87788+79.185+8.87506+79.0947+8.86941+78.9856C8.86377+78.8764+8.85718+78.773+8.84966+78.6751L9.23348+78.6751Z" opacity="1" fill="#000000"/>
<path d="M13.416+79.3017C13.3596+79.1925+13.2843+79.106+13.1902+79.042C13.0962+78.978+12.9814+78.9461+12.8459+78.9461C12.782+78.9461+12.717+78.9536+12.6512+78.9686C12.5853+78.9837+12.5261+79.0072+12.4734+79.0392C12.4207+79.0712+12.3784+79.1116+12.3464+79.1605C12.3144+79.2095+12.2984+79.2697+12.2984+79.3412C12.2984+79.4653+12.3417+79.5557+12.4282+79.6121C12.5148+79.6685+12.6446+79.7175+12.8177+79.7589L13.1959+79.8492C13.3803+79.8906+13.5336+79.9743+13.6559+80.1003C13.7782+80.2264+13.8393+80.3835+13.8393+80.5717C13.8393+80.7146+13.8102+80.8379+13.7519+80.9414C13.6935+81.0448+13.6164+81.1295+13.5204+81.1954C13.4245+81.2612+13.3144+81.3092+13.1902+81.3393C13.0661+81.3694+12.94+81.3845+12.8121+81.3845C12.6089+81.3845+12.4198+81.3459+12.2448+81.2687C12.0698+81.1916+11.9202+81.059+11.7961+80.8708L12.1178+80.6507C12.1931+80.7711+12.2881+80.867+12.4028+80.9385C12.5176+81.01+12.654+81.0458+12.8121+81.0458C12.8873+81.0458+12.9626+81.0373+13.0378+81.0204C13.1131+81.0035+13.1799+80.9771+13.2382+80.9414C13.2965+80.9056+13.3436+80.8595+13.3793+80.8031C13.4151+80.7466+13.4329+80.6808+13.4329+80.6055C13.4329+80.4738+13.384+80.3788+13.2862+80.3205C13.1884+80.2622+13.0698+80.2161+12.9306+80.1822L12.5693+80.0975C12.5242+80.0862+12.463+80.0674+12.3859+80.0411C12.3088+80.0147+12.2335+79.9752+12.1601+79.9225C12.0867+79.8699+12.0237+79.8012+11.971+79.7165C11.9184+79.6319+11.892+79.5274+11.892+79.4033C11.892+79.2678+11.9193+79.1493+11.9739+79.0477C12.0284+78.9461+12.1018+78.8633+12.194+78.7993C12.2862+78.7353+12.3906+78.6874+12.5073+78.6554C12.6239+78.6234+12.7443+78.6074+12.8685+78.6074C13.0529+78.6074+13.2241+78.6431+13.3821+78.7146C13.5402+78.7861+13.6625+78.9084+13.749+79.0815L13.416+79.3017Z" opacity="1" fill="#000000"/>
<path d="M15.6512+79.0138L15.0247+79.0138L15.0247+81.3167L14.6521+81.3167L14.6521+79.0138L14.0933+79.0138L14.0933+78.6751L14.6521+78.6751L14.6521+77.9526C14.6521+77.6027+14.7331+77.3534+14.8949+77.2047C15.0567+77.0561+15.2712+76.9818+15.5383+76.9818C15.591+76.9818+15.6446+76.9856+15.6992+76.9931C15.7538+77.0006+15.8074+77.01+15.8601+77.0213L15.7923+77.36C15.7472+77.3487+15.7001+77.3393+15.6512+77.3317C15.6023+77.3242+15.5534+77.3205+15.5045+77.3205C15.4029+77.3205+15.3201+77.3374+15.2561+77.3713C15.1921+77.4051+15.1432+77.4531+15.1093+77.5152C15.0755+77.5773+15.0529+77.6497+15.0416+77.7325C15.0303+77.8153+15.0247+77.9037+15.0247+77.9978L15.0247+78.6751L15.6512+78.6751L15.6512+79.0138Z" opacity="1" fill="#000000"/>
<path d="M18.3549+79.9959C18.3549+79.8492+18.3314+79.7118+18.2844+79.5839C18.2373+79.4559+18.1705+79.3449+18.084+79.2509C17.9974+79.1568+17.893+79.0825+17.7707+79.0279C17.6484+78.9733+17.5101+78.9461+17.3558+78.9461C17.2016+78.9461+17.0633+78.9733+16.941+79.0279C16.8187+79.0825+16.7152+79.1568+16.6305+79.2509C16.5459+79.3449+16.48+79.4559+16.433+79.5839C16.3859+79.7118+16.3624+79.8492+16.3624+79.9959C16.3624+80.1427+16.3859+80.28+16.433+80.408C16.48+80.5359+16.5459+80.6469+16.6305+80.741C16.7152+80.8351+16.8187+80.9094+16.941+80.9639C17.0633+81.0185+17.2016+81.0458+17.3558+81.0458C17.5101+81.0458+17.6484+81.0185+17.7707+80.9639C17.893+80.9094+17.9974+80.8351+18.084+80.741C18.1705+80.6469+18.2373+80.5359+18.2844+80.408C18.3314+80.28+18.3549+80.1427+18.3549+79.9959ZM18.7613+79.9959C18.7613+80.1954+18.7265+80.3797+18.6569+80.5491C18.5873+80.7184+18.4904+80.8652+18.3662+80.9893C18.242+81.1135+18.0943+81.2104+17.9231+81.28C17.7519+81.3496+17.5628+81.3845+17.3558+81.3845C17.1526+81.3845+16.9654+81.3496+16.7942+81.28C16.623+81.2104+16.4753+81.1135+16.3511+80.9893C16.2269+80.8652+16.1301+80.7184+16.0604+80.5491C15.9908+80.3797+15.956+80.1954+15.956+79.9959C15.956+79.7965+15.9908+79.6121+16.0604+79.4428C16.1301+79.2734+16.2269+79.1267+16.3511+79.0025C16.4753+78.8783+16.623+78.7814+16.7942+78.7118C16.9654+78.6422+17.1526+78.6074+17.3558+78.6074C17.5628+78.6074+17.7519+78.6422+17.9231+78.7118C18.0943+78.7814+18.242+78.8783+18.3662+79.0025C18.4904+79.1267+18.5873+79.2734+18.6569+79.4428C18.7265+79.6121+18.7613+79.7965+18.7613+79.9959Z" opacity="1" fill="#000000"/>
<path d="M19.4782+79.4992C19.4782+79.3826+19.4753+79.264+19.4697+79.1436C19.464+79.0232+19.4593+78.867+19.4556+78.6751L19.8225+78.6751L19.8225+79.1662L19.8338+79.1662C19.8601+79.0947+19.8977+79.026+19.9466+78.9602C19.9956+78.8943+20.0548+78.835+20.1244+78.7824C20.1941+78.7297+20.275+78.6874+20.3672+78.6554C20.4593+78.6234+20.5638+78.6074+20.6804+78.6074C20.7858+78.6074+20.878+78.6187+20.957+78.6413L20.8836+79.0081C20.8347+78.9893+20.7632+78.9799+20.6691+78.9799C20.5261+78.9799+20.4038+79.0072+20.3022+79.0618C20.2006+79.1163+20.116+79.1859+20.0482+79.2706C19.9805+79.3553+19.9306+79.4465+19.8987+79.5444C19.8667+79.6422+19.8507+79.7363+19.8507+79.8266L19.8507+81.3167L19.4782+81.3167L19.4782+79.4992Z" opacity="1" fill="#000000"/>
<path d="M21.4142+79.2621C21.4142+79.1643+21.4114+79.0665+21.4057+78.9686C21.4001+78.8708+21.3935+78.773+21.386+78.6751L21.7867+78.6751L21.7867+79.0759L21.798+79.0759C21.8883+78.9216+22.0134+78.8049+22.1734+78.7259C22.3333+78.6469+22.4923+78.6074+22.6503+78.6074C22.7218+78.6074+22.798+78.6149+22.8789+78.63C22.9598+78.645+23.0379+78.6723+23.1132+78.7118C23.1884+78.7513+23.259+78.8068+23.3248+78.8783C23.3907+78.9498+23.4462+79.042+23.4914+79.1549C23.5666+78.9856+23.6861+78.852+23.8498+78.7541C24.0135+78.6563+24.1837+78.6074+24.3606+78.6074C24.6993+78.6074+24.9495+78.6968+25.1113+78.8755C25.2731+79.0542+25.354+79.3092+25.354+79.6403L25.354+81.3167L24.9815+81.3167L24.9815+79.7758C24.9815+79.5086+24.9344+79.3035+24.8404+79.1605C24.7463+79.0176+24.5713+78.9461+24.3154+78.9461C24.1762+78.9461+24.0596+78.9733+23.9655+79.0279C23.8714+79.0825+23.7952+79.1549+23.7369+79.2452C23.6786+79.3355+23.6362+79.4381+23.6099+79.5528C23.5835+79.6676+23.5704+79.7871+23.5704+79.9113L23.5704+81.3167L23.1978+81.3167L23.1978+79.7758C23.1978+79.5086+23.1508+79.3035+23.0567+79.1605C22.9627+79.0176+22.7877+78.9461+22.5318+78.9461C22.5092+78.9461+22.4575+78.9536+22.3766+78.9686C22.2957+78.9837+22.2119+79.0251+22.1254+79.0928C22.0388+79.1605+21.9608+79.2621+21.8912+79.3976C21.8215+79.5331+21.7867+79.7212+21.7867+79.9621L21.7867+81.3167L21.4142+81.3167L21.4142+79.2621Z" opacity="1" fill="#000000"/>
<path d="M29.0229+79.0138L28.3964+79.0138L28.3964+81.3167L28.0238+81.3167L28.0238+79.0138L27.465+79.0138L27.465+78.6751L28.0238+78.6751L28.0238+77.9526C28.0238+77.6027+28.1047+77.3534+28.2666+77.2047C28.4284+77.0561+28.6429+76.9818+28.91+76.9818C28.9627+76.9818+29.0163+76.9856+29.0709+76.9931C29.1255+77.0006+29.1791+77.01+29.2318+77.0213L29.164+77.36C29.1189+77.3487+29.0718+77.3393+29.0229+77.3317C28.974+77.3242+28.9251+77.3205+28.8762+77.3205C28.7746+77.3205+28.6918+77.3374+28.6278+77.3713C28.5638+77.4051+28.5149+77.4531+28.481+77.5152C28.4472+77.5773+28.4246+77.6497+28.4133+77.7325C28.402+77.8153+28.3964+77.9037+28.3964+77.9978L28.3964+78.6751L29.0229+78.6751L29.0229+79.0138Z" opacity="1" fill="#000000"/>
<path d="M30.9646+80.0016C30.8705+80.0016+30.7529+80.0063+30.6118+80.0157C30.4707+80.0251+30.3352+80.0477+30.2054+80.0834C30.0756+80.1192+29.9646+80.1747+29.8724+80.2499C29.7802+80.3252+29.7341+80.4287+29.7341+80.5604C29.7341+80.6469+29.752+80.7212+29.7877+80.7833C29.8235+80.8454+29.8715+80.8962+29.9317+80.9357C29.9919+80.9752+30.0587+81.0035+30.132+81.0204C30.2054+81.0373+30.2797+81.0458+30.355+81.0458C30.4905+81.0458+30.6081+81.0232+30.7078+80.9781C30.8075+80.9329+30.8912+80.8718+30.959+80.7946C31.0267+80.7175+31.0765+80.6272+31.1085+80.5237C31.1405+80.4202+31.1565+80.3101+31.1565+80.1935L31.1565+80.0016L30.9646+80.0016ZM31.1565+79.6968L31.1565+79.629C31.1565+79.1737+30.9307+78.9461+30.4792+78.9461C30.1706+78.9461+29.9016+79.0495+29.672+79.2565L29.4462+78.9912C29.6946+78.7353+30.0671+78.6074+30.5638+78.6074C30.6918+78.6074+30.815+78.6262+30.9336+78.6638C31.0521+78.7015+31.1546+78.7588+31.2412+78.836C31.3277+78.9131+31.3973+79.01+31.45+79.1267C31.5027+79.2433+31.529+79.3826+31.529+79.5444L31.529+80.7241C31.529+80.8257+31.5337+80.932+31.5432+81.043C31.5526+81.154+31.5629+81.2452+31.5742+81.3167L31.213+81.3167C31.2017+81.2528+31.1932+81.1831+31.1876+81.1079C31.1819+81.0326+31.1791+80.9592+31.1791+80.8877L31.1678+80.8877C31.0587+81.0646+30.9298+81.1916+30.7812+81.2687C30.6325+81.3459+30.451+81.3845+30.2365+81.3845C30.1198+81.3845+30.0069+81.3685+29.8978+81.3365C29.7887+81.3045+29.6918+81.2556+29.6071+81.1897C29.5224+81.1239+29.4547+81.043+29.4039+80.947C29.3531+80.8511+29.3277+80.7391+29.3277+80.6112C29.3277+80.3967+29.3832+80.2283+29.4942+80.106C29.6052+79.9837+29.7445+79.8924+29.9119+79.8322C30.0794+79.772+30.2581+79.7344+30.4481+79.7193C30.6382+79.7043+30.8122+79.6968+30.9702+79.6968L31.1565+79.6968Z" opacity="1" fill="#000000"/>
<path d="M34.3005+81.3167C34.2929+81.2452+34.2882+81.1747+34.2864+81.1051C34.2845+81.0354+34.2835+80.9649+34.2835+80.8934L34.2722+80.8934C34.2309+80.9649+34.1782+81.0307+34.1142+81.0909C34.0502+81.1512+33.9787+81.2029+33.8997+81.2462C33.8207+81.2894+33.737+81.3233+33.6485+81.3478C33.5601+81.3722+33.4726+81.3845+33.3861+81.3845C33.0474+81.3845+32.7972+81.2951+32.6354+81.1163C32.4735+80.9376+32.3926+80.6827+32.3926+80.3515L32.3926+78.6751L32.7652+78.6751L32.7652+80.137C32.7652+80.2838+32.7765+80.4136+32.799+80.5265C32.8216+80.6394+32.8602+80.7344+32.9148+80.8115C32.9693+80.8887+33.0427+80.947+33.1349+80.9865C33.2271+81.026+33.3428+81.0458+33.482+81.0458C33.5008+81.0458+33.5535+81.0383+33.6401+81.0232C33.7266+81.0082+33.8179+80.9668+33.9138+80.899C34.0098+80.8313+34.0954+80.7297+34.1706+80.5942C34.2459+80.4588+34.2835+80.2706+34.2835+80.0298L34.2835+78.6751L34.6561+78.6751L34.6561+80.7353C34.6561+80.8068+34.6589+80.8972+34.6645+81.0063C34.6702+81.1154+34.6768+81.2189+34.6843+81.3167L34.3005+81.3167Z" opacity="1" fill="#000000"/>
<path d="M35.9882+81.3167L35.6156+81.3167L35.6156+77.0495L35.9882+77.0495L35.9882+81.3167Z" opacity="1" fill="#000000"/>
<path d="M38.2516+79.0138L37.4896+79.0138L37.4896+80.5717C37.4896+80.6695+37.499+80.7495+37.5178+80.8115C37.5366+80.8736+37.563+80.9216+37.5968+80.9555C37.6307+80.9893+37.6711+81.0129+37.7182+81.026C37.7652+81.0392+37.817+81.0458+37.8734+81.0458C37.9374+81.0458+38.0032+81.0364+38.071+81.0176C38.1387+80.9988+38.2008+80.9743+38.2572+80.9442L38.2742+81.2885C38.1349+81.3525+37.9675+81.3845+37.7718+81.3845C37.7003+81.3845+37.626+81.375+37.5488+81.3562C37.4717+81.3374+37.4012+81.3017+37.3372+81.249C37.2732+81.1963+37.2205+81.1248+37.1791+81.0345C37.1377+80.9442+37.117+80.8257+37.117+80.6789L37.117+79.0138L36.5582+79.0138L36.5582+78.6751L37.117+78.6751L37.117+77.9301L37.4896+77.9301L37.4896+78.6751L38.2516+78.6751L38.2516+79.0138Z" opacity="1" fill="#000000"/>
</g>
<g opacity="1">
<path d="M146.684+3.15502L147.406+3.15502C147.587+3.15502+147.74+3.1362+147.866+3.09857C147.992+3.06094+148.093+3.01108+148.168+2.94899C148.243+2.8869+148.298+2.81353+148.332+2.72886C148.366+2.64419+148.383+2.55294+148.383+2.4551C148.383+2.36103+148.366+2.27166+148.332+2.18699C148.298+2.10233+148.243+2.02801+148.168+1.96404C148.093+1.90007+147.992+1.85021+147.866+1.81446C147.74+1.77871+147.587+1.76084+147.406+1.76084L146.684+1.76084L146.684+3.15502ZM146.684+5.38457L146.277+5.38457L146.277+1.3883L147.508+1.3883C147.914+1.3883+148.235+1.47673+148.47+1.65359C148.705+1.83045+148.823+2.09762+148.823+2.4551C148.823+2.73356+148.735+2.96781+148.56+3.15784C148.385+3.34787+148.132+3.45793+147.801+3.48804L148.953+5.38457L148.456+5.38457L147.361+3.52755L146.684+3.52755L146.684+5.38457Z" opacity="1" fill="#000000"/>
<path d="M150.031+1.72697C150.031+1.80599+150.003+1.8709+149.946+1.9217C149.89+1.9725+149.828+1.9979+149.76+1.9979C149.692+1.9979+149.63+1.9725+149.574+1.9217C149.517+1.8709+149.489+1.80599+149.489+1.72697C149.489+1.64795+149.517+1.58304+149.574+1.53224C149.63+1.48144+149.692+1.45604+149.76+1.45604C149.828+1.45604+149.89+1.48144+149.946+1.53224C150.003+1.58304+150.031+1.64795+150.031+1.72697ZM149.946+5.38457L149.574+5.38457L149.574+2.74297L149.946+2.74297L149.946+5.38457Z" opacity="1" fill="#000000"/>
<path d="M151.069+4.06377C151.069+4.21053+151.093+4.34788+151.14+4.47582C151.187+4.60376+151.254+4.71476+151.34+4.80884C151.427+4.90291+151.531+4.97723+151.654+5.03179C151.776+5.08636+151.914+5.11364+152.068+5.11364C152.219+5.11364+152.359+5.08636+152.489+5.03179C152.619+4.97723+152.731+4.90291+152.825+4.80884C152.919+4.71476+152.992+4.60376+153.045+4.47582C153.098+4.34788+153.124+4.21053+153.124+4.06377C153.124+3.91702+153.098+3.77967+153.045+3.65173C152.992+3.52379+152.919+3.41278+152.825+3.31871C152.731+3.22463+152.619+3.15031+152.489+3.09575C152.359+3.04119+152.219+3.0139+152.068+3.0139C151.914+3.0139+151.776+3.04119+151.654+3.09575C151.531+3.15031+151.427+3.22463+151.34+3.31871C151.254+3.41278+151.187+3.52379+151.14+3.65173C151.093+3.77967+151.069+3.91702+151.069+4.06377ZM153.479+5.38457L153.107+5.38457L153.107+4.94431L153.096+4.94431C153.035+5.03462+152.964+5.11176+152.881+5.17573C152.798+5.2397+152.712+5.29238+152.622+5.33377C152.531+5.37517+152.438+5.40527+152.342+5.42408C152.246+5.4429+152.155+5.45231+152.068+5.45231C151.861+5.45231+151.672+5.4175+151.501+5.34788C151.33+5.27827+151.182+5.18137+151.058+5.05719C150.934+4.93302+150.837+4.78626+150.767+4.61693C150.698+4.44759+150.663+4.26321+150.663+4.06377C150.663+3.86433+150.698+3.67995+150.767+3.51062C150.837+3.34128+150.934+3.19453+151.058+3.07035C151.182+2.94617+151.33+2.84928+151.501+2.77966C151.672+2.71005+151.861+2.67524+152.068+2.67524C152.155+2.67524+152.246+2.68465+152.342+2.70346C152.438+2.72228+152.531+2.75238+152.622+2.79377C152.712+2.83516+152.798+2.88785+152.881+2.95182C152.964+3.01579+153.035+3.09293+153.096+3.18324L153.107+3.18324L153.107+1.11737L153.479+1.11737L153.479+5.38457Z" opacity="1" fill="#000000"/>
<path d="M154.563+4.02991C154.563+4.16913+154.589+4.2999+154.639+4.42219C154.69+4.54449+154.76+4.65174+154.848+4.74393C154.937+4.83612+155.04+4.9095+155.159+4.96406C155.277+5.01862+155.406+5.04591+155.545+5.04591C155.681+5.04591+155.81+5.02145+155.932+4.97253C156.054+4.92361+156.162+4.85494+156.257+4.76651C156.351+4.67808+156.423+4.57177+156.474+4.44759C156.525+4.32342+156.548+4.18419+156.544+4.02991C156.544+3.89068+156.522+3.75991+156.477+3.63762C156.432+3.51532+156.366+3.40808+156.279+3.31588C156.193+3.22369+156.087+3.15031+155.963+3.09575C155.839+3.04119+155.7+3.0139+155.545+3.0139C155.406+3.0139+155.277+3.04119+155.159+3.09575C155.04+3.15031+154.937+3.22369+154.848+3.31588C154.76+3.40808+154.69+3.51532+154.639+3.63762C154.589+3.75991+154.563+3.89068+154.563+4.02991ZM154.495+5.91515C154.605+6.06191+154.747+6.1795+154.922+6.26793C155.097+6.35636+155.291+6.40057+155.506+6.40057C155.694+6.40057+155.854+6.37329+155.986+6.31873C156.117+6.26417+156.224+6.18985+156.305+6.09577C156.385+6.0017+156.444+5.89163+156.48+5.76557C156.515+5.63951+156.533+5.50499+156.533+5.36199L156.533+4.88786L156.522+4.88786C156.401+5.06848+156.255+5.19642+156.082+5.27168C155.908+5.34694+155.726+5.38457+155.534+5.38457C155.342+5.38457+155.162+5.35071+154.995+5.28297C154.828+5.21524+154.682+5.12211+154.558+5.00357C154.433+4.88504+154.336+4.74299+154.264+4.57742C154.193+4.41185+154.157+4.23311+154.157+4.04119C154.157+3.84928+154.191+3.67054+154.258+3.50497C154.326+3.3394+154.419+3.19453+154.538+3.07035C154.656+2.94617+154.797+2.84928+154.961+2.77966C155.125+2.71005+155.305+2.67524+155.5+2.67524C155.579+2.67524+155.663+2.68276+155.751+2.69782C155.84+2.71287+155.928+2.73921+156.017+2.77684C156.105+2.81447+156.193+2.86621+156.279+2.93206C156.366+2.99791+156.447+3.08164+156.522+3.18324L156.533+3.18324L156.533+2.74297L156.906+2.74297L156.906+5.36199C156.906+5.50499+156.888+5.65739+156.852+5.81919C156.816+5.981+156.747+6.12964+156.643+6.26511C156.54+6.40057+156.396+6.51346+156.211+6.60377C156.027+6.69408+155.786+6.73924+155.489+6.73924C155.225+6.73924+154.99+6.69597+154.783+6.60942C154.576+6.52287+154.388+6.38928+154.219+6.20866L154.495+5.91515Z" opacity="1" fill="#000000"/>
<path d="M159.796+3.86057C159.796+3.60845+159.72+3.40431+159.57+3.24815C159.419+3.09199+159.209+3.0139+158.938+3.0139C158.817+3.0139+158.701+3.03742+158.588+3.08446C158.475+3.1315+158.376+3.19453+158.291+3.27355C158.207+3.35257+158.139+3.44288+158.088+3.54448C158.037+3.64608+158.012+3.75145+158.012+3.86057L159.796+3.86057ZM158.001+4.16537C158.012+4.29708+158.044+4.42125+158.097+4.53791C158.149+4.65456+158.219+4.75522+158.305+4.83988C158.392+4.92455+158.492+4.99134+158.605+5.04026C158.718+5.08918+158.84+5.11364+158.972+5.11364C159.171+5.11364+159.343+5.06754+159.488+4.97535C159.633+4.88316+159.743+4.77685+159.818+4.65644L160.106+4.89351C159.948+5.09294+159.774+5.23594+159.584+5.32248C159.394+5.40903+159.19+5.45231+158.972+5.45231C158.776+5.45231+158.594+5.4175+158.427+5.34788C158.259+5.27827+158.115+5.18137+157.995+5.05719C157.875+4.93302+157.78+4.78626+157.71+4.61693C157.64+4.44759+157.606+4.26321+157.606+4.06377C157.606+3.86433+157.639+3.67995+157.707+3.51062C157.775+3.34128+157.869+3.19453+157.989+3.07035C158.11+2.94617+158.251+2.84928+158.413+2.77966C158.575+2.71005+158.75+2.67524+158.938+2.67524C159.137+2.67524+159.316+2.71099+159.474+2.78248C159.632+2.85398+159.765+2.94899+159.872+3.06753C159.979+3.18606+160.061+3.32529+160.117+3.48522C160.174+3.64514+160.202+3.81542+160.202+3.99604L160.202+4.16537L158.001+4.16537Z" opacity="1" fill="#000000"/>
<path d="M163.95+4.06942C163.856+4.06942+163.738+4.07412+163.597+4.08353C163.456+4.09293+163.321+4.11551+163.191+4.15126C163.061+4.18701+162.95+4.24251+162.858+4.31777C162.766+4.39303+162.719+4.49651+162.719+4.62822C162.719+4.71476+162.737+4.78908+162.773+4.85117C162.809+4.91326+162.857+4.96406+162.917+5.00357C162.977+5.04308+163.044+5.07131+163.117+5.08824C163.191+5.10517+163.265+5.11364+163.34+5.11364C163.476+5.11364+163.593+5.09106+163.693+5.04591C163.793+5.00075+163.877+4.9396+163.944+4.86246C164.012+4.78532+164.062+4.69501+164.094+4.59153C164.126+4.48805+164.142+4.37798+164.142+4.26133L164.142+4.06942L163.95+4.06942ZM164.142+3.76462L164.142+3.69688C164.142+3.24156+163.916+3.0139+163.465+3.0139C163.156+3.0139+162.887+3.11739+162.657+3.32435L162.432+3.05906C162.68+2.80318+163.052+2.67524+163.549+2.67524C163.677+2.67524+163.8+2.69405+163.919+2.73168C164.037+2.76931+164.14+2.8267+164.227+2.90384C164.313+2.98098+164.383+3.07788+164.435+3.19453C164.488+3.31118+164.514+3.45041+164.514+3.61222L164.514+4.79191C164.514+4.89351+164.519+4.99981+164.528+5.11082C164.538+5.22182+164.548+5.31308+164.56+5.38457L164.198+5.38457C164.187+5.3206+164.179+5.25099+164.173+5.17573C164.167+5.10047+164.164+5.02709+164.164+4.95559L164.153+4.95559C164.044+5.13245+163.915+5.25945+163.766+5.33659C163.618+5.41374+163.436+5.45231+163.222+5.45231C163.105+5.45231+162.992+5.43631+162.883+5.40433C162.774+5.37234+162.677+5.32342+162.592+5.25757C162.508+5.19172+162.44+5.11082+162.389+5.01486C162.338+4.91891+162.313+4.80696+162.313+4.67902C162.313+4.46453+162.369+4.29614+162.48+4.17384C162.591+4.05154+162.73+3.96029+162.897+3.90008C163.065+3.83988+163.243+3.80225+163.433+3.78719C163.623+3.77214+163.798+3.76462+163.956+3.76462L164.142+3.76462Z" opacity="1" fill="#000000"/>
<path d="M166.061+3.97346L165.101+2.74297L165.609+2.74297L166.343+3.73075L167.043+2.74297L167.506+2.74297L166.586+3.97346L167.692+5.38457L167.184+5.38457L166.298+4.22746L165.446+5.38457L164.972+5.38457L166.061+3.97346Z" opacity="1" fill="#000000"/>
<path d="M168.64+1.72697C168.64+1.80599+168.612+1.8709+168.556+1.9217C168.499+1.9725+168.437+1.9979+168.37+1.9979C168.302+1.9979+168.24+1.9725+168.183+1.9217C168.127+1.8709+168.099+1.80599+168.099+1.72697C168.099+1.64795+168.127+1.58304+168.183+1.53224C168.24+1.48144+168.302+1.45604+168.37+1.45604C168.437+1.45604+168.499+1.48144+168.556+1.53224C168.612+1.58304+168.64+1.64795+168.64+1.72697ZM168.556+5.38457L168.183+5.38457L168.183+2.74297L168.556+2.74297L168.556+5.38457Z" opacity="1" fill="#000000"/>
<path d="M170.853+3.36951C170.797+3.26038+170.721+3.17383+170.627+3.10986C170.533+3.04589+170.418+3.0139+170.283+3.0139C170.219+3.0139+170.154+3.02143+170.088+3.03648C170.022+3.05153+169.963+3.07505+169.91+3.10704C169.858+3.13902+169.815+3.17948+169.783+3.22839C169.751+3.27731+169.735+3.33752+169.735+3.40902C169.735+3.53319+169.779+3.62351+169.865+3.67995C169.952+3.73639+170.082+3.78531+170.255+3.82671L170.633+3.91702C170.817+3.95841+170.971+4.04213+171.093+4.16819C171.215+4.29425+171.276+4.45136+171.276+4.63951C171.276+4.7825+171.247+4.90574+171.189+5.00922C171.131+5.1127+171.053+5.19737+170.958+5.26322C170.862+5.32907+170.751+5.37705+170.627+5.40715C170.503+5.43725+170.377+5.45231+170.249+5.45231C170.046+5.45231+169.857+5.41374+169.682+5.33659C169.507+5.25945+169.357+5.12681+169.233+4.93866L169.555+4.71853C169.63+4.83894+169.725+4.9349+169.84+5.00639C169.955+5.07789+170.091+5.11364+170.249+5.11364C170.324+5.11364+170.4+5.10517+170.475+5.08824C170.55+5.07131+170.617+5.04496+170.675+5.00922C170.734+4.97347+170.781+4.92737+170.816+4.87093C170.852+4.81448+170.87+4.74863+170.87+4.67337C170.87+4.54167+170.821+4.44665+170.723+4.38833C170.625+4.33+170.507+4.28391+170.368+4.25004L170.006+4.16537C169.961+4.15408+169.9+4.13527+169.823+4.10893C169.746+4.08259+169.671+4.04308+169.597+3.99039C169.524+3.93771+169.461+3.86904+169.408+3.78437C169.355+3.69971+169.329+3.59528+169.329+3.47111C169.329+3.33564+169.356+3.21711+169.411+3.1155C169.465+3.0139+169.539+2.93112+169.631+2.86715C169.723+2.80318+169.828+2.7552+169.944+2.72322C170.061+2.69123+170.181+2.67524+170.306+2.67524C170.49+2.67524+170.661+2.71099+170.819+2.78248C170.977+2.85398+171.1+2.97628+171.186+3.14937L170.853+3.36951Z" opacity="1" fill="#000000"/>
</g>
<g opacity="1">
<path d="M53.1372+37.5058L52.7354+37.4449L53.3351+33.4938L55.718+33.8555L55.6621+34.2238L53.681+33.9231L53.4769+35.268L55.3184+35.5475L55.2625+35.9158L53.421+35.6364L53.1372+37.5058Z" opacity="1" fill="#000000"/>
<path d="M56.0161+36.1044C56.0336+35.9891+56.0486+35.8715+56.0611+35.7516C56.0735+35.6317+56.0923+35.4766+56.1174+35.2863L56.4801+35.3413L56.4064+35.8268L56.4176+35.8285C56.4544+35.7618+56.5019+35.6995+56.5601+35.6418C56.6184+35.584+56.6859+35.5343+56.7626+35.4927C56.8393+35.451+56.9257+35.4213+57.0216+35.4035C57.1176+35.3857+57.2232+35.3856+57.3385+35.4031C57.4427+35.4189+57.5322+35.4439+57.6069+35.4781L57.4793+35.8298C57.4338+35.8039+57.3645+35.7838+57.2715+35.7697C57.1301+35.7483+57.0051+35.7569+56.8965+35.7956C56.7878+35.8343+56.6937+35.8904+56.614+35.9639C56.5343+36.0375+56.4713+36.1202+56.425+36.2122C56.3787+36.3041+56.3488+36.3947+56.3353+36.484L56.1117+37.9573L55.7434+37.9014L56.0161+36.1044Z" opacity="1" fill="#000000"/>
<path d="M59.2388+37.1016C59.1458+37.0875+59.0288+37.0745+58.8879+37.0626C58.747+37.0508+58.6096+37.0528+58.4759+37.0686C58.3422+37.0845+58.2241+37.1227+58.1217+37.1833C58.0193+37.2439+57.9582+37.3393+57.9384+37.4695C57.9254+37.555+57.9319+37.6312+57.958+37.6979C57.984+37.7647+58.0238+37.8221+58.0774+37.8702C58.131+37.9183+58.1928+37.9562+58.2628+37.984C58.3328+38.0117+58.405+38.0313+58.4794+38.0426C58.6134+38.0629+58.733+38.0582+58.8384+38.0285C58.9437+37.9988+59.0357+37.9509+59.1142+37.8848C59.1928+37.8187+59.2556+37.7369+59.3028+37.6394C59.3499+37.5419+59.3822+37.4355+59.3997+37.3202L59.4285+37.1304L59.2388+37.1016ZM59.4743+36.8291L59.4844+36.7621C59.5527+36.3119+59.3637+36.053+58.9172+35.9852C58.6122+35.9389+58.3306+36.0009+58.0726+36.171L57.8892+35.8749C58.1732+35.6592+58.5607+35.5886+59.0518+35.6631C59.1783+35.6823+59.2973+35.7194+59.4088+35.7744C59.5204+35.8294+59.6131+35.9015+59.6871+35.9907C59.7611+36.08+59.8154+36.1862+59.85+36.3095C59.8846+36.4327+59.8897+36.5743+59.8655+36.7343L59.6884+37.9006C59.6732+38.0011+59.6619+38.1069+59.6545+38.218C59.6472+38.3292+59.6437+38.421+59.6442+38.4934L59.287+38.4391C59.2854+38.3742+59.2875+38.3041+59.2932+38.2289C59.2989+38.1536+59.3072+38.0806+59.3179+38.0099L59.3067+38.0083C59.1723+38.1667+59.0258+38.273+58.8673+38.3269C58.7088+38.3809+58.5235+38.3918+58.3114+38.3596C58.1961+38.3421+58.0869+38.3093+57.9838+38.2613C57.8807+38.2134+57.7922+38.1504+57.7184+38.0726C57.6446+37.9948+57.5897+37.9047+57.5539+37.8022C57.5181+37.6997+57.5098+37.5852+57.529+37.4587C57.5612+37.2466+57.6413+37.0885+57.7694+36.9842C57.8975+36.88+58.0488+36.8107+58.2234+36.7763C58.398+36.7418+58.5804+36.7315+58.7705+36.7451C58.9607+36.7587+59.1339+36.7774+59.2901+36.8011L59.4743+36.8291Z" opacity="1" fill="#000000"/>
<path d="M62.6595+36.9071C62.6109+36.8008+62.535+36.7055+62.4317+36.6213C62.3284+36.5372+62.2042+36.4841+62.0591+36.462C61.9071+36.4352+61.7667+36.4386+61.6379+36.4723C61.5091+36.5061+61.3948+36.5629+61.2952+36.643C61.1955+36.723+61.1136+36.8238+61.0494+36.9454C60.9853+37.0669+60.942+37.2021+60.9194+37.351C60.8968+37.4998+60.8981+37.6417+60.9233+37.7769C60.9484+37.912+60.9967+38.0326+61.0682+38.1386C61.1396+38.2446+61.2319+38.3328+61.3449+38.4032C61.4579+38.4736+61.5909+38.5186+61.744+38.538C61.8891+38.56+62.0235+38.5462+62.1471+38.4964C62.2708+38.4467+62.3715+38.3782+62.4495+38.2911L62.7161+38.5656C62.5627+38.6984+62.3987+38.7886+62.224+38.8363C62.0493+38.884+61.8724+38.8962+61.6932+38.8728C61.4806+38.8444+61.2939+38.7827+61.1332+38.6879C60.9726+38.5931+60.8411+38.4752+60.7388+38.3341C60.6365+38.1929+60.5666+38.0329+60.529+37.8541C60.4915+37.6752+60.4877+37.4872+60.5176+37.29C60.5475+37.0928+60.6069+36.9144+60.6959+36.7547C60.7848+36.595+60.8991+36.463+61.0386+36.3585C61.1781+36.2541+61.3387+36.1805+61.5203+36.1376C61.7019+36.0948+61.8984+36.0913+62.1099+36.1272C62.2879+36.158+62.4533+36.2221+62.606+36.3195C62.7586+36.4169+62.8885+36.5517+62.9956+36.724L62.6595+36.9071Z" opacity="1" fill="#000000"/>
<path d="M64.8392+36.9525L64.0858+36.8381L63.8521+38.3784C63.8374+38.4751+63.8347+38.5556+63.844+38.6198C63.8533+38.684+63.8721+38.7354+63.9005+38.7739C63.9289+38.8125+63.9654+38.8418+64.0099+38.8619C64.0544+38.882+64.1046+38.8962+64.1604+38.9047C64.2237+38.9143+64.2902+38.9149+64.36+38.9064C64.4298+38.898+64.4948+38.8831+64.5551+38.8618L64.5202+39.2048C64.373+39.2472+64.2026+39.2537+64.0092+39.2243C63.9385+39.2136+63.8664+39.1931+63.793+39.1629C63.7195+39.1328+63.6551+39.0868+63.5998+39.0252C63.5444+38.9635+63.5031+38.8849+63.4757+38.7894C63.4483+38.6939+63.4457+38.5736+63.4677+38.4285L63.7175+36.7822L63.165+36.6984L63.2159+36.3635L63.7683+36.4474L63.8801+35.7108L64.2484+35.7667L64.1366+36.5033L64.89+36.6176L64.8392+36.9525Z" opacity="1" fill="#000000"/>
<path d="M66.8821+39.5918C66.8854+39.52+66.8914+39.4495+66.8999+39.3804C66.9085+39.3113+66.9182+39.2414+66.9289+39.1707L66.9178+39.169C66.8661+39.2335+66.8041+39.2907+66.7319+39.3406C66.6596+39.3906+66.5811+39.431+66.4965+39.4619C66.4119+39.4928+66.324+39.5138+66.2329+39.5247C66.1418+39.5356+66.0535+39.5346+65.9679+39.5216C65.6331+39.4707+65.3991+39.3448+65.2659+39.1438C65.1328+38.9429+65.091+38.6787+65.1407+38.3513L65.3923+36.6938L65.7606+36.7497L65.5412+38.1951C65.5192+38.3402+65.5109+38.4702+65.5163+38.5852C65.5217+38.7002+65.5455+38.8+65.5879+38.8844C65.6303+38.9689+65.6941+39.0376+65.7793+39.0904C65.8645+39.1433+65.976+39.1802+66.1136+39.2011C66.1322+39.204+66.1854+39.2044+66.2733+39.2025C66.3611+39.2006+66.4575+39.1734+66.5625+39.1208C66.6676+39.0683+66.7675+38.9806+66.8622+38.858C66.9569+38.7354+67.0224+38.555+67.0585+38.3169L67.2617+36.9776L67.6301+37.0335L67.3209+39.0704C67.3102+39.141+67.2995+39.2308+67.2887+39.3395C67.2779+39.4482+67.2689+39.5515+67.2616+39.6494L66.8821+39.5918Z" opacity="1" fill="#000000"/>
<path d="M68.4105+37.9854C68.428+37.8701+68.443+37.7525+68.4554+37.6326C68.4679+37.5127+68.4867+37.3576+68.5118+37.1673L68.8745+37.2223L68.8008+37.7078L68.812+37.7095C68.8488+37.6428+68.8963+37.5805+68.9545+37.5228C69.0128+37.465+69.0803+37.4153+69.157+37.3737C69.2337+37.332+69.3201+37.3023+69.416+37.2845C69.512+37.2667+69.6176+37.2666+69.7329+37.2841C69.8371+37.2999+69.9266+37.3249+70.0013+37.3591L69.8737+37.7108C69.8282+37.6848+69.7589+37.6648+69.6659+37.6507C69.5245+37.6293+69.3995+37.6379+69.2909+37.6766C69.1822+37.7153+69.0881+37.7714+69.0084+37.8449C68.9287+37.9185+68.8657+38.0012+68.8194+38.0932C68.7731+38.1851+68.7432+38.2757+68.7297+38.365L68.5061+39.8382L68.1378+39.7824L68.4105+37.9854Z" opacity="1" fill="#000000"/>
<path d="M72.111+38.8439C72.1488+38.5946+72.105+38.3815+71.9796+38.2045C71.8543+38.0275+71.6576+37.9187+71.3898+37.8781C71.2707+37.86+71.1519+37.8658+71.0332+37.8953C70.9145+37.9249+70.8074+37.9724+70.7118+38.0378C70.6163+38.1032+70.5358+38.1824+70.4703+38.2752C70.4048+38.368+70.3639+38.4684+70.3475+38.5763L72.111+38.8439ZM70.2906+38.8759C70.282+39.0078+70.295+39.1354+70.3296+39.2586C70.3642+39.3819+70.4179+39.4918+70.4908+39.5885C70.5636+39.6852+70.6522+39.7662+70.7565+39.8315C70.8607+39.8968+70.978+39.9394+71.1082+39.9591C71.3054+39.989+71.4825+39.9693+71.6396+39.8999C71.7966+39.8305+71.9214+39.7419+72.0139+39.6341L72.2629+39.9117C72.0767+40.0852+71.8832+40.2004+71.6824+40.2575C71.4815+40.3145+71.2732+40.3267+71.0574+40.2939C70.8639+40.2646+70.6896+40.2029+70.5345+40.109C70.3794+40.015+70.2517+39.8976+70.1512+39.7568C70.0508+39.616+69.9789+39.4566+69.9355+39.2787C69.8921+39.1009+69.8853+38.9134+69.9152+38.7162C69.9452+38.519+70.0063+38.3418+70.0987+38.1845C70.1911+38.0273+70.3061+37.8963+70.4438+37.7916C70.5814+37.6869+70.7355+37.6123+70.9059+37.5677C71.0763+37.5232+71.2546+37.515+71.4406+37.5432C71.6378+37.5732+71.8091+37.6353+71.9546+37.7297C72.1002+37.8241+72.2171+37.938+72.3053+38.0713C72.3935+38.2045+72.4536+38.3545+72.4854+38.5211C72.5172+38.6876+72.5195+38.8602+72.4924+39.0388L72.467+39.2062L70.2906+38.8759Z" opacity="1" fill="#000000"/>
<path d="M76.6522+38.6767L74.8183+40.4537L76.4031+40.6942L76.3523+41.029L74.2317+40.7072L74.2724+40.4393L76.1063+38.6624L74.6554+38.4422L74.7062+38.1073L76.6929+38.4088L76.6522+38.6767Z" opacity="1" fill="#000000"/>
<path d="M79.3185+40.1432C79.3405+39.9981+79.3378+39.8588+79.3105+39.7253C79.2832+39.5917+79.2338+39.4719+79.1624+39.3659C79.0909+39.26+78.9988+39.1708+78.8861+39.0985C78.7734+39.0262+78.6408+38.9785+78.4882+38.9553C78.3357+38.9322+78.1949+38.9384+78.0658+38.974C77.9367+39.0096+77.8232+39.0676+77.7254+39.1479C77.6276+39.2282+77.5458+39.328+77.4801+39.4475C77.4144+39.5669+77.3705+39.6992+77.3485+39.8443C77.3265+39.9894+77.3291+40.1287+77.3565+40.2622C77.3838+40.3958+77.4322+40.5154+77.5018+40.6211C77.5714+40.7268+77.6626+40.8158+77.7753+40.8881C77.888+40.9604+78.0206+41.0082+78.1732+41.0313C78.3257+41.0545+78.4665+41.0482+78.5956+41.0126C78.7247+40.977+78.8391+40.9192+78.9388+40.8392C79.0385+40.7592+79.1212+40.6595+79.1869+40.54C79.2526+40.4206+79.2964+40.2883+79.3185+40.1432ZM79.7203+40.2042C79.6903+40.4014+79.6283+40.5785+79.534+40.7354C79.4398+40.8924+79.322+41.023+79.1806+41.1271C79.0392+41.2312+78.8786+41.3049+78.6989+41.348C78.5191+41.3912+78.327+41.3972+78.1224+41.3661C77.9215+41.3357+77.7416+41.2732+77.5828+41.1786C77.4239+41.0841+77.2924+40.9662+77.1883+40.8248C77.0842+40.6833+77.0104+40.5237+76.967+40.3459C76.9235+40.168+76.9168+39.9805+76.9467+39.7833C76.9766+39.5861+77.0387+39.409+77.133+39.2521C77.2272+39.0951+77.345+38.9645+77.4864+38.8604C77.6278+38.7563+77.7884+38.6826+77.9681+38.6395C78.1478+38.5963+78.3381+38.59+78.539+38.6205C78.7437+38.6516+78.9254+38.7144+79.0842+38.8089C79.243+38.9034+79.3745+39.0213+79.4787+39.1627C79.5828+39.3042+79.6566+39.4638+79.7+39.6416C79.7434+39.8195+79.7502+40.007+79.7203+40.2042Z" opacity="1" fill="#000000"/>
<path d="M80.9397+39.0533C80.9364+39.1252+80.9305+39.1956+80.9219+39.2647C80.9133+39.3338+80.9036+39.4037+80.8929+39.4744L80.9041+39.4761C80.9557+39.4116+81.0177+39.3544+81.09+39.3045C81.1622+39.2546+81.2407+39.2142+81.3253+39.1832C81.4099+39.1523+81.4978+39.1314+81.5889+39.1205C81.68+39.1096+81.7683+39.1106+81.8539+39.1236C82.1887+39.1744+82.4227+39.3003+82.5559+39.5013C82.689+39.7023+82.7308+39.9665+82.6811+40.2939L82.4295+41.9513L82.0612+41.8954L82.2806+40.45C82.3246+40.1599+82.3081+39.9299+82.2311+39.7603C82.1541+39.5907+81.9798+39.4852+81.7082+39.444C81.6896+39.4412+81.6364+39.4407+81.5486+39.4426C81.4607+39.4445+81.3643+39.4718+81.2593+39.5243C81.1542+39.5769+81.0544+39.6645+80.9596+39.7871C80.8649+39.9098+80.7995+40.0901+80.7633+40.3283L80.5601+41.6676L80.1917+41.6117L80.5009+39.5748C80.5116+39.5041+80.5224+39.4144+80.5331+39.3056C80.5439+39.1969+80.553+39.0936+80.5602+38.9958L80.9397+39.0533Z" opacity="1" fill="#000000"/>
<path d="M85.5545+40.8841C85.5923+40.6348+85.5486+40.4217+85.4232+40.2447C85.2978+40.0678+85.1012+39.9589+84.8333+39.9183C84.7143+39.9002+84.5954+39.906+84.4767+39.9355C84.3581+39.9651+84.2509+40.0126+84.1554+40.078C84.0598+40.1434+83.9793+40.2226+83.9138+40.3154C83.8484+40.4082+83.8074+40.5086+83.7911+40.6165L85.5545+40.8841ZM83.7342+40.9161C83.7256+41.048+83.7386+41.1756+83.7731+41.2988C83.8077+41.4221+83.8614+41.532+83.9343+41.6287C84.0072+41.7254+84.0957+41.8064+84.2+41.8717C84.3043+41.937+84.4215+41.9796+84.5517+41.9993C84.7489+42.0293+84.926+42.0095+85.0831+41.9401C85.2402+41.8707+85.3649+41.7821+85.4574+41.6743L85.7065+41.9519C85.5203+42.1254+85.3268+42.2406+85.1259+42.2977C84.925+42.3548+84.7167+42.3669+84.5009+42.3342C84.3075+42.3048+84.1332+42.2431+83.9781+42.1492C83.823+42.0552+83.6952+41.9378+83.5948+41.797C83.4944+41.6562+83.4224+41.4968+83.379+41.319C83.3356+41.1411+83.3288+40.9536+83.3588+40.7564C83.3887+40.5592+83.4498+40.382+83.5422+40.2247C83.6346+40.0675+83.7496+39.9365+83.8873+39.8318C84.025+39.7271+84.179+39.6525+84.3495+39.6079C84.5199+39.5634+84.6981+39.5552+84.8841+39.5835C85.0813+39.6134+85.2527+39.6755+85.3982+39.7699C85.5437+39.8643+85.6606+39.9782+85.7488+40.1115C85.8371+40.2447+85.8971+40.3947+85.9289+40.5613C85.9607+40.7279+85.9631+40.9004+85.936+41.079L85.9106+41.2464L83.7342+40.9161Z" opacity="1" fill="#000000"/>
</g>
<g opacity="1">
<path d="M127.032+103.191C126.964+103.292+126.881+103.388+126.781+103.479C126.681+103.569+126.568+103.647+126.44+103.713C126.312+103.779+126.173+103.83+126.025+103.868C125.876+103.906+125.719+103.925+125.553+103.925C125.256+103.925+124.98+103.872+124.726+103.767C124.472+103.661+124.252+103.515+124.066+103.329C123.88+103.143+123.734+102.922+123.629+102.666C123.523+102.41+123.471+102.13+123.471+101.825C123.471+101.52+123.523+101.24+123.629+100.984C123.734+100.728+123.88+100.507+124.066+100.321C124.252+100.134+124.472+99.9885+124.726+99.8831C124.98+99.7778+125.256+99.7251+125.553+99.7251C125.802+99.7251+126.05+99.774+126.298+99.8718C126.547+99.9697+126.759+100.131+126.936+100.357L126.581+100.623C126.539+100.559+126.483+100.495+126.411+100.431C126.34+100.367+126.258+100.31+126.166+100.261C126.074+100.212+125.975+100.173+125.869+100.143C125.764+100.113+125.659+100.098+125.553+100.098C125.298+100.098+125.068+100.145+124.865+100.239C124.662+100.333+124.489+100.459+124.348+100.617C124.207+100.775+124.099+100.958+124.024+101.167C123.948+101.376+123.911+101.595+123.911+101.825C123.911+102.054+123.948+102.274+124.024+102.482C124.099+102.691+124.207+102.875+124.348+103.033C124.489+103.191+124.662+103.317+124.865+103.411C125.068+103.505+125.298+103.552+125.553+103.552C125.659+103.552+125.763+103.543+125.867+103.524C125.97+103.505+126.072+103.473+126.171+103.428C126.271+103.383+126.365+103.322+126.454+103.244C126.542+103.167+126.624+103.07+126.699+102.954L127.032+103.191Z" opacity="1" fill="#000000"/>
<path d="M129.843+102.502C129.843+102.355+129.82+102.218+129.773+102.09C129.726+101.962+129.659+101.851+129.572+101.757C129.486+101.663+129.381+101.589+129.259+101.534C129.137+101.48+128.998+101.452+128.844+101.452C128.69+101.452+128.552+101.48+128.429+101.534C128.307+101.589+128.203+101.663+128.119+101.757C128.034+101.851+127.968+101.962+127.921+102.09C127.874+102.218+127.851+102.355+127.851+102.502C127.851+102.649+127.874+102.786+127.921+102.914C127.968+103.042+128.034+103.153+128.119+103.247C128.203+103.341+128.307+103.416+128.429+103.47C128.552+103.525+128.69+103.552+128.844+103.552C128.998+103.552+129.137+103.525+129.259+103.47C129.381+103.416+129.486+103.341+129.572+103.247C129.659+103.153+129.726+103.042+129.773+102.914C129.82+102.786+129.843+102.649+129.843+102.502ZM130.25+102.502C130.25+102.702+130.215+102.886+130.145+103.055C130.076+103.225+129.979+103.371+129.854+103.496C129.73+103.62+129.583+103.717+129.411+103.786C129.24+103.856+129.051+103.891+128.844+103.891C128.641+103.891+128.454+103.856+128.282+103.786C128.111+103.717+127.964+103.62+127.839+103.496C127.715+103.371+127.618+103.225+127.549+103.055C127.479+102.886+127.444+102.702+127.444+102.502C127.444+102.303+127.479+102.118+127.549+101.949C127.618+101.78+127.715+101.633+127.839+101.509C127.964+101.385+128.111+101.288+128.282+101.218C128.454+101.148+128.641+101.114+128.844+101.114C129.051+101.114+129.24+101.148+129.411+101.218C129.583+101.288+129.73+101.385+129.854+101.509C129.979+101.633+130.076+101.78+130.145+101.949C130.215+102.118+130.25+102.303+130.25+102.502Z" opacity="1" fill="#000000"/>
<path d="M133.19+102.502C133.19+102.355+133.167+102.218+133.12+102.09C133.073+101.962+133.006+101.851+132.919+101.757C132.833+101.663+132.728+101.589+132.606+101.534C132.484+101.48+132.346+101.452+132.191+101.452C132.037+101.452+131.899+101.48+131.776+101.534C131.654+101.589+131.551+101.663+131.466+101.757C131.381+101.851+131.315+101.962+131.268+102.09C131.221+102.218+131.198+102.355+131.198+102.502C131.198+102.649+131.221+102.786+131.268+102.914C131.315+103.042+131.381+103.153+131.466+103.247C131.551+103.341+131.654+103.416+131.776+103.47C131.899+103.525+132.037+103.552+132.191+103.552C132.346+103.552+132.484+103.525+132.606+103.47C132.728+103.416+132.833+103.341+132.919+103.247C133.006+103.153+133.073+103.042+133.12+102.914C133.167+102.786+133.19+102.649+133.19+102.502ZM133.597+102.502C133.597+102.702+133.562+102.886+133.492+103.055C133.423+103.225+133.326+103.371+133.202+103.496C133.077+103.62+132.93+103.717+132.759+103.786C132.587+103.856+132.398+103.891+132.191+103.891C131.988+103.891+131.801+103.856+131.63+103.786C131.458+103.717+131.311+103.62+131.187+103.496C131.062+103.371+130.965+103.225+130.896+103.055C130.826+102.886+130.791+102.702+130.791+102.502C130.791+102.303+130.826+102.118+130.896+101.949C130.965+101.78+131.062+101.633+131.187+101.509C131.311+101.385+131.458+101.288+131.63+101.218C131.801+101.148+131.988+101.114+132.191+101.114C132.398+101.114+132.587+101.148+132.759+101.218C132.93+101.288+133.077+101.385+133.202+101.509C133.326+101.633+133.423+101.78+133.492+101.949C133.562+102.118+133.597+102.303+133.597+102.502Z" opacity="1" fill="#000000"/>
<path d="M134.731+103.823L134.359+103.823L134.359+99.5558L134.731+99.5558L134.731+103.823Z" opacity="1" fill="#000000"/>
<path d="M136.171+100.165C136.171+100.244+136.142+100.309+136.086+100.36C136.029+100.411+135.967+100.436+135.9+100.436C135.832+100.436+135.77+100.411+135.713+100.36C135.657+100.309+135.629+100.244+135.629+100.165C135.629+100.086+135.657+100.021+135.713+99.9706C135.77+99.9198+135.832+99.8944+135.9+99.8944C135.967+99.8944+136.029+99.9198+136.086+99.9706C136.142+100.021+136.171+100.086+136.171+100.165ZM136.086+103.823L135.713+103.823L135.713+101.181L136.086+101.181L136.086+103.823Z" opacity="1" fill="#000000"/>
<path d="M137.339+101.181C137.347+101.253+137.351+101.323+137.353+101.393C137.355+101.463+137.356+101.533+137.356+101.605L137.367+101.605C137.409+101.533+137.461+101.467+137.525+101.407C137.589+101.347+137.661+101.295+137.74+101.252C137.819+101.209+137.902+101.175+137.991+101.15C138.079+101.126+138.167+101.114+138.253+101.114C138.592+101.114+138.842+101.203+139.004+101.382C139.166+101.56+139.247+101.815+139.247+102.147L139.247+103.823L138.874+103.823L138.874+102.361C138.874+102.068+138.823+101.843+138.722+101.687C138.62+101.53+138.432+101.452+138.157+101.452C138.139+101.452+138.086+101.46+137.999+101.475C137.913+101.49+137.822+101.531+137.726+101.599C137.63+101.667+137.544+101.768+137.469+101.904C137.394+102.039+137.356+102.227+137.356+102.468L137.356+103.823L136.983+103.823L136.983+101.763C136.983+101.691+136.981+101.601+136.975+101.492C136.969+101.383+136.963+101.279+136.955+101.181L137.339+101.181Z" opacity="1" fill="#000000"/>
<path d="M140.393+102.468C140.393+102.608+140.418+102.738+140.469+102.861C140.52+102.983+140.589+103.09+140.678+103.182C140.766+103.275+140.87+103.348+140.988+103.402C141.107+103.457+141.236+103.484+141.375+103.484C141.51+103.484+141.639+103.46+141.761+103.411C141.884+103.362+141.992+103.293+142.086+103.205C142.18+103.116+142.252+103.01+142.303+102.886C142.354+102.762+142.378+102.623+142.374+102.468C142.374+102.329+142.351+102.198+142.306+102.076C142.261+101.954+142.195+101.846+142.109+101.754C142.022+101.662+141.917+101.589+141.792+101.534C141.668+101.48+141.529+101.452+141.375+101.452C141.236+101.452+141.107+101.48+140.988+101.534C140.87+101.589+140.766+101.662+140.678+101.754C140.589+101.846+140.52+101.954+140.469+102.076C140.418+102.198+140.393+102.329+140.393+102.468ZM140.325+104.354C140.434+104.5+140.576+104.618+140.751+104.706C140.926+104.795+141.121+104.839+141.335+104.839C141.523+104.839+141.683+104.812+141.815+104.757C141.947+104.703+142.053+104.628+142.134+104.534C142.215+104.44+142.273+104.33+142.309+104.204C142.345+104.078+142.363+103.943+142.363+103.8L142.363+103.326L142.351+103.326C142.231+103.507+142.084+103.635+141.911+103.71C141.738+103.785+141.555+103.823+141.363+103.823C141.172+103.823+140.992+103.789+140.824+103.721C140.657+103.654+140.511+103.56+140.387+103.442C140.263+103.323+140.165+103.181+140.093+103.016C140.022+102.85+139.986+102.671+139.986+102.48C139.986+102.288+140.02+102.109+140.088+101.943C140.156+101.778+140.249+101.633+140.367+101.509C140.486+101.385+140.627+101.288+140.791+101.218C140.954+101.148+141.134+101.114+141.33+101.114C141.409+101.114+141.492+101.121+141.581+101.136C141.669+101.151+141.758+101.178+141.846+101.215C141.935+101.253+142.022+101.305+142.109+101.37C142.195+101.436+142.276+101.52+142.351+101.622L142.363+101.622L142.363+101.181L142.735+101.181L142.735+103.8C142.735+103.943+142.717+104.096+142.681+104.258C142.646+104.419+142.576+104.568+142.473+104.703C142.369+104.839+142.225+104.952+142.041+105.042C141.856+105.132+141.616+105.178+141.318+105.178C141.055+105.178+140.82+105.134+140.613+105.048C140.406+104.961+140.218+104.828+140.048+104.647L140.325+104.354Z" opacity="1" fill="#000000"/>
<path d="M145.597+103.823L145.224+103.823L145.224+99.5558L145.597+99.5558L145.597+103.823Z" opacity="1" fill="#000000"/>
<path d="M147.036+100.165C147.036+100.244+147.008+100.309+146.951+100.36C146.895+100.411+146.833+100.436+146.765+100.436C146.697+100.436+146.635+100.411+146.579+100.36C146.523+100.309+146.494+100.244+146.494+100.165C146.494+100.086+146.523+100.021+146.579+99.9706C146.635+99.9198+146.697+99.8944+146.765+99.8944C146.833+99.8944+146.895+99.9198+146.951+99.9706C147.008+100.021+147.036+100.086+147.036+100.165ZM146.951+103.823L146.579+103.823L146.579+101.181L146.951+101.181L146.951+103.823Z" opacity="1" fill="#000000"/>
<path d="M149.215+101.52L148.453+101.52L148.453+103.078C148.453+103.176+148.462+103.256+148.481+103.318C148.5+103.38+148.526+103.428+148.56+103.462C148.594+103.496+148.634+103.519+148.682+103.532C148.729+103.545+148.78+103.552+148.837+103.552C148.901+103.552+148.967+103.543+149.034+103.524C149.102+103.505+149.164+103.481+149.221+103.45L149.237+103.795C149.098+103.859+148.931+103.891+148.735+103.891C148.664+103.891+148.589+103.881+148.512+103.862C148.435+103.844+148.364+103.808+148.301+103.755C148.237+103.703+148.184+103.631+148.142+103.541C148.101+103.45+148.08+103.332+148.08+103.185L148.08+101.52L147.522+101.52L147.522+101.181L148.08+101.181L148.08+100.436L148.453+100.436L148.453+101.181L149.215+101.181L149.215+101.52Z" opacity="1" fill="#000000"/>
<path d="M149.723+99.5558L150.095+99.5558L150.095+101.605L150.107+101.605C150.148+101.533+150.201+101.467+150.265+101.407C150.329+101.347+150.4+101.295+150.479+101.252C150.558+101.209+150.642+101.175+150.73+101.15C150.819+101.126+150.906+101.114+150.993+101.114C151.332+101.114+151.582+101.203+151.744+101.382C151.905+101.56+151.986+101.815+151.986+102.147L151.986+103.823L151.614+103.823L151.614+102.361C151.614+102.068+151.563+101.843+151.461+101.687C151.36+101.53+151.172+101.452+150.897+101.452C150.878+101.452+150.825+101.46+150.739+101.475C150.652+101.49+150.561+101.531+150.465+101.599C150.369+101.667+150.284+101.768+150.208+101.904C150.133+102.039+150.095+102.227+150.095+102.468L150.095+103.823L149.723+103.823L149.723+99.5558Z" opacity="1" fill="#000000"/>
<path d="M155.125+102.502C155.125+102.355+155.101+102.218+155.054+102.09C155.007+101.962+154.94+101.851+154.854+101.757C154.767+101.663+154.663+101.589+154.54+101.534C154.418+101.48+154.28+101.452+154.126+101.452C153.971+101.452+153.833+101.48+153.711+101.534C153.588+101.589+153.485+101.663+153.4+101.757C153.316+101.851+153.25+101.962+153.203+102.09C153.156+102.218+153.132+102.355+153.132+102.502C153.132+102.649+153.156+102.786+153.203+102.914C153.25+103.042+153.316+103.153+153.4+103.247C153.485+103.341+153.588+103.416+153.711+103.47C153.833+103.525+153.971+103.552+154.126+103.552C154.28+103.552+154.418+103.525+154.54+103.47C154.663+103.416+154.767+103.341+154.854+103.247C154.94+103.153+155.007+103.042+155.054+102.914C155.101+102.786+155.125+102.649+155.125+102.502ZM155.531+102.502C155.531+102.702+155.496+102.886+155.427+103.055C155.357+103.225+155.26+103.371+155.136+103.496C155.012+103.62+154.864+103.717+154.693+103.786C154.522+103.856+154.333+103.891+154.126+103.891C153.922+103.891+153.735+103.856+153.564+103.786C153.393+103.717+153.245+103.62+153.121+103.496C152.997+103.371+152.9+103.225+152.83+103.055C152.761+102.886+152.726+102.702+152.726+102.502C152.726+102.303+152.761+102.118+152.83+101.949C152.9+101.78+152.997+101.633+153.121+101.509C153.245+101.385+153.393+101.288+153.564+101.218C153.735+101.148+153.922+101.114+154.126+101.114C154.333+101.114+154.522+101.148+154.693+101.218C154.864+101.288+155.012+101.385+155.136+101.509C155.26+101.633+155.357+101.78+155.427+101.949C155.496+102.118+155.531+102.303+155.531+102.502Z" opacity="1" fill="#000000"/>
<path d="M157.608+101.808C157.552+101.699+157.476+101.612+157.382+101.548C157.288+101.484+157.174+101.452+157.038+101.452C156.974+101.452+156.909+101.46+156.843+101.475C156.778+101.49+156.718+101.513+156.666+101.545C156.613+101.577+156.571+101.618+156.539+101.667C156.507+101.716+156.491+101.776+156.491+101.847C156.491+101.972+156.534+102.062+156.62+102.118C156.707+102.175+156.837+102.224+157.01+102.265L157.388+102.355C157.572+102.397+157.726+102.481+157.848+102.607C157.97+102.733+158.032+102.89+158.032+103.078C158.032+103.221+158.002+103.344+157.944+103.448C157.886+103.551+157.809+103.636+157.713+103.702C157.617+103.767+157.507+103.815+157.382+103.846C157.258+103.876+157.132+103.891+157.004+103.891C156.801+103.891+156.612+103.852+156.437+103.775C156.262+103.698+156.112+103.565+155.988+103.377L156.31+103.157C156.385+103.277+156.48+103.373+156.595+103.445C156.71+103.516+156.846+103.552+157.004+103.552C157.08+103.552+157.155+103.544+157.23+103.527C157.305+103.51+157.372+103.483+157.43+103.448C157.489+103.412+157.536+103.366+157.572+103.309C157.607+103.253+157.625+103.187+157.625+103.112C157.625+102.98+157.576+102.885+157.478+102.827C157.381+102.768+157.262+102.722+157.123+102.688L156.762+102.604C156.716+102.592+156.655+102.574+156.578+102.547C156.501+102.521+156.426+102.481+156.352+102.429C156.279+102.376+156.216+102.307+156.163+102.223C156.111+102.138+156.084+102.034+156.084+101.909C156.084+101.774+156.111+101.655+156.166+101.554C156.221+101.452+156.294+101.37+156.386+101.306C156.478+101.242+156.583+101.194+156.699+101.162C156.816+101.13+156.937+101.114+157.061+101.114C157.245+101.114+157.416+101.149+157.574+101.221C157.732+101.292+157.855+101.415+157.941+101.588L157.608+101.808Z" opacity="1" fill="#000000"/>
<path d="M161.023+102.502C161.023+102.355+161+102.218+160.953+102.09C160.905+101.962+160.839+101.851+160.752+101.757C160.666+101.663+160.561+101.589+160.439+101.534C160.317+101.48+160.178+101.452+160.024+101.452C159.87+101.452+159.729+101.48+159.601+101.534C159.473+101.589+159.362+101.663+159.268+101.757C159.174+101.851+159.1+101.962+159.048+102.09C158.995+102.218+158.969+102.355+158.969+102.502C158.969+102.649+158.995+102.786+159.048+102.914C159.1+103.042+159.174+103.153+159.268+103.247C159.362+103.341+159.473+103.416+159.601+103.47C159.729+103.525+159.87+103.552+160.024+103.552C160.178+103.552+160.317+103.525+160.439+103.47C160.561+103.416+160.666+103.341+160.752+103.247C160.839+103.153+160.905+103.042+160.953+102.914C161+102.786+161.023+102.649+161.023+102.502ZM158.613+101.181L158.985+101.181L158.985+101.622L158.997+101.622C159.057+101.531+159.128+101.454+159.211+101.39C159.294+101.326+159.381+101.274+159.471+101.232C159.561+101.191+159.654+101.161+159.75+101.142C159.846+101.123+159.937+101.114+160.024+101.114C160.231+101.114+160.42+101.148+160.591+101.218C160.763+101.288+160.91+101.385+161.034+101.509C161.159+101.633+161.255+101.78+161.325+101.949C161.395+102.118+161.429+102.303+161.429+102.502C161.429+102.702+161.395+102.886+161.325+103.055C161.255+103.225+161.159+103.371+161.034+103.496C160.91+103.62+160.763+103.717+160.591+103.786C160.42+103.856+160.231+103.891+160.024+103.891C159.937+103.891+159.846+103.881+159.75+103.862C159.654+103.844+159.561+103.814+159.471+103.772C159.381+103.731+159.294+103.678+159.211+103.614C159.128+103.55+159.057+103.473+158.997+103.383L158.985+103.383L158.985+105.449L158.613+105.449L158.613+101.181Z" opacity="1" fill="#000000"/>
<path d="M162.062+99.5558L162.434+99.5558L162.434+101.605L162.445+101.605C162.487+101.533+162.54+101.467+162.604+101.407C162.668+101.347+162.739+101.295+162.818+101.252C162.897+101.209+162.981+101.175+163.069+101.15C163.158+101.126+163.245+101.114+163.332+101.114C163.67+101.114+163.921+101.203+164.082+101.382C164.244+101.56+164.325+101.815+164.325+102.147L164.325+103.823L163.953+103.823L163.953+102.361C163.953+102.068+163.902+101.843+163.8+101.687C163.699+101.53+163.51+101.452+163.236+101.452C163.217+101.452+163.164+101.46+163.078+101.475C162.991+101.49+162.9+101.531+162.804+101.599C162.708+101.667+162.622+101.768+162.547+101.904C162.472+102.039+162.434+102.227+162.434+102.468L162.434+103.823L162.062+103.823L162.062+99.5558Z" opacity="1" fill="#000000"/>
<path d="M167.255+102.299C167.255+102.047+167.179+101.843+167.029+101.687C166.878+101.53+166.668+101.452+166.397+101.452C166.276+101.452+166.16+101.476+166.047+101.523C165.934+101.57+165.835+101.633+165.75+101.712C165.666+101.791+165.598+101.881+165.547+101.983C165.496+102.084+165.471+102.19+165.471+102.299L167.255+102.299ZM165.46+102.604C165.471+102.735+165.503+102.86+165.556+102.976C165.608+103.093+165.678+103.194+165.764+103.278C165.851+103.363+165.951+103.43+166.064+103.479C166.176+103.528+166.299+103.552+166.43+103.552C166.63+103.552+166.802+103.506+166.947+103.414C167.092+103.322+167.202+103.215+167.277+103.095L167.565+103.332C167.407+103.531+167.233+103.674+167.043+103.761C166.853+103.847+166.649+103.891+166.43+103.891C166.235+103.891+166.053+103.856+165.886+103.786C165.718+103.717+165.574+103.62+165.454+103.496C165.334+103.371+165.239+103.225+165.169+103.055C165.099+102.886+165.065+102.702+165.065+102.502C165.065+102.303+165.098+102.118+165.166+101.949C165.234+101.78+165.328+101.633+165.448+101.509C165.569+101.385+165.71+101.288+165.872+101.218C166.033+101.148+166.208+101.114+166.397+101.114C166.596+101.114+166.775+101.149+166.933+101.221C167.091+101.292+167.224+101.387+167.331+101.506C167.438+101.624+167.52+101.764+167.576+101.924C167.633+102.084+167.661+102.254+167.661+102.434L167.661+102.604L165.46+102.604Z" opacity="1" fill="#000000"/>
<path d="M168.378+102.005C168.378+101.889+168.375+101.77+168.369+101.65C168.364+101.529+168.359+101.373+168.355+101.181L168.722+101.181L168.722+101.672L168.733+101.672C168.76+101.601+168.797+101.532+168.846+101.466C168.895+101.401+168.954+101.341+169.024+101.289C169.094+101.236+169.175+101.194+169.267+101.162C169.359+101.13+169.463+101.114+169.58+101.114C169.685+101.114+169.778+101.125+169.857+101.147L169.783+101.514C169.734+101.496+169.663+101.486+169.569+101.486C169.426+101.486+169.303+101.513+169.202+101.568C169.1+101.623+169.016+101.692+168.948+101.777C168.88+101.862+168.83+101.953+168.798+102.051C168.766+102.148+168.75+102.243+168.75+102.333L168.75+103.823L168.378+103.823L168.378+102.005Z" opacity="1" fill="#000000"/>
<path d="M172.165+102.299C172.165+102.047+172.09+101.843+171.939+101.687C171.789+101.53+171.578+101.452+171.307+101.452C171.187+101.452+171.07+101.476+170.957+101.523C170.844+101.57+170.746+101.633+170.661+101.712C170.576+101.791+170.509+101.881+170.458+101.983C170.407+102.084+170.382+102.19+170.382+102.299L172.165+102.299ZM170.37+102.604C170.382+102.735+170.414+102.86+170.466+102.976C170.519+103.093+170.589+103.194+170.675+103.278C170.762+103.363+170.861+103.43+170.974+103.479C171.087+103.528+171.209+103.552+171.341+103.552C171.541+103.552+171.713+103.506+171.858+103.414C172.002+103.322+172.113+103.215+172.188+103.095L172.476+103.332C172.318+103.531+172.144+103.674+171.954+103.761C171.764+103.847+171.559+103.891+171.341+103.891C171.145+103.891+170.964+103.856+170.796+103.786C170.629+103.717+170.485+103.62+170.365+103.496C170.244+103.371+170.149+103.225+170.08+103.055C170.01+102.886+169.975+102.702+169.975+102.502C169.975+102.303+170.009+102.118+170.077+101.949C170.145+101.78+170.239+101.633+170.359+101.509C170.479+101.385+170.621+101.288+170.782+101.218C170.944+101.148+171.119+101.114+171.307+101.114C171.507+101.114+171.685+101.149+171.843+101.221C172.002+101.292+172.134+101.387+172.241+101.506C172.349+101.624+172.431+101.764+172.487+101.924C172.543+102.084+172.572+102.254+172.572+102.434L172.572+102.604L170.37+102.604Z" opacity="1" fill="#000000"/>
</g>
<path stroke="#000000" stroke-width="0.504935" d="M210.063+67.373L209.869+40.0683" fill="none" stroke-linecap="butt" opacity="1" stroke-linejoin="miter" stroke-dasharray=""/>
<path stroke="#000000" stroke-width="0.504935" d="M28.9197+26.141L207.757+56.9782" fill="none" stroke-linecap="butt" opacity="1" stroke-linejoin="miter" stroke-dasharray=""/>
</g>
</g>
</svg>
