<?xml version="1.0" encoding="UTF-8" standalone="no"?>
<!-- Created with Inkscape (http://www.inkscape.org/) -->

<svg
   width="297mm"
   height="210mm"
   viewBox="0 0 297 210"
   version="1.1"
   id="svg56791"
   inkscape:version="1.1 (c4e8f9ed74, 2021-05-24)"
   sodipodi:docname="Extensional_Duplex.svg"
   xmlns:inkscape="http://www.inkscape.org/namespaces/inkscape"
   xmlns:sodipodi="http://sodipodi.sourceforge.net/DTD/sodipodi-0.dtd"
   xmlns="http://www.w3.org/2000/svg"
   xmlns:svg="http://www.w3.org/2000/svg">
  <sodipodi:namedview
     id="namedview56793"
     pagecolor="#ffffff"
     bordercolor="#cccccc"
     borderopacity="1"
     inkscape:pageshadow="0"
     inkscape:pageopacity="1"
     inkscape:pagecheckerboard="0"
     inkscape:document-units="mm"
     showgrid="false"
     inkscape:zoom="0.77771465"
     inkscape:cx="405.67579"
     inkscape:cy="308.59648"
     inkscape:window-width="1920"
     inkscape:window-height="1163"
     inkscape:window-x="0"
     inkscape:window-y="0"
     inkscape:window-maximized="1"
     inkscape:current-layer="g4357"
     inkscape:snap-nodes="true" />
  <defs
     id="defs56788">
    <clipPath
       clipPathUnits="userSpaceOnUse"
       id="clipPath81923">
      <rect
         style="opacity:1;fill:#ff0000;fill-opacity:1;stroke:#000000;stroke-width:1.34611;stroke-linecap:round;stroke-miterlimit:4;stroke-dasharray:none"
         id="rect81925"
         width="225.73599"
         height="65.158966"
         x="27.457205"
         y="113.05934" />
    </clipPath>
  </defs>
  <g
     inkscape:label="Layer 1"
     inkscape:groupmode="layer"
     id="layer1"
     style="display:inline">
    <g
       id="g4357"
       transform="translate(0,9.5250005)">
      <rect
         style="fill:#a0892c;stroke:#000000;stroke-width:0.488266;stroke-linecap:round;stroke-miterlimit:4;stroke-dasharray:none"
         id="rect57133"
         width="226.25389"
         height="24.114367"
         x="28.571917"
         y="38.683949" />
      <rect
         style="fill:#ffeeaa;stroke:#000000;stroke-width:0.352949;stroke-linecap:round;stroke-miterlimit:4;stroke-dasharray:none"
         id="rect56874"
         width="226.28935"
         height="39.689896"
         x="28.498127"
         y="-0.70893711" />
      <rect
         style="fill:#806600;stroke:#000000;stroke-width:0.293416;stroke-linecap:round;stroke-miterlimit:4;stroke-dasharray:none"
         id="rect57129"
         width="226.44193"
         height="8.7010622"
         x="28.4779"
         y="33.100143" />
      <rect
         style="fill:#c8ab37;stroke:#000000;stroke-width:0.280778;stroke-linecap:round;stroke-miterlimit:4;stroke-dasharray:none"
         id="rect57135"
         width="226.46152"
         height="28.373339"
         x="28.468102"
         y="62.90213" />
      <ellipse
         style="fill:#ffffff;stroke:#000000;stroke-width:0.293576;stroke-linecap:round;stroke-miterlimit:4;stroke-dasharray:none"
         id="path57656"
         cx="121.08703"
         cy="39.193649"
         rx="1.5837319"
         ry="1.828055" />
      <ellipse
         style="fill:#ffffff;stroke:#000000;stroke-width:0.293576;stroke-linecap:round;stroke-miterlimit:4;stroke-dasharray:none"
         id="circle57854"
         cx="138.36206"
         cy="59.215672"
         rx="1.5837319"
         ry="1.828055" />
      <ellipse
         style="fill:#ffffff;stroke:#000000;stroke-width:0.293576;stroke-linecap:round;stroke-miterlimit:4;stroke-dasharray:none"
         id="circle57856"
         cx="80.20282"
         cy="68.716087"
         rx="1.5837319"
         ry="1.828055" />
      <ellipse
         style="fill:#ffffff;stroke:#000000;stroke-width:0.293576;stroke-linecap:round;stroke-miterlimit:4;stroke-dasharray:none"
         id="circle57858"
         cx="171.90349"
         cy="74.703094"
         rx="1.5837319"
         ry="1.828055" />
      <ellipse
         style="fill:#ffffff;stroke:#000000;stroke-width:0.293576;stroke-linecap:round;stroke-miterlimit:4;stroke-dasharray:none"
         id="circle57860"
         cx="157.72893"
         cy="48.823441"
         rx="1.5837319"
         ry="1.828055" />
      <path
         style="fill:none;stroke:#ff0000;stroke-width:2.365;stroke-linecap:butt;stroke-linejoin:miter;stroke-miterlimit:4;stroke-dasharray:none;stroke-opacity:1"
         d="m 73.986939,32.630932 c 11.898314,11.396727 25.856796,23.009711 43.080831,23.903995 17.39548,2.069781 36.00626,-1.997105 52.33338,5.987221 7.94318,4.643283 13.87798,12.934758 23.47124,14.469672 20.1565,5.587356 41.3052,3.587905 61.94677,4.031564"
         id="path1898"
         sodipodi:nodetypes="cccsc" />
      <rect
         style="fill:#a0892c;stroke:#000000;stroke-width:0.488266;stroke-linecap:round;stroke-miterlimit:4;stroke-dasharray:none"
         id="rect4317"
         width="226.25389"
         height="24.114367"
         x="28.571917"
         y="38.683949" />
      <rect
         style="fill:#ffeeaa;stroke:#000000;stroke-width:0.352949;stroke-linecap:round;stroke-miterlimit:4;stroke-dasharray:none"
         id="rect4319"
         width="226.28935"
         height="39.689896"
         x="28.498127"
         y="-0.70893711" />
      <rect
         style="fill:#806600;stroke:#000000;stroke-width:0.293416;stroke-linecap:round;stroke-miterlimit:4;stroke-dasharray:none"
         id="rect4321"
         width="226.44193"
         height="8.7010622"
         x="28.4779"
         y="33.100143" />
      <rect
         style="fill:#c8ab37;stroke:#000000;stroke-width:0.280778;stroke-linecap:round;stroke-miterlimit:4;stroke-dasharray:none"
         id="rect4323"
         width="226.46152"
         height="28.373339"
         x="28.468102"
         y="62.90213" />
      <path
         style="fill:none;stroke:#ff0000;stroke-width:2.365;stroke-linecap:butt;stroke-linejoin:miter;stroke-miterlimit:4;stroke-dasharray:none;stroke-opacity:1"
         d="m 73.986939,32.630932 c 11.898314,11.396727 25.856796,23.009711 43.080831,23.903995 17.39548,2.069781 36.00626,-1.997105 52.33338,5.987221 7.94318,4.643283 13.87798,12.934758 23.47124,14.469672 20.1565,5.587356 41.3052,3.587905 61.94677,4.031564"
         id="path4335"
         sodipodi:nodetypes="cccsc" />
    </g>
    <g
       id="g4399"
       transform="matrix(0.99940416,0,0,1,-0.19433738,112.17165)">
      <rect
         style="fill:#ffeeaa;stroke:#000000;stroke-width:0.352949;stroke-linecap:round;stroke-miterlimit:4;stroke-dasharray:none"
         id="rect4361"
         width="226.28935"
         height="39.689896"
         x="28.498127"
         y="-0.70893711" />
      <rect
         style="fill:#c8ab37;stroke:#000000;stroke-width:0.280778;stroke-linecap:round;stroke-miterlimit:4;stroke-dasharray:none"
         id="rect4365"
         width="226.46152"
         height="28.373339"
         x="28.468102"
         y="62.90213" />
      <ellipse
         style="fill:#ffffff;stroke:#000000;stroke-width:0.293576;stroke-linecap:round;stroke-miterlimit:4;stroke-dasharray:none"
         id="ellipse4367"
         cx="121.08703"
         cy="39.193649"
         rx="1.5837319"
         ry="1.828055" />
      <ellipse
         style="fill:#ffffff;stroke:#000000;stroke-width:0.293576;stroke-linecap:round;stroke-miterlimit:4;stroke-dasharray:none"
         id="ellipse4369"
         cx="138.36206"
         cy="59.215672"
         rx="1.5837319"
         ry="1.828055" />
      <ellipse
         style="fill:#ffffff;stroke:#000000;stroke-width:0.293576;stroke-linecap:round;stroke-miterlimit:4;stroke-dasharray:none"
         id="ellipse4371"
         cx="80.20282"
         cy="68.716087"
         rx="1.5837319"
         ry="1.828055" />
      <ellipse
         style="fill:#ffffff;stroke:#000000;stroke-width:0.293576;stroke-linecap:round;stroke-miterlimit:4;stroke-dasharray:none"
         id="ellipse4373"
         cx="171.90349"
         cy="74.703094"
         rx="1.5837319"
         ry="1.828055" />
      <ellipse
         style="fill:#ffffff;stroke:#000000;stroke-width:0.293576;stroke-linecap:round;stroke-miterlimit:4;stroke-dasharray:none"
         id="ellipse4375"
         cx="157.72893"
         cy="48.823441"
         rx="1.5837319"
         ry="1.828055" />
      <path
         style="fill:none;stroke:#ff0000;stroke-width:2.365;stroke-linecap:butt;stroke-linejoin:miter;stroke-miterlimit:4;stroke-dasharray:none;stroke-opacity:1"
         d="m 73.986939,32.630932 c 11.898314,11.396727 25.856796,23.009711 43.080831,23.903995 17.39548,2.069781 36.00626,-1.997105 52.33338,5.987221 7.94318,4.643283 13.87798,12.934758 23.47124,14.469672 20.1565,5.587356 41.3052,3.587905 61.94677,4.031564"
         id="path4377"
         sodipodi:nodetypes="cccsc" />
      <rect
         style="fill:#ffeeaa;stroke:#000000;stroke-width:0.465367;stroke-linecap:round;stroke-miterlimit:4;stroke-dasharray:none"
         id="rect4381"
         width="226.17694"
         height="69.034119"
         x="28.554337"
         y="-0.6527279" />
      <rect
         style="fill:#c8ab37;stroke:#000000;stroke-width:0.324812;stroke-linecap:round;stroke-miterlimit:4;stroke-dasharray:none"
         id="rect4385"
         width="226.46152"
         height="37.970711"
         x="28.468102"
         y="53.30476" />
      <ellipse
         style="fill:#ffffff;stroke:#000000;stroke-width:0.293576;stroke-linecap:round;stroke-miterlimit:4;stroke-dasharray:none"
         id="ellipse4389"
         cx="138.36206"
         cy="59.215672"
         rx="1.5837319"
         ry="1.828055" />
      <path
         style="fill:none;stroke:#ff0000;stroke-width:2.365;stroke-linecap:butt;stroke-linejoin:miter;stroke-miterlimit:4;stroke-dasharray:none;stroke-opacity:1"
         d="m 73.986939,32.630932 c 11.898314,11.396727 25.856796,23.009711 43.080831,23.903995 17.39548,2.069781 36.00626,-1.997105 52.33338,5.987221 7.94318,4.643283 13.87798,12.934758 23.47124,14.469672 20.1565,5.587356 41.3052,3.587905 61.94677,4.031564"
         id="path4397"
         sodipodi:nodetypes="cccsc" />
    </g>
    <text
       xml:space="preserve"
       style="font-style:normal;font-weight:normal;font-size:10.5833px;line-height:1.25;font-family:sans-serif;letter-spacing:0px;word-spacing:0px;fill:#000000;fill-opacity:1;stroke:none;stroke-width:0.264583"
       x="149.64542"
       y="202.03331"
       id="text97255"><tspan
         sodipodi:role="line"
         id="tspan97253"
         style="stroke-width:0.264583"
         x="149.64542"
         y="202.03331">Extensional duplex</tspan></text>
  </g>
  <g
     inkscape:groupmode="layer"
     id="layer2"
     inkscape:label="Layer 2"
     style="display:inline">
    <path
       style="fill:#806600;fill-opacity:1;stroke:#806600;stroke-width:0.51726;stroke-linecap:round;stroke-miterlimit:4;stroke-dasharray:none"
       d="m 33.588483,153.77214 -5.142015,-0.0327 v -4.1484 -4.14841 h 22.864429 22.864428 l 1.642835,1.54818 c 1.955843,1.84314 4.812192,4.39774 6.395252,5.71964 0.627745,0.52419 1.192776,0.9978 1.255622,1.05246 0.101227,0.088 -36.417831,0.0948 -49.880551,0.009 z"
       id="path18679" />
    <path
       style="fill:#a0892c;fill-opacity:1;stroke:#a0892c;stroke-width:0.102359;stroke-linecap:round;stroke-miterlimit:4;stroke-dasharray:none"
       d="m 114.68798,168.38006 c -6.11753,-0.64969 -12.16199,-2.62398 -18.239051,-5.95738 -1.291198,-0.70825 -3.158064,-1.82751 -3.116876,-1.8687 0.01852,-0.0185 0.379288,-0.12073 0.80169,-0.2271 2.119715,-0.53384 4.337627,-1.34497 5.839502,-2.13563 l 0.562395,-0.29607 0.83134,0.77427 c 3.91374,3.64506 8.3798,6.73036 13.25049,9.15385 1.46617,0.72951 1.46302,0.70464 0.0705,0.55676 z"
       id="path71679" />
    <path
       style="fill:#a0892c;fill-opacity:1;stroke:#a0892c;stroke-width:0.522287;stroke-linecap:round;stroke-miterlimit:4;stroke-dasharray:none"
       d="m 156.60593,170.51474 c -2.87885,-0.55087 -8.70279,-1.13574 -11.31244,-1.13604 -0.5987,-7e-5 -1.13996,-0.0509 -1.20281,-0.11301 -0.0628,-0.0621 -0.94257,-0.52236 -1.95494,-1.02284 -2.4829,-1.22746 -3.45924,-1.79003 -5.82399,-3.35585 -1.99776,-1.32282 -2.17234,-1.51637 -1.37153,-1.52064 0.67759,-0.004 3.40662,-0.62321 4.83781,-1.09838 0.80015,-0.26566 2.03952,-0.77214 2.75416,-1.12552 l 1.29935,-0.6425 1.45567,1.32752 c 3.62095,3.30219 7.48488,6.03309 11.55928,8.16974 0.86001,0.451 1.48246,0.81408 1.38323,0.80685 -0.0992,-0.007 -0.82994,-0.13742 -1.62379,-0.28933 z"
       id="path78114" />
    <path
       style="fill:#a0892c;fill-opacity:1;stroke:#a0892c;stroke-width:0.578908;stroke-linecap:round;stroke-miterlimit:4;stroke-dasharray:none"
       d="m 80.373711,174.26991 -51.966494,-0.0872 v -9.97339 -9.9734 l 27.811854,0.14659 27.811856,0.14658 3.061857,2.29331 c 7.623839,5.7102 15.098756,9.44549 22.220476,11.10382 4.43174,1.03195 11.60069,1.52761 26.42901,1.82733 15.80468,0.31944 18.90577,0.59379 25.13355,2.22353 1.70696,0.44669 4.02212,1.19626 5.1448,1.66571 l 2.04123,0.85355 -17.86082,-0.0696 c -9.82346,-0.0383 -41.24575,-0.10883 -69.827319,-0.15681 z"
       id="path54558" />
    <path
       style="fill:#806600;fill-opacity:1;stroke:#806600;stroke-width:0.347663;stroke-linecap:round;stroke-miterlimit:4;stroke-dasharray:none"
       d="m 104.3992,160.88933 c -1.89169,-1.52532 -4.34442,-3.837 -5.926624,-5.58579 l -0.480814,-0.53145 0.163912,-0.0362 c 3.219776,-0.71117 8.589156,-2.37924 10.108716,-3.14041 0.18368,-0.092 0.33823,-0.1613 0.34344,-0.15398 0.005,0.007 0.13684,0.2096 0.2925,0.4495 1.13275,1.74563 3.01618,4.04444 4.80212,5.86118 l 0.67235,0.68395 -0.5856,0.27893 c -1.70076,0.81008 -3.4445,1.42351 -5.51858,1.94136 -1.08287,0.27037 -2.96872,0.64312 -3.25372,0.64312 -0.0742,0 -0.27107,-0.13071 -0.6177,-0.41021 z"
       id="path20489" />
    <path
       style="fill:#806600;fill-opacity:1;stroke:#806600;stroke-width:0.241829;stroke-linecap:round;stroke-miterlimit:4;stroke-dasharray:none"
       d="m 92.706184,160.21769 c -0.04678,-0.0312 -0.506056,-0.33412 -1.020617,-0.6731 -2.424788,-1.5974 -5.120042,-3.60148 -7.627446,-5.67145 l -0.109876,-0.0907 0.253971,-0.0505 c 2.525982,-0.50192 8.468519,-2.41545 9.789729,-3.15233 0.122438,-0.0683 0.231108,-0.12416 0.241488,-0.12416 0.01037,0 0.166354,0.21528 0.346612,0.47841 0.689983,1.00721 1.746586,2.37514 2.577441,3.3369 0.206454,0.23898 0.375375,0.44809 0.375375,0.46469 0,0.0166 0.05528,0.0794 0.122854,0.13958 0.06757,0.0602 0.320283,0.32948 0.561581,0.59846 0.2413,0.26897 0.812519,0.86783 1.26938,1.33078 0.667584,0.67648 0.818224,0.85003 0.767354,0.88399 -0.0348,0.0232 -0.407769,0.21221 -0.828774,0.41991 -1.591948,0.7854 -3.796162,1.5547 -5.798886,2.02389 -0.682085,0.15979 -0.793515,0.17016 -0.920186,0.0856 z"
       id="path20450" />
    <path
       style="fill:#a0892c;fill-opacity:1;stroke:#a0892c;stroke-width:2.03385;stroke-linecap:round;stroke-miterlimit:4;stroke-dasharray:none"
       d="m 136.33857,169.25891 -5.59307,-0.0307 -0.78183,-0.36779 c -2.72392,-1.28138 -4.99727,-2.55961 -7.39728,-4.15923 -1.32889,-0.88571 -2.81274,-1.95914 -2.84665,-2.0593 -0.011,-0.0326 0.0464,-0.0592 0.12752,-0.0592 0.0812,0 0.46908,-0.0555 0.86202,-0.12333 3.07622,-0.53106 5.90827,-1.38894 7.93106,-2.40245 l 0.68419,-0.34281 0.2895,0.29797 c 0.51706,0.53219 2.01002,1.84414 3.0259,2.65905 2.93686,2.35585 5.71518,4.11008 9.35185,5.90476 l 1.50351,0.74198 -0.78183,-0.0141 c -0.43,-0.008 -3.2987,-0.0279 -6.37489,-0.0448 z"
       id="path77958" />
    <path
       style="fill:#a0892c;fill-opacity:1;stroke:#a0892c;stroke-width:0.287602;stroke-linecap:round;stroke-miterlimit:4;stroke-dasharray:none"
       d="m 127.49791,169.19475 c -3.88151,-0.0739 -7.87069,-0.309 -10.17368,-0.59954 -0.50388,-0.0636 -1.05469,-0.29851 -2.96702,-1.26553 -2.90994,-1.47149 -5.73375,-3.22856 -8.33329,-5.18522 l -0.73258,-0.55141 1.05982,-0.19933 c 2.68668,-0.50531 5.38351,-1.35345 7.50812,-2.36126 l 0.73496,-0.34863 0.71017,0.67144 c 3.83142,3.62255 8.21671,6.66831 13.09545,9.09532 0.89299,0.44424 1.56958,0.8032 1.50351,0.79769 -0.0661,-0.005 -1.14852,-0.0296 -2.40546,-0.0535 z"
       id="path77919" />
    <path
       style="fill:#806600;fill-opacity:1;stroke:#806600;stroke-width:0.453496;stroke-linecap:round;stroke-miterlimit:4;stroke-dasharray:none"
       d="m 118.79458,161.97243 c -1.51244,-1.21074 -2.76706,-2.33456 -4.19218,-3.75513 -0.63401,-0.63199 -1.37755,-1.39606 -1.6523,-1.69793 l -0.49955,-0.54885 0.80179,-0.18013 c 3.03065,-0.68088 7.97758,-2.23371 9.62101,-3.02001 0.45241,-0.21646 0.48801,-0.22676 0.54276,-0.15698 0.0322,0.0411 0.25366,0.34258 0.49208,0.67003 1.0867,1.4925 1.26833,1.73684 1.70711,2.29639 0.92198,1.17577 1.95114,2.35408 3.00143,3.43643 0.35896,0.36991 0.43386,0.46788 0.38371,0.50194 -0.15119,0.10269 -1.30221,0.64181 -1.80585,0.84584 -2.03887,0.82597 -4.7541,1.54049 -7.18686,1.89126 -0.25728,0.0371 -0.52572,0.0765 -0.59653,0.0876 -0.11171,0.0175 -0.19327,-0.0315 -0.61662,-0.37043 z"
       id="path20528" />
    <path
       style="fill:none;stroke:#000000;stroke-width:0.264583px;stroke-linecap:butt;stroke-linejoin:miter;stroke-opacity:1"
       d="m 83.640996,153.6935 c 3.646252,-0.69537 9.296603,-2.62136 10.274183,-3.24268 0.373761,-0.23755 0.373761,-0.23755 0.373761,-0.23755 0,0 7.03695,11.60304 22.56753,18.4933"
       id="path4434"
       sodipodi:nodetypes="cscc" />
    <path
       style="fill:none;stroke:#000000;stroke-width:0.264583px;stroke-linecap:butt;stroke-linejoin:miter;stroke-opacity:1"
       d="m 97.555452,154.69975 c 3.646248,-0.69537 9.732268,-2.64885 10.709848,-3.27017 0.37376,-0.23755 0.37376,-0.23755 0.37376,-0.23755 0,0 6.53139,11.28601 22.06197,18.17627"
       id="path4535"
       sodipodi:nodetypes="cscc" />
    <path
       style="fill:none;stroke:#000000;stroke-width:0.264583px;stroke-linecap:butt;stroke-linejoin:miter;stroke-opacity:1"
       d="m 112.21621,155.85559 c 3.64625,-0.69537 9.73227,-2.64885 10.70985,-3.27017 0.37376,-0.23755 0.37376,-0.23755 0.37376,-0.23755 0.45692,-0.32854 5.16349,10.10899 20.69407,16.99925"
       id="path4537"
       sodipodi:nodetypes="cscc" />
    <path
       style="fill:#806600;fill-opacity:1;stroke:#806600;stroke-width:0.529696;stroke-linecap:round;stroke-miterlimit:4;stroke-dasharray:none"
       d="m 157.68557,169.9614 c -2.68239,-1.39194 -3.99843,-2.18146 -6.37887,-3.82676 -2.10649,-1.45597 -2.07079,-1.39338 -0.97629,-1.71156 4.28763,-1.24645 7.23163,-1.62947 13.81907,-1.79788 6.7046,-0.1714 6.79964,-0.19567 9.19825,-2.34908 3.47281,-3.11781 5.23501,-4.39745 7.89711,-5.73456 3.35652,-1.68591 6.38408,-2.57995 13.59106,-4.01345 6.3,-1.2531 13.84635,-2.88272 19.22337,-4.15127 l 3.98195,-0.93941 h 18.17398 18.17397 v 4.16752 4.16753 h -21.97149 -21.97149 l -5.71279,1.20004 c -3.14203,0.66002 -6.53506,1.42567 -7.54008,1.70144 -8.23033,2.25837 -15.7591,6.08604 -22.40149,11.38904 -1.06991,0.85417 -2.17984,1.67606 -2.4665,1.82641 -0.38678,0.20286 -1.29831,0.30714 -3.53431,0.4043 -3.05761,0.13288 -4.80789,0.3192 -7.10803,0.75668 -0.70168,0.13346 -1.31405,0.24094 -1.36083,0.23885 -0.0468,-0.002 -1.23324,-0.59962 -2.63659,-1.32784 z"
       id="path21761" />
    <path
       style="fill:none;stroke:#000000;stroke-width:0.264583px;stroke-linecap:butt;stroke-linejoin:miter;stroke-opacity:1"
       d="m 126.6866,156.51408 c 3.64625,-0.69537 9.69488,-2.71202 10.70985,-3.27017 1.01497,-0.55815 0.52963,-0.30944 0.52963,-0.30944 0,0 6.88108,11.67493 22.41166,18.56519"
       id="path4539"
       sodipodi:nodetypes="cscc" />
    <path
       style="fill:#a0892c;fill-opacity:1;stroke:#a0892c;stroke-width:0.309562;stroke-linecap:round;stroke-miterlimit:4;stroke-dasharray:none"
       d="m 179.18591,182.0197 c -0.50594,-0.40462 -0.80654,-0.64902 -2.49407,-2.02784 -2.76188,-2.25663 -4.23821,-3.37578 -5.86644,-4.44714 -0.36591,-0.24077 -0.75833,-0.49537 -0.87203,-0.56579 l -0.20674,-0.12802 0.31574,0.0161 c 0.17365,0.009 1.19529,0.0433 2.2703,0.0766 2.04886,0.0634 2.34512,0.0848 3.51822,0.25307 3.66723,0.52618 7.23975,1.61972 10.90048,3.33661 0.99096,0.46477 2.97695,1.50033 2.97695,1.55229 0,0.0241 -0.93782,0.47638 -1.27541,0.61508 -2.19457,0.9016 -4.79385,1.4033 -8.42225,1.62561 -0.18192,0.0111 -0.33879,0.0328 -0.34859,0.0481 -0.01,0.0153 -0.23307,-0.14428 -0.49616,-0.35469 z"
       id="path78849" />
    <path
       style="fill:#a0892c;fill-opacity:1;stroke:#a0892c;stroke-width:0.328083;stroke-linecap:round;stroke-miterlimit:4;stroke-dasharray:none"
       d="m 194.58467,182.71965 c -1.33472,-0.92229 -3.39418,-2.19556 -4.88107,-3.01775 -3.74302,-2.06971 -7.25208,-3.43152 -11.11631,-4.31403 l -0.99232,-0.22663 3.30773,0.0283 c 3.48542,0.0298 5.10839,0.0892 6.49517,0.23764 3.55075,0.38014 7.22928,1.35736 10.78233,2.86437 1.39965,0.59366 5.0647,2.44011 5.0647,2.5516 0,0.0806 -1.46111,0.71548 -2.25527,0.97991 -1.2229,0.40718 -5.23579,1.39947 -5.58567,1.38119 -0.0702,-0.004 -0.4389,-0.22172 -0.81929,-0.48457 z"
       id="path78888" />
    <path
       style="fill:none;stroke:#000000;stroke-width:0.264583px;stroke-linecap:butt;stroke-linejoin:miter;stroke-opacity:1"
       d="m 169.18985,174.6938 c 19.94084,-0.6981 30.46985,14.06142 39.60509,17.48649"
       id="path4574"
       sodipodi:nodetypes="cc" />
    <path
       style="fill:#a0892c;fill-opacity:1;stroke:#a0892c;stroke-width:0.287867;stroke-linecap:round;stroke-miterlimit:4;stroke-dasharray:none"
       d="m 206.86367,182.6733 c -0.46845,-0.31425 -2.06647,-1.3098 -2.7187,-1.69371 -4.57792,-2.69463 -8.88177,-4.41717 -13.31057,-5.32732 -0.78586,-0.1615 -2.0874,-0.38022 -2.55154,-0.42879 -0.59358,-0.0621 -0.33282,-0.0904 1.09138,-0.11848 1.9194,-0.0378 3.8235,-0.0979 5.0696,-0.16007 1.66317,-0.0829 3.98574,-0.0109 5.68245,0.17621 3.70464,0.40852 7.56323,1.4761 11.29059,3.12386 1.34423,0.59425 4.16752,2.025 4.16752,2.11196 0,0.0474 -1.16785,0.60809 -1.76481,0.8473 -1.57964,0.63296 -3.59499,1.16248 -5.82336,1.53003 -0.41953,0.0692 -0.78333,0.12582 -0.80844,0.12582 -0.0251,0 -0.17097,-0.0841 -0.32412,-0.18681 z"
       id="path79044" />
    <path
       style="fill:none;stroke:#000000;stroke-width:0.264583px;stroke-linecap:butt;stroke-linejoin:miter;stroke-opacity:1"
       d="m 182.17583,175.08052 c 19.94084,-0.6981 31.17979,14.59887 40.31503,18.02394"
       id="path4785"
       sodipodi:nodetypes="cc" />
    <path
       style="fill:#a0892c;fill-opacity:1;stroke:#a0892c;stroke-width:0.270933;stroke-linecap:round;stroke-miterlimit:4;stroke-dasharray:none"
       d="m 219.75181,182.52139 c -0.0515,-0.0501 -1.51955,-0.97689 -2.18705,-1.3807 -5.18753,-3.13828 -9.97789,-5.04428 -14.97719,-5.95916 -0.35853,-0.0656 -0.72639,-0.12805 -0.81746,-0.13875 -0.0911,-0.0107 -0.16123,-0.0238 -0.15591,-0.0292 0.005,-0.005 0.86833,0.01 1.91776,0.033 4.39988,0.0983 6.1496,0.11626 7.31115,0.0749 3.18051,-0.11334 6.18322,0.15705 9.2261,0.83079 2.59825,0.57529 5.16591,1.43651 7.83331,2.62737 0.72738,0.32474 2.39452,1.1516 2.36843,1.17468 -0.028,0.0248 -1.40841,0.54913 -2.17298,0.82543 -2.90236,1.04887 -5.35451,1.63068 -7.92342,1.87994 -0.19841,0.0193 -0.36831,0.0472 -0.37755,0.0622 -0.01,0.0161 -0.0284,0.0159 -0.0452,-5.3e-4 z"
       id="path79280" />
    <path
       style="fill:#a0892c;fill-opacity:1;stroke:#a0892c;stroke-width:0.395552;stroke-linecap:round;stroke-miterlimit:4;stroke-dasharray:none"
       d="m 229.7368,179.09481 c -2.31994,-1.20807 -5.44733,-2.39732 -8.158,-3.10224 -3.72361,-0.96834 -5.98406,-1.21288 -11.14711,-1.20594 -2.01771,0.003 -6.05013,-0.052 -8.96093,-0.12165 -3.93513,-0.0941 -6.24861,-0.0899 -9.02108,0.0164 -5.49438,0.2107 -14.18369,0.18399 -18.62195,-0.0572 -2.0389,-0.11082 -3.8792,-0.1696 -4.08955,-0.13061 -0.29618,0.0549 -0.64023,-0.0496 -1.52513,-0.46326 -1.43794,-0.67214 -4.03325,-1.64639 -5.56224,-2.088 -0.64458,-0.18617 -1.17232,-0.37264 -1.17274,-0.41437 -7.9e-4,-0.0742 1.62551,-0.34572 3.54753,-0.59234 0.52924,-0.0679 2.20716,-0.16943 3.72871,-0.22562 3.29572,-0.12169 3.56423,-0.19582 5.14156,-1.41948 0.57709,-0.44769 1.68606,-1.30648 2.46439,-1.90841 4.55618,-3.5236 10.16408,-6.59288 15.98685,-8.7498 3.02853,-1.12186 6.04721,-1.9159 12.13067,-3.19087 l 5.77349,-1.21 22.10241,-0.0342 22.10241,-0.0342 -0.0308,9.0158 -0.0308,9.0158 -0.54127,0.16145 c -1.12499,0.33558 -3.90786,0.87374 -7.277,1.40726 -6.19637,0.98121 -9.17114,1.69304 -11.69868,2.79937 -1.43629,0.62868 -3.08707,1.68043 -3.81192,2.42867 -0.2615,0.26995 -0.50507,0.48821 -0.54126,0.48503 -0.0362,-0.003 -0.39056,-0.1749 -0.78749,-0.38159 z"
       id="path78693" />
    <path
       style="fill:none;stroke:#000000;stroke-width:0.264583px;stroke-linecap:butt;stroke-linejoin:miter;stroke-opacity:1"
       d="m 194.86812,174.77254 c 19.94084,-0.6981 31.70919,14.97686 40.84443,18.40193"
       id="path4905"
       sodipodi:nodetypes="cc" />
    <path
       style="fill:none;stroke:#000000;stroke-width:0.264583px;stroke-linecap:butt;stroke-linejoin:miter;stroke-opacity:1"
       d="m 210.91296,174.96922 c 19.94084,-0.6981 31.64024,14.73836 40.77548,18.16343"
       id="path4907"
       sodipodi:nodetypes="cc" />
    <path
       style="fill:none;stroke:#000000;stroke-width:0.264583px;stroke-linecap:butt;stroke-linejoin:miter;stroke-opacity:1"
       d="m 148.91961,164.633 c 12.77899,-4.1735 19.71036,-0.53406 23.30844,-3.62715 3.59808,-3.09309 7.07257,-7.76361 20.27948,-10.24738 13.20691,-2.48377 25.41712,-5.51971 25.41712,-5.51971 3.54524,0.0874 36.69177,0 36.69177,0"
       id="path4942"
       sodipodi:nodetypes="csscc" />
    <path
       style="fill:none;stroke:#000000;stroke-width:0.264583px;stroke-linecap:butt;stroke-linejoin:miter;stroke-opacity:1"
       d="m 160.33774,171.49966 c 10.80046,-2.15433 10.33583,0.37409 13.93391,-2.719 3.59808,-3.09309 13.01241,-9.92221 26.16409,-12.68354 9.94987,-2.08908 9.94987,-2.08908 9.94987,-2.08908 5.03841,-0.0143 44.32292,-0.0352 44.32292,-0.0352"
       id="path6361"
       sodipodi:nodetypes="csscc" />
    <path
       style="display:inline;fill:none;stroke:#000000;stroke-width:0.264583px;stroke-linecap:butt;stroke-linejoin:miter;stroke-opacity:1"
       d="M 84.111665,154.06997 28.2666,153.97287 v -8.71873"
       id="path7426"
       sodipodi:nodetypes="cc" />
    <path
       style="display:inline;fill:none;stroke:#000000;stroke-width:0.264583px;stroke-linecap:butt;stroke-linejoin:miter;stroke-opacity:1"
       d="m 74.214346,145.25201 -45.947747,0.002"
       id="path7636" />
    <path
       style="fill:none;stroke:#000000;stroke-width:0.264583px;stroke-linecap:butt;stroke-linejoin:miter;stroke-opacity:1"
       d="M 169.18985,174.6938 28.290267,174.51502"
       id="path7753"
       sodipodi:nodetypes="cc" />
    <path
       style="display:inline;fill:none;stroke:#000000;stroke-width:0.264583px;stroke-linecap:butt;stroke-linejoin:miter;stroke-opacity:1"
       d="m 92.84506,160.45966 c 2.537761,-0.50829 5.676735,-1.57308 7.65762,-2.74325"
       id="path5269"
       sodipodi:nodetypes="cc" />
    <path
       style="display:inline;fill:none;stroke:#000000;stroke-width:0.264583px;stroke-linecap:butt;stroke-linejoin:miter;stroke-opacity:1"
       d="m 104.9252,161.47778 c 3.78807,-0.55913 7.2662,-1.69539 9.76681,-3.04258"
       id="path5479"
       sodipodi:nodetypes="cc" />
    <path
       style="display:inline;fill:none;stroke:#000000;stroke-width:0.264583px;stroke-linecap:butt;stroke-linejoin:miter;stroke-opacity:1"
       d="m 119.23433,162.51722 c 3.40397,-0.42499 7.39983,-1.45438 10.16341,-3.03984"
       id="path5571"
       sodipodi:nodetypes="cc" />
    <path
       style="display:inline;fill:none;stroke:#000000;stroke-width:0.264583px;stroke-linecap:butt;stroke-linejoin:miter;stroke-opacity:1"
       d="m 133.61885,163.33257 c 4.10102,-0.33185 7.38279,-1.45936 10.1809,-3.05659"
       id="path6264"
       sodipodi:nodetypes="cc" />
    <path
       style="fill:none;stroke:#000000;stroke-width:0.264583px;stroke-linecap:butt;stroke-linejoin:miter;stroke-opacity:1"
       d="m 169.18985,174.6938 c 0,0 11.11342,0.37207 12.98598,0.38672 1.87256,0.0146 11.38619,-0.19937 12.69229,-0.30798 1.30609,-0.10861 14.55701,0.34615 16.04484,0.19668 1.48782,-0.14947 0,0 0,0"
       id="path8537" />
    <path
       style="fill:none;stroke:#000000;stroke-width:0.264583px;stroke-linecap:butt;stroke-linejoin:miter;stroke-opacity:1"
       d="m 179.71046,182.48968 c 3.95611,-0.19802 7.59741,-0.81106 10.45012,-2.46365"
       id="path8705"
       sodipodi:nodetypes="cc" />
    <path
       style="fill:none;stroke:#000000;stroke-width:0.264583px;stroke-linecap:butt;stroke-linejoin:miter;stroke-opacity:1"
       d="m 195.39328,183.40612 c 3.67198,-0.82769 6.22463,-1.3691 8.06352,-2.48362"
       id="path8835"
       sodipodi:nodetypes="cc" />
    <path
       style="fill:none;stroke:#000000;stroke-width:0.264583px;stroke-linecap:butt;stroke-linejoin:miter;stroke-opacity:1"
       d="m 207.15498,183.0199 c 3.51397,-0.50509 6.53568,-1.34217 8.80612,-2.68588"
       id="path8965"
       sodipodi:nodetypes="cc" />
    <path
       style="fill:none;stroke:#000000;stroke-width:0.264583px;stroke-linecap:butt;stroke-linejoin:miter;stroke-opacity:1"
       d="m 219.81033,182.63792 c 4.36394,-0.36273 7.52358,-1.58663 10.68833,-2.80688"
       id="path9057"
       sodipodi:nodetypes="cc" />
    <path
       style="fill:none;stroke:#000000;stroke-width:0.265847px;stroke-linecap:butt;stroke-linejoin:miter;stroke-opacity:1"
       d="m 28.266599,153.97287 v 20.67964"
       id="path9149" />
    <path
       style="fill:none;stroke:#000000;stroke-width:0.264583px;stroke-linecap:butt;stroke-linejoin:miter;stroke-opacity:1"
       d="m 254.61642,145.23876 -0.009,47.95627"
       id="path9473" />
    <path
       style="fill:#806600;fill-opacity:1;stroke:#806600;stroke-width:0.0364445;stroke-linecap:round;stroke-miterlimit:4;stroke-dasharray:none"
       d="m 133.60535,163.05815 c -2.05361,-1.62928 -2.85042,-2.33127 -4.35994,-3.84113 -0.86903,-0.86922 -1.34989,-1.38152 -2.04686,-2.18069 l -0.35233,-0.40399 0.13166,-0.0284 c 2.47047,-0.53317 5.27129,-1.32832 8.04145,-2.28294 1.33654,-0.46059 2.1369,-0.77978 2.59092,-1.0333 l 0.26776,-0.14952 0.30759,0.46496 c 1.17741,1.77976 2.86177,3.8613 4.6122,5.69976 0.20087,0.21097 0.4741,0.4981 0.60718,0.63807 0.13308,0.13997 0.23833,0.25786 0.23389,0.26198 -0.0344,0.0319 -0.90284,0.48709 -1.26258,0.66174 -2.52375,1.22521 -5.16544,1.95841 -8.1938,2.27417 -0.42883,0.0447 -0.417,0.0464 -0.57714,-0.0807 z"
       id="path21722" />
    <path
       style="fill:none;stroke:#000000;stroke-width:0.264583px;stroke-linecap:butt;stroke-linejoin:miter;stroke-opacity:1"
       d="m 230.49866,179.83104 c 4.85412,-5.78005 17.78529,-5.35346 24.02354,-7.48424"
       id="path78346"
       sodipodi:nodetypes="cc" />
    <path
       style="display:inline;fill:none;stroke:#000000;stroke-width:0.264583;stroke-linecap:butt;stroke-linejoin:miter;stroke-miterlimit:4;stroke-dasharray:none;stroke-opacity:1"
       d="m 74.214346,145.25201 c 11.898314,11.39672 25.418089,22.56028 42.642124,23.45456 17.39548,2.06978 36.00626,-1.9971 52.33338,5.98722 7.94318,4.64329 13.87798,12.93476 23.47124,14.46968 20.1565,5.58735 41.3052,3.5879 61.94677,4.03156"
       id="path5161"
       sodipodi:nodetypes="cccsc" />
    <path
       style="display:inline;fill:none;stroke:#000000;stroke-width:0.264583;stroke-linecap:butt;stroke-linejoin:miter;stroke-miterlimit:4;stroke-dasharray:none;stroke-opacity:1"
       d="m 74.214346,145.25201 c 11.898314,11.39672 25.418089,22.56028 42.642124,23.45456 17.39548,2.06978 36.00626,-1.9971 52.33338,5.98722 7.94318,4.64329 13.87798,12.93476 23.47124,14.46968 20.1565,5.58735 41.3052,3.5879 61.94677,4.03156"
       id="path80437"
       sodipodi:nodetypes="cccsc" />
    <path
       style="fill:none;stroke:#00ff00;stroke-width:1.905;stroke-linecap:round;stroke-linejoin:miter;stroke-miterlimit:4;stroke-dasharray:none;stroke-opacity:1"
       d="m 169.18985,174.6938 c 0,0 11.11342,0.37207 12.98598,0.38672 1.87256,0.0146 11.38619,-0.19937 12.69229,-0.30798 1.30609,-0.10861 14.55701,0.34615 16.04484,0.19668 1.48782,-0.14947 0,0 0,0 19.94084,-0.6981 31.64024,14.73836 40.77548,18.16343"
       id="path80892"
       sodipodi:nodetypes="ccsscc" />
    <path
       style="display:inline;fill:none;stroke:#000000;stroke-width:0.264583;stroke-linecap:butt;stroke-linejoin:miter;stroke-miterlimit:4;stroke-dasharray:none;stroke-opacity:1"
       d="m 74.214346,145.25201 c 11.898314,11.39672 25.418089,22.56028 42.642124,23.45456 17.39548,2.06978 36.00626,-1.9971 52.33338,5.98722 7.94318,4.64329 13.87798,12.93476 23.47124,14.46968 20.1565,5.58735 41.3052,3.5879 61.94677,4.03156"
       id="path80441"
       sodipodi:nodetypes="cccsc" />
    <path
       style="display:inline;fill:none;stroke:#ff0000;stroke-width:2.3643;stroke-linecap:butt;stroke-linejoin:miter;stroke-miterlimit:4;stroke-dasharray:none;stroke-opacity:1"
       d="m 169.10588,174.69379 c 7.93845,4.64329 13.86971,12.93476 23.45725,14.46968 20.14449,5.58735 41.28059,3.5879 61.90986,4.03156"
       id="path80581" />
    <path
       style="display:inline;fill:none;stroke:#000000;stroke-width:2.3643;stroke-linecap:butt;stroke-linejoin:miter;stroke-miterlimit:4;stroke-dasharray:none;stroke-opacity:1"
       d="m 73.748518,144.80258 c 11.891225,11.39673 25.84139,23.00971 43.055162,23.90399 17.38512,2.06978 35.98481,-1.9971 52.3022,5.98722"
       id="path80443" />
    <text
       xml:space="preserve"
       style="font-style:normal;font-weight:normal;font-size:10.5833px;line-height:1.25;font-family:sans-serif;letter-spacing:0px;word-spacing:0px;fill:#000000;fill-opacity:1;stroke:none;stroke-width:0.264583"
       x="90.20713"
       y="148.17841"
       id="text83653"><tspan
         sodipodi:role="line"
         id="tspan83651"
         style="stroke-width:0.264583"
         x="90.20713"
         y="148.17841">4</tspan></text>
    <text
       xml:space="preserve"
       style="font-style:normal;font-weight:normal;font-size:10.5833px;line-height:1.25;font-family:sans-serif;letter-spacing:0px;word-spacing:0px;fill:#000000;fill-opacity:1;stroke:none;stroke-width:0.264583"
       x="105.41475"
       y="148.90665"
       id="text85057"><tspan
         sodipodi:role="line"
         id="tspan85055"
         style="stroke-width:0.264583"
         x="105.41475"
         y="148.90665">3</tspan></text>
    <text
       xml:space="preserve"
       style="font-style:normal;font-weight:normal;font-size:10.5833px;line-height:1.25;font-family:sans-serif;letter-spacing:0px;word-spacing:0px;fill:#000000;fill-opacity:1;stroke:none;stroke-width:0.264583"
       x="120.0436"
       y="150.24156"
       id="text87855"><tspan
         sodipodi:role="line"
         id="tspan87853"
         style="stroke-width:0.264583"
         x="120.0436"
         y="150.24156">2</tspan></text>
    <text
       xml:space="preserve"
       style="font-style:normal;font-weight:normal;font-size:10.5833px;line-height:1.25;font-family:sans-serif;letter-spacing:0px;word-spacing:0px;fill:#000000;fill-opacity:1;stroke:none;stroke-width:0.264583"
       x="134.41467"
       y="151.42232"
       id="text92571"><tspan
         sodipodi:role="line"
         id="tspan92569"
         style="stroke-width:0.264583"
         x="134.41467"
         y="151.42232">1</tspan></text>
    <text
       xml:space="preserve"
       style="font-style:normal;font-weight:normal;font-size:10.5833px;line-height:1.25;font-family:sans-serif;letter-spacing:0px;word-spacing:0px;fill:#000000;fill-opacity:1;stroke:none;stroke-width:0.264583"
       x="174.42677"
       y="170.71507"
       id="text95087"><tspan
         sodipodi:role="line"
         id="tspan95085"
         style="stroke-width:0.264583"
         x="174.42677"
         y="170.71507">4</tspan></text>
    <text
       xml:space="preserve"
       style="font-style:normal;font-weight:normal;font-size:10.5833px;line-height:1.25;font-family:sans-serif;letter-spacing:0px;word-spacing:0px;fill:#000000;fill-opacity:1;stroke:none;stroke-width:0.264583"
       x="189.63438"
       y="171.44331"
       id="text95091"><tspan
         sodipodi:role="line"
         id="tspan95089"
         style="stroke-width:0.264583"
         x="189.63438"
         y="171.44331">3</tspan></text>
    <text
       xml:space="preserve"
       style="font-style:normal;font-weight:normal;font-size:10.5833px;line-height:1.25;font-family:sans-serif;letter-spacing:0px;word-spacing:0px;fill:#000000;fill-opacity:1;stroke:none;stroke-width:0.264583"
       x="204.26324"
       y="172.77823"
       id="text95095"><tspan
         sodipodi:role="line"
         id="tspan95093"
         style="stroke-width:0.264583"
         x="204.26324"
         y="172.77823">2</tspan></text>
    <text
       xml:space="preserve"
       style="font-style:normal;font-weight:normal;font-size:10.5833px;line-height:1.25;font-family:sans-serif;letter-spacing:0px;word-spacing:0px;fill:#000000;fill-opacity:1;stroke:none;stroke-width:0.264583"
       x="218.63431"
       y="173.95898"
       id="text95099"><tspan
         sodipodi:role="line"
         id="tspan95097"
         style="stroke-width:0.264583"
         x="218.63431"
         y="173.95898">1</tspan></text>
    <text
       xml:space="preserve"
       style="display:inline;font-style:normal;font-weight:normal;font-size:10.5833px;line-height:1.25;font-family:sans-serif;letter-spacing:0px;word-spacing:0px;fill:#000000;fill-opacity:1;stroke:none;stroke-width:0.264583"
       x="116.1153"
       y="186.90742"
       id="text98077"><tspan
         sodipodi:role="line"
         id="tspan98075"
         style="fill:#ff0000;stroke-width:0.264583"
         x="116.1153"
         y="186.90742">floor fault</tspan></text>
    <text
       xml:space="preserve"
       style="display:inline;font-style:normal;font-weight:normal;font-size:10.5833px;line-height:1.25;font-family:sans-serif;letter-spacing:0px;word-spacing:0px;fill:#000000;fill-opacity:1;stroke:none;stroke-width:0.264583"
       x="43.155685"
       y="133.50435"
       id="text96291"><tspan
         sodipodi:role="line"
         id="tspan96289"
         style="stroke-width:0.264583"
         x="43.155685"
         y="133.50435">Listric fan</tspan></text>
    <text
       xml:space="preserve"
       style="font-style:normal;font-weight:normal;font-size:10.5833px;line-height:1.25;font-family:sans-serif;letter-spacing:0px;word-spacing:0px;display:inline;fill:#000000;fill-opacity:1;stroke:none;stroke-width:0.264583"
       x="199.07512"
       y="158.72346"
       id="text106419"><tspan
         sodipodi:role="line"
         id="tspan106417"
         style="fill:#00ff00;stroke-width:0.264583"
         x="199.07512"
         y="158.72346">roof fault</tspan></text>
  </g>
  <g
     inkscape:groupmode="layer"
     id="layer3"
     inkscape:label="Layer 3"
     style="display:inline" />
</svg>
